<?xml version="1.0" encoding="utf-8" ?><svg xmlns="http://www.w3.org/2000/svg" xmlns:xlink="http://www.w3.org/1999/xlink" width="1365" height="1024" viewBox="0 0 1365 1024"><path fill="white" d="M0 0L1365 0L1365 1024L0 1024L0 0Z"/><path fill="white" d="M383.89 201.168C444.72 73.7169 564.894 31.2064 692.801 90.9521C807.365 144.466 858.576 271.832 984.749 302.403C991.478 304.034 1004.76 304.215 1009.81 306.495L1013.35 305.753C1031.31 305.971 1050.21 306.195 1068.14 305.525L1073.64 308.108C1095.22 306.703 1114.93 311.448 1135.45 315.963C1141.29 295.964 1150.42 282.459 1168.89 272.219C1202.56 253.555 1245.54 266.309 1263.31 300.589C1282.36 337.33 1269.52 366.722 1248.51 397.859C1254.59 409.065 1260.46 417.796 1265.72 429.586C1294.46 494.934 1299.02 568.378 1278.59 636.782C1272.85 656.223 1267.89 668.962 1260.19 687.849C1265.44 706.125 1263.84 719.384 1254.52 736.239C1241.73 759.389 1226.69 777.216 1209.29 796.736C1203.69 803.873 1196.6 811.165 1190.64 818.117C1177.19 833.81 1164.69 847.236 1149.24 861.014C1151.84 861.054 1154.93 860.651 1156.87 861.78C1216.36 864.585 1264.74 903.111 1276.78 962.222C1290.48 962.002 1305.39 961.333 1319.06 962.177C1324 962.482 1327.09 969.69 1323.48 973.23C1320.37 976.228 1314.37 975.987 1310.35 975.989C1285.89 975.635 1261.39 975.891 1236.92 975.787L1002.91 975.896L409.094 975.91L164.938 975.988L85.8084 976.035C72.0879 976.056 58.1254 976.18 44.3944 975.955C41.6626 975.91 38.2328 975.53 36.323 973.413C35.0058 971.939 34.3557 969.986 34.5265 968.016C34.7713 965.171 37.3368 961.892 40.3038 961.822C47.9223 961.642 55.631 961.799 63.2558 961.777C80.6869 961.658 98.1185 961.648 115.55 961.747C115.091 957.613 115.308 949.919 115.303 945.514C93.9783 945.189 97.992 923.818 97.9763 908.554L97.963 865.334C97.4553 863.291 83.2847 846.008 80.9541 842.424C13.6608 738.946 38.1321 603.938 125.65 520.47C136.932 509.71 146.706 499.984 159.867 491.083C160.758 480.011 157.688 462.623 170.769 458.462C172.661 458.038 174.325 457.889 175.742 456.614C180.876 446.058 167.646 433.429 189.569 433.496C198.3 433.693 207.034 433.706 215.765 433.537C236.019 434.649 223.217 446.459 227.634 457.232L228.495 457.839L233.364 458.084C237.186 455.835 241.571 453.764 245.538 451.686C284.183 431.449 325.567 405.297 353.75 371.293C336.469 347.916 315.126 321.024 311.72 291.539C309.235 269.802 315.537 247.973 329.226 230.907C342.784 214.136 362.447 203.439 383.89 201.168Z"/><path fill="#FFFEFE" d="M1135.45 315.963C1141.29 295.964 1150.42 282.459 1168.89 272.219C1202.56 253.555 1245.54 266.309 1263.31 300.589C1282.36 337.33 1269.52 366.722 1248.51 397.859C1254.59 409.065 1260.46 417.796 1265.72 429.586C1294.46 494.934 1299.02 568.378 1278.59 636.782C1272.85 656.223 1267.89 668.962 1260.19 687.849C1265.44 706.125 1263.84 719.384 1254.52 736.239C1241.73 759.389 1226.69 777.216 1209.29 796.736C1203.69 803.873 1196.6 811.165 1190.64 818.117C1177.19 833.81 1164.69 847.236 1149.24 861.014C1151.84 861.054 1154.93 860.651 1156.87 861.78C1216.36 864.585 1264.74 903.111 1276.78 962.222C1290.48 962.002 1305.39 961.333 1319.06 962.177C1324 962.482 1327.09 969.69 1323.48 973.23C1320.37 976.228 1314.37 975.987 1310.35 975.989C1285.89 975.635 1261.39 975.891 1236.92 975.787L1002.91 975.896L409.094 975.91L164.938 975.988L85.8084 976.035C72.0879 976.056 58.1254 976.18 44.3944 975.955C41.6626 975.91 38.2328 975.53 36.323 973.413C35.0058 971.939 34.3557 969.986 34.5265 968.016C34.7713 965.171 37.3368 961.892 40.3038 961.822C47.9223 961.642 55.631 961.799 63.2558 961.777C80.6869 961.658 98.1185 961.648 115.55 961.747C115.954 956.299 115.826 950.94 115.782 945.481L135.444 945.457C135.456 949.649 135.274 958.229 135.678 962.031C156.313 961.8 176.951 961.788 197.587 961.998C198.018 958.24 197.754 949.904 197.74 945.807C203.698 945.834 210.729 945.681 216.579 946.226C216.645 951.465 216.68 956.703 216.681 961.942C228.444 961.89 247.122 961.418 258.372 962.429C257.865 957.793 257.987 950.76 257.928 945.937C261.791 945.737 275.306 944.772 278.012 946.751L278.259 948.529C277.966 953.308 277.859 957.142 277.913 961.928L346.259 961.639C346.669 957.629 346.394 950.25 346.36 945.985C352.136 945.951 360.505 945.697 366 946.254C373.098 947.492 382.692 943.624 383.31 935.852C384.42 921.886 383.988 907.025 383.987 893.012C384.13 861.574 383.948 830.136 383.443 798.703C383.452 791.467 383.757 777.884 382.034 771.072L381.815 770.238L383.02 769.641C409.38 768.804 434.163 767.524 460.295 763.041C472.163 761.005 486.734 753.706 496.796 753.505C514.612 753.15 533.313 753.324 551.183 753.346L655.951 753.491L810.55 753.437L867.765 753.34C876.258 753.355 893.891 752.895 901.54 753.795C916.493 755.556 929.433 759.02 945.255 760.334C949.399 761.514 985.391 763.724 990.927 764.096L991.49 756.162C990.003 748.962 991.859 727.683 992.349 719.257L995.434 663.072L1001.46 543.832C1002.85 512.278 1003.86 474.709 1006.55 443.627C1010.08 443.751 1011.95 443.384 1014.76 445.233C1022.42 445.182 1064.41 444.108 1068.68 445.409L1068.68 443.929C1068.16 437.41 1068.41 428.461 1068.43 421.748C1073.17 421.838 1076.68 421.843 1081.4 421.512C1103.4 421.247 1107.55 403.423 1106.35 385.375C1104.79 362.094 1111.99 340.037 1081.28 335.774C1081.34 324.328 1083.17 316.082 1073.64 308.108C1095.22 306.703 1114.93 311.448 1135.45 315.963Z"/><path fill="white" d="M1135.45 315.963C1141.29 295.964 1150.42 282.459 1168.89 272.219C1202.56 253.555 1245.54 266.309 1263.31 300.589C1282.36 337.33 1269.52 366.722 1248.51 397.859C1254.59 409.065 1260.46 417.796 1265.72 429.586C1294.46 494.934 1299.02 568.378 1278.59 636.782C1272.85 656.223 1267.89 668.962 1260.19 687.849C1265.44 706.125 1263.84 719.384 1254.52 736.239C1241.73 759.389 1226.69 777.216 1209.29 796.736C1203.69 803.873 1196.6 811.165 1190.64 818.117C1177.19 833.81 1164.69 847.236 1149.24 861.014C1151.84 861.054 1154.93 860.651 1156.87 861.78C1139.62 862.098 1132.56 862.874 1115.89 867.379L1115.85 862.32C1115.63 844.838 1110.16 835.038 1091.19 835.352C1090.04 801.499 1078.06 449.419 1075.49 444.572C1073.52 443.299 1071.17 443.793 1068.68 443.929C1068.16 437.41 1068.41 428.461 1068.43 421.748C1073.17 421.838 1076.68 421.843 1081.4 421.512C1103.4 421.247 1107.55 403.423 1106.35 385.375C1104.79 362.094 1111.99 340.037 1081.28 335.774C1081.34 324.328 1083.17 316.082 1073.64 308.108C1095.22 306.703 1114.93 311.448 1135.45 315.963Z"/><path fill="#FCD34D" d="M1135.45 315.963C1141.29 295.964 1150.42 282.459 1168.89 272.219C1202.56 253.555 1245.54 266.309 1263.31 300.589C1282.36 337.33 1269.52 366.722 1248.51 397.859C1233.64 417.66 1217.08 435.3 1202.69 454.056C1185.36 433.718 1166.06 411.152 1151.41 388.889C1135.93 365.368 1129.31 344.216 1135.45 315.963Z"/><path fill="#FFFEFE" d="M1198.02 297.856C1219.83 295.27 1239.6 310.874 1242.16 332.693C1244.72 354.513 1229.1 374.273 1207.29 376.81C1185.5 379.343 1165.79 363.748 1163.23 341.962C1160.67 320.177 1176.24 300.438 1198.02 297.856Z"/><path fill="#F87171" d="M1200.06 301.207C1220 299.787 1237.31 314.78 1238.77 334.715C1240.22 354.651 1225.26 371.998 1205.33 373.486C1185.36 374.977 1167.96 359.969 1166.51 339.987C1165.05 320.004 1180.08 302.631 1200.06 301.207Z"/><path fill="#7C96F6" d="M1209.29 796.736C1190.12 779.51 1171.95 756.191 1161.57 732.142C1148.67 702.871 1160.02 668.172 1190.75 656.264C1217.94 645.733 1250.35 660.583 1260.19 687.849C1265.44 706.125 1263.84 719.384 1254.52 736.239C1241.73 759.389 1226.69 777.216 1209.29 796.736Z"/><path fill="#FFFEFE" d="M1206 677.34C1222.58 675.498 1237.55 687.349 1239.57 703.91C1241.59 720.472 1229.9 735.571 1213.36 737.765C1202.51 739.204 1191.72 734.701 1185.11 725.972C1178.5 717.244 1177.08 705.635 1181.4 695.573C1185.73 685.512 1195.12 678.549 1206 677.34Z"/><defs><linearGradient id="gradient_0" gradientUnits="userSpaceOnUse" x1="680.51562" y1="1000.499" x2="658.16718" y2="461.7478"><stop offset="0" stop-color="#332E3E"/><stop offset="1" stop-color="#484A5A"/></linearGradient></defs><path fill="url(#gradient_0)" d="M1006.55 443.627C1010.08 443.751 1011.95 443.384 1014.76 445.233C1022.42 445.182 1064.41 444.108 1068.68 445.409L1068.68 443.929C1071.17 443.793 1073.52 443.299 1075.49 444.572C1078.06 449.419 1090.04 801.499 1091.19 835.352C1110.16 835.038 1115.63 844.838 1115.85 862.32L1115.89 867.379C1132.56 862.874 1139.62 862.098 1156.87 861.78C1216.36 864.585 1264.74 903.111 1276.78 962.222C1290.48 962.002 1305.39 961.333 1319.06 962.177C1324 962.482 1327.09 969.69 1323.48 973.23C1320.37 976.228 1314.37 975.987 1310.35 975.989C1285.89 975.635 1261.39 975.891 1236.92 975.787L1002.91 975.896L409.094 975.91L164.938 975.988L85.8084 976.035C72.0879 976.056 58.1254 976.18 44.3944 975.955C41.6626 975.91 38.2328 975.53 36.323 973.413C35.0058 971.939 34.3557 969.986 34.5265 968.016C34.7713 965.171 37.3368 961.892 40.3038 961.822C47.9223 961.642 55.631 961.799 63.2558 961.777C80.6869 961.658 98.1185 961.648 115.55 961.747C115.954 956.299 115.826 950.94 115.782 945.481L135.444 945.457C135.456 949.649 135.274 958.229 135.678 962.031C156.313 961.8 176.951 961.788 197.587 961.998C198.018 958.24 197.754 949.904 197.74 945.807C203.698 945.834 210.729 945.681 216.579 946.226C216.645 951.465 216.68 956.703 216.681 961.942C228.444 961.89 247.122 961.418 258.372 962.429C257.865 957.793 257.987 950.76 257.928 945.937C261.791 945.737 275.306 944.772 278.012 946.751L278.259 948.529C277.966 953.308 277.859 957.142 277.913 961.928L346.259 961.639C346.669 957.629 346.394 950.25 346.36 945.985C352.136 945.951 360.505 945.697 366 946.254C365.937 951.428 365.812 956.737 365.813 961.899L463.919 961.965C476.639 961.987 491.016 962.408 503.537 962.086L571.25 962.186C599.894 962.647 629.75 962.041 658.546 962.05C683.818 962.068 710.72 961.597 735.847 962.13L823.761 962.106C845.195 962.216 870.939 962.789 892.213 962.016C894.336 962.14 895.031 962.136 897.136 961.865C900.531 958.402 903.196 953.09 906.181 949.261C922.703 928.066 943.89 912.003 970.594 907.617C978.898 906.983 986.25 906.677 994.56 908.336L994.538 864.21C994.53 857.676 994.792 845.145 994.031 839.132L994.56 836.655C996.341 835.329 997.518 835.646 1000.01 835.422L995.323 835.043C992.946 833.151 996.435 831.067 992.814 828.446C990.596 828.356 990.207 828.456 988.247 827.56L987.499 825.408C987.855 817.786 988.738 809.198 989.368 801.544C989.43 801.25 989.975 799.299 990.243 799.258C1024.57 794.066 1046.19 791.146 1071.5 763.724C1059.98 765.916 1003.92 767.495 993.874 763.9L993.232 762.145L992.701 762.937C991.308 761.658 992.864 759.178 991.49 756.162C990.003 748.962 991.859 727.683 992.349 719.257L995.434 663.072L1001.46 543.832C1002.85 512.278 1003.86 474.709 1006.55 443.627Z"/><path fill="#FFFEFE" d="M1006.55 443.627C1010.08 443.751 1011.95 443.384 1014.76 445.233C1022.42 445.182 1064.41 444.108 1068.68 445.409C1069.94 446.441 1070.49 446.729 1072.02 447.319C1073.54 449.812 1074.32 486.046 1074.57 492.317L1078.03 584.471C1081.75 668.113 1085 751.775 1087.78 835.453L1029.46 835.46C1022.11 835.478 1006.5 835.998 1000.01 835.422L995.323 835.043C992.946 833.151 996.435 831.067 992.814 828.446C990.596 828.356 990.207 828.456 988.247 827.56L987.499 825.408C987.855 817.786 988.738 809.198 989.368 801.544C989.43 801.25 989.975 799.299 990.243 799.258C1024.57 794.066 1046.19 791.146 1071.5 763.724C1059.98 765.916 1003.92 767.495 993.874 763.9L993.232 762.145L992.701 762.937C991.308 761.658 992.864 759.178 991.49 756.162C990.003 748.962 991.859 727.683 992.349 719.257L995.434 663.072L1001.46 543.832C1002.85 512.278 1003.86 474.709 1006.55 443.627Z"/><path fill="#433B50" d="M1006.55 443.627C1010.08 443.751 1011.95 443.384 1014.76 445.233C1013.18 446.179 1011.58 447.076 1009.94 447.924C1008.77 453.558 1008.53 467.627 1008.25 474.041L1006.12 522.699L997.676 685.142L995.189 732.995C994.732 741.808 994.447 753.524 993.232 762.145L992.701 762.937C991.308 761.658 992.864 759.178 991.49 756.162C990.003 748.962 991.859 727.683 992.349 719.257L995.434 663.072L1001.46 543.832C1002.85 512.278 1003.86 474.709 1006.55 443.627Z"/><path fill="#F87171" d="M994.031 839.132C1028.06 840.36 1062.92 837.802 1096.97 839.342C1113.44 840.086 1112.68 856.816 1112.65 868.484C1087.89 877.515 1074.21 887.605 1056.07 906.618C1041.18 906.628 1026.91 908.74 1013.06 914.503C1006.21 911.708 1001.91 910.173 994.56 908.336L994.538 864.21C994.53 857.676 994.792 845.145 994.031 839.132Z"/><path fill="#FCD34D" d="M1142.83 865.606C1167.17 861.693 1202.72 872.484 1222.7 886.471C1250.21 905.724 1266.68 929.202 1273.17 962.104L1164.9 962.316L1081.84 962.17C1065.37 962.14 1047.74 961.812 1031.34 962.371C1035.13 944.403 1043.24 927.628 1054.97 913.498C1077.8 885.479 1106.83 869.281 1142.83 865.606Z"/><path fill="#FCD34D" d="M1046.82 910.273C1049.09 910.04 1049.37 910.006 1051.6 910.326C1052.43 911.837 1048.52 916.597 1047.28 918.137C1037.54 930.192 1031.17 946.923 1028.09 962.19L901.506 962.017C910.83 945.791 933.333 923.912 950.674 917.117C975.365 907.441 989.703 908.723 1013.02 918.124C1024.9 913.9 1034.11 911.413 1046.82 910.273Z"/><path fill="#FFFEFE" d="M266.631 954.909C269.64 954.019 272.807 955.7 273.756 958.691C274.705 961.682 273.087 964.883 270.116 965.891C268.141 966.56 265.959 966.111 264.41 964.715C262.861 963.319 262.187 961.194 262.647 959.16C263.108 957.126 264.632 955.5 266.631 954.909Z"/><path fill="#FFFEFE" d="M353.855 955.546C356.665 954.161 360.067 955.291 361.491 958.082C362.916 960.874 361.834 964.292 359.063 965.755C357.236 966.72 355.031 966.627 353.292 965.51C351.554 964.394 350.551 962.427 350.667 960.364C350.784 958.301 352.002 956.46 353.855 955.546Z"/><path fill="#FFFEFE" d="M123.591 955.683C126.333 954.375 129.617 955.536 130.929 958.278C132.241 961.02 131.085 964.306 128.345 965.622C125.601 966.94 122.307 965.781 120.993 963.034C119.679 960.287 120.842 956.994 123.591 955.683Z"/><path fill="#FFFEFE" d="M205.079 955.691C206.878 954.917 208.955 955.176 210.509 956.368C212.064 957.56 212.853 959.499 212.572 961.438C212.292 963.377 210.987 965.013 209.159 965.716C206.408 966.773 203.316 965.435 202.205 962.704C201.094 959.974 202.372 956.856 205.079 955.691Z"/><path fill="#4D4E72" d="M383.02 769.641C409.38 768.804 434.163 767.524 460.295 763.041C472.163 761.005 486.734 753.706 496.796 753.505C514.612 753.15 533.313 753.324 551.183 753.346L655.951 753.491L810.55 753.437L867.765 753.34C876.258 753.355 893.891 752.895 901.54 753.795C916.493 755.556 929.433 759.02 945.255 760.334C949.399 761.514 985.391 763.724 990.927 764.096L991.49 756.162C992.864 759.178 991.308 761.658 992.701 762.937L993.232 762.145L993.874 763.9C1003.92 767.495 1059.98 765.916 1071.5 763.724C1046.19 791.146 1024.57 794.066 990.243 799.258C989.975 799.299 989.43 801.25 989.368 801.544C988.665 799.556 989.058 799.627 987.663 798.687L986.175 799.959L985.339 799.095C982.088 798.517 976.109 799 972.594 799.154L927.175 799.288L918.284 799.275L621.162 798.661L612.686 798.677L479.555 798.62L471.574 798.618C458.166 797.84 438.191 798.484 424.498 798.546C410.931 798.764 397.036 798.657 383.443 798.703C383.452 791.467 383.757 777.884 382.034 771.072L381.815 770.238L383.02 769.641Z"/><path fill="#F87171" d="M621.162 798.661L918.284 799.275L918.255 827.85C895.146 827.638 872.036 827.552 848.927 827.592C826.729 827.542 803.778 827.216 781.665 827.673C781.693 822.097 782.218 804.639 781.399 800.139C779.832 798.944 775.799 798.971 774.121 799.851C773.185 805.588 773.727 821.355 773.786 827.596C724.462 826.608 670.688 827.324 621.195 827.708C621.235 818.026 621.223 808.343 621.162 798.661Z"/><path fill="#F87171" d="M658.546 962.05C658.493 939.854 653.772 908.389 670.22 892.325C685.158 877.736 710.78 876.922 725.31 892.463C741.064 908.781 735.405 940.064 735.847 962.13C710.72 961.597 683.818 962.068 658.546 962.05Z"/><path fill="#FCD34D" d="M503.537 962.086C503.818 952.906 503.581 944.249 503.523 935.094C503.423 919.466 501.472 905.129 513.881 893.421C520.574 887.219 529.476 883.962 538.591 884.38C547.82 884.733 556.516 888.799 562.706 895.655C566.142 899.452 568.618 904.017 569.928 908.967C572.083 917.376 571.068 951.62 571.25 962.186L503.537 962.086Z"/><path fill="#FCD34D" d="M823.761 962.106C823.69 945.751 820.001 907.543 831.172 896.087C838.039 888.903 847.546 884.845 857.483 884.856C890.388 884.943 890.599 919.707 889.16 942.872C888.906 946.964 888.454 958.352 890.823 961.25L892.213 962.016C870.939 962.789 845.195 962.216 823.761 962.106Z"/><path fill="#F87171" d="M479.555 798.62L612.686 798.677L612.507 827.661L479.62 827.515L479.555 798.62Z"/><path fill="#E5E7EB" d="M987.499 825.408L988.247 827.56C990.207 828.456 990.596 828.356 992.814 828.446C996.435 831.067 992.946 833.151 995.323 835.043L1000.01 835.422C997.518 835.646 996.341 835.329 994.56 836.655L994.031 839.132C994.792 845.145 994.53 857.676 994.538 864.21L994.56 908.336C986.25 906.677 978.898 906.983 970.594 907.617C970.121 897.267 969.042 835.016 970.877 827.811L972.362 827.615C975.263 828.209 981.017 828.484 983.371 826.74C985.547 827.707 984.485 827.63 986.633 827.244L987.499 825.408Z"/><path fill="#F87171" d="M986.175 799.959L987.663 798.687C989.058 799.627 988.665 799.556 989.368 801.544C988.738 809.198 987.855 817.786 987.499 825.408L986.633 827.244C984.485 827.63 985.547 827.707 983.371 826.74C981.017 828.484 975.263 828.209 972.362 827.615L970.877 827.811C956.749 827.372 941.359 827.666 927.134 827.687L927.175 799.288L972.594 799.154C976.109 799 982.088 798.517 985.339 799.095L986.175 799.959Z"/><path fill="#FFFEFE" d="M986.175 799.959L987.663 798.687C989.058 799.627 988.665 799.556 989.368 801.544C988.738 809.198 987.855 817.786 987.499 825.408L986.633 827.244C984.485 827.63 985.547 827.707 983.371 826.74C981.017 828.484 975.263 828.209 972.362 827.615C972.665 818.486 972.522 808.366 972.594 799.154C976.109 799 982.088 798.517 985.339 799.095L986.175 799.959Z"/><path fill="#433B50" d="M986.175 799.959L987.663 798.687C989.058 799.627 988.665 799.556 989.368 801.544C988.738 809.198 987.855 817.786 987.499 825.408L986.633 827.244C984.485 827.63 985.547 827.707 983.371 826.74C984.58 818.537 985.294 808.384 986.175 799.959Z"/><path fill="#F87171" d="M424.498 798.546C438.191 798.484 458.166 797.84 471.574 798.618C471.41 808.024 471.554 817.937 471.549 827.383C455.99 827.197 440.081 827.369 424.493 827.369L424.498 798.546Z"/><path fill="#FFFEFE" d="M459.118 659.719C460.112 635.353 459.038 602.947 459.019 577.898L459.057 412.336C459.075 398.505 457.245 345.06 461.04 335.16C465.879 331.13 491.808 332.242 499.157 332.214C516.932 332.116 534.708 332.125 552.483 332.242C565.949 332.323 579.882 331.952 593.317 332.37C595.762 332.447 601.398 333.864 602.678 335.694C603.777 337.265 604.428 344.025 604.439 346.027C604.549 366.273 604.394 386.647 604.425 406.881L604.576 546.756C606.054 546.391 606.599 546.071 607.976 545.462C627.794 534.373 633.338 529.743 650.48 515.316C653.2 514.196 746.267 514.318 749.265 515.303C752.919 522.295 780.289 540.506 787.929 545.035C788.044 527.407 787.174 502.089 788.357 485.108C789.626 498.108 788.101 516.261 788.623 529.707C788.8 534.281 788.137 540.708 788.913 545.071L789.925 545.765L791.584 545.266C791.947 518.631 790.548 491.929 791.752 465.315C791.833 463.527 792.581 460.113 793.891 458.938C799.23 454.149 812.52 455.759 819.836 455.758L856.962 455.768L904.091 455.74C912.325 455.691 936.07 454.382 942.332 458.081C946.978 465.429 945.092 505.589 945.067 515.995L945.034 610.655C945.022 621.392 944.78 633.51 945.313 644.31C945.4 646.058 946.715 646.614 947.95 647.435C949.585 651.382 949.962 655.283 950.455 659.494C930.317 660.881 905.367 659.928 885.488 656.589C866.586 653.414 856.749 650.699 837.305 650.679L643.614 650.563C610.812 650.581 577.699 650.49 544.904 650.821C535.313 650.918 516.746 656.061 505.4 657.671C487.603 660.196 476.081 659.062 459.118 659.719Z"/><path fill="#4D4E72" d="M787.929 545.035C788.044 527.407 787.174 502.089 788.357 485.108C789.626 498.108 788.101 516.261 788.623 529.707C788.8 534.281 788.137 540.708 788.913 545.071L789.925 545.765L791.584 545.266C793.546 549.224 806.828 552.765 811.187 554.222C845.017 565.528 879.747 563.546 914.799 562.466C899.534 579.438 882.182 585.969 859.482 587.208C855.459 587.397 851.432 587.467 847.405 587.417L764.54 587.357L755.714 587.321L641.13 587.316L632.635 587.342L549.867 587.36C525.325 587.051 494.219 581.711 480.376 559.102C486.765 559.907 493.286 560.116 499.658 560.64C531.07 563.225 563.061 563.891 592.913 552.175C596.194 550.887 602.108 549.037 604.576 546.756C606.054 546.391 606.599 546.071 607.976 545.462C627.794 534.373 633.338 529.743 650.48 515.316C653.2 514.196 746.267 514.318 749.265 515.303C752.919 522.295 780.289 540.506 787.929 545.035Z"/><path fill="#F87171" d="M641.13 587.316L755.714 587.321L755.742 644.603L641.136 644.646L641.13 587.316Z"/><path fill="#F87171" d="M549.867 587.36L632.635 587.342L632.659 644.649L550.214 644.543C550.473 625.696 550.077 606.219 549.867 587.36Z"/><path fill="#F87171" d="M764.54 587.357L847.405 587.417C847.644 605.998 846.937 625.665 847.023 644.537C819.613 644.356 792.203 644.345 764.793 644.503L764.54 587.357Z"/><path fill="#D6DDFA" d="M489.544 368.58L547.133 368.573C555.296 368.529 563.505 368.395 571.673 368.395C575.305 368.395 577.607 368.219 579.506 371.689C579.365 374.536 579.693 373.412 577.742 376.029L516.224 375.957C507.932 375.95 498.34 376.228 490.093 375.524C488.485 375.387 488.039 374.241 487.461 373.163C487.674 370.726 487.952 370.593 489.544 368.58Z"/><path fill="#D6DDFA" d="M490.088 492.837C510.652 492.388 555.03 492.245 577.413 493.434C578.318 493.482 578.93 495.246 579.262 496.063C578.961 498.373 578.606 498.498 576.866 500.258C550.337 499.718 523.692 500.373 497.15 500.099C493.385 500.06 489.055 500.673 487.355 496.955C488.23 494.013 487.61 495.11 490.088 492.837Z"/><path fill="#D6DDFA" d="M493.279 429.622C520.03 428.637 547.539 430.213 574.361 429.399C576.102 429.346 577.352 430.192 578.561 431.311C579.422 433.761 579.367 432.543 578.659 435.1C576.713 437.011 577.725 436.512 574.693 436.772L518.986 436.793C512.083 436.8 493.064 438.243 488.442 434.811C486.85 430.652 490.139 430.168 493.279 429.622Z"/><path fill="#D6DDFA" d="M489.879 626.648C505.568 625.186 527.458 627.068 543.441 627.185C546.398 627.206 545.596 631.503 544.34 633.566C535.047 634.323 524.035 633.444 514.498 633.529C507.25 633.595 498.795 633.654 491.556 633.211C490.181 633.126 489.344 632.001 488.653 630.914C488.683 628.067 488.392 629.194 489.879 626.648Z"/><path fill="#433B50" d="M844.196 536.201C858.173 536.132 880.361 535.551 894.808 536.51C895.496 536.556 895.496 537.208 895.756 538.002L894.974 539.504C894.492 539.535 894.01 539.561 893.528 539.584C879.474 540.273 864.708 539.668 850.601 539.916C847.993 539.962 845.966 539.971 844.014 538.207L844.196 536.201Z"/><path fill="#433B50" d="M843.799 511.434C850.492 511.68 893.214 511.388 895.147 512.64L895.619 515.136C895.094 515.179 894.57 515.222 894.046 515.265C887.731 514.63 847.054 517.106 843.925 514.283L843.799 511.434Z"/><path fill="#433B50" d="M843.153 487.387C852.524 486.465 883.45 487.342 894.361 487.854C895.052 487.886 895.369 489.678 895.675 490.634C889.758 490.897 845.83 491.41 843.518 489.906L843.153 487.387Z"/><path fill="#FFFEFE" d="M314.017 696.302L313.949 542.595L313.856 492.99C313.856 484.01 313.691 474.932 314.23 465.96C314.562 460.25 317.211 457.989 322.751 457.818C337.317 457.37 352.058 457.653 366.633 457.672L455.779 457.886C456.517 524.546 455.801 592.342 455.815 659.061L459.118 659.719C476.081 659.062 487.603 660.196 505.4 657.671C516.746 656.061 535.313 650.918 544.904 650.821C577.699 650.49 610.812 650.581 643.614 650.563L837.305 650.679C856.749 650.699 866.586 653.414 885.488 656.589C905.367 659.928 930.317 660.881 950.455 659.494C960.216 659.314 969.471 658.676 979.194 658.015C972.059 671.694 963.451 677.598 950.109 683.665C948.918 684.206 948.98 685.331 948.718 686.537L948.12 685.022L946.812 684.615L944.909 685.928C944.882 692.579 944.264 724.024 945.686 728.24C946.815 730.146 947.632 757.572 946.544 759.773L945.255 760.334C929.433 759.02 916.493 755.556 901.54 753.795C893.891 752.895 876.258 753.355 867.765 753.34L810.55 753.437L655.951 753.491L551.183 753.346C533.313 753.324 514.612 753.15 496.796 753.505C486.734 753.706 472.163 761.005 460.295 763.041C434.163 767.524 409.38 768.804 383.02 769.641C380.329 769.313 376.378 764.688 373.734 764.164C364.786 762.391 351.044 763.215 341.908 763.317C341.451 759.746 341.67 759.316 339.238 757.388C338.215 754.09 338.45 707.142 339.927 704.767C342.908 703.397 343.314 700.733 342.031 697.921C338.252 695.013 327.744 696.181 322.409 696.297L314.017 696.302Z"/><path fill="#4D4E72" d="M459.118 659.719C476.081 659.062 487.603 660.196 505.4 657.671C516.746 656.061 535.313 650.918 544.904 650.821C577.699 650.49 610.812 650.581 643.614 650.563L837.305 650.679C856.749 650.699 866.586 653.414 885.488 656.589C905.367 659.928 930.317 660.881 950.455 659.494C960.216 659.314 969.471 658.676 979.194 658.015C972.059 671.694 963.451 677.598 950.109 683.665C948.918 684.206 948.98 685.331 948.718 686.537L948.12 685.022L946.812 684.615L944.909 685.928C943.086 685.53 937.938 687.017 935.769 687.445C924.065 689.752 912.353 690.071 900.441 690.491C860.942 690.957 821.172 689.993 781.717 690.504L773.913 690.434C764.396 689.509 735.641 690.42 724.811 690.447L621.221 690.532L612.75 690.507C574.68 689.707 534.847 690.679 496.395 690.238C484.407 689.854 470.479 689.691 459.044 686.024L457.6 685.795C455.865 688.521 457.174 693.149 456.048 697.048L456 685.604C434.886 676.9 430.193 672.977 415.443 655.629C425.145 657.02 446.282 659.546 455.815 659.061L459.118 659.719Z"/><path fill="#F87171" d="M621.221 690.532L724.811 690.447C735.641 690.42 764.396 689.509 773.913 690.434C773.583 709.041 773.894 728.588 773.895 747.272L621.26 747.421L621.221 690.532Z"/><path fill="#F87171" d="M781.717 690.504C821.172 689.993 860.942 690.957 900.441 690.491L900.436 746.752L781.77 746.982L781.717 690.504Z"/><path fill="#F87171" d="M496.395 690.238C534.847 690.679 574.68 689.707 612.75 690.507C612.529 709.456 612.466 728.407 612.563 747.357L496.473 747.455C496.556 729.288 497.012 708.257 496.395 690.238Z"/><path fill="#433B50" d="M456.048 697.048C457.174 693.149 455.865 688.521 457.6 685.795L459.044 686.024C459.296 693.121 459.916 744.997 458.177 747.776C454.633 742.932 455.765 704.43 456.048 697.048Z"/><path fill="#D6DDFA" d="M338.511 565.552C355.333 564.964 373.68 565.513 390.67 565.312C400.15 565.199 417.143 564.726 425.797 565.622C427.898 567.153 427.303 566.303 428.178 568.704C427.885 571.075 427.82 571.136 426.31 573.065C403.366 574.36 364.282 572.864 339.787 573.06C338.552 573.07 337.667 571.288 337.176 570.331C337.142 567.883 337.148 567.567 338.511 565.552Z"/><path fill="#D6DDFA" d="M338.63 625.417C361.047 625.412 403.692 624.867 427.232 626.074C428.05 626.116 428.5 627.632 428.777 628.348C428.542 630.819 428.552 630.914 426.976 632.723C399.283 633.627 367.933 633.393 340.005 632.913C338.535 632.888 337.768 631.437 337.152 630.326C337.196 627.806 337.358 627.687 338.63 625.417Z"/><path fill="#D6DDFA" d="M338.255 508.648C357.532 509.143 376.815 509.353 396.098 509.277C405.609 509.257 415.726 508.891 425.255 509.167C427.088 509.22 427.509 509.941 428.457 511.062C428.841 513.281 428.472 513.71 427.614 515.914C399.243 517.048 369.644 516.127 341.193 516.242C339.231 516.25 338.55 515.338 337.417 513.977C336.937 511.691 337.444 510.965 338.255 508.648Z"/><path fill="#D6DDFA" d="M351.782 737.65C363.054 737.62 421.025 736.398 427.283 738.575C428.685 740.755 428.464 741.998 427.25 744.043C424.899 745.302 422.184 744.902 419.398 744.847L368.893 744.782C361.033 744.819 351.75 745.433 343.986 744.56C342.613 744.405 342.789 744.125 342.027 742.977C341.845 740.703 341.858 740.636 342.928 738.68C344.993 737.355 349.078 737.695 351.782 737.65Z"/><path fill="#D6DDFA" d="M340.046 681.457C355.16 681.047 371.528 681.574 386.789 681.317C392.589 681.219 414.859 680.913 418.825 681.88C420.872 683.546 420.282 682.508 420.699 685.077C419.585 687.906 420.316 686.907 417.865 688.821C392.231 689.376 365.963 688.601 340.277 688.645C338.425 688.648 337.78 688.046 336.489 686.925L336.477 685.278C337.599 683.043 337.947 682.855 340.046 681.457Z"/><path fill="white" d="M97.963 865.334C97.4553 863.291 83.2847 846.008 80.9541 842.424C13.6608 738.946 38.1321 603.938 125.65 520.47C136.932 509.71 146.706 499.984 159.867 491.083C160.722 500.031 164.479 503.845 173.058 506.583C173.248 517.461 169.744 524.262 182.417 524.984C181.512 540.631 172.516 715.154 171.503 717.08L168.624 717.813C170.464 718.388 179.528 718.318 181.457 717.884C185.012 717.276 186.191 716.718 189.134 718.453C190.44 720.535 190.144 721.458 189.835 724.036C188.589 728.603 189.132 749.814 189.132 755.93C189.349 762.568 189.296 768.771 189.204 775.413C202.538 775.251 228.037 771.029 230.515 789.318L231.166 791.931C231.619 796.615 231.632 801.332 231.205 806.018C231.197 810.712 230.699 843.718 231.876 846.183L232.714 846.853L230.864 847.791C230.579 849.197 230.511 849.229 230.467 850.667C230.729 856.205 230.648 861.142 230.551 866.667L230.596 869.928L230.584 907.212C230.621 916.677 232.704 933.882 225.646 941.21C223.725 943.204 219.338 946.004 216.579 946.226C210.729 945.681 203.698 945.834 197.74 945.807C197.754 949.904 198.018 958.24 197.587 961.998C176.951 961.788 156.313 961.8 135.678 962.031C135.274 958.229 135.456 949.649 135.444 945.457L115.782 945.481C115.826 950.94 115.954 956.299 115.55 961.747C115.091 957.613 115.308 949.919 115.303 945.514C93.9783 945.189 97.992 923.818 97.9763 908.554L97.963 865.334Z"/><path fill="#7C96F6" d="M189.132 755.93C189.349 762.568 189.296 768.771 189.204 775.413C202.538 775.251 228.037 771.029 230.515 789.318L231.166 791.931C231.619 796.615 231.632 801.332 231.205 806.018C231.197 810.712 230.699 843.718 231.876 846.183L232.714 846.853L230.864 847.791C230.579 849.197 230.511 849.229 230.467 850.667C230.729 856.205 230.648 861.142 230.551 866.667L230.596 869.928L230.584 907.212C230.621 916.677 232.704 933.882 225.646 941.21C223.725 943.204 219.338 946.004 216.579 946.226C210.729 945.681 203.698 945.834 197.74 945.807C197.754 949.904 198.018 958.24 197.587 961.998C176.951 961.788 156.313 961.8 135.678 962.031C135.274 958.229 135.456 949.649 135.444 945.457L115.782 945.481C115.826 950.94 115.954 956.299 115.55 961.747C115.091 957.613 115.308 949.919 115.303 945.514C93.9783 945.189 97.992 923.818 97.9763 908.554L97.963 865.334L97.907 814.913C97.8737 810.155 97.4537 792.501 98.1853 788.867C98.8206 785.745 100.352 782.876 102.593 780.611C109.573 773.59 126.501 775.418 136.565 775.451L139.878 775.426L143.018 775.328C143.186 771.905 143.191 768.956 147.163 768.184C154.205 766.814 161.483 768.454 168.752 767.801L169.471 767.733L172.532 768.077C175.14 767.947 177.781 767.481 179.998 768.605C181.695 771.13 181.365 771.965 181.232 775.283L186.058 775.431L187.891 775.227C189.495 773.089 188.967 759.785 189.132 755.93Z"/><path fill="white" d="M135.875 945.562C155.82 945.677 177.416 946.12 197.299 945.745C197.315 950.373 197.129 957.59 197.587 961.998C176.951 961.788 156.313 961.8 135.678 962.031C135.974 956.31 135.939 951.269 135.875 945.562Z"/><path fill="#36354E" d="M169.471 767.733L172.532 768.077C175.14 767.947 177.781 767.481 179.998 768.605C181.695 771.13 181.365 771.965 181.232 775.283L143.018 775.328C143.186 771.905 143.191 768.956 147.163 768.184C154.205 766.814 161.483 768.454 168.752 767.801L169.471 767.733Z"/><path fill="#D6DDFA" d="M230.515 789.318L231.166 791.931C231.619 796.615 231.632 801.332 231.205 806.018C230.611 800.66 230.628 794.747 230.515 789.318Z"/><path fill="#FFFEFE" d="M202.942 799.576C205.217 800.277 204.458 799.602 205.566 801.32C205.982 813.148 206.863 911.871 205.064 916.113L202.974 914.984C201.61 912.481 202.031 882.415 202.003 877.176L201.759 828.966C201.736 823.939 200.861 802.695 202.942 799.576Z"/><path fill="#FFFEFE" d="M150.977 799.52C152.429 799.777 152.464 799.843 153.845 800.316C155.006 802.034 154.572 830.341 154.58 834.734L154.656 886.283C154.661 894.783 154.998 907.642 154.237 915.851L151.953 915.227C149.392 912.179 151.285 839.824 150.705 829.006C150.42 823.695 150.645 804.94 150.977 799.52Z"/><path fill="#FFFEFE" d="M176.353 798.94C177.605 799.292 177.727 799.384 178.913 799.921C179.441 801.598 179.659 839.666 179.343 842.112C177.826 853.845 181.703 908.4 178.364 916.088C177.072 915.465 177.2 915.491 176.041 914.628C175.579 911.934 175.72 908.275 175.709 905.471C175.582 871.21 175.244 836.936 175.434 802.678C175.443 801.08 175.702 800.36 176.353 798.94Z"/><path fill="#FFFEFE" d="M125.309 800.049L127.971 800.691C129.804 803.459 128.762 903.498 128.687 915.852C127.504 915.531 126.89 915.276 125.765 914.841C124.243 910.884 125.299 811.859 125.309 800.049Z"/><path fill="white" d="M136.565 775.451L136.353 738.743C136.283 733.959 135.477 722.286 136.308 718.258C140.698 716.367 163.202 717.165 168.624 717.813C170.464 718.388 179.528 718.318 181.457 717.884C185.012 717.276 186.191 716.718 189.134 718.453C190.44 720.535 190.144 721.458 189.835 724.036C188.589 728.603 189.132 749.814 189.132 755.93C188.967 759.785 189.495 773.089 187.891 775.227L186.058 775.431L181.232 775.283C181.365 771.965 181.695 771.13 179.998 768.605C177.781 767.481 175.14 767.947 172.532 768.077L169.471 767.733L168.752 767.801C161.483 768.454 154.205 766.814 147.163 768.184C143.191 768.956 143.186 771.905 143.018 775.328L139.878 775.426L136.565 775.451Z"/><path fill="#FFFEFE" d="M186.081 724.639L189.835 724.036C188.589 728.603 189.132 749.814 189.132 755.93C188.967 759.785 189.495 773.089 187.891 775.227L186.058 775.431L181.232 775.283C181.365 771.965 181.695 771.13 179.998 768.605C177.781 767.481 175.14 767.947 172.532 768.077C172.57 755.093 174.032 738.12 174.717 724.744L186.081 724.639Z"/><path fill="#433B50" d="M186.081 724.639L189.835 724.036C188.589 728.603 189.132 749.814 189.132 755.93C188.967 759.785 189.495 773.089 187.891 775.227L186.058 775.431C185.677 758.822 186.012 741.312 186.081 724.639Z"/><path fill="#36354E" d="M136.565 775.451L136.353 738.743C136.283 733.959 135.477 722.286 136.308 718.258C140.698 716.367 163.202 717.165 168.624 717.813C170.464 718.388 179.528 718.318 181.457 717.884C185.012 717.276 186.191 716.718 189.134 718.453C190.44 720.535 190.144 721.458 189.835 724.036L186.081 724.639L174.717 724.744C174.032 738.12 172.57 755.093 172.532 768.077L169.471 767.733C170.115 754.21 171.3 738.118 171.375 724.777L139.502 725.007C139.351 741.814 139.476 758.623 139.878 775.426L136.565 775.451Z"/><path fill="#F87171" d="M283.455 706.87C283.474 707.023 283.495 707.177 283.512 707.33C284.595 716.895 281.123 759.717 285.549 763.629C286.608 764.564 288.695 764.723 290.088 764.819C297.693 765.34 305.514 764.583 313.151 764.582C321.392 764.582 330.888 765.903 338.953 764.627C340.048 764.453 341.05 764.025 341.908 763.317C351.044 763.215 364.786 762.391 373.734 764.164C376.378 764.688 380.329 769.313 383.02 769.641L381.815 770.238L382.034 771.072C383.757 777.884 383.452 791.467 383.443 798.703C383.948 830.136 384.13 861.574 383.987 893.012C383.988 907.025 384.42 921.886 383.31 935.852C382.692 943.624 373.098 947.492 366 946.254C360.505 945.697 352.136 945.951 346.36 945.985C346.394 950.25 346.669 957.629 346.259 961.639L277.913 961.928C277.859 957.142 277.966 953.308 278.259 948.529L278.012 946.751C275.306 944.772 261.791 945.737 257.928 945.937C257.987 950.76 257.865 957.793 258.372 962.429C247.122 961.418 228.444 961.89 216.681 961.942C216.68 956.703 216.645 951.465 216.579 946.226C219.338 946.004 223.725 943.204 225.646 941.21C232.704 933.882 230.621 916.677 230.584 907.212L230.596 869.928L230.551 866.667C230.648 861.142 230.729 856.205 230.467 850.667L238.124 850.345C240.042 850.004 239.304 850.463 240.48 849.042L239.924 847.534C240.768 844.597 240.491 836.04 240.479 832.686L240.369 795.966C240.306 755.55 245.562 762.681 283.371 762.779C283.003 745.036 283.193 724.668 283.455 706.87Z"/><path fill="#E5E7EB" d="M230.596 869.928C233.768 870.2 237.202 870.562 240.357 870.734L240.123 910.522C240.025 927.59 235.914 944.139 257.928 945.937C257.987 950.76 257.865 957.793 258.372 962.429C247.122 961.418 228.444 961.89 216.681 961.942C216.68 956.703 216.645 951.465 216.579 946.226C219.338 946.004 223.725 943.204 225.646 941.21C232.704 933.882 230.621 916.677 230.584 907.212L230.596 869.928Z"/><path fill="white" d="M278.259 948.529L278.83 946.414C283.537 944.88 337.056 946.013 346.017 945.92C346.054 950.22 345.894 957.609 346.259 961.639L277.913 961.928C277.859 957.142 277.966 953.308 278.259 948.529Z"/><path fill="#E5E7EB" d="M230.467 850.667L238.124 850.345L239.876 850.804C241.247 853.67 240.628 863.087 240.516 866.821L240.357 870.734C237.202 870.562 233.768 870.2 230.596 869.928L230.551 866.667C230.648 861.142 230.729 856.205 230.467 850.667Z"/><path fill="#36354E" d="M230.551 866.667L240.516 866.821L240.357 870.734C237.202 870.562 233.768 870.2 230.596 869.928L230.551 866.667Z"/><path fill="#FFFEFE" d="M354.343 790.947C354.933 791.117 357.201 791.719 357.225 792.501C358.3 828.143 357.213 864.139 357.436 899.88C357.462 904.076 357.694 911.376 356.541 915.075C355.768 914.8 353.314 913.948 353.293 913.179C352.188 873.56 352.848 833.644 353.328 793.973C353.342 792.787 353.822 791.934 354.343 790.947Z"/><path fill="#FFFEFE" d="M267.547 790.978L269.817 791.724C271.505 793.757 270.916 808.398 270.912 811.668L270.816 845.661L270.672 887.943C270.657 895.54 270.727 903.322 270.517 910.92C270.439 913.764 270.394 913.399 268.881 915.32C268.241 914.95 267.42 914.32 266.797 913.875C266.367 910.824 266.473 907.554 266.471 904.465C266.444 867.86 265.826 831.227 266.512 794.629C266.542 793.041 266.834 792.352 267.547 790.978Z"/><path fill="#FFFEFE" d="M296.983 791.495C298.378 791.707 298.532 791.795 299.875 792.193C300.419 792.958 300.841 793.52 300.838 794.504C300.794 808.492 300.821 822.632 300.807 836.607C300.848 862.713 300.734 888.819 300.466 914.923L297.587 914.176C295.933 912.281 296.332 803.371 296.983 791.495Z"/><path fill="#FFFEFE" d="M324.536 791.339C326.398 791.602 326.497 791.668 328.167 792.304C328.875 795.114 328.616 822.243 328.613 826.386L328.529 914.299C326.782 914.182 326.638 914.118 325.033 913.661C323.263 908.362 324.492 802.433 324.536 791.339Z"/><path fill="#6F6B6C" d="M383.89 201.168C409.475 199.716 426.221 204.249 446.072 221.017C467.76 239.335 479.379 274.729 469.471 301.74C454.926 341.392 420.401 383.629 391.503 414.202C379.767 403.155 364.205 384.366 353.75 371.293C336.469 347.916 315.126 321.024 311.72 291.539C309.235 269.802 315.537 247.973 329.226 230.907C342.784 214.136 362.447 203.439 383.89 201.168Z"/><path fill="#FFFEFE" d="M390.481 238.586C414.663 237.852 434.892 256.804 435.74 280.988C436.588 305.173 417.736 325.495 393.562 326.458C369.226 327.427 348.742 308.417 347.888 284.07C347.034 259.723 366.137 239.324 390.481 238.586Z"/><path fill="#4D4E72" d="M385.472 242.525C407.419 239.029 428.065 253.929 431.667 275.863C435.27 297.798 420.476 318.521 398.565 322.232C376.501 325.969 355.607 311.046 351.979 288.959C348.351 266.872 363.373 246.046 385.472 242.525Z"/><path fill="#FFFEFE" d="M189.569 433.496C198.3 433.693 207.034 433.706 215.765 433.537C236.019 434.649 223.217 446.459 227.634 457.232L228.495 457.839L233.364 458.084C244.621 461.673 244.997 471.503 244.938 481.587C244.864 494.185 245.432 503.685 230.842 506.491L230.452 506.563C231.095 533.967 224.556 519.844 220.226 526.023C220.897 547.703 222.997 570.909 224.299 592.702L232.9 739.042C233.923 756.64 234.834 774.244 235.632 791.854C235.97 799.727 236.597 842.098 238.387 846.464L239.924 847.534L240.48 849.042C239.304 850.463 240.042 850.004 238.124 850.345L230.467 850.667C230.511 849.229 230.579 849.197 230.864 847.791L232.714 846.853L231.876 846.183C230.699 843.718 231.197 810.712 231.205 806.018C231.632 801.332 231.619 796.615 231.166 791.931L230.515 789.318C228.037 771.029 202.538 775.251 189.204 775.413C189.296 768.771 189.349 762.568 189.132 755.93C189.132 749.814 188.589 728.603 189.835 724.036C190.144 721.458 190.44 720.535 189.134 718.453C186.191 716.718 185.012 717.276 181.457 717.884C179.528 718.318 170.464 718.388 168.624 717.813L171.503 717.08C172.516 715.154 181.512 540.631 182.417 524.984C169.744 524.262 173.248 517.461 173.058 506.583C164.479 503.845 160.722 500.031 159.867 491.083C160.758 480.011 157.688 462.623 170.769 458.462C172.661 458.038 174.325 457.889 175.742 456.614C180.876 446.058 167.646 433.429 189.569 433.496Z"/><path fill="#433B50" d="M189.569 433.496C198.3 433.693 207.034 433.706 215.765 433.537C236.019 434.649 223.217 446.459 227.634 457.232L228.495 457.839L233.364 458.084C244.621 461.673 244.997 471.503 244.938 481.587C244.864 494.185 245.432 503.685 230.842 506.491L230.452 506.563C231.095 533.967 224.556 519.844 220.226 526.023C220.897 547.703 222.997 570.909 224.299 592.702L232.9 739.042C233.923 756.64 234.834 774.244 235.632 791.854C235.97 799.727 236.597 842.098 238.387 846.464L239.924 847.534L240.48 849.042C239.304 850.463 240.042 850.004 238.124 850.345L230.467 850.667C230.511 849.229 230.579 849.197 230.864 847.791L232.714 846.853L231.876 846.183C230.699 843.718 231.197 810.712 231.205 806.018C231.632 801.332 231.619 796.615 231.166 791.931L232.131 791.514C231.94 762.926 228.431 724.823 226.63 695.269C223.185 638.718 220.453 581.136 216.381 524.701L185.96 524.945C184.515 571.039 180.559 619.998 178.162 666.417L176.486 699.201C176.29 703.104 175.556 712.812 175.962 716.343C177.82 718.006 178.58 717.576 181.457 717.884C179.528 718.318 170.464 718.388 168.624 717.813L171.503 717.08C172.516 715.154 181.512 540.631 182.417 524.984C169.744 524.262 173.248 517.461 173.058 506.583C164.479 503.845 160.722 500.031 159.867 491.083C160.758 480.011 157.688 462.623 170.769 458.462C172.661 458.038 174.325 457.889 175.742 456.614C180.876 446.058 167.646 433.429 189.569 433.496Z"/><path fill="#36354E" d="M189.569 433.496C198.3 433.693 207.034 433.706 215.765 433.537C236.019 434.649 223.217 446.459 227.634 457.232L228.495 457.839L227.952 458.652L227.235 458.617C224.671 458.507 208.606 458.924 205.339 459.014C198.058 459.213 176.917 458.055 171.764 459.047L170.769 458.462C172.661 458.038 174.325 457.889 175.742 456.614C180.876 446.058 167.646 433.429 189.569 433.496Z"/><path fill="#F87171" d="M181.668 437.318C193.481 437.377 210.688 436.021 222.289 438.67C225.343 439.367 224.472 455.155 223.166 457.407L179.975 457.649C179.914 452.159 178.849 441.253 181.668 437.318Z"/><path fill="#E5E7EB" d="M231.166 791.931L232.131 791.514C233.018 805.09 233.186 830.715 233.612 845.355C233.312 845.855 233.013 846.354 232.714 846.853L231.876 846.183C230.699 843.718 231.197 810.712 231.205 806.018C231.632 801.332 231.619 796.615 231.166 791.931Z"/><path fill="#7C96F6" d="M175.411 460.929C187.856 460.457 200.846 460.719 213.348 460.693C224.572 460.669 233.413 458.26 240.455 468.023C241.106 475.559 243.31 493.564 238.277 499.221C235.86 501.938 233.274 502.088 229.987 502.37C218.152 502.241 206.316 502.201 194.481 502.252C186.944 502.309 177.805 502.711 170.319 501.89C167.453 501.576 165.577 498.122 163.963 495.72C163.286 488.714 162.044 471.48 166.177 465.799C168.818 462.168 171.45 461.645 175.411 460.929Z"/><path fill="#F87171" d="M176.493 505.9L226.768 505.926C226.932 511.132 226.998 515.297 226.777 520.548C221.14 521.827 184.619 521.244 176.635 521.106C176.481 516.173 176.531 510.864 176.493 505.9Z"/><path fill="#36354E" d="M1013.35 305.753C1031.31 305.971 1050.21 306.195 1068.14 305.525L1073.64 308.108C1083.17 316.082 1081.34 324.328 1081.28 335.774C1111.99 340.037 1104.79 362.094 1106.35 385.375C1107.55 403.423 1103.4 421.247 1081.4 421.512C1076.68 421.843 1073.17 421.838 1068.43 421.748C1068.41 428.461 1068.16 437.41 1068.68 443.929L1068.68 445.409C1064.41 444.108 1022.42 445.182 1014.76 445.233C1011.95 443.384 1010.08 443.751 1006.55 443.627C1009 443.598 1011.13 443.829 1013.31 442.821C1014.1 438.419 1013.95 426.395 1014.01 421.361C1002.73 421.448 990.572 422.554 982.043 413.712C971.892 403.188 975.681 387.366 975.021 374.283C974.019 354.403 976.947 340.376 998.59 335.944C998.338 322.725 996.783 313.767 1009.81 306.495L1013.35 305.753Z"/><path fill="#F87171" d="M1014.01 421.361L1081.4 421.512C1076.68 421.843 1073.17 421.838 1068.43 421.748C1068.41 428.461 1068.16 437.41 1068.68 443.929L1068.68 445.409C1064.41 444.108 1022.42 445.182 1014.76 445.233C1011.95 443.384 1010.08 443.751 1006.55 443.627C1009 443.598 1011.13 443.829 1013.31 442.821C1014.1 438.419 1013.95 426.395 1014.01 421.361Z"/><path fill="#7C96F6" d="M999.388 339.606C1026.45 338.425 1056.71 339.596 1083.95 339.89C1092.86 339.985 1103.21 351.222 1102.48 360.466C1100.88 380.68 1112.2 414.721 1082.42 417.621C1062 418.08 1041.21 416.956 1020.74 417.579C1013.35 417.804 1005.57 417.957 998.233 417.39C983.141 416.226 977.906 403.149 978.849 389.688C980.161 369.227 972.012 344.454 999.388 339.606Z"/><path fill="#FFFEFE" d="M1014.21 309.457C1030.73 308.95 1048.8 309.153 1065.36 309.511C1079.6 309.819 1077.88 325.593 1077.72 335.997L1065.56 336.001L1002.35 335.892C1001.02 324.318 1000.55 312.623 1014.21 309.457Z"/><path fill="#433B50" d="M511.274 328.723C511.294 321.068 510.2 272.738 512.167 269.794C512.802 268.843 512.945 269.042 513.978 268.813C516.192 272.174 514.979 320.968 514.856 328.721L568.364 328.763C578.064 328.77 589.419 328.31 598.972 329.712C603.608 330.393 605.37 333.179 607.772 336.8C608.785 355.648 607.818 382.83 607.81 402.411L607.976 545.462C606.599 546.071 606.054 546.391 604.576 546.756L604.425 406.881C604.394 386.647 604.549 366.273 604.439 346.027C604.428 344.025 603.777 337.265 602.678 335.694C601.398 333.864 595.762 332.447 593.317 332.37C579.882 331.952 565.949 332.323 552.483 332.242C534.708 332.125 516.932 332.116 499.157 332.214C491.808 332.242 465.879 331.13 461.04 335.16C457.245 345.06 459.075 398.505 459.057 412.336L459.019 577.898C459.038 602.947 460.112 635.353 459.118 659.719L455.815 659.061C455.801 592.342 456.517 524.546 455.779 457.886L366.633 457.672C352.058 457.653 337.317 457.37 322.751 457.818C317.211 457.989 314.562 460.25 314.23 465.96C313.691 474.932 313.856 484.01 313.856 492.99L313.949 542.595L314.017 696.302L322.409 696.297C327.744 696.181 338.252 695.013 342.031 697.921C343.314 700.733 342.908 703.397 339.927 704.767C338.45 707.142 338.215 754.09 339.238 757.388C341.67 759.316 341.451 759.746 341.908 763.317C341.05 764.025 340.048 764.453 338.953 764.627C330.888 765.903 321.392 764.582 313.151 764.582C305.514 764.583 297.693 765.34 290.088 764.819C288.695 764.723 286.608 764.564 285.549 763.629C281.123 759.717 284.595 716.895 283.512 707.33C283.495 707.177 283.474 707.023 283.455 706.87C281.333 704.232 280.447 702.802 280.784 699.426C282.216 697.166 281.43 697.913 283.786 696.606C289.244 695.827 304.448 696.234 310.629 696.262L310.58 545.822C310.553 518.673 309.912 488.974 310.725 462.028C312.821 458.737 315.399 454.79 319.764 454.657C332.66 454.265 345.614 454.595 358.525 454.462C390.883 454.129 423.397 455.001 455.738 454.285L455.659 376.714C455.635 364.132 455.321 351.398 456.011 338.851C456.273 334.082 460.656 329.692 465.379 329.302C480.419 328.059 496.117 328.69 511.274 328.723Z"/><path fill="white" d="M310.492 705.299L313.985 705.319C321.207 705.196 328.43 705.144 335.653 705.163L335.757 756.762C333.164 757.826 317.814 757.342 313.977 757.293L310.533 757.409C305.945 757.283 293.199 756.607 289.342 757.586C288.214 758.956 287.943 759.453 287.069 761.014C286.114 758.644 286.552 711.561 286.543 705.366L310.492 705.299Z"/><path fill="#FFFEFE" d="M313.985 705.319C321.207 705.196 328.43 705.144 335.653 705.163L335.757 756.762C333.164 757.826 317.814 757.342 313.977 757.293L313.985 705.319Z"/><path fill="#4D4E72" d="M310.492 705.299L313.985 705.319L313.977 757.293L310.533 757.409L310.492 705.299Z"/><path fill="#FCD34D" d="M650.48 515.316L648.468 514.321C644.599 508.446 653.446 497.896 657.276 493.573C665.588 484.193 673.16 484.433 684.831 484.316C694.35 484.322 703.869 484.388 713.387 484.515C726.064 484.46 731.14 484.87 741.092 494.366C745.541 498.611 751.024 506.909 751.054 513.289C750.327 514.453 750.388 514.564 749.265 515.303C746.267 514.318 653.2 514.196 650.48 515.316Z"/><path fill="#433B50" d="M869.629 452.111C869.618 443.814 868.325 411.886 871.323 406.507L872.573 407.246C873.408 411.012 873.075 445.815 873.072 452.071L913.401 451.838C922.749 451.787 937.393 450.033 945.008 456.111C947.035 457.728 948.61 461.563 948.702 464.139C948.871 475.972 948.666 487.98 948.68 499.808L948.733 576.7L948.664 622.545C948.691 626.872 949.603 644.668 947.95 647.435C946.715 646.614 945.4 646.058 945.313 644.31C944.78 633.51 945.022 621.392 945.034 610.655L945.067 515.995C945.092 505.589 946.978 465.429 942.332 458.081C936.07 454.382 912.325 455.691 904.091 455.74L856.962 455.768L819.836 455.758C812.52 455.759 799.23 454.149 793.891 458.938C792.581 460.113 791.833 463.527 791.752 465.315C790.548 491.929 791.947 518.631 791.584 545.266L789.925 545.765L788.913 545.071C788.137 540.708 788.8 534.281 788.623 529.707C788.101 516.261 789.626 498.108 788.357 485.108C787.766 448.636 788.094 451.897 825.123 451.98L869.629 452.111Z"/><path fill="#F87171" d="M684.831 484.316C685.517 470.356 683.932 455.786 685.628 442.22C686.676 433.836 703.826 426.288 709.345 436.45C716.398 449.435 712.86 469.746 713.387 484.515C703.869 484.388 694.35 484.322 684.831 484.316Z"/><path fill="#433B50" d="M944.909 685.928L946.812 684.615L948.12 685.022L948.718 686.537C948.66 692.503 949.207 724.144 947.661 727.152L945.686 728.24C944.264 724.024 944.882 692.579 944.909 685.928Z"/><path fill="#F87171" d="M1032.46 222.446C1034.54 184.523 1034.46 146.051 1035.76 108.062C1035.89 104.193 1037.06 101.949 1040.78 100.776C1044.68 101.614 1045.82 104.875 1046.05 108.657C1046.65 118.309 1046.67 128.06 1046.86 137.735L1047.89 181.692C1048.06 193.591 1048.04 211.286 1048.95 222.85C1053.65 222.851 1067.01 221.987 1069.94 223.979C1072.04 227.433 1073.39 241.474 1069.38 243.974C1067.8 244.963 1058.59 244.494 1056 244.43C1056.16 264.754 1056.53 285.075 1057.11 305.392C1059.69 305.393 1065.86 305.247 1068.14 305.525C1050.21 306.195 1031.31 305.971 1013.35 305.753C1017.6 305.275 1020.13 305.418 1024.45 305.6L1025.37 243.803C1021.12 243.834 1012.85 244.734 1010.13 242.196C1008.78 238.479 1007.31 223.589 1012.67 222.759C1018.63 221.835 1026.23 222.592 1032.46 222.446Z"/><path fill="#F87171" d="M200.946 99.9724C204.498 112.655 203.525 170.708 204.593 187.09C204.761 189.657 204.146 193.182 205.05 196.192C206.444 200.834 212.246 201.165 209.622 206.735C209.227 207.573 206.489 210.956 206.491 210.859C205.962 233.053 208.329 264.426 208.67 285.623C217.412 289.692 218.516 295.838 209.934 301.278C211.662 324.646 213.887 358.854 213.959 382.074C222.081 383.528 224.899 390.206 217.143 393.824L216.613 394.066C214.848 396.99 215.73 428.061 215.765 433.537C207.034 433.706 198.3 433.693 189.569 433.496C189.838 421.097 190.485 407.901 189.809 395.487C189.678 393.085 184.526 391.97 184.645 388.757C184.817 384.113 186.683 382.295 191.216 382.088C191.981 355.782 192.498 327.556 194.072 301.371C186.501 296.206 186.261 289.244 195.271 285.742C195.075 261.015 196.567 235.116 197.321 210.285C195.125 208.384 193.862 207.68 192.994 204.939C193.13 201.56 194.778 200.36 197.384 198.404L199.389 135.16C199.661 125.906 199.681 108.272 200.946 99.9724Z"/><path fill="#E5E7EB" d="M889.024 118.919C891.811 119.051 895.321 118.955 898.161 118.951C901.68 128.386 905.118 137.852 908.475 147.348C917.432 147.343 926.309 147.539 934.749 144.537C934.782 148.872 934.63 153.506 934.569 157.868C925.429 155.081 917.833 155.913 908.243 156.047C906.167 164.406 902.809 173.841 899.909 181.913L889.92 181.809L892.69 172.829C894.502 167.244 895.99 161.164 897.498 155.461C889.087 155.206 880.307 155.322 871.864 155.318C869.567 157.384 867.033 160.247 864.22 160.72L863.417 159.824C863.478 156.672 864.935 154.395 866.334 151.499C864.188 146.054 862.575 141.886 860.912 136.233C864.415 138.631 868.689 143.178 871.811 146.275C879.825 146.595 888.484 146.531 896.551 146.617C894.096 137.348 891.438 128.313 889.024 118.919Z"/><path fill="#E5E7EB" d="M103.388 280.875C108.848 280.879 123.861 279.233 124.079 286.602C122.63 289.127 122.377 289.4 120.099 291.216C114.151 291.199 103.533 293.445 99.7907 288.422C98.5595 284.193 99.5178 282.508 103.388 280.875Z"/><path fill="#433B50" d="M78.3527 310.117C94.6858 309.981 123.045 309.717 140.165 310.093C140.547 310.408 140.929 310.723 141.311 311.038L141.172 313.424C129.479 314.046 92.171 314.153 78.9998 313.023C78.4179 312.974 78.4438 311.034 78.3527 310.117Z"/><path fill="#433B50" d="M95.3645 322.749C100.59 322.611 112.746 321.723 117.868 323.378C118.588 323.611 118.62 325.024 118.812 325.996C115.26 326.416 99.7635 327.014 96.0571 325.379C95.2857 325.038 95.4591 323.875 95.3645 322.749Z"/></svg>