<?xml version="1.0" encoding="utf-8" ?><svg xmlns="http://www.w3.org/2000/svg" xmlns:xlink="http://www.w3.org/1999/xlink" width="1365" height="1024" viewBox="0 0 1365 1024"><path fill="#FEFEFE" d="M0 0L1365 0L1365 1024L0 1024L0 0Z"/><defs><linearGradient id="gradient_0" gradientUnits="userSpaceOnUse" x1="602.34039" y1="1182.7062" x2="1002.7399" y2="102.93023"><stop offset="0" stop-color="#57394C"/><stop offset="1" stop-color="#58555F"/></linearGradient></defs><path fill="url(#gradient_0)" d="M949.029 196.564C963.161 168.74 990.685 146.336 1020.31 136.706C1051.66 126.602 1085.73 129.358 1115.04 144.369C1141.79 158.151 1165.1 185.489 1174.09 214.263C1186.04 252.494 1179.1 287.544 1161.11 322.476C1136.8 369.666 1099.13 404.131 1055.1 432.672C1029.38 414.613 1017.64 403.484 995.106 381.748C995.092 392.444 995.942 466.309 993.999 471.242L992.076 472.79C982.2 480.677 983.783 490.96 991.251 499.811C997.27 504.44 995.493 508.819 995.043 515.934C1029.71 555.338 1056.97 597.673 1075.11 647.211C1086.84 647.278 1098.58 647.247 1110.31 647.12C1116.35 647.074 1122.8 646.832 1129.11 647.248C1150.82 648.729 1140.98 675.209 1143.34 689.251C1143.84 692.258 1138.3 700.093 1139.37 702.593C1141.99 708.683 1140.91 718.661 1140.91 725.231L1140.84 767.168C1140.92 773.603 1140.91 780.038 1140.82 786.473C1162.72 786.956 1183.49 796.236 1198.46 812.22C1214.65 829.225 1219.65 846.497 1221.63 869.017C1245.47 869.486 1262.33 875.741 1279.22 893.344C1293.57 908.108 1301.26 928.091 1300.52 948.665C1300.32 953.479 1299.84 958.277 1299.1 963.037C1304.74 963.595 1324.24 961.91 1326.01 963.445C1344.15 979.222 1301.79 975.231 1297.5 975.216L1243.46 975.274L1034.75 975.299L291.657 975.275L120.688 975.266L64.8301 975.25C59.9452 975.25 39.0037 976.436 36.5121 973.845C21.778 958.521 69.2629 962.628 76.8329 962.678C70.7778 917.818 97.4466 876.583 143.163 868.891C145.42 868.512 147.688 868.202 149.954 867.886C153.176 838.325 162.735 816.535 188.028 798.735C207.136 785.287 230.559 781.37 253.351 785.593C253.501 781.663 253.682 777.734 253.894 773.806C259.588 661.797 310.282 556.84 394.469 482.762C395.672 470.488 397.315 447.45 397.151 435.493C388.52 435.243 379.607 435.724 370.783 435.488C368.04 433.725 364.245 430.902 364.069 427.396C363.261 411.366 363.736 394.461 363.824 378.412C364.952 360.625 377.367 349.582 394.476 347.165C394.728 335.066 389.738 321.936 405.957 322.164C416.337 322.35 426.719 322.409 437.1 322.343C440.571 322.221 445.394 321.652 447.985 324.271C452.725 329.061 450.541 340.844 450.695 347.345C467.104 349.594 479.097 362.027 479.255 378.866C479.323 393.386 479.485 407.904 479.744 422.422C606.571 355.298 743.482 355.17 871.353 419.307L871.737 280.727L871.684 240.704C871.677 235.185 871.615 229.623 871.699 224.119C871.827 215.776 872.444 209.548 878.592 203.394C885.456 196.522 894.359 196.259 903.494 196.414C918.628 196.356 933.944 196.812 949.029 196.564Z"/><path fill="#FEFEFE" d="M480.378 426.073C503.694 414.222 526.603 403.661 551.548 395.451C634.594 368.6 724.01 368.76 806.959 395.909C910.738 429.878 1007.55 512.739 1055.38 610.915C1060.78 621.992 1067.32 635.612 1071.24 647.253L971.198 647.228C956.086 647.238 940.052 647.064 924.848 647.396C918.854 647.526 911.253 651.319 910.736 658.099C909.979 668.018 910.336 678.788 910.35 688.934L910.436 751.43L910.427 962.786L844.112 962.789C843.333 908.546 843.914 852.055 843.952 797.697L840.662 797.767C837.426 795.303 836.802 794.664 833.106 797.214C829.249 799.969 824.653 800.742 819.951 800.565C806.933 800.076 794.87 803.422 783.837 794.879C775.55 800.707 768.893 800.839 759.04 800.747C748.315 800.647 741.253 801.666 732.577 794.491C729.928 796.318 725.841 799.065 722.632 799.406C707.785 800.98 692.203 803.216 679.229 794.922C669.403 801.505 662.182 800.559 650.691 800.682C640.53 800.79 636.067 800.716 627.784 794.556C618.446 801.208 612.813 800.706 601.682 800.749C590.568 800.792 584.661 801.193 575.224 794.96C572.828 796.55 568.444 799.193 565.627 799.501C551.383 801.06 535.082 803.285 522.626 795.336C519.665 797.05 518.801 797.269 515.57 798.242L511.839 798.23C493.619 798.638 484.073 794.455 469.362 784.131C454.748 769.468 450.562 760.244 448.449 740.136L465.878 740.149C463.509 724.487 447.788 451.179 449.248 446.557L464.459 435.821C473.318 435.798 477.294 435.559 480.378 426.073Z"/><path fill="#4861CE" d="M586.678 673.11C596.786 679.478 621.977 679.316 631.989 673.107C640.306 678.28 645.836 677.473 655.316 677.514C664.756 677.556 670.824 677.939 679.169 673.098C689.589 679.188 701.426 676.978 713.064 676.921C717.67 676.898 721.849 675.759 725.747 673.256C733.922 678.324 739.782 677.465 749.107 677.521C757.73 677.572 763.539 677.66 771.147 673.142C780.359 679.484 805.757 678.687 815.415 673.581C817.967 675.174 819.771 676.489 822.653 677.411L825.829 677.313C825.878 684.748 826.294 695.425 825.934 702.588C826.557 714.351 826.332 728.132 826.377 740.027C848.202 740.081 880.27 739.262 901.12 740.661C900.741 775.366 879.168 798.467 843.952 797.697L840.662 797.767C837.426 795.303 836.802 794.664 833.106 797.214C829.249 799.969 824.653 800.742 819.951 800.565C806.933 800.076 794.87 803.422 783.837 794.879C775.55 800.707 768.893 800.839 759.04 800.747C748.315 800.647 741.253 801.666 732.577 794.491C729.928 796.318 725.841 799.065 722.632 799.406C707.785 800.98 692.203 803.216 679.229 794.922C669.403 801.505 662.182 800.559 650.691 800.682C640.53 800.79 636.067 800.716 627.784 794.556C618.446 801.208 612.813 800.706 601.682 800.749C590.568 800.792 584.661 801.193 575.224 794.96C572.828 796.55 568.444 799.193 565.627 799.501C551.383 801.06 535.082 803.285 522.626 795.336C519.665 797.05 518.801 797.269 515.57 798.242L511.839 798.23C493.619 798.638 484.073 794.455 469.362 784.131C454.748 769.468 450.562 760.244 448.449 740.136L465.878 740.149C486.727 740.14 509.795 739.695 530.462 740.272L533.851 740.101L533.902 676.458C537.448 675.743 537.944 675.356 540.928 673.439C551.254 679.2 576.579 679.439 586.678 673.11Z"/><path fill="#FAACA3" d="M586.678 673.11C596.786 679.478 621.977 679.316 631.989 673.107C640.306 678.28 645.836 677.473 655.316 677.514C664.756 677.556 670.824 677.939 679.169 673.098C689.589 679.188 701.426 676.978 713.064 676.921C717.67 676.898 721.849 675.759 725.747 673.256C733.922 678.324 739.782 677.465 749.107 677.521C757.73 677.572 763.539 677.66 771.147 673.142C780.359 679.484 805.757 678.687 815.415 673.581C817.967 675.174 819.771 676.489 822.653 677.411L825.829 677.313C825.878 684.748 826.294 695.425 825.934 702.588C825.515 708.368 826.497 737.708 825.007 740L823.743 740.421C818.894 739.631 801.632 739.953 795.933 739.958L738.609 740.018L533.851 740.101L533.902 676.458C537.448 675.743 537.944 675.356 540.928 673.439C551.254 679.2 576.579 679.439 586.678 673.11Z"/><path fill="#433B50" d="M822.653 677.411L825.829 677.313C825.878 684.748 826.294 695.425 825.934 702.588C825.515 708.368 826.497 737.708 825.007 740L823.743 740.421C821.829 733.409 822.758 688.098 822.653 677.411Z"/><path fill="#FEFEFE" d="M639.638 704.036L718.565 703.974L718.487 728.204L639.66 728.099C639.507 720.079 639.499 712.057 639.638 704.036Z"/><path fill="#FEFEFE" d="M566.514 703.865C583.515 703.013 608.779 703.774 626.082 703.871C626.219 711.851 626.092 720.086 626.066 728.087L566.475 728.44L566.514 703.865Z"/><path fill="#FEFEFE" d="M732.281 704.002L790.652 703.978L790.652 728.245L732.049 728.217L732.281 704.002Z"/><path fill="#4861CE" d="M575.204 628.086L781.95 628.079L880.32 628.117C879.069 643.889 876.225 655.482 863.612 666.498C851.753 676.857 840.622 677.371 825.829 677.313L822.653 677.411C819.771 676.489 817.967 675.174 815.415 673.581C805.757 678.687 780.359 679.484 771.147 673.142C763.539 677.66 757.73 677.572 749.107 677.521C739.782 677.465 733.922 678.324 725.747 673.256C721.849 675.759 717.67 676.898 713.064 676.921C701.426 676.978 689.589 679.188 679.169 673.098C670.824 677.939 664.756 677.556 655.316 677.514C645.836 677.473 640.306 678.28 631.989 673.107C621.977 679.316 596.786 679.478 586.678 673.11C576.579 679.439 551.254 679.2 540.928 673.439C537.944 675.356 537.448 675.743 533.902 676.458L530.49 676.42C529.064 676.549 527.635 676.628 526.204 676.656C496.753 677.108 475.545 657.915 475.119 628.187C508.218 627.78 542.044 628.115 575.204 628.086Z"/><path fill="#FAACA3" d="M575.162 573.886L712.397 573.895L759.009 573.972C765.88 573.994 775.906 573.722 782.403 574.12L781.95 628.079L575.204 628.086L575.162 573.886Z"/><path fill="#FEFEFE" d="M592.645 594.542C607.459 593.985 625.318 594.46 640.37 594.456L640.429 618.605L592.676 618.718L592.645 594.542Z"/><path fill="#FEFEFE" d="M717.878 594.497C732.807 594.241 748.421 594.466 763.407 594.453C763.447 602.529 763.442 610.605 763.391 618.681C760.134 619.15 750.333 618.925 746.512 618.909C736.974 618.86 727.436 618.886 717.899 618.985L717.878 594.497Z"/><path fill="#FEFEFE" d="M656.829 594.451C670.973 593.996 687.511 594.423 701.847 594.427C701.891 602.043 702.169 611.266 701.714 618.743C686.804 618.697 671.893 618.773 656.984 618.972L656.829 594.451Z"/><path fill="#4861CE" d="M747.915 538.674C749.003 539.968 749.077 540.184 751.367 540.202C759.646 540.266 768.143 540.12 776.421 540.06C793.908 539.897 811.395 539.823 828.883 539.837C828.444 565.538 817.153 574.884 791.728 574.354L782.403 574.12C775.906 573.722 765.88 573.994 759.009 573.972L712.397 573.895L575.162 573.886C556.912 574.04 539.142 572.186 530.3 552.257C528.938 549.187 527.546 544.94 528.94 541.783C536.764 538.865 569.38 542.305 579.991 541.162C585.828 540.533 604.58 542.471 609.185 540.591L611.617 540.938C618.878 541.935 744.098 541.171 747.176 540.068L747.915 538.674Z"/><path fill="#FCD34D" d="M657.096 482.01L702.077 481.886C705.098 493.923 708.491 505.256 716.225 515.447C719.936 520.471 725.417 524.052 729.963 527.936C733.862 531.268 745.87 536.017 747.176 540.068C744.098 541.171 618.878 541.935 611.617 540.938C616.545 537.281 623.007 533.698 628.173 529.8C645.767 516.52 651.892 502.401 657.096 482.01Z"/><path fill="#433B50" d="M655.516 480.418C671.678 480.299 687.84 480.34 704.001 480.544C706.322 500.506 717.651 518.307 734.75 528.859C738.576 531.212 746.798 534.636 747.915 538.674L747.176 540.068C745.87 536.017 733.862 531.268 729.963 527.936C725.417 524.052 719.936 520.471 716.225 515.447C708.491 505.256 705.098 493.923 702.077 481.886L657.096 482.01C651.892 502.401 645.767 516.52 628.173 529.8C623.007 533.698 616.545 537.281 611.617 540.938L609.185 540.591C615.246 536.121 622.188 532.275 628.204 527.677C644.504 515.219 650.983 499.558 655.516 480.418Z"/><path fill="#433B50" d="M530.49 676.42L533.902 676.458L533.851 740.101L530.462 740.272L530.49 676.42Z"/><path fill="#E5E7EB" d="M844.249 451.549C854.598 451.364 864.972 451.108 875.3 451.15C880.877 451.174 888.499 453.224 887.292 460.262C886.638 464.079 884.189 465.97 881.361 468.192C871.895 468.136 862.417 468.534 852.949 468.552C846.358 468.564 839.097 466.138 839.172 458.345C839.202 455.337 842.155 453.341 844.249 451.549Z"/><path fill="#FEFEFE" d="M397.151 435.493C413.326 436.009 432.156 436.182 448.285 435.487L448.297 441.936C448.531 443.587 448.601 445.045 449.248 446.557C447.788 451.179 463.509 724.487 465.878 740.149L448.449 740.136C450.562 760.244 454.748 769.468 469.362 784.131L481.088 962.676C443.7 961.877 403.475 962.642 365.857 962.719C341.981 963.106 317.807 962.615 293.779 962.975C267.323 909.344 254.367 837.218 257.266 777.679C262.82 663.612 310.359 564.84 393.802 488.112C395.036 487.117 394.533 484.271 394.469 482.762C395.672 470.488 397.315 447.45 397.151 435.493Z"/><path fill="#FAACA3" d="M397.151 435.493C413.326 436.009 432.156 436.182 448.285 435.487L448.297 441.936C448.531 443.587 448.601 445.045 449.248 446.557C447.788 451.179 463.509 724.487 465.878 740.149L448.449 740.136C450.562 760.244 454.748 769.468 469.362 784.131L481.088 962.676C443.7 961.877 403.475 962.642 365.857 962.719L386.845 613.804C387.771 598.483 395.282 492.369 393.802 488.112C395.036 487.117 394.533 484.271 394.469 482.762C395.672 470.488 397.315 447.45 397.151 435.493Z"/><path fill="#FCD34D" d="M149.954 867.886C153.176 838.325 162.735 816.535 188.028 798.735C207.136 785.287 230.559 781.37 253.351 785.593C252.71 848.602 263.48 905.062 289.603 962.745L76.8329 962.678C70.7778 917.818 97.4466 876.583 143.163 868.891C145.42 868.512 147.688 868.202 149.954 867.886Z"/><path fill="#FCD34D" d="M1140.84 767.168C1140.92 773.603 1140.91 780.038 1140.82 786.473C1162.72 786.956 1183.49 796.236 1198.46 812.22C1214.65 829.225 1219.65 846.497 1221.63 869.017C1245.47 869.486 1262.33 875.741 1279.22 893.344C1293.57 908.108 1301.26 928.091 1300.52 948.665C1300.32 953.479 1299.84 958.277 1299.1 963.037C1284.02 962.007 1259.3 962.715 1243.77 962.705L1136.85 962.751L1140.29 957.928C1141.46 948.322 1140.61 914.46 1140.59 903.069L1140.6 830.899C1140.52 810.261 1140.1 787.641 1140.84 767.168Z"/><path fill="#A2BFFB" d="M875.122 421.17L875.305 315.072C875.316 284.99 875.259 254.907 875.334 224.811C875.383 205.226 883.272 200.312 901.686 200.342C916.827 200.368 931.932 200.083 947.09 200.473C937.562 221.32 935.446 240.252 936.761 262.79L936.202 264.329C930.32 265.875 925.057 263.161 920.79 266.911C915.834 276.736 922.03 404.399 919.725 424.121C919.156 428.988 920.965 444.202 919.081 448.518L910.91 442.909C902.161 437.323 893.318 431.886 884.386 426.598L875.122 421.17Z"/><path fill="#5D88F1" d="M884.386 426.598C885.744 423.328 885.233 405.907 885.236 401.084L885.2 312.36C885.162 298.334 884.691 284.255 885.741 270.29C886.381 261.778 910.004 263.088 910.456 269.345C911.658 285.977 911.097 303.46 911.077 320.228L910.91 442.909C902.161 437.323 893.318 431.886 884.386 426.598Z"/><path fill="#FCD34D" d="M732.577 794.491C741.253 801.666 748.315 800.647 759.04 800.747C768.893 800.839 775.55 800.707 783.837 794.879C794.87 803.422 806.933 800.076 819.951 800.565C824.653 800.742 829.249 799.969 833.106 797.214C836.802 794.664 837.426 795.303 840.662 797.767C840.287 809.566 840.479 822.168 840.478 834.043L515.54 834.106L515.57 798.242C518.801 797.269 519.665 797.05 522.626 795.336C535.082 803.285 551.383 801.06 565.627 799.501C568.444 799.193 572.828 796.55 575.224 794.96C584.661 801.193 590.568 800.792 601.682 800.749C612.813 800.706 618.446 801.208 627.784 794.556C636.067 800.716 640.53 800.79 650.691 800.682C662.182 800.559 669.403 801.505 679.229 794.922C692.203 803.216 707.785 800.98 722.632 799.406C725.841 799.065 729.928 796.318 732.577 794.491Z"/><path fill="#E5E7EB" d="M405.957 322.164C416.337 322.35 426.719 322.409 437.1 322.343C440.571 322.221 445.394 321.652 447.985 324.271C452.725 329.061 450.541 340.844 450.695 347.345C467.104 349.594 479.097 362.027 479.255 378.866C478.568 379.173 476.672 380.077 476.066 380.255C475.984 389.217 477.24 424.559 475.1 429.733C473.145 431.207 470.23 431.607 467.836 431.932C455.939 433.55 441.409 432.351 429.255 432.338C412.154 432.32 394.475 433.213 377.437 432.059C375.339 431.917 371.208 431.705 369.608 430.316C365.599 426.839 367.249 387.866 367.269 380.097L363.824 378.412C364.952 360.625 377.367 349.582 394.476 347.165C394.728 335.066 389.738 321.936 405.957 322.164Z"/><path fill="#45508B" d="M405.957 322.164C416.337 322.35 426.719 322.409 437.1 322.343C440.571 322.221 445.394 321.652 447.985 324.271C452.725 329.061 450.541 340.844 450.695 347.345C467.104 349.594 479.097 362.027 479.255 378.866C478.568 379.173 476.672 380.077 476.066 380.255C471.834 379.647 447.983 380.01 442.949 380.012L367.269 380.097L363.824 378.412C364.952 360.625 377.367 349.582 394.476 347.165C394.728 335.066 389.738 321.936 405.957 322.164Z"/><path fill="#4861CE" d="M405.957 322.164C416.337 322.35 426.719 322.409 437.1 322.343C440.571 322.221 445.394 321.652 447.985 324.271C452.725 329.061 450.541 340.844 450.695 347.345C433.871 346.335 411.629 346.981 394.476 347.165C394.728 335.066 389.738 321.936 405.957 322.164Z"/><path fill="#5D88F1" d="M936.761 262.79C938.672 279.043 941.185 290.15 946.722 305.386C949.42 311.912 952.26 318.377 955.24 324.779C953.889 333.171 954.398 351.634 954.418 360.781L954.792 436.692C954.872 445.592 955.675 468.618 954.833 476.815L946.358 469.8C937.427 462.501 928.333 455.405 919.081 448.518C920.965 444.202 919.156 428.988 919.725 424.121C922.03 404.399 915.834 276.736 920.79 266.911C925.057 263.161 930.32 265.875 936.202 264.329L936.761 262.79Z"/><path fill="#A2BFFB" d="M946.722 305.386C949.42 311.912 952.26 318.377 955.24 324.779C953.889 333.171 954.398 351.634 954.418 360.781L954.792 436.692C954.872 445.592 955.675 468.618 954.833 476.815L946.358 469.8C946.307 452.63 944.39 311.313 946.722 305.386Z"/><path fill="#FEFEFE" d="M469.362 784.131C484.073 794.455 493.619 798.638 511.839 798.23L511.844 962.765C502.028 962.767 490.79 963.042 481.088 962.676L469.362 784.131Z"/><path fill="#5D88F1" d="M955.24 324.779C963.858 340.669 970.393 349.834 980.746 364.586C979.736 375.543 980.415 399.065 980.418 410.784C980.291 440.832 980.435 470.881 980.852 500.927C971.813 492.694 964.292 485.018 954.833 476.815C955.675 468.618 954.872 445.592 954.792 436.692L954.418 360.781C954.398 351.634 953.889 333.171 955.24 324.779Z"/><path fill="#A2BFFB" d="M980.746 364.586L991.34 377.563C991.342 389.39 990.464 469.921 992.076 472.79C982.2 480.677 983.783 490.96 991.251 499.811C990.704 502.978 990.849 507.847 990.839 511.214L980.852 500.927C980.435 470.881 980.291 440.832 980.418 410.784C980.415 399.065 979.736 375.543 980.746 364.586Z"/><path fill="#FEFEFE" d="M448.285 435.487L458.851 435.442L448.297 441.936L448.285 435.487Z"/><path fill="#FEFEFE" d="M515.448 837.662C559.463 837.448 603.478 837.457 647.492 837.69L840.453 837.686L840.426 962.724L742.14 962.744L741.992 953.833C741.956 924.26 745.615 896.615 722.728 873.635C697.497 848.301 660.399 847.958 634.916 872.924C609.722 897.607 614.853 930.729 614.896 962.708L515.443 962.725C514.767 921.771 515.326 878.748 515.448 837.662Z"/><path fill="#FEFEFE" d="M1129.96 705.051C1132.37 704.736 1134.9 704.125 1136.79 705.407C1137.37 712.188 1137.09 721.638 1137.09 728.589L1137.07 769.669C1116.59 792.885 1093.5 817.435 1073.77 840.916C1070.1 837.536 1055.06 822.779 1052.26 822.261L1051.27 823.612L1051.55 824.938C1056.32 830.658 1066.56 839.19 1072.52 844.813C1087.66 859.328 1103.03 873.601 1118.63 887.625C1122.56 891.186 1132.95 901.158 1137.05 903.25C1137.03 912.333 1138.39 953.267 1135.39 958.121C1131.9 957.675 1120.41 944.502 1116.84 941.031C1101.15 925.85 1085.58 910.546 1070.13 895.12C1061.46 886.482 1050.33 874.645 1041.24 866.818C1037.6 870.486 1032.11 877.472 1028.65 881.595C1021.48 890.131 1014.25 898.603 1006.93 907.011C991.221 924.916 974.563 945.855 958.187 962.788C943.561 962.654 928.933 962.66 914.307 962.806L914.389 950.74C916.342 948.28 918.424 946.035 920.447 943.646C950.184 908.531 980.675 874.102 1010.71 839.233C1004.29 831.972 992.477 821.516 985.181 814.694C1006.96 814.807 1028.75 814.777 1050.53 814.604C1053.47 812.856 1059.54 808.09 1058.78 804.152C1053.56 777.096 1054.87 747.407 1050.39 720.435C1044.76 719.988 1036.78 720.193 1030.97 720.201C1031.1 713.922 1030.71 711.33 1029.25 705.231C1062.29 704.952 1097.1 706.044 1129.96 705.051Z"/><path fill="#FEFEFE" d="M922.279 650.767C961.695 649.915 1004.22 650.79 1043.85 650.808L1096.33 650.714C1103.66 650.69 1129.49 649.416 1136.17 653.137C1140.82 657.568 1139.77 669.762 1139.79 674.487C1139.9 702.119 1138.98 702.13 1111.56 701.769L1027.62 701.459C1024.02 695.113 1020.15 690.407 1013.54 686.903C1006.55 683.142 998.342 682.369 990.775 684.759C982.205 687.533 975.846 693.612 971.834 701.555C952.621 701.798 933.407 701.881 914.193 701.804C914.219 691.681 913.789 681.494 913.859 671.373C913.924 661.919 913.072 655.674 922.279 650.767Z"/><path fill="#433B50" d="M1117.64 675.102C1118.91 674.287 1120.59 674.642 1121.43 675.898C1122.26 677.155 1121.93 678.847 1120.68 679.696C1119.86 680.256 1118.8 680.331 1117.91 679.892C1117.02 679.453 1116.43 678.568 1116.38 677.576C1116.32 676.584 1116.8 675.639 1117.64 675.102Z"/><path fill="#433B50" d="M932.642 675.721C933.797 674.871 935.413 675.066 936.332 676.167C937.25 677.267 937.155 678.892 936.113 679.877C935.38 680.57 934.323 680.799 933.369 680.471C932.415 680.143 931.722 679.313 931.569 678.316C931.417 677.319 931.83 676.319 932.642 675.721Z"/><path fill="#FAACA3" d="M972.356 723.906L1027.56 723.939C1027.46 727.124 1026.48 736.324 1029.28 738.139C1031.82 735.292 1031.02 727.89 1030.89 723.98L1046.9 724.15C1049.71 744.435 1051.38 772.559 1053.24 793.493C1053.34 796.306 1054.37 799.355 1054.6 802.191C1055.3 811.157 1045.9 811.06 1039.48 811.046C1015.09 810.992 990.699 810.704 966.305 810.804C961.311 810.824 953.895 811.156 949.083 810.482C947.436 810.256 945.921 809.459 944.801 808.231C944.142 807.498 943.078 806.182 943.114 805.216C943.408 797.329 944.94 788.726 945.818 780.735C947.928 761.829 949.841 742.901 951.557 723.954L968.402 723.925C968.328 727.239 967.433 736.698 970.608 738.18C973.288 735.173 972.476 728.008 972.356 723.906Z"/><path fill="#E5E7EB" d="M1041.46 872.384C1043.75 874.076 1060.08 890.446 1063.32 893.667C1086.24 916.443 1110.36 939.33 1132.61 962.666L1055.41 962.696L963.573 962.746C989.894 933.724 1015.52 902.021 1041.46 872.384Z"/><path fill="#E5E7EB" d="M914.128 805.541C920.579 804.854 931.817 802.214 938.48 800.844C939.788 818.713 953.815 814.256 966.848 814.732C971.18 814.891 975.677 814.573 980.051 814.622C988.082 822.42 998.143 831.476 1005.63 839.487C997.106 850.346 985.45 862.734 976.227 873.396C955.387 897.26 934.706 921.261 914.183 945.397C913.769 912.195 914.396 878.861 914.156 845.652C914.062 832.762 914.558 818.274 914.128 805.541Z"/><path fill="#FAACA3" d="M673.23 858.232C675.762 858.053 675.567 857.643 677.289 858.721C678.102 865.616 677.562 885.537 677.538 893.462L677.307 963.202C659.21 963.042 641.112 962.993 623.014 963.056C620.205 963.212 618.312 963.147 618.233 959.317C617.836 949.649 618.958 939.23 618.34 929.536C616.088 894.188 636.347 863.165 673.23 858.232Z"/><path fill="#FAACA3" d="M680.902 857.876C695.41 858.835 709.081 865.016 719.387 875.275C743.355 899.322 738.576 931.004 738.564 962.887C719.305 962.765 700.045 962.784 680.786 962.942C680.636 957.984 680.605 952.832 680.659 947.869C680.983 918.007 679.918 887.687 680.902 857.876Z"/><path fill="#FAACA3" d="M1055.53 207.596C1077.57 206.348 1096.45 223.205 1097.7 245.25C1098.95 267.295 1082.11 286.184 1060.07 287.445C1038.02 288.707 1019.13 271.847 1017.87 249.793C1016.62 227.738 1033.48 208.844 1055.53 207.596Z"/><path fill="#FEFEFE" d="M913.916 705.468L970.296 705.41C968.94 711.051 968.588 714.516 968.435 720.264C961.719 720.281 955.003 720.189 948.291 719.987C946.709 731.953 941.901 794.576 938.48 800.844C931.817 802.214 920.579 804.854 914.128 805.541C913.635 795.121 913.928 782.252 913.899 771.691L913.916 705.468Z"/><path fill="#FEFEFE" d="M1136.28 776.507C1137.95 778.995 1137.17 829.198 1137.16 836.332C1127.02 848.455 1116.47 859.106 1106.63 871.824C1101.96 867.068 1096.38 862.03 1091.48 857.414C1086.44 852.917 1081.5 848.309 1076.67 843.594C1082.85 835.541 1093.22 824.487 1100.2 816.628C1111.83 803.535 1124.2 789.075 1136.28 776.507Z"/><path fill="#E5E7EB" d="M1136.85 842.476C1138.09 845.981 1137.36 891.136 1137.42 898.446C1132.64 894.603 1127.93 890.666 1123.31 886.636C1118.73 882.898 1113.52 877.941 1109.09 873.905C1118.21 863.31 1127.46 852.833 1136.85 842.476Z"/><path fill="#FEFEFE" d="M974.081 705.424L1025.94 705.423C1026.84 709.206 1028.56 716.672 1026.92 720.199L972.249 720.17C972.352 714.167 972.816 711.289 974.081 705.424Z"/><path fill="#FEFEFE" d="M995.879 687.448C1009.52 686.636 1016.34 690.336 1023.77 701.723L1004.75 701.87C995.041 701.911 985.328 701.867 975.615 701.737C981.34 693.055 985.716 689.555 995.879 687.448Z"/><path fill="#FAACA3" d="M180.739 386.244C226.246 379.077 267.493 423.225 261.67 468.235C255.919 512.686 226.446 542.748 193.729 570.042L189.474 573.51C186.824 571.603 184.195 569.666 181.588 567.699C151.118 544.558 121.893 511.779 116.384 472.528C110.504 430.639 138.23 391.543 180.739 386.244Z"/><path fill="#F87171" d="M187.704 428.97C203.345 428.23 216.618 440.327 217.333 455.973C218.049 471.619 205.934 484.876 190.291 485.567C174.682 486.256 161.464 474.172 160.75 458.56C160.037 442.949 172.098 429.708 187.704 428.97Z"/><path fill="#FAACA3" d="M1184.26 364.277C1187.52 364.061 1190.79 364.13 1194.04 364.482C1233.38 368.718 1258.72 406.549 1254.14 444.282C1249.65 481.188 1219.49 506.919 1192.65 528.716C1190.82 530.185 1190.19 530.969 1187.98 531.477C1187.16 530.889 1186.35 530.281 1185.55 529.655C1158.61 508.046 1127.72 478.816 1123.87 442.372C1119.71 403.017 1143.23 368.096 1184.26 364.277Z"/><path fill="#F87171" d="M1185.85 404C1199.33 402.783 1211.28 412.667 1212.62 426.148C1213.96 439.629 1204.18 451.669 1190.72 453.127C1177.08 454.604 1164.86 444.675 1163.5 431.022C1162.15 417.37 1172.18 405.232 1185.85 404Z"/><path fill="#433B50" d="M281.143 178.914C314.222 175.619 341.981 207.31 339.318 239.477C336.458 274.008 311.218 297.361 287.165 318.866C286.478 318.532 286.497 318.599 285.945 318.123C263.134 298.478 233.269 273.082 229.662 241.438C227.987 226.425 232.328 211.361 241.733 199.541C251.776 187.058 265.455 180.692 281.143 178.914Z"/><path fill="#FCD34D" d="M278.127 182.827C280.625 182.547 282.625 182.424 285.144 182.459C299.118 182.746 312.4 188.596 322.045 198.713C331.927 209.101 336.533 223.628 336.143 237.808C335.3 268.558 310.272 293.158 289.272 312.797L287.543 313.77C284.396 313.395 280.35 308.973 277.969 306.763C260.419 290.48 238.558 270.262 233.764 245.74C230.909 231.565 233.855 216.837 241.942 204.851C250.749 191.9 263.161 185.722 278.127 182.827Z"/><path fill="#433B50" d="M281.633 210.631C289.219 209.882 296.619 213.29 300.984 219.542C305.348 225.794 305.997 233.916 302.682 240.782C299.366 247.648 292.601 252.189 284.992 252.655C273.525 253.359 263.607 244.747 262.691 233.292C261.775 221.837 270.2 211.759 281.633 210.631Z"/><path fill="#FAACA3" d="M278.909 214.768C288.275 212.086 298.031 217.561 300.621 226.956C303.212 236.35 297.643 246.054 288.226 248.554C278.938 251.02 269.398 245.542 266.842 236.276C264.287 227.01 269.67 217.414 278.909 214.768Z"/><path fill="#E5E7EB" d="M586.269 245.719C609.674 243.242 629.955 253.751 647.569 267.799C678.435 255.324 706.825 267.797 720.702 297.634L655.11 298.127L516.938 297.683C521.697 287.961 524.753 281.536 531.983 273.106C545.736 257.142 565.261 247.292 586.269 245.719Z"/><path fill="#E5E7EB" d="M149.939 602.7C161.017 602.316 214.181 601.012 221.716 603.837C224.661 604.941 226.873 607.553 228.163 610.349C230.041 614.463 230.165 619.164 228.505 623.371C226.796 627.715 223.819 629.599 219.844 631.391C209.095 632.353 154.258 633.379 146.701 630.413C143.959 629.337 141.891 626.971 140.824 624.268C139.33 620.482 139.096 613.67 140.886 609.961C142.786 606.024 146.069 604.21 149.939 602.7Z"/><path fill="#FAACA3" d="M409.39 241.773C417.541 241.691 425.693 241.678 433.844 241.735C435.355 268.452 435.627 295.489 437.1 322.343C426.719 322.409 416.337 322.35 405.957 322.164C406.567 304.061 407.367 285.965 408.359 267.878C408.686 261.2 409.691 248.088 409.39 241.773Z"/><path fill="#E5E7EB" d="M1162.94 553.588C1174.08 553.904 1205.65 551.475 1213.95 556.141C1218.43 558.659 1219.54 561.714 1220.92 566.367C1218.68 572.915 1217.29 575.821 1210.98 579.214C1195.73 579.101 1174.58 581.667 1160.3 577.372C1147.73 573.592 1151.25 557.261 1162.94 553.588Z"/><path fill="#4861CE" d="M409.39 241.773C406.818 241.687 406.458 241.764 404.1 240.892C402.745 233.258 404.161 220.667 404.016 212.69C404.016 212.69 405.21 211.057 405.338 210.882C407.764 209.35 409.521 209.688 412.44 209.704C418.72 210.039 424.383 209.983 430.663 209.921C432.282 209.933 437.843 209.841 438.341 211.499C440.217 217.745 440.081 234.651 439.1 241.053C437.01 241.88 436.15 241.72 433.844 241.735C425.693 241.678 417.541 241.691 409.39 241.773Z"/><path fill="#4861CE" d="M414.532 170.877C412.331 170.795 411.999 170.933 410.346 169.668C409.588 164.683 409.433 157.458 409.614 152.349C409.937 143.265 411.772 140.124 420.609 141.186C421.553 141.216 422.937 141.326 423.824 141.193C433.228 140.47 433.324 142.921 433.561 151.953C433.694 157.049 434.226 164.412 433.28 169.29C431.667 170.88 432.207 170.385 429.752 171.032C426.505 170.2 418.054 170.628 414.532 170.877Z"/><path fill="#FAACA3" d="M414.532 170.877C418.054 170.628 426.505 170.2 429.752 171.032C429.218 180.963 430.733 198.426 430.663 209.921C424.383 209.983 418.72 210.039 412.44 209.704C412.999 196.998 414.287 183.383 414.532 170.877Z"/><path fill="#433B50" d="M420.609 141.186L420.576 100.426C420.585 96.024 419.568 81.8079 422.067 79.0204L423.548 79.6437C424.117 82.3383 423.877 95.1658 423.872 98.573L423.824 141.193C422.937 141.326 421.553 141.216 420.609 141.186Z"/></svg>