<?xml version="1.0" encoding="utf-8" ?><svg xmlns="http://www.w3.org/2000/svg" xmlns:xlink="http://www.w3.org/1999/xlink" width="1365" height="1024" viewBox="0 0 1365 1024"><path fill="white" d="M0 0L1365 0L1365 1024L0 1024L0 0Z"/><path fill="#FCD34D" d="M301.311 44.6746C303.756 44.683 307.012 44.3314 308.926 45.5261C309.826 52.081 309.333 75.4603 309.317 83.3114C314.443 83.7939 320.871 84.1883 325.835 85.0867C367.663 88.1138 411.532 110.965 441.682 139.772C492.048 111.558 546.896 92.2335 603.821 82.6445C624.154 79.3919 641.1 78.1338 661.56 76.8148C662.834 73.8344 663.846 72.0649 665.446 69.2673C667.848 63.8224 673.201 61.422 678.61 60.1608L678.877 61.413C680.43 62.3146 684.162 61.7695 686.179 61.6468C686.14 57.8047 685.825 53.1608 686.957 49.589L687.018 59.7853C693.754 62.0238 705.016 68.7541 703.025 77.23C782.265 78.8707 859.799 100.557 928.396 140.268L928.962 142.317C923.305 147.716 919.621 152.456 914.65 158.502C883.27 198.243 869.077 248.883 875.232 299.148C878.535 326.088 886.877 350.006 899.946 373.628L898.276 373.72C877.151 385.427 854.209 399.002 832.94 409.972L835.815 415.99C838.619 426.468 842.73 436.487 844.537 446.904C851.882 489.227 844.206 533.455 816.396 567.149C810.382 574.435 803.83 584.41 798.078 592.403C796.767 594.161 795.244 596.101 794.018 597.888C801.799 602.364 882.516 651.081 884.105 653.941L885.812 654.873C854.744 696.69 841.634 749.174 849.385 800.693C852.585 821.398 859.135 841.443 868.777 860.042L871.045 864.241L869.751 866.016C819.154 889.818 760.156 902.922 704.483 905.815C701.222 916.207 697.264 919.866 686.702 922.561C686.651 934.91 686.717 947.26 686.901 959.608L679.856 959.678C679.983 947.444 679.996 935.209 679.894 922.975C668.999 918.686 666.647 917.298 662.682 906.016C593.989 900.938 557.391 892.919 493.337 865.882C473.294 897.386 457.795 914.994 426.754 936.513L423.211 938.57C389.73 958.344 359.621 967.641 320.463 969.295C250.086 972.268 180.03 937.503 141.902 877.581C113.525 833.154 104.046 779.236 115.567 727.791C125.933 683.344 151.168 643.772 187.093 615.633C198.578 606.65 206.121 602.799 217.793 595.399C201.72 547.16 197.236 493.476 198.598 442.918C183.013 433.418 166.876 420.37 154.685 406.755C120.357 368.496 102.487 318.245 104.95 266.896C107.722 199.827 147.082 140.689 205.242 108.358C236.05 91.2319 266.355 84.3386 301.271 83.3799L301.311 44.6746Z"/><path fill="#F87171" d="M680.32 318.041L687.134 318.056C697.694 318.672 707.573 319.205 718 321.19C752.162 327.847 783.251 345.387 806.617 371.187C817.995 383.936 824.972 395.108 832.94 409.972L835.815 415.99C838.619 426.468 842.73 436.487 844.537 446.904C851.882 489.227 844.206 533.455 816.396 567.149C810.382 574.435 803.83 584.41 798.078 592.403C796.767 594.161 795.244 596.101 794.018 597.888C801.799 602.364 882.516 651.081 884.105 653.941L885.812 654.873C854.744 696.69 841.634 749.174 849.385 800.693C852.585 821.398 859.135 841.443 868.777 860.042L871.045 864.241L869.751 866.016C819.154 889.818 760.156 902.922 704.483 905.815C701.222 916.207 697.264 919.866 686.702 922.561C686.651 934.91 686.717 947.26 686.901 959.608L679.856 959.678C679.983 947.444 679.996 935.209 679.894 922.975C668.999 918.686 666.647 917.298 662.682 906.016C593.989 900.938 557.391 892.919 493.337 865.882L491.44 864.748L494.622 858.675L496.331 860.014C515.813 814.796 522.733 783.103 514.857 733.575C510.573 705.872 496.47 677.184 480.548 654.4C494.088 645.332 510.239 636.213 524.31 627.817L574.563 597.522C574.172 596.288 572.336 593.587 571.556 592.341C561.634 577.882 551.636 562.701 542.102 548.009C518.637 511.85 516.49 455.851 533.978 416.998C535.009 415.443 535.932 413.254 536.735 411.526C562.681 353.576 618.609 322.335 680.32 318.041Z"/><path fill="#FEFEFE" d="M794.018 597.888C801.799 602.364 882.516 651.081 884.105 653.941L885.812 654.873C854.744 696.69 841.634 749.174 849.385 800.693C852.585 821.398 859.135 841.443 868.777 860.042L871.045 864.241L869.751 866.016C819.154 889.818 760.156 902.922 704.483 905.815C701.222 916.207 697.264 919.866 686.702 922.561C686.651 934.91 686.717 947.26 686.901 959.608L679.856 959.678C679.983 947.444 679.996 935.209 679.894 922.975C668.999 918.686 666.647 917.298 662.682 906.016C593.989 900.938 557.391 892.919 493.337 865.882L491.44 864.748L494.622 858.675L496.331 860.014C515.813 814.796 522.733 783.103 514.857 733.575C520.411 735.381 526.733 739.127 532.022 741.786C542.086 746.847 552.04 752.076 562.647 755.956C590.898 767.115 618.065 772.911 648.152 776.117C658.235 777.192 670.522 777.001 679.926 778.336L679.956 749.779C681.634 751.895 681.796 752.883 684.013 753.478C685.658 752.194 685.884 751.991 687.266 750.434C689.575 745.703 695.432 737.82 698.632 733.26L715.842 708.472C741.673 671.45 767.733 634.588 794.018 597.888Z"/><path fill="#FFFEFE" d="M514.857 733.575C520.411 735.381 526.733 739.127 532.022 741.786C542.086 746.847 552.04 752.076 562.647 755.956C590.898 767.115 618.065 772.911 648.152 776.117C658.235 777.192 670.522 777.001 679.926 778.336L679.985 881.62C669.069 884.76 665.795 888.768 662.19 899.38C612.291 898.286 559.361 885.619 513.134 867.092C510.387 865.991 497.298 861.39 496.331 860.014C515.813 814.796 522.733 783.103 514.857 733.575Z"/><path fill="#4D4A79" d="M679.956 749.779C681.634 751.895 681.796 752.883 684.013 753.478C685.658 752.194 685.884 751.991 687.266 750.434C686.955 759.586 686.966 768.852 687.038 778.013C687.311 812.512 686.544 847.056 686.813 881.547C697.483 885.156 701.598 888.33 704.676 899.465C747.812 896.609 783.292 890.696 824.72 876.718C839.531 871.721 852.72 866.015 867.033 860.83L868.777 860.042L871.045 864.241L869.751 866.016C819.154 889.818 760.156 902.922 704.483 905.815C701.222 916.207 697.264 919.866 686.702 922.561C686.651 934.91 686.717 947.26 686.901 959.608L679.856 959.678C679.983 947.444 679.996 935.209 679.894 922.975C668.999 918.686 666.647 917.298 662.682 906.016C593.989 900.938 557.391 892.919 493.337 865.882L491.44 864.748L494.622 858.675L496.331 860.014C497.298 861.39 510.387 865.991 513.134 867.092C559.361 885.619 612.291 898.286 662.19 899.38C665.795 888.768 669.069 884.76 679.985 881.62L679.926 778.336L679.956 749.779Z"/><path fill="#F87171" d="M681.804 884.767C691.403 883.817 699.973 890.789 700.998 900.384C702.023 909.978 695.119 918.604 685.536 919.704C675.845 920.816 667.105 913.818 666.069 904.117C665.032 894.416 672.097 885.728 681.804 884.767Z"/><path fill="#433B50" d="M867.033 860.83C856.025 837.886 849.336 818.597 846.512 793.03C842.087 752.976 849.646 715.133 868.273 679.539C872.414 671.626 878.518 660.905 884.105 653.941L885.812 654.873C854.744 696.69 841.634 749.174 849.385 800.693C852.585 821.398 859.135 841.443 868.777 860.042L867.033 860.83Z"/><path fill="#FEFEFE" d="M574.563 597.522C579.037 602.798 586.828 614.758 591.015 620.831L625.045 670.525L661.757 722.85C664.983 727.424 678.683 746.143 679.956 749.779L679.926 778.336C670.522 777.001 658.235 777.192 648.152 776.117C618.065 772.911 590.898 767.115 562.647 755.956C552.04 752.076 542.086 746.847 532.022 741.786C526.733 739.127 520.411 735.381 514.857 733.575C510.573 705.872 496.47 677.184 480.548 654.4C494.088 645.332 510.239 636.213 524.31 627.817L574.563 597.522Z"/><path fill="#6B98F6" d="M685.777 367.281C741.499 368.215 787.263 411.597 791.186 467.201C795.109 522.806 755.889 572.186 700.851 580.938C688.97 582.828 676.855 582.708 665.013 580.585C610.63 570.835 572.498 521.43 576.831 466.337C581.164 411.244 626.552 368.413 681.791 367.289C683.119 367.262 684.448 367.259 685.777 367.281Z"/><path fill="#FEFEFE" d="M674.758 472.975C680.771 473.674 686.32 473.091 692.27 472.461C693.886 487.07 695.152 501.995 696.05 516.675C697.356 538.02 699.821 559.62 700.851 580.938C688.97 582.828 676.855 582.708 665.013 580.585C668.899 547.617 672.607 506.286 674.758 472.975Z"/><path fill="#FEFEFE" d="M696.521 445.482C705.506 445.478 715.74 445.227 724.622 445.539C723.871 450.234 719.358 457.938 715.778 461.147C708.894 467.091 701.42 471.215 692.27 472.461C686.32 473.091 680.771 473.674 674.758 472.975C664.762 470.073 660.31 467.953 652.346 461.243C647.86 458.038 644.469 450.696 642.278 445.878C658.83 445.856 680.236 446.425 696.521 445.482Z"/><path fill="#F79A49" d="M652.346 461.243C673.49 461.319 694.634 461.287 715.778 461.147C708.894 467.091 701.42 471.215 692.27 472.461C686.32 473.091 680.771 473.674 674.758 472.975C664.762 470.073 660.31 467.953 652.346 461.243Z"/><path fill="#4C5182" d="M639.402 436.676L692.16 436.826C703.366 437.55 717.349 437.26 728.764 437.33C727.955 439.935 727.111 444.245 724.622 445.539C715.74 445.227 705.506 445.478 696.521 445.482C681.762 444.507 656.855 445.36 641.328 445.383L639.402 436.676Z"/><path fill="#FEFEFE" d="M639.402 436.676C638.6 433.927 638.389 433.395 638.549 430.562L639.246 429.6C648.132 429.201 658.268 429.284 667.192 429.546C687.795 430.15 709.426 428.68 729.903 429.693L728.822 436.932C717.321 436.809 703.531 436.323 692.16 436.826L639.402 436.676Z"/><path fill="#FEFEFE" d="M681.791 367.289C683.119 367.262 684.448 367.259 685.777 367.281C685.846 372.598 688.163 402.212 682.579 402.641C681.224 399.13 681.76 372.799 681.791 367.289Z"/><path fill="#F79A49" d="M660.26 419.314C665.786 404.132 684.147 400.706 697.303 408.32C701.881 410.969 704.041 414.424 706.712 418.881C709.72 419.555 715.097 419.365 718.391 419.368L718.328 428.142C709.926 427.638 650.239 427.947 648.753 426.957C648.041 424.28 648.281 422.199 648.392 419.463C652.129 419.431 656.588 419.514 660.26 419.314Z"/><path fill="#FEFEFE" d="M660.26 419.314C665.786 404.132 684.147 400.706 697.303 408.32C701.881 410.969 704.041 414.424 706.712 418.881C692.256 418.71 674.562 418.358 660.26 419.314Z"/><path fill="#FAD8D2" d="M312.417 572.998C313.579 591.492 312.002 612.963 312.697 631.795L328.718 631.844C329.33 623.312 327.886 578.823 329.464 574.391C380.272 576.042 430.958 602.589 465.399 639.348C470.469 644.789 475.25 650.493 479.721 656.436L480.548 654.4C496.47 677.184 510.573 705.872 514.857 733.575C522.733 783.103 515.813 814.796 496.331 860.014L494.622 858.675L491.44 864.748L493.337 865.882C473.294 897.386 457.795 914.994 426.754 936.513L423.211 938.57C389.73 958.344 359.621 967.641 320.463 969.295C250.086 972.268 180.03 937.503 141.902 877.581C113.525 833.154 104.046 779.236 115.567 727.791C125.933 683.344 151.168 643.772 187.093 615.633C198.578 606.65 206.121 602.799 217.793 595.399C218.203 596.435 218.059 596.368 218.732 597.204C240.985 586.305 261.592 578.879 286.353 575.556C295.091 574.383 303.695 574.04 312.417 572.998Z"/><path fill="#FAD8D2" d="M329.464 574.391C380.272 576.042 430.958 602.589 465.399 639.348C470.469 644.789 475.25 650.493 479.721 656.436L480.548 654.4C496.47 677.184 510.573 705.872 514.857 733.575C522.733 783.103 515.813 814.796 496.331 860.014L494.622 858.675L491.44 864.748L493.337 865.882C473.294 897.386 457.795 914.994 426.754 936.513L425.239 934.039L425.321 918.313L415.189 918.281L414.946 857.265C414.907 852.438 414.324 825.697 415.305 822.186C417.343 821.83 416.577 822.313 417.829 820.982L417.205 819.797L415.202 819.274C413.866 813.693 414.461 761.844 415.115 754.057L412.42 753.689C409.621 753.594 405.861 754.08 403.824 752.94L403.515 751.284L403.072 751.078C403.624 747.516 403.366 732.597 403.357 728.559L403.229 684.042C406.925 684.027 412.273 683.738 415.678 684.728C417.832 684.057 417.925 684.439 418.936 682.994C417.418 681.587 417.507 682.013 415.026 681.613C412.535 682.08 406.127 681.954 403.281 681.969C393.248 682.065 383.215 682.064 373.183 681.967L373.073 681.56C372.159 678.522 372.562 660.634 372.603 656.231C367.855 656.233 363.108 656.203 358.361 656.141L358.571 632.008L328.718 631.844C329.33 623.312 327.886 578.823 329.464 574.391Z"/><path fill="#F87171" d="M403.229 684.042C406.925 684.027 412.273 683.738 415.678 684.728C414.929 686.222 414.441 745.254 415.203 750.675L417.237 751.137L417.775 752.279C416.683 753.638 416.788 753.572 415.115 754.057L412.42 753.689C409.621 753.594 405.861 754.08 403.824 752.94L403.515 751.284L403.072 751.078C403.624 747.516 403.366 732.597 403.357 728.559L403.229 684.042Z"/><path fill="#5C4C70" d="M415.203 750.675L417.237 751.137L417.775 752.279C416.683 753.638 416.788 753.572 415.115 754.057L412.42 753.689C409.621 753.594 405.861 754.08 403.824 752.94L403.515 751.284C406.986 751.28 411.984 751.479 415.203 750.675Z"/><path fill="#433B50" d="M479.721 656.436L480.548 654.4C496.47 677.184 510.573 705.872 514.857 733.575C522.733 783.103 515.813 814.796 496.331 860.014L494.622 858.675C502.882 841.941 508.867 824.177 512.419 805.856C523.147 751.22 510.314 702.042 479.721 656.436Z"/><path fill="#FFFEFE" d="M373.542 673.431C381.244 673.464 397.161 672.59 403.46 673.275L403.281 681.969C393.248 682.065 383.215 682.064 373.183 681.967L373.073 681.56C373.395 679.607 373.45 675.558 373.542 673.431Z"/><path fill="#433B50" d="M491.44 864.748L493.337 865.882C473.294 897.386 457.795 914.994 426.754 936.513L425.239 934.039C429.542 932.617 436.834 926.703 440.6 923.736C464.24 905.115 475.241 888.998 491.44 864.748Z"/><path fill="#F87171" d="M403.46 673.275C407.48 673.725 411.014 673.631 415.031 673.596C415.025 675.922 414.913 679.379 415.026 681.613C412.535 682.08 406.127 681.954 403.281 681.969L403.46 673.275Z"/><path fill="#4D4A79" d="M335.591 682.012C339.487 682.045 350.366 682.51 353.38 681.486C354.73 678.104 352.9 677.895 354.57 675.18L355.929 675.31C357.633 678.794 355.514 679.798 357.441 681.778C362.413 682.238 368.135 682.023 373.183 681.967C383.215 682.064 393.248 682.065 403.281 681.969C406.127 681.954 412.535 682.08 415.026 681.613C417.507 682.013 417.418 681.587 418.936 682.994C417.925 684.439 417.832 684.057 415.678 684.728C412.273 683.738 406.925 684.027 403.229 684.042L403.357 728.559C403.366 732.597 403.624 747.516 403.072 751.078L403.515 751.284L403.824 752.94C405.861 754.08 409.621 753.594 412.42 753.689L415.115 754.057C414.461 761.844 413.866 813.693 415.202 819.274L417.205 819.797L417.829 820.982C416.577 822.313 417.343 821.83 415.305 822.186C411.519 822.027 407.04 822.114 403.195 822.087C395.967 822.058 388.74 821.989 381.514 821.882L373.214 822.053C367.529 822.042 361.845 822.132 356.163 822.321L356.011 823.509L353.788 822.507C350.872 821.729 339.129 822.021 335.328 822.042C325.772 821.963 316.214 821.987 306.658 822.115C303.481 822.259 301.372 822.188 298.221 822.031C300.938 820.338 300.396 822.541 303.393 821.033L302.982 819.821C298.032 819.746 293.534 819.697 288.583 819.265L286.763 819.146C280.813 819.949 275.585 819.318 269.937 819.659L268.965 820.08C267.882 821.26 267.102 821.411 265.619 821.986L238.745 822.009C234.731 821.955 230.536 822.117 226.509 822.211C225.208 821.972 225.305 821.932 224.377 820.96L224.846 819.829L226.516 819.384C227.142 814.279 226.856 801.158 226.832 795.604C226.772 781.927 227.055 767.625 226.667 753.996C225.183 753.832 225.291 753.821 224.103 752.893L224.209 751.855L225.911 751.097C227.262 749.217 227.14 690.55 226.598 684.745C225.097 684.535 225.191 684.588 224.094 683.545L224.594 682.463L226.629 681.893C230.682 682.03 234.737 682.102 238.793 682.11C249.171 682.203 259.55 682.185 269.928 682.056C273.649 682.109 283.631 682.64 286.465 681.475C286.935 678.941 286.567 676.837 287.669 675.444L288.584 675.927C288.677 677.969 288.769 679.269 289.058 681.289C291.366 682.907 303.161 682.135 306.602 682.058C315.996 682.066 326.269 682.286 335.591 682.012Z"/><path fill="#FEFEFE" d="M269.97 753.465L286.446 753.659C287.426 774.991 285.977 797.833 286.763 819.146C280.813 819.949 275.585 819.318 269.937 819.659L268.965 820.08C267.882 821.26 267.102 821.411 265.619 821.986L238.745 822.009C234.731 821.955 230.536 822.117 226.509 822.211C225.208 821.972 225.305 821.932 224.377 820.96L224.846 819.829L226.516 819.384C227.142 814.279 226.856 801.158 226.832 795.604C226.772 781.927 227.055 767.625 226.667 753.996L238.594 753.579C246.555 752.933 261.065 753.437 269.457 753.5L269.97 753.465Z"/><path fill="#F87171" d="M269.97 753.465L286.446 753.659C287.426 774.991 285.977 797.833 286.763 819.146C280.813 819.949 275.585 819.318 269.937 819.659C270.64 814.177 270.349 757.504 269.457 753.5L269.97 753.465Z"/><path fill="#F87171" d="M226.667 753.996L238.594 753.579C238.581 774.902 238.102 798.762 238.723 819.875C235.161 819.936 229.811 820.185 226.516 819.384C227.142 814.279 226.856 801.158 226.832 795.604C226.772 781.927 227.055 767.625 226.667 753.996Z"/><path fill="#4D4A79" d="M226.516 819.384C229.811 820.185 235.161 819.936 238.723 819.875C245.188 819.899 263.314 819.542 268.965 820.08C267.882 821.26 267.102 821.411 265.619 821.986L238.745 822.009C234.731 821.955 230.536 822.117 226.509 822.211C225.208 821.972 225.305 821.932 224.377 820.96L224.846 819.829L226.516 819.384Z"/><path fill="#FEFEFE" d="M238.608 684.16C247.273 684.025 261.135 683.652 269.635 684.203C269.686 693.842 271.211 744.767 269.442 751.201L270.097 751.373L269.97 753.465L269.457 753.5C261.065 753.437 246.555 752.933 238.594 753.579L226.667 753.996C225.183 753.832 225.291 753.821 224.103 752.893L224.209 751.855L225.911 751.097C227.262 749.217 227.14 690.55 226.598 684.745C230.17 684.381 234.934 684.317 238.608 684.16Z"/><path fill="#F87171" d="M226.598 684.745C230.17 684.381 234.934 684.317 238.608 684.16C238.462 706.54 238.446 728.921 238.559 751.302C234.342 751.318 230.125 751.25 225.911 751.097C227.262 749.217 227.14 690.55 226.598 684.745Z"/><path fill="#4D4A79" d="M226.667 753.996C225.183 753.832 225.291 753.821 224.103 752.893L224.209 751.855L225.911 751.097C230.125 751.25 234.342 751.318 238.559 751.302C248.275 751.301 259.878 751.611 269.442 751.201L270.097 751.373L269.97 753.465L269.457 753.5C261.065 753.437 246.555 752.933 238.594 753.579L226.667 753.996Z"/><path fill="#FEFEFE" d="M403.072 751.078L403.515 751.284L403.824 752.94C405.861 754.08 409.621 753.594 412.42 753.689L415.115 754.057C414.461 761.844 413.866 813.693 415.202 819.274L417.205 819.797L417.829 820.982C416.577 822.313 417.343 821.83 415.305 822.186C411.519 822.027 407.04 822.114 403.195 822.087C395.967 822.058 388.74 821.989 381.514 821.882C378.038 820.395 376.735 821.861 373.286 820.22C371.973 801.241 373.505 773.794 373.008 753.617L372.898 751.385L373.663 751.162C382.964 751.158 393.907 751.439 403.072 751.078Z"/><path fill="#F87171" d="M412.42 753.689L415.115 754.057C414.461 761.844 413.866 813.693 415.202 819.274C410.944 819.605 407.428 819.729 403.153 819.775C404.075 800.675 403.263 773.415 403.264 753.727L412.42 753.689Z"/><path fill="#4D4A79" d="M415.202 819.274L417.205 819.797L417.829 820.982C416.577 822.313 417.343 821.83 415.305 822.186C411.519 822.027 407.04 822.114 403.195 822.087C395.967 822.058 388.74 821.989 381.514 821.882C378.038 820.395 376.735 821.861 373.286 820.22C382.112 819.245 393.812 820.31 403.153 819.775C407.428 819.729 410.944 819.605 415.202 819.274Z"/><path fill="#4D4A79" d="M403.072 751.078L403.515 751.284L403.824 752.94C405.861 754.08 409.621 753.594 412.42 753.689L403.264 753.727C394.928 753.207 381.787 753.592 373.008 753.617L372.898 751.385L373.663 751.162C382.964 751.158 393.907 751.439 403.072 751.078Z"/><path fill="#FEFEFE" d="M373.284 684.139C383.265 683.97 393.247 683.938 403.229 684.042L403.357 728.559C403.366 732.597 403.624 747.516 403.072 751.078C393.907 751.439 382.964 751.158 373.663 751.162C372.388 747.664 373.259 692.001 373.284 684.139Z"/><path fill="#FEFEFE" d="M306.999 751.16L335.402 751.192L336.121 751.371L335.966 753.493L335.393 753.533C336.044 759.423 335.721 771.032 335.693 777.409L335.474 819.798C327.868 820.337 314.238 820.089 306.613 819.837L306.577 753.797L306.733 753.551L306.25 751.371L306.999 751.16Z"/><path fill="#4D4A79" d="M306.999 751.16L335.402 751.192L336.121 751.371L335.966 753.493L335.393 753.533C325.84 753.433 316.286 753.439 306.733 753.551L306.25 751.371L306.999 751.16Z"/><path fill="#FEFEFE" d="M306.685 684.201C316.329 683.987 325.977 683.961 335.622 684.123C336.079 705.772 335.391 729.232 335.402 751.192L306.999 751.16C305.694 747.412 306.558 692.143 306.685 684.201Z"/><path fill="#F87171" d="M335.622 684.123C341.529 684.163 348.089 684.066 353.938 684.279L353.97 751.321L336.121 751.371L335.402 751.192C335.391 729.232 336.079 705.772 335.622 684.123Z"/><path fill="#F87171" d="M335.966 753.493L353.988 753.49L353.952 819.697C347.792 819.687 341.633 819.721 335.474 819.798L335.693 777.409C335.721 771.032 336.044 759.423 335.393 753.533L335.966 753.493Z"/><path fill="#F87171" d="M288.684 684.5C294.744 684.524 300.633 684.622 306.685 684.201C306.558 692.143 305.694 747.412 306.999 751.16L306.25 751.371C302.985 751.008 292.444 751.222 288.656 751.21L288.684 684.5Z"/><path fill="#F87171" d="M356.263 753.551C361.844 753.459 367.427 753.481 373.008 753.617C373.505 773.794 371.973 801.241 373.286 820.22C376.735 821.861 378.038 820.395 381.514 821.882L373.214 822.053C367.529 822.042 361.845 822.132 356.163 822.321L354.786 821.816C354.116 819.768 354.096 820.774 354.969 818.701L355.563 819.191C356.403 815.473 356.131 800.701 356.13 795.986L356.263 753.551Z"/><path fill="#4C5182" d="M356.163 822.321L354.786 821.816C354.116 819.768 354.096 820.774 354.969 818.701L355.563 819.191C360.223 820.847 369.337 819.128 373.286 820.22C376.735 821.861 378.038 820.395 381.514 821.882L373.214 822.053C367.529 822.042 361.845 822.132 356.163 822.321Z"/><path fill="#F87171" d="M288.649 753.675C294.626 753.637 300.602 753.678 306.577 753.797L306.613 819.837L302.982 819.821C298.032 819.746 293.534 819.697 288.583 819.265L288.649 753.675Z"/><path fill="#F87171" d="M269.635 684.203L286.679 684.351L286.641 751.273L286.446 753.659L269.97 753.465L270.097 751.373L269.442 751.201C271.211 744.767 269.686 693.842 269.635 684.203Z"/><path fill="#5C4C70" d="M270.097 751.373C275.611 751.26 281.126 751.227 286.641 751.273L286.446 753.659L269.97 753.465L270.097 751.373Z"/><path fill="#F87171" d="M356.435 684.402L373.284 684.139C373.259 692.001 372.388 747.664 373.663 751.162L372.898 751.385C367.968 751.148 361.368 751.302 356.313 751.272C356.217 728.982 356.258 706.691 356.435 684.402Z"/><path fill="#F87171" d="M286.763 819.146L288.583 819.265C293.534 819.697 298.032 819.746 302.982 819.821L303.393 821.033C300.396 822.541 300.938 820.338 298.221 822.031C301.372 822.188 303.481 822.259 306.658 822.115C316.214 821.987 325.772 821.963 335.328 822.042C339.129 822.021 350.872 821.729 353.788 822.507C354.146 854.402 353.904 886.633 353.865 918.557C311.847 918.556 268.512 919.089 226.598 918.521C227.51 907.8 226.502 881.958 226.752 870.165C226.955 860.636 227.436 830.268 226.509 822.211C230.536 822.117 234.731 821.955 238.745 822.009L265.619 821.986C267.102 821.411 267.882 821.26 268.965 820.08L269.937 819.659C275.585 819.318 280.813 819.949 286.763 819.146Z"/><path fill="#FEFEFE" d="M265.619 821.986L269.963 822.102C270.761 838.099 270.001 863.607 269.996 880.24L238.705 880.137L238.745 822.009L265.619 821.986Z"/><path fill="#FEFEFE" d="M306.658 822.115C316.214 821.987 325.772 821.963 335.328 822.042L335.473 880.011L306.662 880.003C306.54 860.707 306.539 841.411 306.658 822.115Z"/><path fill="#4C5182" d="M286.763 819.146L288.583 819.265C293.534 819.697 298.032 819.746 302.982 819.821L303.393 821.033C300.396 822.541 300.938 820.338 298.221 822.031L288.796 822.262L286.543 822.21C281.712 821.861 274.941 822.083 269.963 822.102L265.619 821.986C267.102 821.411 267.882 821.26 268.965 820.08L269.937 819.659C275.585 819.318 280.813 819.949 286.763 819.146Z"/><path fill="#5C4C70" d="M286.543 822.21L288.796 822.262C288.768 824.307 289.043 827.817 287.497 829.175C286.271 826.935 286.553 824.833 286.543 822.21Z"/><path fill="#F87171" d="M381.514 821.882C388.74 821.989 395.967 822.058 403.195 822.087C407.04 822.114 411.519 822.027 415.305 822.186C414.324 825.697 414.907 852.438 414.946 857.265L415.189 918.281L425.321 918.313C402.275 918.572 379.227 918.624 356.179 918.471L356.011 823.509L356.163 822.321C361.845 822.132 367.529 822.042 373.214 822.053L381.514 821.882Z"/><path fill="#FEFEFE" d="M381.514 821.882C388.74 821.989 395.967 822.058 403.195 822.087C404.011 839.207 403.306 862.433 403.319 880.037L373.198 879.913L373.214 822.053L381.514 821.882Z"/><path fill="#4D4A79" d="M353.788 822.507L356.011 823.509L356.179 918.471C379.227 918.624 402.275 918.572 425.321 918.313L425.239 934.039L426.754 936.513L423.211 938.57L420.159 937.375L214.975 937.925L215.034 918.493L226.598 918.521C268.512 919.089 311.847 918.556 353.865 918.557C353.904 886.633 354.146 854.402 353.788 822.507Z"/><path fill="#FEFEFE" d="M283.935 631.793C293.104 631.505 303.443 631.768 312.697 631.795L328.718 631.844L358.571 632.008L358.361 656.141C363.108 656.203 367.855 656.233 372.603 656.231C372.562 660.634 372.159 678.522 373.073 681.56L373.183 681.967C368.135 682.023 362.413 682.238 357.441 681.778C355.514 679.798 357.633 678.794 355.929 675.31L354.57 675.18C352.9 677.895 354.73 678.104 353.38 681.486C350.366 682.51 339.487 682.045 335.591 682.012C326.269 682.286 315.996 682.066 306.602 682.058L306.604 655.556C302.742 654.789 288.455 655.412 283.915 655.543C283.795 647.715 283.915 639.641 283.935 631.793Z"/><path fill="#F87171" d="M358.361 656.141C363.108 656.203 367.855 656.233 372.603 656.231C372.562 660.634 372.159 678.522 373.073 681.56L373.183 681.967C368.135 682.023 362.413 682.238 357.441 681.778C355.514 679.798 357.633 678.794 355.929 675.31L354.57 675.18C352.9 677.895 354.73 678.104 353.38 681.486C350.366 682.51 339.487 682.045 335.591 682.012C335.751 673.412 335.688 664.602 335.723 655.983L358.361 656.141Z"/><path fill="#433B50" d="M217.793 595.399C218.203 596.435 218.059 596.368 218.732 597.204C206.921 604.409 199.106 608.738 187.954 617.428C153.174 644.706 128.589 682.903 118.16 725.863C106.102 776.508 114.728 829.872 142.128 874.135C197.911 965.278 323.844 994.468 415.653 940.372C417.168 939.479 418.754 938.435 420.159 937.375L423.211 938.57C389.73 958.344 359.621 967.641 320.463 969.295C250.086 972.268 180.03 937.503 141.902 877.581C113.525 833.154 104.046 779.236 115.567 727.791C125.933 683.344 151.168 643.772 187.093 615.633C198.578 606.65 206.121 602.799 217.793 595.399Z"/><path fill="#F87171" d="M270 655.985C278.922 656.034 298.749 656.556 306.604 655.556L306.602 682.058C303.161 682.135 291.366 682.907 289.058 681.289C288.769 679.269 288.677 677.969 288.584 675.927L287.669 675.444C286.567 676.837 286.935 678.941 286.465 681.475C283.631 682.64 273.649 682.109 269.928 682.056L269.946 671.249L270 655.985Z"/><path fill="#FFFEFE" d="M239.204 670.985C244.15 670.87 267.062 669.932 269.946 671.249L269.928 682.056C259.55 682.185 249.171 682.203 238.793 682.11L238.715 680.341C239.311 677.187 239.186 674.198 239.204 670.985Z"/><path fill="#F87171" d="M227.127 673.056C230.562 673.053 234.871 672.053 237.557 673.459C239.171 676.082 238.63 676.884 238.715 680.341L238.793 682.11C234.737 682.102 230.682 682.03 226.629 681.893C227.158 679.904 227.089 675.353 227.127 673.056Z"/><path fill="#FEFEFE" d="M686.179 61.6468C686.14 57.8047 685.825 53.1608 686.957 49.589L687.018 59.7853C693.754 62.0238 705.016 68.7541 703.025 77.23C782.265 78.8707 859.799 100.557 928.396 140.268L928.962 142.317C923.305 147.716 919.621 152.456 914.65 158.502C883.27 198.243 869.077 248.883 875.232 299.148C878.535 326.088 886.877 350.006 899.946 373.628L898.276 373.72C877.151 385.427 854.209 399.002 832.94 409.972C824.972 395.108 817.995 383.936 806.617 371.187C783.251 345.387 752.162 327.847 718 321.19C707.573 319.205 697.694 318.672 687.134 318.056L680.32 318.041C618.609 322.335 562.681 353.576 536.735 411.526C521.813 402.725 506.823 394.039 491.766 385.47C487.92 383.295 474.738 376.487 472.225 374.363L470.765 372.993C484.53 346.724 493.82 322.236 495.98 292.384C500.313 232.498 482.395 189.687 444.83 144.985C410.699 111.34 372.949 93.4123 325.664 86.9609L325.835 85.0867C367.663 88.1138 411.532 110.965 441.682 139.772C492.048 111.558 546.896 92.2335 603.821 82.6445C624.154 79.3919 641.1 78.1338 661.56 76.8148C662.834 73.8344 663.846 72.0649 665.446 69.2673C667.848 63.8224 673.201 61.422 678.61 60.1608L678.877 61.413C680.43 62.3146 684.162 61.7695 686.179 61.6468Z"/><path fill="#FEFEFE" d="M446.297 144.807C452.855 139.888 468.948 132.613 477.026 128.797C539.532 99.2666 594.125 88.2029 662.284 82.8724C665.678 93.9786 668.851 97.5676 680.323 100.269C680.112 172.375 681.268 246.167 680.32 318.041C618.609 322.335 562.681 353.576 536.735 411.526C521.813 402.725 506.823 394.039 491.766 385.47C487.92 383.295 474.738 376.487 472.225 374.363L470.765 372.993C484.53 346.724 493.82 322.236 495.98 292.384C500.313 232.498 482.395 189.687 444.83 144.985L446.297 144.807Z"/><path fill="#433B50" d="M444.83 144.985L446.297 144.807C479.168 177.508 499.016 229.627 498.598 275.648C498.269 311.88 489.319 342.746 472.225 374.363L470.765 372.993C484.53 346.724 493.82 322.236 495.98 292.384C500.313 232.498 482.395 189.687 444.83 144.985Z"/><path fill="#4D4A79" d="M686.179 61.6468C686.14 57.8047 685.825 53.1608 686.957 49.589L687.018 59.7853C693.754 62.0238 705.016 68.7541 703.025 77.23C782.265 78.8707 859.799 100.557 928.396 140.268L928.962 142.317C923.305 147.716 919.621 152.456 914.65 158.502L913.029 158.037C916.812 153.207 919.789 149.48 923.967 144.959C853.335 104.303 784.304 87.3223 703.467 83.3481C700.273 93.8294 697.121 97.34 686.544 100.185C687.582 172.774 686.707 245.412 687.134 318.056L680.32 318.041C681.268 246.167 680.112 172.375 680.323 100.269C668.851 97.5676 665.678 93.9786 662.284 82.8724C594.125 88.2029 539.532 99.2666 477.026 128.797C468.948 132.613 452.855 139.888 446.297 144.807L444.83 144.985C410.699 111.34 372.949 93.4123 325.664 86.9609L325.835 85.0867C367.663 88.1138 411.532 110.965 441.682 139.772C492.048 111.558 546.896 92.2335 603.821 82.6445C624.154 79.3919 641.1 78.1338 661.56 76.8148C662.834 73.8344 663.846 72.0649 665.446 69.2673C667.848 63.8224 673.201 61.422 678.61 60.1608L678.877 61.413C680.43 62.3146 684.162 61.7695 686.179 61.6468Z"/><path fill="#F87171" d="M686.179 61.6468C686.14 57.8047 685.825 53.1608 686.957 49.589L687.018 59.7853C693.754 62.0238 705.016 68.7541 703.025 77.23C701.879 75.5385 701.724 75.0323 700.967 73.1046C700.316 74.4487 700.335 74.343 700.421 75.8336C701.514 84.2505 699.328 92.3083 690.775 95.87C685.924 97.8595 680.48 97.8293 675.652 95.7861C671.351 93.97 667.973 90.4838 666.292 86.1275C664.092 80.4508 665.403 75.3786 667.721 70.131C666.732 69.4928 666.629 69.5987 665.446 69.2673C667.848 63.8224 673.201 61.422 678.61 60.1608L678.877 61.413C680.43 62.3146 684.162 61.7695 686.179 61.6468Z"/><path fill="#4D4A79" d="M686.179 61.6468C686.14 57.8047 685.825 53.1608 686.957 49.589L687.018 59.7853C693.754 62.0238 705.016 68.7541 703.025 77.23C701.879 75.5385 701.724 75.0323 700.967 73.1046C700.316 74.4487 700.335 74.343 700.421 75.8336C699.385 72.0427 697.245 68.6456 694.274 66.0738C686.328 59.3156 674.048 62.7226 667.721 70.131C666.732 69.4928 666.629 69.5987 665.446 69.2673C667.848 63.8224 673.201 61.422 678.61 60.1608L678.877 61.413C680.43 62.3146 684.162 61.7695 686.179 61.6468Z"/><path fill="#5C4C70" d="M913.029 158.037L914.65 158.502C883.27 198.243 869.077 248.883 875.232 299.148C878.535 326.088 886.877 350.006 899.946 373.628L898.276 373.72C887.125 359.591 875.441 318.022 873.426 299.737C867.564 246.54 880.719 199.991 913.029 158.037Z"/><path fill="#FEFEFE" d="M198.598 442.918C183.013 433.418 166.876 420.37 154.685 406.755C120.357 368.496 102.487 318.245 104.95 266.896L106.544 269.132C105.241 320.348 122.687 370.412 158.154 407.796C193.78 445.801 243.123 467.976 295.189 469.381C299.8 469.449 304.41 469.454 309.021 469.396C321.102 469.206 338.242 466.408 349.936 463.414C400.648 450.581 444.142 418.033 470.765 372.993L472.225 374.363C474.738 376.487 487.92 383.295 491.766 385.47C506.823 394.039 521.813 402.725 536.735 411.526C535.932 413.254 535.009 415.443 533.978 416.998C516.49 455.851 518.637 511.85 542.102 548.009C551.636 562.701 561.634 577.882 571.556 592.341C572.336 593.587 574.172 596.288 574.563 597.522L524.31 627.817C510.239 636.213 494.088 645.332 480.548 654.4L479.721 656.436C475.25 650.493 470.469 644.789 465.399 639.348C430.958 602.589 380.272 576.042 329.464 574.391C327.886 578.823 329.33 623.312 328.718 631.844L312.697 631.795C312.002 612.963 313.579 591.492 312.417 572.998C303.695 574.04 295.091 574.383 286.353 575.556C261.592 578.879 240.985 586.305 218.732 597.204C218.059 596.368 218.203 596.435 217.793 595.399C201.72 547.16 197.236 493.476 198.598 442.918Z"/><path fill="#4D4A79" d="M198.598 442.918C183.013 433.418 166.876 420.37 154.685 406.755C120.357 368.496 102.487 318.245 104.95 266.896L106.544 269.132C105.241 320.348 122.687 370.412 158.154 407.796C193.78 445.801 243.123 467.976 295.189 469.381C299.8 469.449 304.41 469.454 309.021 469.396L305.044 470.802C267.194 471.216 237.689 463.959 204.114 446.121C204.12 501.811 208.148 538.544 223.165 592.623C248.232 581.756 278.68 571.551 306.324 571.903L311.934 572.29L312.417 572.998C303.695 574.04 295.091 574.383 286.353 575.556C261.592 578.879 240.985 586.305 218.732 597.204C218.059 596.368 218.203 596.435 217.793 595.399C201.72 547.16 197.236 493.476 198.598 442.918Z"/><path fill="#4C5182" d="M312.609 548.642L328.807 548.872C328.747 552.919 327.999 569.51 329.584 571.804L330.553 572.187L329.464 574.391C327.886 578.823 329.33 623.312 328.718 631.844L312.697 631.795C312.002 612.963 313.579 591.492 312.417 572.998L311.934 572.29L306.324 571.903C308.14 571.713 311.128 571.691 312.38 570.612C313.041 564.954 312.67 554.676 312.609 548.642Z"/><defs><linearGradient id="gradient_0" gradientUnits="userSpaceOnUse" x1="348.15292" y1="630.88275" x2="561.48694" y2="563.25879"><stop offset="0" stop-color="#65586C"/><stop offset="1" stop-color="#4E497D"/></linearGradient></defs><path fill="url(#gradient_0)" d="M330.553 572.187C385.63 575.256 434.308 601.521 470.767 642.292C472.721 644.501 474.635 646.746 476.506 649.026C508.305 630.266 539.526 610.691 571.556 592.341C572.336 593.587 574.172 596.288 574.563 597.522L524.31 627.817C510.239 636.213 494.088 645.332 480.548 654.4L479.721 656.436C475.25 650.493 470.469 644.789 465.399 639.348C430.958 602.589 380.272 576.042 329.464 574.391L330.553 572.187Z"/><path fill="#4D4A79" d="M470.765 372.993L472.225 374.363C474.738 376.487 487.92 383.295 491.766 385.47C506.823 394.039 521.813 402.725 536.735 411.526C535.932 413.254 535.009 415.443 533.978 416.998C512.804 405.037 489.834 392.117 469.012 379.521C462.147 388.957 455.094 398.795 447.249 407.41C417.265 440.397 376.801 462.001 332.713 468.559C323.56 470.002 314.31 470.752 305.044 470.802L309.021 469.396C321.102 469.206 338.242 466.408 349.936 463.414C400.648 450.581 444.142 418.033 470.765 372.993Z"/><path fill="#6B98F6" d="M229.002 234.464L379.963 234.623L379.821 270.85C374.753 270.834 365.276 271.021 360.583 270.42C354.953 269.691 343.308 269.97 337.526 270.285C331.433 270.67 323.391 270.883 317.328 270.249C311.643 269.808 298.659 269.754 293.285 270.39C288.745 271.162 276.311 271.09 271.534 270.606C266.805 270.126 252.088 269.641 247.959 270.894C245.188 272.126 232.723 271.734 229.088 271.72C229.109 261.775 229.079 251.831 228.998 241.887L229.002 234.464Z"/><path fill="#FEFEFE" d="M293.285 270.39C293.243 268.255 293.454 264.323 293.18 262.324C291.662 251.259 307.328 246.766 314.049 254.298C318.172 258.918 317.467 264.279 317.328 270.249C311.643 269.808 298.659 269.754 293.285 270.39Z"/><path fill="#FEFEFE" d="M247.959 270.894C247.847 266.44 246.672 257.828 249.938 254.651C256.401 248.364 272.356 249.897 271.604 261.399C271.442 264.283 271.533 267.736 271.534 270.606C266.805 270.126 252.088 269.641 247.959 270.894Z"/><path fill="#FEFEFE" d="M337.609 256.858C340.962 253.485 343.001 252.037 347.847 251.521C362.211 249.991 360.762 260.795 360.583 270.42C354.953 269.691 343.308 269.97 337.526 270.285C337.494 266.475 337.267 260.489 337.609 256.858Z"/><path fill="#FEFEFE" d="M318.124 205.358C321.136 208.133 325.087 211.507 326.959 215.162C347.991 215.332 369.024 215.376 390.056 215.293L390.051 234.761L379.963 234.623L229.002 234.464L228.998 241.887L228.833 234.436L216.499 234.563L216.533 214.829L279.433 214.905C283.202 211.998 290.918 209.494 293.011 205.795C297.256 204.955 312.929 205.337 318.124 205.358Z"/><path fill="#6B98F6" d="M318.124 205.358C321.136 208.133 325.087 211.507 326.959 215.162C315.844 215.416 289.765 215.779 279.433 214.905C283.202 211.998 290.918 209.494 293.011 205.795C297.256 204.955 312.929 205.337 318.124 205.358Z"/><path fill="#4C5182" d="M301.311 44.6746C303.756 44.683 307.012 44.3314 308.926 45.5261C309.826 52.081 309.333 75.4603 309.317 83.3114C314.443 83.7939 320.871 84.1883 325.835 85.0867L325.664 86.9609C319.532 86.2425 315.565 85.9372 309.393 85.8387L309.317 129.703C309.307 137.149 308.999 146.822 309.48 153.964C310.666 154.712 310.833 154.721 312.18 155.169C313.056 158.751 312.551 167.331 312.455 171.382C307.72 171.171 302.682 171.322 297.92 171.379C297.861 167.456 297.462 158.221 298.174 154.778C299.39 154.286 299.39 154.334 300.712 154.238C302.157 150.009 301.237 93.3902 301.233 85.3433C248.421 85.3566 197.832 106.609 160.848 144.319C128.449 177.066 107.436 222.83 106.544 269.132L104.95 266.896C107.722 199.827 147.082 140.689 205.242 108.358C236.05 91.2319 266.355 84.3386 301.271 83.3799L301.311 44.6746Z"/><path fill="#FEFEFE" d="M297.92 171.379C302.682 171.322 307.72 171.171 312.455 171.382L337.025 171.494L337.065 186.696L318.014 186.528L318.124 205.358C312.929 205.337 297.256 204.955 293.011 205.795C292.405 200.793 292.721 192.041 292.781 186.682L273.368 186.819L273.449 171.472C281.606 171.511 289.763 171.48 297.92 171.379Z"/><path fill="#6B98F6" d="M168.328 275.651L438.447 275.791L438.464 297.244L429.794 297.191C429.721 317.522 430.096 339.411 429.635 359.637L438.494 359.776L438.489 376.018L375.857 376.178L375.842 386.414C330.483 385.461 281.539 386.396 235.965 386.578L236.03 376.626L169.283 376.652L169.224 359.529L178.343 359.648C178.646 339.736 178.791 316.595 178.223 296.785L168.412 296.754L168.328 275.651Z"/><path fill="#4C5182" d="M329.308 348.836L330.145 347.609C330.739 350.825 330.473 356.259 330.428 359.704C362.702 359.484 397.392 359.06 429.635 359.637L438.494 359.776L438.489 376.018L375.857 376.178L375.842 386.414C330.483 385.461 281.539 386.396 235.965 386.578L236.03 376.626L169.283 376.652L169.224 359.529L178.343 359.648L248.831 359.501C254.056 359.492 275.645 359.931 279.592 359.418L280.893 358.905L284.057 359.829C288.513 358.557 322.391 359.378 329.371 359.389L329.308 348.836Z"/><path fill="#FFFEFE" d="M331.741 361.593L338.711 361.717L338.728 372.714L269.887 372.702C269.809 368.661 269.859 365.349 270.06 361.312C289.747 362.057 311.877 361.582 331.741 361.593Z"/><path fill="#4D4A79" d="M279.592 359.418L280.893 358.905L284.057 359.829C291.451 362.241 325.82 357.567 331.741 361.593C311.877 361.582 289.747 362.057 270.06 361.312L269.404 360.733C268.302 360.633 267.461 360.522 266.367 360.346C269.509 360.359 277.338 360.91 279.592 359.418Z"/><path fill="#FEFEFE" d="M168.328 275.651L438.447 275.791L438.464 297.244L429.794 297.191L178.223 296.785L168.412 296.754L168.328 275.651Z"/><path fill="#FEFEFE" d="M281.153 325.783C297.209 325.887 313.266 325.877 329.322 325.753C329.273 333.447 329.268 341.142 329.308 348.836L329.371 359.389C322.391 359.378 288.513 358.557 284.057 359.829L280.893 358.905C281.573 355.665 281.182 330.478 281.153 325.783Z"/><path fill="#FEFEFE" d="M219.668 324.335L220.066 323.767L220.583 324.211C220.678 331.842 220.413 339.233 220.77 346.875C211.266 346.395 202.75 346.321 193.267 346.327C193.209 340.335 192.827 330.261 193.311 324.594L194.025 324.513C199.883 324.586 214.484 325.02 219.668 324.335Z"/><path fill="#4861CE" d="M219.668 324.335L220.066 323.767L220.583 324.211C220.678 331.842 220.413 339.233 220.77 346.875C211.266 346.395 202.75 346.321 193.267 346.327C193.209 340.335 192.827 330.261 193.311 324.594L194.025 324.513C194.909 328.726 194.538 340.461 194.494 345.316L219.16 345.317C219.147 340.831 218.901 327.987 219.668 324.335Z"/><path fill="#FEFEFE" d="M239.882 324.7L264.008 324.692L264.03 344.113C264.305 342.303 264.224 341.587 265.035 340.001L265.481 346.817C257.623 346.699 245.998 346.18 238.43 346.688L238.911 340.795L239.631 345.279C240.181 340.371 239.896 330.028 239.882 324.7Z"/><path fill="#4861CE" d="M264.03 344.113C264.305 342.303 264.224 341.587 265.035 340.001L265.481 346.817C257.623 346.699 245.998 346.18 238.43 346.688L238.911 340.795L239.631 345.279C243.483 345.292 262.365 346.048 264.03 344.113Z"/><path fill="#FEFEFE" d="M392.309 324.685L417.379 324.66L417.372 345.344L392.148 345.32C392.419 338.53 392.319 331.502 392.309 324.685Z"/><path fill="#FEFEFE" d="M347.509 324.68L371.848 324.645C371.86 331.517 371.933 338.392 371.633 345.257L347.502 345.266C347.66 338.595 347.517 331.393 347.509 324.68Z"/><path fill="#F87171" d="M928.396 140.268C966.968 102.35 1018.96 81.2222 1073.04 81.4914C1130.02 82.1222 1179.08 103.296 1218.7 144.045C1254.12 180.368 1273.4 229.437 1272.2 280.162C1271.45 330.985 1248.41 379.292 1212.15 414.501C1204.36 422.063 1183.87 438.88 1173.83 442.802C1172.62 444.759 1174.07 456.254 1174.31 459.23C1175.66 476.978 1175.61 494.805 1174.18 512.546C1171.64 546.725 1165.77 568.326 1155.18 600.069L1152.61 600.877L1149.78 599.356C1115.29 581.153 1076.56 572.507 1037.6 574.312C974.975 578.341 924.674 605.78 885.812 654.873L884.105 653.941C882.516 651.081 801.799 602.364 794.018 597.888C795.244 596.101 796.767 594.161 798.078 592.403C803.83 584.41 810.382 574.435 816.396 567.149C844.206 533.455 851.882 489.227 844.537 446.904C842.73 436.487 838.619 426.468 835.815 415.99L832.94 409.972C854.209 399.002 877.151 385.427 898.276 373.72L899.946 373.628C886.877 350.006 878.535 326.088 875.232 299.148C869.077 248.883 883.27 198.243 914.65 158.502C919.621 152.456 923.305 147.716 928.962 142.317L928.396 140.268Z"/><path fill="#FFFEFE" d="M898.276 373.72L899.946 373.628C902.218 377.098 904.573 380.84 906.948 384.212C913.432 392.992 923.989 406.642 932.04 414.31C959.885 440.829 997.199 461.571 1035.48 467.26C1042.46 468.298 1049.96 468.719 1056.62 469.942C1102.99 470.719 1131.56 464.143 1172.98 441.873L1173.83 442.802C1172.62 444.759 1174.07 456.254 1174.31 459.23C1175.66 476.978 1175.61 494.805 1174.18 512.546C1171.64 546.725 1165.77 568.326 1155.18 600.069L1152.61 600.877L1149.78 599.356C1115.29 581.153 1076.56 572.507 1037.6 574.312C974.975 578.341 924.674 605.78 885.812 654.873L884.105 653.941C882.516 651.081 801.799 602.364 794.018 597.888C795.244 596.101 796.767 594.161 798.078 592.403C803.83 584.41 810.382 574.435 816.396 567.149C844.206 533.455 851.882 489.227 844.537 446.904C842.73 436.487 838.619 426.468 835.815 415.99L832.94 409.972C854.209 399.002 877.151 385.427 898.276 373.72Z"/><path fill="#4D4A79" d="M888.62 648.092C892.859 643.231 897.218 638.476 901.691 633.829C934.014 600.731 987.012 573.298 1033.64 572.745C1035.14 574.181 1035.41 574.078 1037.6 574.312C974.975 578.341 924.674 605.78 885.812 654.873L884.105 653.941C882.516 651.081 801.799 602.364 794.018 597.888C795.244 596.101 796.767 594.161 798.078 592.403C805.228 595.826 823.609 607.574 830.994 612.192L888.62 648.092Z"/><path fill="#4D4A79" d="M1172.98 441.873L1173.83 442.802C1172.62 444.759 1174.07 456.254 1174.31 459.23C1175.66 476.978 1175.61 494.805 1174.18 512.546C1171.64 546.725 1165.77 568.326 1155.18 600.069L1152.61 600.877L1149.78 599.356L1150.82 597.969C1154.28 584.639 1158.72 572.558 1161.98 558.415C1171.11 518.705 1170.45 486.716 1168.22 446.784C1128.06 465.563 1104.67 471.824 1060.62 471.47L1056.62 469.942C1102.99 470.719 1131.56 464.143 1172.98 441.873Z"/><path fill="#4D4A79" d="M898.276 373.72L899.946 373.628C902.218 377.098 904.573 380.84 906.948 384.212L905.598 385.481L901.24 379.672C879.224 391.4 857.412 403.508 835.815 415.99L832.94 409.972C854.209 399.002 877.151 385.427 898.276 373.72Z"/><path fill="#5C4C70" d="M906.948 384.212C913.432 392.992 923.989 406.642 932.04 414.31C959.885 440.829 997.199 461.571 1035.48 467.26C1042.46 468.298 1049.96 468.719 1056.62 469.942L1060.62 471.47C1053.58 471.123 1046.55 470.501 1039.55 469.606C996.284 463.38 956.377 442.745 926.279 411.035C918.548 402.892 912.355 394.412 905.598 385.481L906.948 384.212Z"/><path fill="#433B50" d="M1033.64 572.745C1066.74 570.476 1098.51 575.526 1129.24 587.964C1134.86 590.237 1145.73 594.767 1150.82 597.969L1149.78 599.356C1115.29 581.153 1076.56 572.507 1037.6 574.312C1035.41 574.078 1035.14 574.181 1033.64 572.745Z"/><path fill="#5C4C70" d="M928.396 140.268C966.968 102.35 1018.96 81.2222 1073.04 81.4914C1130.02 82.1222 1179.08 103.296 1218.7 144.045C1254.12 180.368 1273.4 229.437 1272.2 280.162C1271.45 330.985 1248.41 379.292 1212.15 414.501C1204.36 422.063 1183.87 438.88 1173.83 442.802L1172.98 441.873C1230.6 405.397 1269 350.106 1270.31 280.339C1271.63 230.328 1252.77 181.891 1217.98 145.945C1137.88 62.7504 1011.61 62.6831 928.962 142.317L928.396 140.268Z"/><path fill="#4D4A79" d="M1029.38 175.545C1029.16 163.482 1027.29 148.702 1043.11 145.67C1045.42 145.225 1047.93 145.198 1050.29 145.2C1069.15 145.217 1088.04 144.565 1106.9 144.682C1112.28 144.715 1118.39 146.539 1122.01 150.645C1127.99 157.256 1126.79 167.48 1126.42 175.854L1183.73 175.826C1183.8 179.22 1184.49 183.554 1182.94 186.1C1181.01 187.333 1179.5 186.971 1177.15 186.866L1178.7 187.483C1180.22 191.653 1179.28 239.653 1179.26 247.279C1182.46 247.444 1182.36 246.929 1184.68 248.657C1185.7 250.891 1185.58 249.755 1185 252.189C1182.78 254.285 1182.14 253.902 1179.15 253.647L1179.47 308.776C1182.94 308.962 1182.62 308.437 1185.17 310.151C1186.31 312.519 1186.22 311.344 1185.6 313.784C1183.49 315.688 1183.2 315.578 1179.78 315.405L1179.34 315.379L1179.53 358.81C1179.54 363.701 1179.24 375.622 1179.67 380.051C1182.32 381.369 1181.4 392.754 1181.38 395.853C1133.24 396.805 1084.53 395.391 1036.32 395.923C1015.95 396.147 994.707 396.288 974.427 395.692C974.255 391.218 973.575 385.509 974.816 381.461C976.588 379.681 975.931 380.238 979.303 380.171L979.486 315.118C976.162 315.182 975.642 315.267 973.375 313.647C972.626 311.486 972.569 312.509 973.477 310.472C975.817 308.759 976.143 309.235 979.313 308.963L979.293 253.783C975.992 254.019 975.696 254.254 973.459 251.969C972.931 249.713 972.84 250.8 973.875 248.611C976.086 247.045 976.138 247.527 979.148 247.428L979.171 186.776C977.514 186.766 977.191 186.918 975.742 186.111C974.262 183.17 974.923 179.084 975.051 175.556L1050.67 175.765C1043.57 175.592 1036.48 175.519 1029.38 175.545Z"/><path fill="#FEFEFE" d="M1127.58 315.276C1144.83 315.185 1162.09 315.22 1179.34 315.379L1179.53 358.81C1179.54 363.701 1179.24 375.622 1179.67 380.051C1163.05 380.575 1144.44 380.147 1127.68 380.126L1127.58 315.276Z"/><path fill="#FEFEFE" d="M1127.46 187.062L1177.15 186.866L1178.7 187.483C1180.22 191.653 1179.28 239.653 1179.26 247.279L1127.66 247.33L1127.46 187.062Z"/><path fill="#FEFEFE" d="M979.486 315.118L1026.32 315.226L1026.28 380.132L979.303 380.171L979.486 315.118Z"/><path fill="#FEFEFE" d="M1029.38 175.545C1029.16 163.482 1027.29 148.702 1043.11 145.67C1045.42 145.225 1047.93 145.198 1050.29 145.2C1069.15 145.217 1088.04 144.565 1106.9 144.682C1112.28 144.715 1118.39 146.539 1122.01 150.645C1127.99 157.256 1126.79 167.48 1126.42 175.854L1050.67 175.765C1043.57 175.592 1036.48 175.519 1029.38 175.545Z"/><path fill="#FEFEFE" d="M1127.68 253.591C1143.92 253.471 1163.2 252.92 1179.15 253.647L1179.47 308.776L1127.71 308.746L1127.68 253.591Z"/><path fill="#FEFEFE" d="M979.171 186.776C994.675 186.781 1010.68 186.577 1026.14 186.833C1026.16 206.884 1025.97 227.311 1026.25 247.331L979.148 247.428L979.171 186.776Z"/><path fill="#FEFEFE" d="M979.293 253.783C994.879 253.589 1010.47 253.531 1026.05 253.608L1026.31 308.971C1010.64 308.816 994.978 308.813 979.313 308.963L979.293 253.783Z"/><path fill="#FEFEFE" d="M1032.17 186.957L1121.38 186.922L1121.5 247.469L1032.1 247.319C1031.45 229.354 1031.81 205.104 1032.17 186.957Z"/><path fill="#FEFEFE" d="M1031.88 315.31L1121.38 315.295L1121.28 380.09L1091.57 380.062L1089.83 379.793C1088.2 376.775 1088.94 356.12 1088.99 351.302C1080.46 351.091 1071.67 351.127 1063.12 351.059L1063.05 380.073L1032.08 380.132C1031.83 358.526 1031.76 336.917 1031.88 315.31Z"/><path fill="#FEFEFE" d="M1031.93 253.602L1121.6 253.785L1121.55 308.848C1091.7 308.717 1061.86 308.766 1032.02 308.997L1031.93 253.602Z"/><path fill="#FAD8D2" d="M1037.6 574.312C1076.56 572.507 1115.29 581.153 1149.78 599.356L1152.61 600.877L1155.18 600.069C1205.94 632.233 1240.04 674.039 1252.64 733.559C1262.8 781.516 1252.98 835.248 1226.72 876.431C1197.33 922.55 1150.67 954.942 1097.19 966.343C1041.81 978.499 983.868 967.962 936.308 937.086C908.427 919.224 886.666 894.254 869.751 866.016L871.045 864.241L868.777 860.042C859.135 841.443 852.585 821.398 849.385 800.693C841.634 749.174 854.744 696.69 885.812 654.873C924.674 605.78 974.975 578.341 1037.6 574.312Z"/><path fill="#433B50" d="M1155.18 600.069C1205.94 632.233 1240.04 674.039 1252.64 733.559C1262.8 781.516 1252.98 835.248 1226.72 876.431C1197.33 922.55 1150.67 954.942 1097.19 966.343C1041.81 978.499 983.868 967.962 936.308 937.086C908.427 919.224 886.666 894.254 869.751 866.016L871.045 864.241C887.901 893.52 910.721 918.852 939.416 936.879C987.286 967.076 1045.28 976.756 1100.36 963.741C1152.74 951.553 1198.15 919.106 1226.66 873.503C1263.78 813.745 1263.88 734.263 1227.79 674.087C1208.3 641.577 1184.42 620.471 1152.61 600.877L1155.18 600.069Z"/><path fill="#5C4C70" d="M929.703 720C964.918 694.343 1001.8 670.601 1037.18 645.119C1042 641.643 1047.2 638.156 1052.23 634.972C1091.45 661.513 1135.28 692.048 1173.29 720.059L1145.32 720.088C1145.31 736.278 1144.93 753.886 1145.3 769.949L1160.6 769.945C1172.34 781.433 1183.19 793.384 1194.68 804.746L1175.69 804.653L1175.67 844.94C1175.67 849.366 1175.43 861.554 1175.85 865.62C1174.15 866.026 1170.43 865.956 1168.54 865.984L1126.47 866.048L1119.7 866.008L1077.77 865.918L1070.4 866.063C1072.74 867.391 1075.17 867.122 1077.95 867.179C1082.74 871.148 1089.39 880.781 1093.2 886.028L1094.57 885.304C1096.38 887.455 1097.57 890.027 1098.9 892.525C1067.21 893.394 1032.72 892.763 1000.82 892.71C1002.5 889.765 1004.46 886.744 1006.28 883.859C981.991 883.594 957.693 883.967 933.405 883.846C928.759 883.823 924.105 883.931 919.467 883.601C919.617 877.695 918.295 872.162 920.257 867.094C922.327 865.441 922.605 865.986 925.726 865.962L925.616 804.649L903.715 804.562C916.254 793.22 928.296 781.223 940.757 769.739C946.445 769.491 952.328 769.586 958.035 769.597C958.164 753.067 958.174 736.537 958.065 720.007L929.703 720Z"/><path fill="#FEFEFE" d="M925.616 804.649L932.788 804.71L972.465 804.679L979.696 804.679L1021.27 804.702L1028.35 804.687C1028.35 824.713 1028.64 845.613 1028.35 865.576L1069.89 865.744L1070.4 866.063C1072.74 867.391 1075.17 867.122 1077.95 867.179C1082.74 871.148 1089.39 880.781 1093.2 886.028L1094.57 885.304C1096.38 887.455 1097.57 890.027 1098.9 892.525C1067.21 893.394 1032.72 892.763 1000.82 892.71C1002.5 889.765 1004.46 886.744 1006.28 883.859C981.991 883.594 957.693 883.967 933.405 883.846C928.759 883.823 924.105 883.931 919.467 883.601C919.617 877.695 918.295 872.162 920.257 867.094C922.327 865.441 922.605 865.986 925.726 865.962L925.616 804.649Z"/><path fill="#FFFEFE" d="M1028.35 865.576L1069.89 865.744L1070.4 866.063C1072.74 867.391 1075.17 867.122 1077.95 867.179C1082.74 871.148 1089.39 880.781 1093.2 886.028L1094.57 885.304C1096.38 887.455 1097.57 890.027 1098.9 892.525C1067.21 893.394 1032.72 892.763 1000.82 892.71C1002.5 889.765 1004.46 886.744 1006.28 883.859C981.991 883.594 957.693 883.967 933.405 883.846C928.759 883.823 924.105 883.931 919.467 883.601C919.617 877.695 918.295 872.162 920.257 867.094C922.327 865.441 922.605 865.986 925.726 865.962L932.724 866.107L972.565 866.021L979.683 866.034C993.417 866.028 1007.55 866.193 1021.25 865.963L1028.22 866.005L1028.35 865.576Z"/><path fill="#5C4C70" d="M1021.25 865.963L1028.22 866.005C1025.17 866.679 1023.21 866.383 1021.03 866.85C1016.54 871.909 1012.11 878.905 1008.05 884.465C1002.36 881.256 940.576 884.474 929.737 883.323C928.104 883.15 921.501 883.452 919.467 883.601C919.617 877.695 918.295 872.162 920.257 867.094C922.327 865.441 922.605 865.986 925.726 865.962L932.724 866.107L972.565 866.021L979.683 866.034C993.417 866.028 1007.55 866.193 1021.25 865.963Z"/><path fill="#433B50" d="M919.467 883.601C921.501 883.452 928.104 883.15 929.737 883.323C940.576 884.474 1002.36 881.256 1008.05 884.465L1003.45 891.288C1013.46 891.289 1093.36 891.712 1095.19 890.673C1095.03 888.135 1094.75 888.506 1093.2 886.028L1094.57 885.304C1096.38 887.455 1097.57 890.027 1098.9 892.525C1067.21 893.394 1032.72 892.763 1000.82 892.71C1002.5 889.765 1004.46 886.744 1006.28 883.859C981.991 883.594 957.693 883.967 933.405 883.846C928.759 883.823 924.105 883.931 919.467 883.601Z"/><path fill="#433B50" d="M1028.35 865.576L1069.89 865.744L1070.4 866.063C1072.74 867.391 1075.17 867.122 1077.95 867.179C1071.59 867.756 1057.31 867.273 1050.5 867.311C1043.59 867.35 1027.3 867.683 1021.03 866.85C1023.21 866.383 1025.17 866.679 1028.22 866.005L1028.35 865.576Z"/><path fill="#FEFEFE" d="M925.616 804.649L932.788 804.71L972.465 804.679L972.565 866.021L932.724 866.107L925.726 865.962L925.616 804.649Z"/><path fill="#F87171" d="M925.616 804.649L932.788 804.71C932.692 824.978 932.478 845.839 932.724 866.107L925.726 865.962L925.616 804.649Z"/><path fill="#F87171" d="M972.465 804.679L979.696 804.679C979.686 824.932 979.437 845.828 979.683 866.034L972.565 866.021L972.465 804.679Z"/><path fill="#F87171" d="M1021.27 804.702L1028.35 804.687C1028.35 824.713 1028.64 845.613 1028.35 865.576L1028.22 866.005L1021.25 865.963L1021.27 804.702Z"/><path fill="#FEFEFE" d="M1168.72 804.629L1175.69 804.653L1175.67 844.94C1175.67 849.366 1175.43 861.554 1175.85 865.62C1174.15 866.026 1170.43 865.956 1168.54 865.984L1126.47 866.048L1119.7 866.008L1077.77 865.918L1070.4 866.063L1069.89 865.744L1028.35 865.576C1028.64 845.613 1028.35 824.713 1028.35 804.687L1070.33 804.714L1077.74 804.718L1119.7 804.681L1126.43 804.686C1140.34 804.676 1154.87 804.888 1168.72 804.629Z"/><path fill="#FEFEFE" d="M1168.72 804.629L1175.69 804.653L1175.67 844.94C1175.67 849.366 1175.43 861.554 1175.85 865.62C1174.15 866.026 1170.43 865.956 1168.54 865.984L1126.47 866.048L1119.7 866.008L1119.7 804.681L1126.43 804.686C1140.34 804.676 1154.87 804.888 1168.72 804.629Z"/><path fill="#F87171" d="M1168.72 804.629L1175.69 804.653L1175.67 844.94C1175.67 849.366 1175.43 861.554 1175.85 865.62C1174.15 866.026 1170.43 865.956 1168.54 865.984C1168.71 845.533 1168.78 825.081 1168.72 804.629Z"/><path fill="#F87171" d="M1119.7 804.681L1126.43 804.686C1126.44 824.612 1126.06 846.247 1126.47 866.048L1119.7 866.008L1119.7 804.681Z"/><path fill="#FEFEFE" d="M1028.35 804.687L1070.33 804.714C1070.38 811.572 1071.31 863.252 1069.89 865.744L1028.35 865.576C1028.64 845.613 1028.35 824.713 1028.35 804.687Z"/><path fill="#F87171" d="M1070.33 804.714L1077.74 804.718C1077.65 823.773 1077.11 847.051 1077.77 865.918L1070.4 866.063L1069.89 865.744C1071.31 863.252 1070.38 811.572 1070.33 804.714Z"/><path fill="#5C4C70" d="M958.035 769.597C960.666 769.693 963.187 769.821 965.823 769.728L1012.35 769.83L1019.4 769.866C1041.13 769.868 1063.95 769.514 1085.59 769.89L1092.42 769.98L1138.57 769.936L1145.3 769.949L1160.6 769.945C1172.34 781.433 1183.19 793.384 1194.68 804.746L1175.69 804.653L1168.72 804.629C1154.87 804.888 1140.34 804.676 1126.43 804.686L1119.7 804.681L1077.74 804.718L1070.33 804.714L1028.35 804.687L1021.27 804.702L979.696 804.679L972.465 804.679L932.788 804.71L925.616 804.649L903.715 804.562C916.254 793.22 928.296 781.223 940.757 769.739C946.445 769.491 952.328 769.586 958.035 769.597Z"/><path fill="#FEFEFE" d="M1019.31 720.058L1085.55 720.044C1085.57 736.055 1086.02 754.057 1085.59 769.89C1063.95 769.514 1041.13 769.868 1019.4 769.866L1012.35 769.83C1013.24 757.176 1012.44 733.553 1012.42 720.054L1019.31 720.058Z"/><path fill="#F87171" d="M1012.42 720.054L1019.31 720.058C1019.33 735.946 1018.88 754.185 1019.4 769.866L1012.35 769.83C1013.24 757.176 1012.44 733.553 1012.42 720.054Z"/><path fill="#FEFEFE" d="M1092.38 720.012L1138.56 720.025L1145.32 720.088C1145.31 736.278 1144.93 753.886 1145.3 769.949L1138.57 769.936L1092.42 769.98L1085.59 769.89C1086.02 754.057 1085.57 736.055 1085.55 720.044L1092.38 720.012Z"/><path fill="#F87171" d="M1085.55 720.044L1092.38 720.012L1092.42 769.98L1085.59 769.89C1086.02 754.057 1085.57 736.055 1085.55 720.044Z"/><path fill="#F87171" d="M1138.56 720.025L1145.32 720.088C1145.31 736.278 1144.93 753.886 1145.3 769.949L1138.57 769.936L1138.56 720.025Z"/><path fill="#FEFEFE" d="M958.065 720.007L965.129 720.002C980.727 720.013 996.876 719.798 1012.42 720.054C1012.44 733.553 1013.24 757.176 1012.35 769.83L965.823 769.728C963.187 769.821 960.666 769.693 958.035 769.597C958.164 753.067 958.174 736.537 958.065 720.007Z"/><path fill="#F87171" d="M958.065 720.007L965.129 720.002C965.129 725.62 964.702 767.952 965.823 769.728C963.187 769.821 960.666 769.693 958.035 769.597C958.164 753.067 958.174 736.537 958.065 720.007Z"/><path fill="#5C4C70" d="M1077.77 865.918L1119.7 866.008L1126.47 866.048L1168.54 865.984C1170.43 865.956 1174.15 866.026 1175.85 865.62C1177 865.778 1179.14 865.78 1179.52 866.54C1181.32 870.153 1180.32 879.222 1180.33 883.541L1123.59 883.537C1117.85 883.537 1100.15 883.213 1095.46 883.899L1094.57 885.304L1093.2 886.028C1089.39 880.781 1082.74 871.148 1077.95 867.179C1075.17 867.122 1072.74 867.391 1070.4 866.063L1077.77 865.918Z"/><path fill="#FFFEFE" d="M1279.71 490.313C1306.36 487.069 1330.58 506.059 1333.79 532.711C1337.01 559.364 1318 583.571 1291.35 586.76C1264.74 589.945 1240.58 570.964 1237.37 544.35C1234.16 517.736 1253.11 493.551 1279.71 490.313Z"/><path fill="#FFFEFE" d="M89.4345 492.979C115.749 489.438 139.954 507.895 143.509 534.214C147.064 560.532 128.624 584.754 102.314 588.324C75.9836 591.897 51.7456 573.435 48.1877 547.096C44.6297 520.758 63.1002 496.524 89.4345 492.979Z"/><path fill="#FFFEFE" d="M1198.23 31.4357C1200.14 31.3196 1202.04 31.2287 1203.95 31.1628C1220.56 30.6321 1238.32 30.952 1255.16 31.1821C1267.19 32.9961 1298.68 24.3912 1298.21 44.6717C1298.01 53.4656 1276.12 72.0106 1269.26 78.6949C1261.2 86.4483 1247.34 106.958 1235.13 95.8983C1226.68 87.7697 1217.9 79.5577 1209.86 71.0375C1200.38 60.9932 1172.64 42.0146 1198.23 31.4357Z"/><path fill="#E5E7EB" d="M439.48 38.7504C450.859 38.1759 497.835 36.7636 505.67 40.2962C510.292 42.3802 514.287 46.4371 515.941 51.2634C517.752 56.5465 518.096 61.2294 515.647 66.2771C512.231 73.3176 508.277 76.6345 500.952 79.147C491.082 79.7915 478.286 79.0407 468.175 79.1893C462.459 79.2733 450.054 79.5728 444.715 79.0212C441.656 78.7253 438.66 77.9605 435.833 76.7535C417.266 68.655 420.456 45.5085 439.48 38.7504Z"/><path fill="#E5E7EB" d="M786.681 943.489C798.403 943.4 850.54 941.505 858.421 945.578C862.989 947.948 866.418 952.05 867.941 956.968C871.501 968.621 863.636 978.273 852.712 981.301C840.909 981.696 827.668 981.621 815.8 981.344C800.755 980.994 776.902 985.946 771.415 967.68C769.914 962.758 770.529 957.434 773.113 952.985C776.287 947.59 780.881 945.087 786.681 943.489Z"/><path fill="#4D4A79" d="M678.61 60.1608C682.983 57.7008 678.172 27.1123 681.174 22.9433C683.65 22.8402 684.561 22.5674 686.675 23.6389C687.46 27.8749 687.004 44.3762 686.957 49.589C685.825 53.1608 686.14 57.8047 686.179 61.6468C684.162 61.7695 680.43 62.3146 678.877 61.413L678.61 60.1608Z"/></svg>