<?xml version="1.0" encoding="utf-8" ?><svg xmlns="http://www.w3.org/2000/svg" xmlns:xlink="http://www.w3.org/1999/xlink" width="1365" height="1024" viewBox="0 0 1365 1024"><path fill="white" d="M0 0L1365 0L1365 1024L0 1024L0 0Z"/><path fill="white" d="M30.1549 911.272C36.8254 893.091 44.4589 874.835 51.2165 856.432C72.341 800.581 77.6173 753.127 77.3271 694.367C77.0024 628.607 42.5041 574.685 33.9353 514.963C16.1912 391.294 109.206 246.3 221.793 197.418C267.451 177.595 308.182 163.985 357.986 161.453C415.825 156.965 528.297 174.81 587.185 159.255C581.819 160.673 642.369 116.691 642.995 116.277C754.622 41.9943 894.875 25.1274 1020.92 70.8271C1127.95 110.263 1211.45 185.418 1258.3 289.505C1282.25 341.472 1294.07 401.072 1287.95 458.155C1285.05 485.119 1274.91 514.156 1266.96 539.784C1242.8 617.105 1247.57 696.07 1279.32 770.422C1289.66 794.638 1300.83 818.547 1309.97 843.354C1312.35 849.793 1336.32 911.092 1337.26 911.571C1346.94 913.004 1348.55 922.9 1342.2 925.614C1334.59 928.861 1317.87 927.278 1308.85 927.232L1266.29 927.321L1116.37 927.265L269.271 926.912L86.1565 927.277C69.7478 927.271 53.3217 926.957 36.9321 927.428C31.1241 927.595 22.2191 926.664 23.2043 918.855C23.7261 914.719 26.6203 912.817 30.1549 911.272Z"/><path fill="#F88979" d="M681.349 762.499C695.942 758.003 717.844 748.004 732.531 741.955L813.478 708.947C818.259 740.237 831.295 783.564 847.597 810.769C855.603 824.131 868.473 842.435 877.458 856.2C889.424 874.531 901.203 894.282 913.203 912.222C919.483 912.592 925.701 912.45 931.989 912.388C962.334 912.524 992.68 912.477 1023.02 912.247C1029.4 912.319 1035.78 912.302 1042.16 912.196L1174.51 912.524L1215.22 912.35C1220.34 912.318 1231.84 911.952 1236.5 912.443C1245.01 912.731 1252.97 913.892 1260.43 909.673C1262.16 910.678 1261.96 910.243 1262.88 911.762C1273.62 912.996 1293.47 911.777 1305.08 912.146C1310.23 912.31 1333.44 912.205 1337.26 911.571C1346.94 913.004 1348.55 922.9 1342.2 925.614C1334.59 928.861 1317.87 927.278 1308.85 927.232L1266.29 927.321L1116.37 927.265L269.271 926.912L86.1565 927.277C69.7478 927.271 53.3217 926.957 36.9321 927.428C31.1241 927.595 22.2191 926.664 23.2043 918.855C23.7261 914.719 26.6203 912.817 30.1549 911.272C47.8431 912.914 78.557 912.003 97.1952 911.963L99.8746 909.665C108.367 914.291 114.208 912.187 123.607 912.125C178.277 912.545 232.95 912.581 287.62 912.233L308.474 912.268L504.501 912.267C511.059 912.352 517.533 912.473 524.092 912.285C527.737 847.84 533.37 783.606 536.832 719.092C585.161 733.034 633.336 747.504 681.349 762.499Z"/><path fill="#64748B" d="M99.8746 909.665C108.367 914.291 114.208 912.187 123.607 912.125C178.277 912.545 232.95 912.581 287.62 912.233L308.474 912.268L504.501 912.267C511.059 912.352 517.533 912.473 524.092 912.285L628.449 912.268C644.846 912.277 662.93 911.872 679.14 912.295L682.304 912.224L832.826 912.232C858.062 912.195 888.517 911.286 913.203 912.222C919.483 912.592 925.701 912.45 931.989 912.388C962.334 912.524 992.68 912.477 1023.02 912.247C1029.4 912.319 1035.78 912.302 1042.16 912.196L1174.51 912.524L1215.22 912.35C1220.34 912.318 1231.84 911.952 1236.5 912.443C1245.01 912.731 1252.97 913.892 1260.43 909.673C1262.16 910.678 1261.96 910.243 1262.88 911.762C1273.62 912.996 1293.47 911.777 1305.08 912.146C1310.23 912.31 1333.44 912.205 1337.26 911.571C1346.94 913.004 1348.55 922.9 1342.2 925.614C1334.59 928.861 1317.87 927.278 1308.85 927.232L1266.29 927.321L1116.37 927.265L269.271 926.912L86.1565 927.277C69.7478 927.271 53.3217 926.957 36.9321 927.428C31.1241 927.595 22.2191 926.664 23.2043 918.855C23.7261 914.719 26.6203 912.817 30.1549 911.272C47.8431 912.914 78.557 912.003 97.1952 911.963L99.8746 909.665Z"/><path fill="#F87171" d="M679.14 912.295L679.709 802.137C679.744 794.792 679.799 787.53 679.611 780.185C679.522 776.68 678.591 765.509 680.049 763.029L680.618 762.643C683.057 764.041 681.94 812.474 681.905 819.701L682.304 912.224L679.14 912.295Z"/><path fill="#FCD34D" d="M358.14 666.635C411.645 681.549 464.916 697.288 517.935 713.849L510.101 823.934L506.479 878.413C505.79 889.867 505.612 900.794 504.501 912.267L308.474 912.268L287.62 912.233L292.452 885.909L312.791 885.814C328.651 885.685 344.513 885.705 360.372 885.873C360.058 827.949 360.11 770.024 360.53 712.1L351.13 712.018C351.769 704.262 356.138 673.737 358.14 666.635Z"/><path fill="#FFFEFE" d="M292.452 885.909L312.791 885.814C311.994 894.602 310.236 903.612 308.474 912.268L287.62 912.233L292.452 885.909Z"/><path fill="#E5E7EB" d="M386.347 699.98C392.058 700.101 397.707 701.197 403.049 703.221C416.811 708.519 427.945 719.008 434.055 732.432C443.079 752.45 437.257 778.41 429.203 797.952C426.901 803.536 423.097 809.541 422.043 815.527C419.189 831.736 425.506 875.676 420.471 888.857C412.978 897.407 404.499 895.175 398.568 886.452C397.622 864.853 398.552 834.846 398.557 812.621C390.114 811.811 381.687 810.848 373.279 809.733C376.727 774.368 382.01 735.602 386.347 699.98Z"/><path fill="#F88979" d="M1107.48 718.598C1108.64 716.905 1110.18 712.037 1110.82 709.825C1113.47 700.692 1119.98 690.63 1129.74 688.166C1134.6 686.928 1139.76 687.828 1143.92 690.637C1153.92 697.351 1157.62 712.123 1159.79 723.154C1160.48 727.484 1160.06 739.748 1161.07 741.233L1161.57 741.492L1199.93 745.256L1200.23 746.248C1202.52 761.178 1207.03 776.435 1209.98 791.31C1217.95 831.487 1228.97 872.3 1236.5 912.443C1231.84 911.952 1220.34 912.318 1215.22 912.35L1174.51 912.524L1042.16 912.196C1038.72 897.056 1036.3 878.047 1033.82 862.482L1023.41 800.514C1019.78 778.042 1013.16 748.426 1011.33 726.327C1023.56 727.883 1035.83 729.167 1048.12 730.178C1046.71 748.585 1042.41 760.109 1060.49 770.344C1059.13 781.012 1058.91 792.273 1058.12 803.041C1056.77 821.266 1055.99 839.568 1055.23 857.827C1055.03 862.614 1054.76 867.507 1055.04 872.297C1055.99 882.957 1067.4 887.993 1075.45 880.444C1079.3 876.826 1078.61 873.686 1078.94 868.72C1078.9 860.203 1078.32 851.322 1077.92 842.751L1076.4 803.894C1075.88 793.018 1074.95 780.651 1074.97 769.951C1091.37 760.429 1091.36 754.286 1089 735.943C1087.76 732.526 1086.93 719.623 1088.01 715.881C1093.84 716.816 1102.31 717.563 1107.48 718.598Z"/><path fill="white" d="M1107.48 718.598C1108.64 716.905 1110.18 712.037 1110.82 709.825C1113.47 700.692 1119.98 690.63 1129.74 688.166C1134.6 686.928 1139.76 687.828 1143.92 690.637C1153.92 697.351 1157.62 712.123 1159.79 723.154C1160.48 727.484 1160.06 739.748 1161.07 741.233L1161.57 741.492L1160.67 741.813C1158.89 744.309 1160 747.432 1158.78 751.165C1155.15 762.309 1150.32 766.043 1140.55 771.288L1140.6 771.884C1141.6 783.516 1141.61 795.856 1142.17 807.67C1142.99 829.247 1145.19 851.577 1144.8 873.116C1144.63 882.463 1131.15 888.023 1124.85 880.374C1122.98 878.1 1121.36 875.435 1121.37 872.451C1121.44 838.753 1124.37 805.039 1125.6 771.331C1109.59 762.346 1108.45 755.048 1106.41 737.449C1103.92 737.395 1102.99 737.486 1100.63 736.82C1096.59 736.76 1093.01 736.357 1089 735.943C1087.76 732.526 1086.93 719.623 1088.01 715.881C1093.84 716.816 1102.31 717.563 1107.48 718.598Z"/><path fill="#FFFEFE" d="M1088.01 715.881C1093.84 716.816 1102.31 717.563 1107.48 718.598L1107.35 719.295C1106.49 724.128 1106.32 731.272 1106.06 736.335C1103.73 736.948 1102.43 736.418 1100.63 736.82C1096.59 736.76 1093.01 736.357 1089 735.943C1087.76 732.526 1086.93 719.623 1088.01 715.881Z"/><path fill="#FCD34D" d="M984.221 569.78C1009.44 573.178 1036.83 574.369 1062.35 577.07C1096.87 580.723 1131.42 583.843 1166.02 586.668L1166.39 587.765C1169.6 605.428 1195.83 723.013 1194.49 726.976C1187.29 725.438 1167.83 723.978 1159.79 723.154C1157.62 712.123 1153.92 697.351 1143.92 690.637C1139.76 687.828 1134.6 686.928 1129.74 688.166C1119.98 690.63 1113.47 700.692 1110.82 709.825C1110.18 712.037 1108.64 716.905 1107.48 718.598C1102.31 717.563 1093.84 716.816 1088.01 715.881C1089 710.911 1088.26 688.661 1085.14 684.666C1082.97 683.752 1084.04 683.821 1081.81 684.38C1078.83 690.509 1083.21 708.649 1081.05 714.203L1074.36 713.853C1074.45 707.736 1075.5 688.529 1071.89 684.432C1069.76 683.896 1070.71 683.74 1068.92 684.737C1065.78 690.302 1069.35 705.082 1067.3 712.674L1065.81 713.506C1064.09 712.862 1061.47 712.536 1059.6 712.225C1057.29 710.182 1061.51 690.939 1056.79 683.627C1049.77 680.114 1051.07 707.576 1049.83 712.194C1035.85 711.155 1021.03 709.3 1007.05 707.873C1002.26 676.823 997.181 645.819 991.81 614.864C989.377 600.534 987.155 583.669 984.221 569.78Z"/><path fill="#64748B" d="M269.483 711.994C271.242 708.951 272.951 705.982 275.108 703.15C286.597 688.069 308.859 687.315 321.357 701.558C323.89 704.444 326.97 710.035 329.946 712.309C336.567 711.774 344.386 711.986 351.13 712.018L360.53 712.1C360.11 770.024 360.058 827.949 360.372 885.873C344.513 885.705 328.651 885.685 312.791 885.814L292.452 885.909L238.547 886.077C238.113 861.807 237.956 837.532 238.075 813.258L238.021 712.08L269.483 711.994Z"/><path fill="#FFFEFE" d="M292.879 696.196C308.282 694.164 321.233 701.434 325.784 716.571C336.012 716.234 346.244 716.089 356.477 716.137C356.166 771.4 356.16 826.664 356.459 881.926L308.643 881.931L242.238 882.182L242.023 716.532C251.418 716.404 261.279 716.631 270.708 716.704C276.723 705.624 280.708 700.097 292.879 696.196Z"/><path fill="#64748B" d="M299.925 797.675C308.76 797.631 317.617 797.667 326.442 797.254C330.098 797.083 335.179 796.68 337.356 800.214C335.04 801.726 299 801.267 293.336 801.277C284.45 801.292 275.564 801.243 266.686 801.647C263.605 801.787 258.215 801.817 256.407 798.976C258.993 797.321 294.769 797.704 299.925 797.675Z"/><path fill="#64748B" d="M257.202 828.193C262.997 827.835 304.51 826.934 306.82 828.941L306.954 831.317C293.579 831.37 271.787 831.708 257.692 831.23C257.34 830.926 256.988 830.621 256.637 830.317L257.202 828.193Z"/><path fill="#64748B" d="M277.777 777.67C283.676 777.645 303.17 776.556 307.075 778.509L307.014 779.175C303.603 781.974 290.043 781.022 284.93 781.037C280.272 781.125 258.566 782.399 256.635 779.555L257.237 778.493C259.787 777.209 273.919 777.662 277.777 777.67Z"/><path fill="#F88979" d="M164.002 727.722C175.329 722.015 203.202 712.336 215.559 707.585L338.396 661.322C336.157 677.932 332.396 695.44 329.946 712.309C326.97 710.035 323.89 704.444 321.357 701.558C308.859 687.315 286.597 688.069 275.108 703.15C272.951 705.982 271.242 708.951 269.483 711.994L238.021 712.08L238.075 813.258C237.956 837.532 238.113 861.807 238.547 886.077L292.452 885.909L287.62 912.233C232.95 912.581 178.277 912.545 123.607 912.125C134.362 867.333 142.773 821.464 153.127 776.534C156.722 760.931 159.314 745.032 162.996 729.459L164.002 727.722Z"/><path fill="#FCD34D" d="M988.513 723.774L990.141 723.728C992.357 727.258 1020.31 894.17 1023.02 912.247C992.68 912.477 962.334 912.524 931.989 912.388C932.528 912.189 932.165 912.368 932.833 911.515C930.594 907.203 926.307 900.977 923.554 896.648C917.282 886.665 910.883 876.762 904.359 866.942C895.329 853.319 886.917 839.378 877.956 825.713C871.002 815.108 864.054 804.425 857.604 793.506C889.388 776.97 921.005 760.114 952.45 742.942C964.436 736.538 976.343 729.785 988.513 723.774Z"/><path fill="#E5E7EB" d="M831.782 708.525C855.84 709.191 880.666 713.564 904.568 715.719C924.592 717.524 944.915 718.3 964.931 720.789C971.344 721.587 982.74 722.181 988.513 723.774C976.343 729.785 964.436 736.538 952.45 742.942C921.005 760.114 889.388 776.97 857.604 793.506C846.492 776.131 835.763 729.309 831.782 708.525Z"/><path fill="white" d="M1200.23 746.248C1206.26 746.94 1226.2 749.729 1231.18 748.753L1255.85 856.157C1258.73 869.165 1261.97 882.04 1264.75 895.039C1266.16 901.608 1265.21 905.034 1260.43 909.673C1252.97 913.892 1245.01 912.731 1236.5 912.443C1228.97 872.3 1217.95 831.487 1209.98 791.31C1207.03 776.435 1202.52 761.178 1200.23 746.248Z"/><path fill="#FFFEFE" d="M1159.79 723.154C1167.83 723.978 1187.29 725.438 1194.49 726.976C1199.34 727.916 1222.14 729.827 1226.94 729.211L1228.74 729.655C1231.52 730.576 1231.32 729.963 1232.57 732.157C1234.2 735.026 1235.4 744.994 1234.68 747.947L1234.57 748.385L1231.18 748.753C1226.2 749.729 1206.26 746.94 1200.23 746.248L1199.93 745.256L1161.57 741.492L1161.07 741.233C1160.06 739.748 1160.48 727.484 1159.79 723.154Z"/><path fill="#E5C7C3" d="M1199.93 745.256C1211.37 745.482 1222.72 748.074 1234.68 747.947L1234.57 748.385L1231.18 748.753C1226.2 749.729 1206.26 746.94 1200.23 746.248L1199.93 745.256Z"/><path fill="#64748B" d="M1231.18 748.753L1234.57 748.385C1236.85 755.669 1239.06 767.481 1240.79 775.21L1251.26 820.812C1255.39 838.299 1259.4 855.811 1263.31 873.348C1265.11 881.415 1267.07 889.53 1268.56 897.653C1269.58 903.21 1266.58 907.931 1262.88 911.762C1261.96 910.243 1262.16 910.678 1260.43 909.673C1265.21 905.034 1266.16 901.608 1264.75 895.039C1261.97 882.04 1258.73 869.165 1255.85 856.157L1231.18 748.753Z"/><path fill="#64748B" d="M97.1952 911.963C93.2041 907.792 91.1922 903.258 92.394 897.45C97.9072 870.807 103.726 844.129 110.122 817.683C110.998 814.06 111.317 809.767 113.042 806.541L114.15 806.315C116.237 809.022 114.161 813.877 113.435 817.153C108.408 839.849 103.605 862.602 98.1388 885.198C96.7947 890.754 95.4922 896.21 95.02 901.918C96.8654 905.853 97.0166 906.364 99.8746 909.665L97.1952 911.963Z"/><path fill="#64748B" d="M1226.94 729.211C1224.6 718.072 1211.63 664.045 1213.17 657.597L1213.69 657.206C1214.09 657.644 1214.58 658.177 1215.15 658.803C1217.79 675.495 1229.07 713.43 1230.45 728.685C1229.66 729.214 1229.62 729.335 1228.74 729.655L1226.94 729.211Z"/><path fill="#FFFEFE" d="M1059.6 712.225C1061.47 712.536 1064.09 712.862 1065.81 713.506C1063.63 719.119 1067.93 734.06 1062.91 736.46C1055.77 734.348 1056 715.97 1059.6 712.225Z"/><path fill="#FFFEFE" d="M1074.36 713.853L1081.05 714.203C1079.36 721.582 1082.57 732.295 1079.36 736.656C1077.71 737.378 1077.31 737.207 1075.54 737.007C1073.29 733.897 1073.88 718.009 1074.36 713.853Z"/><path fill="#E8ACA8" d="M1166.02 586.668C1175.15 587.289 1189.01 588.526 1197.93 590.264L1198.42 590.877L1199.7 590.893L1198.34 590.501L1199.06 591.031L1198.21 591.032L1198.53 590.571C1196.63 591.65 1170.15 588.494 1166.39 587.765L1166.02 586.668Z"/><path fill="#E8ACA8" d="M162.996 729.459C158.762 729.76 132.471 742.38 127.798 742.837L127.484 742.169C134.089 738.408 155.89 730.723 164.002 727.722L162.996 729.459Z"/><path fill="#F88979" d="M542.444 423.818C542.321 418.556 544.114 408.019 545.224 402.692C550.806 375.529 563.27 352.136 582.235 331.895C633.663 277.007 724.981 274.458 779.827 325.641C806.58 350.607 824.084 385.762 825.209 422.517L825.479 425.759L825.565 432.612C824.06 458.421 820.979 467.968 811.572 491.134C806.007 501.663 800.572 512.261 795.269 522.925C796.045 528.233 796.65 532.591 797.028 537.97C793.704 537.507 790.367 537.145 787.021 536.885C783.867 542.262 780.849 547.718 777.97 553.248C784.513 553.832 791.733 554.608 798.256 554.948C800.048 579.918 803.214 604.946 804.715 629.992C805.949 650.59 808.386 671.057 808.454 691.733C766.51 709.893 724.225 727.255 681.622 743.812L679.469 743.824C676.43 742.353 667.241 740.082 663.297 738.917L629.072 728.673L569.527 711.227C562.386 709.114 545.045 703.4 538.639 702.255C539.446 695.579 539.956 687.629 540.271 680.852C542.48 633.426 547.736 585.377 549.453 538.003C557.791 536.887 570.64 537.249 579.771 536.528C576.924 531.59 573.799 525.804 570.452 521.279C563.485 521.715 557.042 521.851 550.058 521.949C551.523 510.823 552.025 499.201 552.602 487.977C550.947 481.69 548.497 475.13 546.677 468.706C543.746 458.358 542.794 449.772 541.859 439.115L541.88 432.811L541.771 426.605L542.444 423.818Z"/><path fill="#E5E7EB" d="M579.771 536.528L646.446 648.336C655.909 664.282 665.278 680.277 674.591 696.311C676.206 699.092 677.612 700.525 680.299 702.299L680.985 702.616C681.174 706.27 680.774 723.27 681.553 725.19C681.602 731.144 681.803 737.933 681.622 743.812L679.469 743.824C676.43 742.353 667.241 740.082 663.297 738.917L629.072 728.673L569.527 711.227C562.386 709.114 545.045 703.4 538.639 702.255C539.446 695.579 539.956 687.629 540.271 680.852C542.48 633.426 547.736 585.377 549.453 538.003C557.791 536.887 570.64 537.249 579.771 536.528Z"/><path fill="#F87171" d="M680.299 702.299L680.985 702.616C681.174 706.27 680.774 723.27 681.553 725.19C681.602 731.144 681.803 737.933 681.622 743.812L679.469 743.824C679.395 738.347 679.593 706.172 680.299 702.299Z"/><path fill="#E5E7EB" d="M777.97 553.248C784.513 553.832 791.733 554.608 798.256 554.948C800.048 579.918 803.214 604.946 804.715 629.992C805.949 650.59 808.386 671.057 808.454 691.733C766.51 709.893 724.225 727.255 681.622 743.812C681.803 737.933 681.602 731.144 681.553 725.19L681.57 702.249C683.516 702.452 684.422 702.395 686.391 702.299C689.029 700.93 692.384 695.865 693.958 693.269C722.167 646.768 748.954 599.25 777.97 553.248Z"/><path fill="#FCD34D" d="M552.602 487.977C556.924 496.35 567.32 514.217 570.452 521.279C563.485 521.715 557.042 521.851 550.058 521.949C551.523 510.823 552.025 499.201 552.602 487.977Z"/><path fill="#E5E7EB" d="M795.269 522.925C796.045 528.233 796.65 532.591 797.028 537.97C793.704 537.507 790.367 537.145 787.021 536.885L795.269 522.925Z"/><path fill="#F87171" d="M676.388 324.643C731.618 320.386 779.87 361.654 784.244 416.888C788.618 472.123 747.464 520.475 692.252 524.969C636.873 529.476 588.354 488.159 583.966 432.757C579.579 377.354 620.989 328.912 676.388 324.643Z"/><path fill="white" d="M676.428 329.439C729.248 325.21 775.44 364.735 779.444 417.584C783.449 470.434 743.739 516.47 690.886 520.252C638.348 524.011 592.657 484.58 588.677 432.045C584.696 379.511 623.924 333.643 676.428 329.439Z"/><path fill="#FFFEFE" d="M670.186 445.416L697.777 445.316C697.837 457.084 698.457 476.345 697.519 487.668C688.684 487.584 679.498 487.839 670.637 487.965C669.467 475.093 670.007 458.621 670.186 445.416Z"/><path fill="#FFFEFE" d="M632.434 410.939C639.469 410.394 650.613 410.724 657.953 410.723C658.062 418.755 658.07 426.789 657.977 434.822C650.533 434.861 643.089 434.821 635.646 434.7L609.649 434.49C609.208 427.081 609.274 418.799 609.184 411.314C617.104 411.327 624.529 411.319 632.434 410.939Z"/><path fill="#FFFEFE" d="M710.348 409.991L756.761 410.025C757.165 417.982 757.091 425.851 757.075 433.811L710.031 434.072C709.835 426.488 710.195 417.656 710.348 409.991Z"/><path fill="#FFFEFE" d="M697.804 366.363C699.311 367.947 698.303 397.833 698.243 402.784C689.064 402.985 679.889 403.353 670.723 403.888C669.022 401.585 669.823 372.099 669.853 366.756L697.804 366.363Z"/><path fill="#FCD34D" d="M1078.67 172.378C1086.26 151.241 1113.65 154.56 1122.06 173.009C1123.09 175.28 1123.69 178.194 1124.26 180.64C1140.29 186.209 1149.41 193.357 1143.69 213.039C1142.44 217.33 1139.29 221.694 1134.66 222.435L1145.73 222.498C1146 227.16 1146.5 232.766 1146.16 237.347C1157.48 237.454 1175.81 235.471 1184.28 243.634C1193.19 252.217 1190.99 265.261 1190.9 276.595C1190.7 299.379 1190.82 322.177 1190.86 344.962C1190.86 353.363 1189.04 358.37 1182.97 364.272C1175.6 371.502 1164.14 370.772 1154.36 370.894C1154.97 379.01 1155.48 387.131 1155.91 395.258C1156.16 397.994 1156.6 397.937 1155.56 399.976C1152.45 401.223 1086.25 400.322 1076.81 400.296C1059.27 400.192 1041.73 400.196 1024.19 400.309C1017.39 400.356 1008.64 400.596 1001.72 400.271C1000.57 400.217 1000.34 399.417 999.884 398.636C1000.18 396.504 1000.19 396.622 1001.64 394.979C1004.89 390.708 1008.14 268.907 1010.53 254.002C1011.08 250.545 1010.86 240.202 1011.54 236.185C1012.28 231.877 1010.33 223.092 1014.97 222.3C1015.38 222.879 1011.99 212.552 1011.77 211.918C1007.38 198.839 1018.16 183.576 1031.84 183.05C1035.99 182.856 1038.93 183.994 1042.57 185.955C1046.7 192.985 1040.13 206.556 1051.71 211.589C1051.91 211.613 1052.12 211.637 1052.32 211.66C1052.51 208.801 1048.97 205.896 1047.01 203.875C1045.28 194.945 1045.67 190.708 1047.68 181.807C1058.24 169.749 1063.28 167.387 1078.67 172.378Z"/><path fill="#FCD34D" d="M1027.1 222.522C1033.64 222.378 1070.9 221.263 1073.84 223.188C1074.35 224.519 1074.65 225.159 1074.84 226.6L1078.52 230.878C1078.45 235.835 1078.18 242.348 1078.64 247.16C1077.41 248.618 1076.11 250.272 1074.71 251.531C1072.35 253.251 1069.97 254.941 1067.57 256.603C1069.6 258.691 1071.64 260.953 1073.95 262.693C1073.13 286.166 1073.48 318.666 1073.89 342.288C1073.33 359.038 1073.78 378.359 1073.76 395.312L1027.53 395.285L1027.1 222.522Z"/><path fill="#64748B" d="M1074.84 226.6L1078.52 230.878C1078.45 235.835 1078.18 242.348 1078.64 247.16C1077.41 248.618 1076.11 250.272 1074.71 251.531C1074.18 245.122 1074.62 233.234 1074.84 226.6Z"/><path fill="#FFFEFE" d="M1045.34 292.29C1050.43 295.522 1049.5 292.366 1049.4 299.41L1048.48 299.175L1046.98 300.672L1045.37 300.234C1042.76 296.804 1043.87 295.708 1045.34 292.29Z"/><path fill="#FFFEFE" d="M1078.67 172.378C1086.26 151.241 1113.65 154.56 1122.06 173.009C1123.09 175.28 1123.69 178.194 1124.26 180.64C1140.29 186.209 1149.41 193.357 1143.69 213.039C1142.44 217.33 1139.29 221.694 1134.66 222.435L1129.68 222.558L1125.51 222.145C1124.53 222.123 1122.82 221.77 1122.28 222.763C1112.62 240.785 1094.37 244.177 1078.52 230.878L1074.84 226.6C1074.65 225.159 1074.35 224.519 1073.84 223.188C1070.9 221.263 1033.64 222.378 1027.1 222.522L1023.35 222.412C1020.71 222.459 1017.64 222.339 1014.97 222.3C1015.38 222.879 1011.99 212.552 1011.77 211.918C1007.38 198.839 1018.16 183.576 1031.84 183.05C1035.99 182.856 1038.93 183.994 1042.57 185.955C1046.7 192.985 1040.13 206.556 1051.71 211.589C1051.91 211.613 1052.12 211.637 1052.32 211.66C1052.51 208.801 1048.97 205.896 1047.01 203.875C1045.28 194.945 1045.67 190.708 1047.68 181.807C1058.24 169.749 1063.28 167.387 1078.67 172.378Z"/><path fill="#E5E7EB" d="M1109.82 184.862C1111.16 185.903 1110.69 185.226 1111.02 187.1C1108.19 190.125 1102.37 188.338 1098.27 193.626C1090.99 203.02 1094.37 208.319 1084.33 216.283C1083.76 216.026 1083.8 215.913 1083.32 215.39C1097.66 204.298 1086.07 190.806 1109.82 184.862Z"/><path fill="white" d="M1146.16 237.347C1157.48 237.454 1175.81 235.471 1184.28 243.634C1193.19 252.217 1190.99 265.261 1190.9 276.595C1190.7 299.379 1190.82 322.177 1190.86 344.962C1190.86 353.363 1189.04 358.37 1182.97 364.272C1175.6 371.502 1164.14 370.772 1154.36 370.894L1153.9 366.713C1153.82 362.991 1153.49 358.514 1153.14 354.796C1149.67 317.149 1149.62 278.866 1146.3 241.276L1146.16 237.347Z"/><path fill="#64748B" d="M1146.16 237.347C1157.48 237.454 1175.81 235.471 1184.28 243.634C1193.19 252.217 1190.99 265.261 1190.9 276.595C1190.7 299.379 1190.82 322.177 1190.86 344.962C1190.86 353.363 1189.04 358.37 1182.97 364.272C1175.6 371.502 1164.14 370.772 1154.36 370.894L1153.9 366.713C1156.04 366.781 1158.18 366.834 1160.31 366.871C1178.54 367.16 1187.16 360.725 1187.27 341.771L1187.45 286.05C1187.63 243.245 1190.09 240.675 1146.3 241.276L1146.16 237.347Z"/><path fill="#FCD34D" d="M1134.66 222.435L1145.73 222.498C1146 227.16 1146.5 232.766 1146.16 237.347L1146.3 241.276C1149.62 278.866 1149.67 317.149 1153.14 354.796C1153.49 358.514 1153.82 362.991 1153.9 366.713L1154.36 370.894C1154.97 379.01 1155.48 387.131 1155.91 395.258L1129.76 395.174L1129.68 222.558L1134.66 222.435Z"/><path fill="#FCD34D" d="M1001.64 394.979C1004.89 390.708 1008.14 268.907 1010.53 254.002C1011.08 250.545 1010.86 240.202 1011.54 236.185C1012.28 231.877 1010.33 223.092 1014.97 222.3C1017.64 222.339 1020.71 222.459 1023.35 222.412L1023.58 330.234C1023.61 350.544 1024.18 375.152 1023.36 395.302C1017.75 395.275 1006.83 395.53 1001.64 394.979Z"/><path fill="#64748B" d="M1125.51 222.145L1129.68 222.558L1129.76 395.174L1155.91 395.258C1156.16 397.994 1156.6 397.937 1155.56 399.976C1152.45 401.223 1086.25 400.322 1076.81 400.296C1059.27 400.192 1041.73 400.196 1024.19 400.309C1017.39 400.356 1008.64 400.596 1001.72 400.271C1000.57 400.217 1000.34 399.417 999.884 398.636C1000.18 396.504 1000.19 396.622 1001.64 394.979C1006.83 395.53 1017.75 395.275 1023.36 395.302C1024.18 375.152 1023.61 350.544 1023.58 330.234L1023.35 222.412L1027.1 222.522L1027.53 395.285L1073.76 395.312C1073.78 378.359 1073.33 359.038 1073.89 342.288C1073.48 318.666 1073.13 286.166 1073.95 262.693C1076.05 264.493 1077.04 265.152 1078.34 267.668C1077.25 271.237 1077.68 300.445 1077.68 305.722L1077.75 395.293L1125.66 395.289L1125.51 222.145Z"/><path fill="#FFFEFE" d="M1078.64 247.16C1083.01 249.674 1086.24 253.358 1089.6 257.092C1086.94 259.839 1081.56 265.741 1078.67 267.668L1078.34 267.668C1077.04 265.152 1076.05 264.493 1073.95 262.693C1071.64 260.953 1069.6 258.691 1067.57 256.603C1069.97 254.941 1072.35 253.251 1074.71 251.531C1076.11 250.272 1077.41 248.618 1078.64 247.16Z"/><path fill="#F88979" d="M961.116 433.538C1018.18 433.545 1077.63 434.575 1134.5 433.358C1139.43 463.965 1147.1 495.379 1152.88 525.932C1155.32 538.83 1159.46 555.468 1160.77 568.24C1143.06 567.349 1124.4 564.78 1106.59 563.195L981.39 552.057C975.62 513.467 967.89 472.114 961.116 433.538Z"/><path fill="#E5E7EB" d="M817.721 556.95C826.784 557.978 838.496 558.499 847.967 559.317L965.443 568.317C967.049 575.848 968.175 584.926 969.455 592.644L977.122 637.948C980.79 660.063 985.654 683.905 988.626 705.709C981.36 704.712 971.983 704.094 964.474 703.256L892.784 695.875C871.172 693.834 849.464 691.135 827.854 689.395C824.808 667.224 824.059 642.003 822.572 619.523C821.183 598.54 819.626 577.897 817.721 556.95Z"/><path fill="#FCD34D" d="M245.871 221.635C245.738 212.144 245.036 207.719 252.112 200.022C261.94 189.334 280.811 191.177 294.24 187.761C298.313 186.725 301.942 184.693 306.022 184.754C311.285 184.833 316.255 188.782 321.303 190.37C325.719 191.761 331.73 191.308 335.826 192.889C339.439 194.252 342.686 196.435 345.312 199.266C349.456 203.762 351.593 209.751 351.233 215.856C351.119 217.61 350.549 220.782 349.887 222.351C350.802 223.715 352.622 226.289 352.616 227.847C352.586 234.655 351.888 241.99 351.377 248.771L347.988 292.592L343.693 347.2C343.302 352.184 342.458 370.677 341.149 374.194L341.93 375.146L342.836 375.187C345.99 375.336 348.525 375.092 350.558 377.335C350.254 379.748 350.77 378.79 349.112 380.382C341.294 381.311 241.444 380.997 239.243 380.041C238.274 377.822 238.248 378.846 238.81 376.893C241.726 375.277 244.612 376.47 248.735 375.256L249.273 373.411C248.389 370.95 246.031 344.952 245.458 339.517C243.057 317.023 240.795 294.514 238.674 271.992C237.43 259.685 235.909 247.393 234.924 235.071C234.552 230.411 233.62 224.647 238.771 222.318C240.159 221.69 244.223 221.679 245.871 221.635Z"/><path fill="#FFFEFE" d="M245.871 221.635C245.738 212.144 245.036 207.719 252.112 200.022C261.94 189.334 280.811 191.177 294.24 187.761C298.313 186.725 301.942 184.693 306.022 184.754C311.285 184.833 316.255 188.782 321.303 190.37C325.719 191.761 331.73 191.308 335.826 192.889C339.439 194.252 342.686 196.435 345.312 199.266C349.456 203.762 351.593 209.751 351.233 215.856C351.119 217.61 350.549 220.782 349.887 222.351C343.517 221.049 327.314 221.631 320.007 221.738C320.08 222.313 320.148 222.889 320.212 223.466C320.585 226.823 321.115 228.616 319.052 231.191C312.699 233.988 296.013 236.312 290.921 229.741C289.391 227.766 290.281 224.114 290.671 221.711C275.684 221.859 260.849 221.644 245.871 221.635Z"/><path fill="#64748B" d="M249.273 373.411C259.237 373.297 337.047 372.49 341.149 374.194L341.93 375.146L342.836 375.187C345.99 375.336 348.525 375.092 350.558 377.335C350.254 379.748 350.77 378.79 349.112 380.382C341.294 381.311 241.444 380.997 239.243 380.041C238.274 377.822 238.248 378.846 238.81 376.893C241.726 375.277 244.612 376.47 248.735 375.256L249.273 373.411Z"/><path fill="#FFFEFE" d="M302.908 259.692C305.137 258.807 307.67 259.193 309.534 260.702C311.398 262.211 312.304 264.608 311.903 266.973C311.502 269.338 309.857 271.303 307.6 272.113C304.19 273.338 300.428 271.601 299.148 268.21C297.867 264.82 299.541 261.029 302.908 259.692Z"/><path fill="#F88979" d="M227.279 433.684C242.073 433.116 259.09 433.498 274.014 433.542C307.86 433.774 341.706 433.803 375.553 433.63C374.092 448.647 370.307 468.9 367.835 484.084L350.879 586.501L350.495 587.559C347.163 588.424 276.204 560.118 266.974 556.476C247.859 548.932 224.016 540.23 204.915 532.57C210.796 507.367 216.224 482.06 221.196 456.662C221.928 453.085 224.703 435.885 225.504 434.198L227.279 433.684Z"/><path fill="#E5E7EB" d="M395.55 433.281C425.362 434.648 459.21 432.837 489.49 433.416C499.125 433.6 534.106 433.987 541.88 432.811L541.859 439.115C537.845 445.086 534.364 506.49 533.007 518.697C516.868 524.368 496.2 533.901 479.68 540.583C443.824 554.845 408.07 569.363 372.42 584.133C372.885 571.482 377.239 553.908 379.044 540.896C383.963 505.431 391.167 468.727 395.55 433.281Z"/><path fill="#64748B" d="M530.531 539.328C531.417 540.345 531.365 540.913 531.265 542.345C527.691 593.738 522.146 645.571 519.078 696.951C506.187 692.097 489.975 687.467 476.671 683.352L398.736 659.687C386.22 655.756 373.656 651.975 361.048 648.346C363.426 634.201 365.498 620.217 367.988 605.969C375.103 603.501 382.71 600.321 389.637 597.323C436.091 577.218 484.181 559.556 530.531 539.328Z"/><path fill="#FCD34D" d="M201.724 551.483L300.387 590.028C314.794 595.7 333.093 601.859 346.838 608.306C345.643 618.687 342.943 631.596 341.002 642.127C320.282 650.674 294.964 659.444 273.724 667.312C240.84 680.012 198.971 693.792 167.45 708.389C180.236 658.26 189.913 602.442 201.724 551.483Z"/><path fill="#FCD34D" d="M825.565 432.612C864.407 433.317 903.256 433.543 942.103 433.292C949.091 472.396 955.765 511.555 962.124 550.767C919.465 546.315 876.255 543.794 833.509 539.922C827.788 539.404 821.648 538.831 815.92 538.528C814.916 525.933 813.715 503.038 811.572 491.134C820.979 467.968 824.06 458.421 825.565 432.612Z"/><path fill="#64748B" d="M825.209 422.517L1045.84 422.461L1114.52 422.493C1121.2 422.496 1157.47 421.25 1161.3 425.151C1166.65 430.599 1169.31 450.56 1171.17 459.033C1175.9 480.002 1180.47 501.007 1184.87 522.046C1187.09 532.491 1189.38 542.918 1191.76 553.327C1192.69 557.462 1195.04 566.819 1195.37 570.401C1192.95 570.907 1193.95 571.163 1192.17 570.119C1181.45 524.347 1171.97 478.533 1161.56 432.697C1159.64 424.238 1152.8 426.44 1146 425.823C1124.89 425.792 1103.79 425.951 1082.68 425.96L957.479 425.865L875.308 425.601C859.095 425.533 841.587 425.161 825.479 425.759L825.209 422.517Z"/><defs><linearGradient id="gradient_0" gradientUnits="userSpaceOnUse" x1="379.29965" y1="382.60071" x2="335.77863" y2="549.49438"><stop offset="0" stop-color="#5E576B"/><stop offset="1" stop-color="#6E6D84"/></linearGradient></defs><path fill="url(#gradient_0)" d="M541.771 426.605L216.467 426.361C205.252 426.331 199.934 427.556 195.436 438.48C191.407 448.265 183.555 506 179.308 510.23L177.942 509.704C177.764 509.328 177.432 508.732 177.519 508.31C182.444 484.428 187.249 460.457 192.307 436.611C193.363 433.166 196.227 430.262 198.733 427.989C205.368 421.974 213.97 423.97 222.143 423.827C226.813 423.745 231.715 423.865 236.455 423.86L307.073 423.788L542.444 423.818L541.771 426.605Z"/><path fill="#64748B" d="M171.034 540.123C172.962 540.86 172.281 540.26 173.388 541.668C168.158 563.104 163.954 584.771 159.391 606.36L134.659 721.217C133.321 720.89 133.617 720.95 132.377 720.292C131.052 715.773 149.601 635.47 152.065 624.238C156.953 601.971 164.025 561.716 171.034 540.123Z"/><path fill="#FFFEFE" d="M1031.11 156.991C1034.64 155.899 1038.48 156.799 1041.16 159.344C1043.84 161.888 1044.94 165.682 1044.04 169.267C1043.13 172.851 1040.36 175.667 1036.79 176.632C1031.41 178.088 1025.86 174.963 1024.3 169.606C1022.75 164.25 1025.78 158.638 1031.11 156.991Z"/><path fill="#FCD34D" d="M163.12 289.581C166.483 288.575 170.128 289.455 172.662 291.886C175.196 294.318 176.227 297.924 175.361 301.327C174.496 304.731 171.867 307.406 168.48 308.33C163.33 309.736 158.008 306.738 156.54 301.604C155.072 296.47 158.005 291.111 163.12 289.581Z"/><path fill="#FFFEFE" d="M163.232 291.71C165.767 290.778 168.607 291.279 170.669 293.023C172.731 294.768 173.697 297.486 173.198 300.141C172.699 302.795 170.812 304.977 168.257 305.853C164.368 307.187 160.13 305.142 158.754 301.267C157.377 297.392 159.374 293.131 163.232 291.71Z"/><path fill="#F9A87A" d="M1246.02 476.523C1251.04 475.469 1256 478.574 1257.25 483.556C1258.5 488.538 1255.59 493.617 1250.66 495.058C1247.3 496.042 1243.67 495.106 1241.2 492.62C1238.73 490.134 1237.81 486.495 1238.82 483.138C1239.82 479.78 1242.59 477.242 1246.02 476.523Z"/><path fill="#FFFEFE" d="M1244.98 478.599C1247.67 477.509 1250.75 477.967 1253.01 479.797C1255.27 481.627 1256.36 484.54 1255.86 487.406C1255.35 490.271 1253.33 492.637 1250.59 493.585C1246.48 495 1242 492.889 1240.48 488.825C1238.96 484.761 1240.95 480.225 1244.98 478.599Z"/><path fill="#FCD34D" d="M921.611 144.379C926.442 142.556 931.835 145.008 933.638 149.847C935.442 154.686 932.97 160.071 928.125 161.856C923.306 163.632 917.959 161.176 916.165 156.363C914.371 151.55 916.806 146.192 921.611 144.379Z"/><path fill="#FFFEFE" d="M921.922 146.324C924.429 145.266 927.313 145.65 929.457 147.327C931.6 149.004 932.668 151.711 932.246 154.4C931.823 157.089 929.978 159.338 927.424 160.277C923.6 161.683 919.354 159.779 917.86 155.988C916.365 152.198 918.169 147.908 921.922 146.324Z"/><path fill="#64748B" d="M681.101 132.033C682.076 132.214 682.753 132.263 683.524 132.948C685.316 134.54 684.309 208.995 684.272 217.394C683.033 217.353 683.103 217.278 681.884 216.937C680.766 214.884 680.988 140.512 681.101 132.033Z"/><path fill="#FCD34D" d="M88.8808 555.054C93.7102 553.853 98.6129 556.736 99.9139 561.54C101.215 566.344 98.4366 571.307 93.6617 572.709C90.4828 573.642 87.048 572.783 84.6828 570.462C82.3176 568.142 81.392 564.723 82.263 561.526C83.1341 558.329 85.6657 555.853 88.8808 555.054Z"/><path fill="#FFFEFE" d="M90.4051 556.944C92.8822 556.686 95.3066 557.781 96.751 559.81C98.1955 561.839 98.4366 564.489 97.3821 566.746C96.3275 569.003 94.1406 570.517 91.6576 570.71C87.8876 571.004 84.582 568.212 84.2393 564.445C83.8966 560.679 86.6441 557.336 90.4051 556.944Z"/><path fill="#64748B" d="M532.899 170.38C534.174 170.58 535.06 170.808 535.997 172.307C549.556 194.013 562.107 216.945 574.469 239.353C574.329 240.258 574.214 241.002 574.124 241.584C573.395 241.334 572.272 240.779 571.856 240.111C558.16 218.091 546.48 194.872 533.042 172.686C532.73 172.172 532.853 170.931 532.899 170.38Z"/><path fill="#64748B" d="M825.98 170.324C826.47 170.564 827.495 171.319 827.996 171.663C827.951 173.888 792.283 233.913 788.001 241.137L786.13 240.012C785.931 238.094 821.837 176.703 825.98 170.324Z"/><path fill="#FCD34D" d="M439.672 379.068C444.235 377.49 449.213 379.9 450.808 384.457C452.403 389.014 450.014 394.003 445.464 395.616C440.889 397.238 435.868 394.832 434.264 390.25C432.66 385.668 435.085 380.655 439.672 379.068Z"/><path fill="#FFFEFE" d="M441.033 380.916C444.533 380.202 447.972 382.377 448.829 385.845C449.686 389.313 447.656 392.84 444.227 393.839C441.88 394.523 439.346 393.866 437.628 392.127C435.909 390.388 435.281 387.846 435.992 385.506C436.702 383.167 438.638 381.404 441.033 380.916Z"/><path fill="#64748B" d="M434.653 274.463C440.849 274.902 488.753 307.321 496.884 311.196C499.438 312.414 500.415 313.586 500.714 316.277C495.956 315.32 443.973 282.13 436.171 277.61C434.531 276.66 434.857 276.061 434.653 274.463Z"/><path fill="#64748B" d="M925.877 273.152C927.625 273.034 926.885 272.783 928.195 273.845C926.705 278.228 875.469 306.646 867.396 310.767L865.893 310.49L865.193 309.378C866.269 307.361 918.682 277.423 925.877 273.152Z"/><path fill="#FCD34D" d="M494.073 83.8391C505.74 84.9276 508.747 97.2274 497.59 103.174C484.365 102.118 482.602 90.1907 494.073 83.8391Z"/><path fill="#FFFEFE" d="M493.888 86.6279C497.793 85.8182 501.621 88.3014 502.476 92.1971C503.33 96.0928 500.891 99.9507 497.007 100.85C494.454 101.44 491.78 100.613 490.007 98.6835C488.234 96.7539 487.635 94.0199 488.438 91.5252C489.241 89.0304 491.323 87.16 493.888 86.6279Z"/></svg>