<?xml version="1.0" encoding="utf-8" ?><svg xmlns="http://www.w3.org/2000/svg" xmlns:xlink="http://www.w3.org/1999/xlink" width="1365" height="1024" viewBox="0 0 1365 1024"><path fill="white" d="M0 0L1365 0L1365 1024L0 1024L0 0Z"/><path fill="#F87171" d="M454.751 425.362C455.484 369.221 454.714 313.174 455.115 257.098C455.218 245.534 455.239 233.97 455.177 222.407C455.128 205.835 453.249 191.845 466.291 179.078C481.238 164.446 503.091 168.603 522.677 168.487C552.504 168.249 582.332 168.287 612.159 168.599L801.188 168.743C823.564 168.797 845.912 168.645 868.326 168.643C879.721 168.642 888.362 171.334 896.512 179.6C900.287 183.428 905.424 193.189 905.931 198.296C906.717 206.215 906.528 216.474 906.558 224.587L906.631 277.449L906.672 416.739C906.695 440.576 906.099 468.39 906.977 491.986C943.5 496.051 992.484 509.075 1026.54 523.191C1080.94 546.243 1130.06 580.186 1170.86 622.932C1196.21 649.871 1218.75 681.498 1236.15 714.026C1239.69 720.66 1244.49 726.916 1247.9 733.648C1279.51 799.376 1286.62 861.032 1286.23 932.388C1290.33 932.368 1300.09 932.081 1303.62 932.776C1307 933.328 1309.76 934.034 1310.17 938.049C1307.07 944.71 1286.42 942.607 1279.8 942.563L1244.34 942.489L1120.21 942.462L386.894 942.51L161.253 942.564L90.6165 942.546C83.2539 942.535 57.71 944.544 53.5505 939.492C53.043 935.32 55.333 933.878 58.9678 932.815C62.6461 931.99 85.8899 932.357 91.474 932.397C91.5351 882.27 98.0556 827.894 114.679 779.829C115.483 777.505 116.333 776.978 118.451 776.19C121.596 743.73 135.186 713.166 157.18 689.092C158.532 673.811 182.151 647.942 192.642 636.675C237.889 588.134 300.672 559.718 366.993 557.762C373.702 531.768 385.651 497.94 404.07 477.787C407.47 459.804 439.244 434.92 454.751 425.362Z"/><path fill="#E5E7EB" d="M906.977 491.986C943.5 496.051 992.484 509.075 1026.54 523.191C1080.94 546.243 1130.06 580.186 1170.86 622.932C1196.21 649.871 1218.75 681.498 1236.15 714.026C1239.69 720.66 1244.49 726.916 1247.9 733.648C1279.51 799.376 1286.62 861.032 1286.23 932.388C1290.33 932.368 1300.09 932.081 1303.62 932.776C1307 933.328 1309.76 934.034 1310.17 938.049C1307.07 944.71 1286.42 942.607 1279.8 942.563L1244.34 942.489L1120.21 942.462L386.894 942.51L161.253 942.564L90.6165 942.546C83.2539 942.535 57.71 944.544 53.5505 939.492C53.043 935.32 55.333 933.878 58.9678 932.815C68.4057 934.473 97.3218 933.151 108.247 933.375C145.262 934.136 185.447 932.447 222.28 934.145C251.552 943.555 283.003 943.779 312.406 934.786L484.166 933.464C512.15 934.078 541.143 933.745 569.194 933.8L735.091 933.891L830.687 933.857C843.922 933.822 867.676 934.389 880.255 933.252C886.423 929.442 891.092 929.029 896.998 922.926C908.792 910.736 907.512 895.497 907.594 879.849C907.637 871.649 907.591 863.449 907.58 855.253L907.313 763.854L906.977 491.986Z"/><path fill="#A55151" d="M1043.52 933.74C973.784 910.573 931.148 840.232 942.859 767.674C954.571 695.116 1017.17 641.77 1090.65 641.73C1164.13 641.69 1226.79 694.97 1238.58 767.515C1250.37 840.06 1207.81 910.447 1138.1 933.689C1107.4 943.923 1074.22 943.941 1043.52 933.74Z"/><path fill="#E5E7EB" d="M984.596 895.014C962.658 871.293 948.803 848.215 943.436 815.829C937.058 778.225 946.012 739.634 968.295 708.683C991.46 676.503 1025.09 653.724 1064.47 647.504C1199.29 626.209 1290.74 770.626 1208.52 882.618C1203.11 875.537 1198.97 870.976 1192.46 865.031C1188.03 860.994 1181.41 855.932 1177.47 851.811C1176.34 851.644 1168 847.156 1166.17 846.007C1160.01 842.152 1136.22 831.101 1129.67 832.813L1130.07 832.967C1136.49 835.402 1143.52 836.865 1150.45 839.694C1175.96 850.105 1189.43 864.887 1207.57 883.852C1181.24 914.775 1143.56 933.785 1103.05 936.591C1061.6 939.969 1020.55 926.421 989.255 899.035C988.2 898.12 987.152 897.196 986.112 896.265C993.733 881.39 996.437 879.954 1004.33 867.452L999.351 871.144C993.545 877.618 988.405 887.269 984.596 895.014Z"/><path fill="#FEFEFE" d="M1068.05 806.337C1070.36 809.727 1079.18 808.748 1082.74 807.941C1099.75 804.087 1110.28 786.75 1119.09 773.152L1118.92 807.195C1118.9 813.77 1119.17 821.703 1118.5 828.076L1118.72 829.953C1120.87 831.534 1123.67 830.739 1127.39 832.665L1129.67 832.813L1130.07 832.967C1136.49 835.402 1143.52 836.865 1150.45 839.694C1175.96 850.105 1189.43 864.887 1207.57 883.852C1181.24 914.775 1143.56 933.785 1103.05 936.591C1061.6 939.969 1020.55 926.421 989.255 899.035C988.2 898.12 987.152 897.196 986.112 896.265C993.733 881.39 996.437 879.954 1004.33 867.452C1006.02 866.321 1014.83 856.962 1017.79 854.658C1033.54 842.389 1047.9 837.378 1066.46 831.326L1067.36 831.051C1068.55 829.324 1067.84 818.993 1067.76 815.94L1068.05 806.337Z"/><path fill="#AA6964" d="M1068.05 806.337C1070.36 809.727 1079.18 808.748 1082.74 807.941C1099.75 804.087 1110.28 786.75 1119.09 773.152L1118.92 807.195C1118.9 813.77 1119.17 821.703 1118.5 828.076L1118.72 829.953C1120.87 831.534 1123.67 830.739 1127.39 832.665L1118.08 831.738C1117.46 833.069 1116.77 834.364 1116 835.617C1112.18 841.951 1105.95 846.466 1098.74 848.13C1089.74 850.16 1079.92 847.258 1073.71 840.388C1071.42 837.859 1069.4 832.847 1066.46 831.326L1067.36 831.051C1068.55 829.324 1067.84 818.993 1067.76 815.94L1068.05 806.337Z"/><path fill="#A55151" d="M1068.05 806.337C1070.36 809.727 1079.18 808.748 1082.74 807.941C1099.75 804.087 1110.28 786.75 1119.09 773.152L1118.92 807.195C1118.9 813.77 1119.17 821.703 1118.5 828.076C1117.49 816.262 1118.37 791.583 1118.57 779.056C1108.98 796.459 1094.58 818.691 1072.02 814.952C1069.58 814.547 1069.41 814.494 1067.76 815.94L1068.05 806.337Z"/><path fill="#47465D" d="M1025.83 738.36C1041.36 714.18 1044.85 685.605 1077.89 678.42C1092.25 675.17 1107.3 677.895 1119.61 685.97C1131.22 693.605 1141.08 706.027 1143.85 719.863C1145.54 728.317 1144.18 737.427 1146.97 745.638C1150.12 754.898 1158.56 760.591 1160.21 770.793C1161.86 781.004 1155.43 791.817 1157.65 800.736C1161.14 814.751 1190.69 818.542 1177.47 851.811C1176.34 851.644 1168 847.156 1166.17 846.007C1160.01 842.152 1136.22 831.101 1129.67 832.813L1127.39 832.665C1123.67 830.739 1120.87 831.534 1118.72 829.953L1118.5 828.076C1119.17 821.703 1118.9 813.77 1118.92 807.195L1119.09 773.152C1110.28 786.75 1099.75 804.087 1082.74 807.941C1079.18 808.748 1070.36 809.727 1068.05 806.337C1055.56 792.364 1051.93 781.004 1047.19 763.093C1046.22 759.406 1044.96 751.98 1043.58 748.807C1043.26 746.824 1042.97 745.227 1042.51 743.272C1040.5 741.524 1037.68 741.915 1034.47 741.638C1030.96 740.536 1029.13 739.955 1025.83 738.36Z"/><path fill="#AA6964" d="M1102.01 714.374C1106.9 729.054 1108.86 732.273 1120.06 743.294C1134.26 735.436 1140.39 750.239 1137.14 762.19C1134.34 772.478 1121.24 770.502 1119.25 772.342L1119.09 773.152C1110.28 786.75 1099.75 804.087 1082.74 807.941C1079.18 808.748 1070.36 809.727 1068.05 806.337C1055.56 792.364 1051.93 781.004 1047.19 763.093C1046.22 759.406 1044.96 751.98 1043.58 748.807C1043.26 746.824 1042.97 745.227 1042.51 743.272C1040.5 741.524 1037.68 741.915 1034.47 741.638C1058.11 741.457 1084.79 730.418 1102.01 714.374Z"/><path fill="#523E53" d="M1059.59 742.739C1063.87 742.66 1067.93 742.744 1070.95 746.111L1070.67 747.17C1068.4 747.808 1068.56 747.388 1065.86 746.617C1063.72 746.107 1058.26 746.193 1055.42 745.965L1054.89 745.3C1056.49 743.832 1057.54 743.583 1059.59 742.739Z"/><path fill="#523E53" d="M1089.42 743.512C1094.09 743.174 1101.05 742.445 1104.29 746.463C1103.23 747.44 1103.82 747.028 1102.28 747.39C1096.25 745.846 1093.74 747.577 1089.43 746.689C1088.57 744.79 1088.71 745.805 1089.42 743.512Z"/><path fill="#A55151" d="M1083.64 778.07C1084.42 779.105 1084.23 779.655 1084.41 781.162C1081.32 786.224 1075.01 784.593 1070.75 782.044L1070.27 780.991L1070.66 780.361C1076.56 782.94 1080.01 783.769 1083.64 778.07Z"/><path fill="#523E53" d="M1094.88 752.912C1097.2 753.51 1098.11 754.238 1099 756.326C1098.67 758.991 1098.22 759.235 1096.44 761.424C1094.26 760.876 1094.21 760.107 1093.38 758.389C1093.34 755.642 1093.52 755.319 1094.88 752.912Z"/><path fill="#523E53" d="M1062.55 752.821C1063.13 753.035 1064.01 753.525 1064.59 753.822C1065.92 757.08 1065.03 758.428 1063.29 761.378C1061.68 759.839 1061.65 759.582 1060.69 757.512C1060.86 754.47 1060.54 755.664 1062.55 752.821Z"/><path fill="#A55151" d="M1079.03 753.703C1080.39 756.122 1080.66 768.745 1078.02 771.089L1076.75 770.486L1075.66 769.707L1077.88 769.44C1079.89 766.235 1076.74 760.698 1079.03 753.703Z"/><path fill="#47465D" d="M1043.58 748.807C1044.96 751.98 1046.22 759.406 1047.19 763.093C1051.93 781.004 1055.56 792.364 1068.05 806.337L1067.76 815.94C1067.84 818.993 1068.55 829.324 1067.36 831.051L1066.46 831.326C1047.9 837.378 1033.54 842.389 1017.79 854.658C1014.83 856.962 1006.02 866.321 1004.33 867.452L999.351 871.144C996.242 865.12 993.839 860.46 993 853.694C990.999 837.578 997.249 825.229 1010.26 815.917C1015.1 812.071 1020.55 808.933 1023.26 803.108C1025.47 798.392 1024.53 791.936 1023.91 786.821C1021.74 768.718 1033.94 761.648 1043.14 749.403L1043.58 748.807Z"/><path fill="#47465D" d="M1138.1 933.689C1152.04 934.423 1301.67 933.872 1303.62 932.776C1307 933.328 1309.76 934.034 1310.17 938.049C1307.07 944.71 1286.42 942.607 1279.8 942.563L1244.34 942.489L1120.21 942.462L386.894 942.51L161.253 942.564L90.6165 942.546C83.2539 942.535 57.71 944.544 53.5505 939.492C53.043 935.32 55.333 933.878 58.9678 932.815C68.4057 934.473 97.3218 933.151 108.247 933.375C145.262 934.136 185.447 932.447 222.28 934.145C251.552 943.555 283.003 943.779 312.406 934.786L484.166 933.464C512.15 934.078 541.143 933.745 569.194 933.8L735.091 933.891L830.687 933.857C843.922 933.822 867.676 934.389 880.255 933.252C917.102 933.538 953.95 933.633 990.798 933.537C1007.9 933.544 1026.65 933.137 1043.52 933.74C1074.22 943.941 1107.4 943.923 1138.1 933.689Z"/><path fill="#FCD34D" d="M973 584.16C997.822 583.489 1004.82 579.188 1000.53 609.024C1000.25 610.921 998.27 611.892 996.788 612.663C990.29 612.859 975.46 613.775 969.482 611.866C966.203 610.819 967.023 589.691 968.612 586.796C969.611 584.974 971.067 584.848 973 584.16Z"/><path fill="#FEFEFE" d="M972.028 587.505C993.667 587.997 1001.58 582.337 997.106 609.291C988.675 609.657 979.441 609.444 970.94 609.404C970.758 602.491 970.419 594.169 972.028 587.505Z"/><path fill="#A55151" d="M404.07 477.787C407.47 459.804 439.244 434.92 454.751 425.362L454.475 748.793L454.547 848.647C454.555 857.984 454.57 867.305 454.577 876.679C454.59 893.361 453.191 909.947 465.842 922.95C472.066 929.347 476.684 929.969 484.166 933.464L312.406 934.786C283.003 943.779 251.552 943.555 222.28 934.145C185.447 932.447 145.262 934.136 108.247 933.375C97.3218 933.151 68.4057 934.473 58.9678 932.815C62.6461 931.99 85.8899 932.357 91.474 932.397C91.5351 882.27 98.0556 827.894 114.679 779.829C115.483 777.505 116.333 776.978 118.451 776.19C121.596 743.73 135.186 713.166 157.18 689.092C158.532 673.811 182.151 647.942 192.642 636.675C237.889 588.134 300.672 559.718 366.993 557.762C373.702 531.768 385.651 497.94 404.07 477.787Z"/><path fill="#E5E7EB" d="M404.07 477.787C407.47 459.804 439.244 434.92 454.751 425.362L454.475 748.793L454.547 848.647C454.555 857.984 454.57 867.305 454.577 876.679C454.59 893.361 453.191 909.947 465.842 922.95C472.066 929.347 476.684 929.969 484.166 933.464L312.406 934.786C373.134 916.212 415.69 861.535 418.798 798.093C421.906 734.65 384.898 676.073 326.278 651.65C267.657 627.226 200.018 642.203 157.18 689.092C158.532 673.811 182.151 647.942 192.642 636.675C237.889 588.134 300.672 559.718 366.993 557.762C373.702 531.768 385.651 497.94 404.07 477.787Z"/><path fill="#6A4251" d="M404.07 477.787C404.673 477.603 405.401 477.382 406.253 477.123C413.32 479.12 435.315 483.602 440.555 486.143C436.367 488.699 406.703 480.52 404.07 477.787Z"/><path fill="#F87171" d="M397.701 612.94C401.575 611.818 405.753 612.87 408.636 615.692C411.518 618.515 412.657 622.672 411.617 626.57C410.576 630.468 407.518 633.504 403.613 634.515C397.694 636.048 391.641 632.541 390.025 626.643C388.408 620.744 391.827 614.641 397.701 612.94Z"/><path fill="#E5E7EB" d="M399.496 618.321C402.422 617.553 405.416 619.305 406.181 622.233C406.946 625.16 405.192 628.153 402.265 628.916C399.341 629.679 396.352 627.927 395.588 625.002C394.824 622.078 396.573 619.087 399.496 618.321Z"/><path fill="#E5E7EB" d="M91.474 932.397C91.5351 882.27 98.0556 827.894 114.679 779.829C115.483 777.505 116.333 776.978 118.451 776.19C111.62 846.713 154.842 912.466 222.28 934.145C185.447 932.447 145.262 934.136 108.247 933.375C97.3218 933.151 68.4057 934.473 58.9678 932.815C62.6461 931.99 85.8899 932.357 91.474 932.397Z"/><path fill="#F87171" d="M149.383 881.172C123.253 846.164 113.472 813.871 118.943 769.921C129.313 686.616 210.811 635.775 291.212 646.254C371.192 656.678 429.869 730.79 417.961 811.3C413.713 840.025 401.954 862.297 383.429 884.555C365.84 854.061 332.38 826.188 296.355 822.463L296.127 823.882L297.193 824.137C294.777 828.469 295.393 835.954 292.55 840.812C288.949 846.965 283.517 851.381 276.831 853.738C269.078 856.539 260.526 856.113 253.09 852.556C241.362 846.856 237.526 838.169 236.16 825.74L235.372 824.817L236.111 824.537L236.39 822.633C197.457 829.417 169.599 846.621 149.383 881.172Z"/><path fill="#AA6964" d="M252.596 717.402C279.502 725.05 288.014 730.041 318.005 724.816C317.956 730.066 318.081 735.704 317.271 740.858L317.366 741.336L319.422 742.812C321.433 742.845 322.707 742.77 324.653 743.235C318.111 743.467 321.101 743.916 316.519 745.778L318.221 746.969L319.397 747.681C318.499 752.769 318.031 759.683 315.636 764.007C312.276 782.854 310.396 793.017 296.748 807.555C296.689 811.164 296.778 819.21 296.355 822.463L296.127 823.882L297.193 824.137C294.777 828.469 295.393 835.954 292.55 840.812C288.949 846.965 283.517 851.381 276.831 853.738C269.078 856.539 260.526 856.113 253.09 852.556C241.362 846.856 237.526 838.169 236.16 825.74L235.372 824.817L236.111 824.537L236.39 822.633C238.108 815.611 238.483 779.517 238.058 770.334C236.174 763.788 228.644 769.286 222.435 763.625C213.047 755.065 211.309 737.81 227.395 736.348C231.871 737.605 234.285 738.011 237.944 740.932L238.152 739.002C238.999 736.733 244.228 735.079 246.555 731.933C249.958 727.334 250.812 722.857 252.596 717.402Z"/><path fill="#AA6964" d="M252.596 717.402C279.502 725.05 288.014 730.041 318.005 724.816C317.956 730.066 318.081 735.704 317.271 740.858L317.366 741.336L319.422 742.812C314.038 744.236 278.993 742.813 274.137 741.559C276.528 741.295 277.527 741.274 279.635 740.142C273.778 739.734 267.183 740.163 260.806 739.742C262.376 740.195 262.976 740.028 263.635 741.061C261.037 741.78 260.17 741.594 257.488 741.451L256.657 740.768L255.483 744.245C248.96 744.149 243.684 744.099 237.944 740.932L238.152 739.002C238.999 736.733 244.228 735.079 246.555 731.933C249.958 727.334 250.812 722.857 252.596 717.402Z"/><path fill="#523E53" d="M317.366 741.336C316.129 741.793 299.719 740.548 297.516 739.401L297.262 738.254C302.216 733.362 312.519 736.893 317.271 740.858L317.366 741.336Z"/><path fill="#835361" d="M260.806 739.742C262.785 734.996 276.924 731.366 279.635 740.142C273.778 739.734 267.183 740.163 260.806 739.742Z"/><path fill="#47465D" d="M238.152 739.002C241.732 740.568 250.152 737.936 256.657 740.768L255.483 744.245C248.96 744.149 243.684 744.099 237.944 740.932L238.152 739.002Z"/><path fill="#AA6964" d="M299.526 745.764C301.968 745.197 304.23 745.313 306.74 745.293C309.945 745.553 313.321 745.936 316.519 745.778L318.221 746.969C317.082 758.296 318.159 765.263 304.222 765.553C288.417 765.881 289.935 758.89 290.914 746.268C293.597 745.939 296.79 745.887 299.526 745.764Z"/><path fill="#FEFEFE" d="M299.526 745.764C301.968 745.197 304.23 745.313 306.74 745.293C316.186 753.83 304.225 761.629 298.311 756.041C297.296 755.073 296.748 753.715 296.808 752.314C296.947 749.265 297.792 747.972 299.526 745.764Z"/><path fill="#6A4251" d="M260.806 739.742C267.183 740.163 273.778 739.734 279.635 740.142C277.527 741.274 276.528 741.295 274.137 741.559C278.993 742.813 314.038 744.236 319.422 742.812C321.433 742.845 322.707 742.77 324.653 743.235C318.111 743.467 321.101 743.916 316.519 745.778C313.321 745.936 309.945 745.553 306.74 745.293C304.23 745.313 301.968 745.197 299.526 745.764C296.79 745.887 293.597 745.939 290.914 746.268C289.935 758.89 288.417 765.881 304.222 765.553C318.159 765.263 317.082 758.296 318.221 746.969L319.397 747.681C318.499 752.769 318.031 759.683 315.636 764.007C307.684 768.217 296.627 767.964 289.005 763.092C287.188 765.364 286.045 767.236 283.47 768.503C283.457 766.106 286.982 762.604 288.655 760.656C288.405 756.706 288.344 750.494 286.997 747.013C284.086 743.351 263.481 742.186 259.066 743.95C257.115 747.276 257.698 754.422 258.174 758.192C258.52 760.941 263.447 763.015 266.039 764.415C253.241 761.761 255.478 755.458 255.483 744.245L256.657 740.768L257.488 741.451C260.17 741.594 261.037 741.78 263.635 741.061C262.976 740.028 262.376 740.195 260.806 739.742Z"/><path fill="#6A4251" d="M242.46 779.705C242.941 779.863 243.9 780.143 244.213 780.579C253.036 792.838 261.953 804.448 276.63 809.889C284.156 812.679 285.623 812.843 293.252 809.876L293.988 810.369C293.38 811.759 292.76 813.25 291.228 813.694C273.537 818.813 247.19 793.859 242.46 779.705Z"/><path fill="#FEFEFE" d="M268.512 743.741C277.474 745.199 280.078 751.67 273.294 758.209C263.692 758.518 261.294 749.988 268.512 743.741Z"/><path fill="#6A4251" d="M223.574 743.197C232.379 742.644 237.574 746.869 231.524 755.032C223.244 758.346 219.858 750.035 223.574 743.197Z"/><path fill="#AA6964" d="M225.809 744.396C232.227 745.179 233.389 749.485 229.787 754.398C223.987 753.758 222.268 749.186 225.809 744.396Z"/><path fill="#6A4251" d="M274.504 779.272C276.904 779.898 280.261 783.711 283.836 784.144C288.303 784.684 293.666 781.633 296.758 783.681C289.446 787.482 278.654 787.712 274.504 779.272Z"/><path fill="#47465D" d="M227.395 736.348C224.332 709.378 224.649 701.618 246.356 686.349C256.193 679.428 263.306 672.425 276.943 673.487C285.733 674.172 291.722 677.904 300.124 679.59C315.827 680.86 340.32 678.167 339.678 701.517C339.311 714.862 330.492 721.365 318.005 724.816C288.014 730.041 279.502 725.05 252.596 717.402C250.812 722.857 249.958 727.334 246.555 731.933C244.228 735.079 238.999 736.733 238.152 739.002L237.944 740.932C234.285 738.011 231.871 737.605 227.395 736.348Z"/><path fill="#47465D" d="M324.653 743.235C326.039 743.941 326.226 743.831 327.142 744.991C326.341 748.842 322.395 748.069 319.397 747.681L318.221 746.969L316.519 745.778C321.101 743.916 318.111 743.467 324.653 743.235Z"/><path fill="#FCD34D" d="M297.193 824.137C330.941 832.352 358.172 846.926 376.809 877.635C378.531 880.5 380.216 883.386 381.867 886.293C325.749 949.663 228.137 954.817 166.218 897.535C160.773 892.497 155.927 887.649 150.811 882.258C170.387 851.006 192.924 834.5 229.068 826.169C231.163 825.689 233.265 825.239 235.372 824.817L236.16 825.74C237.526 838.169 241.362 846.856 253.09 852.556C260.526 856.113 269.078 856.539 276.831 853.738C283.517 851.381 288.949 846.965 292.55 840.812C295.393 835.954 294.777 828.469 297.193 824.137Z"/><path fill="#FEFEFE" d="M476.866 231.014C518.951 230.413 563.685 231.354 606.045 231.37L892.529 231.435L893.211 848.09L883.221 848.132L469.41 848.105C468.779 814.58 469.081 779.917 469.095 746.309L468.992 602.157L468.836 231.28L476.866 231.014Z"/><path fill="#FEFEFE" d="M488.42 307.629C487.611 296.536 487.274 285.979 487.101 275.016C486.75 252.752 496.175 245.783 517.553 245.802C540.289 245.822 563.2 245.866 585.952 245.871L746.038 246.053L820.506 246.037C833.388 245.991 846.91 245.576 859.702 246.209C869.977 246.718 878.066 258.792 877.678 268.65C874.781 342.326 876.67 416.042 875.835 489.708C876.634 491.751 876.671 492.584 876.67 494.741C876.635 558.353 876.379 621.978 876.346 685.591L876.488 767.962C876.504 781.159 878.118 807.071 874.22 818.913C868.801 835.38 846.72 833.181 833.456 832.52C829.448 832.463 824.939 832.307 820.965 831.933C798.932 832.396 775.266 831.997 753.131 832.014L613.438 832.048L539.957 832.111C531.607 832.116 510.376 832.646 502.846 831.818C499.491 831.418 496.357 829.942 493.911 827.612C487.974 821.887 488.639 810.6 488.607 802.951C488.548 788.759 488.565 774.559 488.581 760.367L488.615 657.304L488.42 307.629Z"/><path fill="#E5E7EB" d="M488.42 307.629C487.611 296.536 487.274 285.979 487.101 275.016C486.75 252.752 496.175 245.783 517.553 245.802C540.289 245.822 563.2 245.866 585.952 245.871L746.038 246.053L820.506 246.037C833.388 245.991 846.91 245.576 859.702 246.209C869.977 246.718 878.066 258.792 877.678 268.65C874.781 342.326 876.67 416.042 875.835 489.708C874.302 490.598 873.523 490.606 873.357 492.373C872.224 504.481 873.851 518.716 873.01 530.684C872.667 527.975 872.702 525.265 872.646 522.539C872.266 503.816 872.694 485.1 872.657 466.377L872.425 359.646C872.37 339.847 872.659 318.869 872.01 299.152C855.275 298.654 837.183 299.191 820.32 299.199C790.115 298.994 759.909 298.954 729.704 299.079L490.566 298.65C490.63 304.978 490.545 309.238 490 315.531C489.886 312.082 490.445 301.477 489.179 299.152C488.186 301.676 488.439 304.824 488.42 307.629Z"/><defs><linearGradient id="gradient_0" gradientUnits="userSpaceOnUse" x1="802.56683" y1="661.33685" x2="876.93982" y2="662.25775"><stop offset="0" stop-color="#BCB8C2"/><stop offset="1" stop-color="#DDE0EE"/></linearGradient></defs><path fill="url(#gradient_0)" d="M873.01 530.684C873.851 518.716 872.224 504.481 873.357 492.373C873.523 490.606 874.302 490.598 875.835 489.708C876.634 491.751 876.671 492.584 876.67 494.741C876.635 558.353 876.379 621.978 876.346 685.591L876.488 767.962C876.504 781.159 878.118 807.071 874.22 818.913C868.801 835.38 846.72 833.181 833.456 832.52C829.448 832.463 824.939 832.307 820.965 831.933C818.41 831.141 805.067 831.969 799.432 830.781C810.694 830.235 822.998 831.15 834.317 830.87C844.371 830.621 858.996 832.598 866.475 824.904C869.715 821.571 871.721 817.852 872.162 813.278C873.285 801.608 873.059 789.259 873.068 777.534L873.115 721.972L873.01 530.684Z"/><path fill="#9B9CB3" d="M488.42 307.629C488.439 304.824 488.186 301.676 489.179 299.152C490.445 301.477 489.886 312.082 490 315.531L489.974 653.63L489.943 764.564C489.99 782.004 489.471 799.888 490.486 817.252C491.46 833.907 515.089 830.694 526.725 830.7L562.102 830.706L674.733 830.782L758.093 830.678C770.986 830.689 786.724 830.307 799.432 830.781C805.067 831.969 818.41 831.141 820.965 831.933C798.932 832.396 775.266 831.997 753.131 832.014L613.438 832.048L539.957 832.111C531.607 832.116 510.376 832.646 502.846 831.818C499.491 831.418 496.357 829.942 493.911 827.612C487.974 821.887 488.639 810.6 488.607 802.951C488.548 788.759 488.565 774.559 488.581 760.367L488.615 657.304L488.42 307.629Z"/><path fill="#FCD34D" d="M671.144 316.484C732.327 311.625 785.833 357.369 790.559 418.577C795.286 479.785 749.437 533.205 688.234 537.8C627.218 542.381 574.009 496.692 569.297 435.671C564.585 374.649 610.148 321.329 671.144 316.484Z"/><path fill="#FEFEFE" d="M716.802 394.689C728.575 394.444 733.153 404.227 723.707 413.055C707.827 427.897 692.593 443.798 676.23 458.096C674.788 459.356 671.451 460.097 669.518 459.988C662.406 459.036 654.811 449.591 649.664 444.544C643.714 438.951 632.242 430.333 643.747 422.907C652.954 416.964 663.937 431.981 670.782 437.929C676.859 431.897 711.972 397.389 716.802 394.689Z"/><path fill="#FCD34D" d="M640.53 600.105C649.149 585.007 665.246 575.74 682.627 575.868C700.008 575.997 715.966 585.501 724.361 600.724C724.864 601.635 725.337 602.562 725.779 603.504C732.968 618.812 731.588 636.773 722.144 650.802C721.546 651.69 720.918 652.558 720.262 653.404C711.438 664.791 697.974 671.619 683.576 672.01C682.598 672.036 681.619 672.033 680.641 672C661.09 671.336 643.892 658.888 637.149 640.52C636.768 639.481 636.422 638.429 636.113 637.366C632.759 625.824 633.85 613.443 639.169 602.664C639.597 601.798 640.051 600.944 640.53 600.105Z"/><path fill="#FCD34D" d="M685.809 729.425C686.949 729.389 688.09 729.418 689.227 729.515C705.063 730.854 716.964 744.547 716.086 760.419C715.209 776.292 701.872 788.589 685.984 788.173C670.097 787.758 657.42 774.781 657.372 758.884C657.325 742.988 669.925 729.935 685.809 729.425Z"/><path fill="#FCD34D" d="M793.969 572.194C792.239 565.24 793.683 557.821 797.509 551.8C801.969 544.932 809.019 540.163 817.053 538.582C855.08 530.876 863.746 586.766 827.803 593.932C813.791 596.726 799.637 588.466 794.434 574.774L793.969 572.194Z"/><path fill="#FCD34D" d="M786.621 720.834C798.649 711.108 816.232 712.734 826.274 724.5C836.315 736.266 835.161 753.891 823.67 764.247C812.18 774.602 794.535 773.919 783.878 762.707C773.222 751.496 773.432 733.834 784.352 722.879C785.071 722.157 785.829 721.474 786.621 720.834Z"/><path fill="#FCD34D" d="M556.524 702.817C565.137 712.78 563.527 727.28 556.126 737.449C551.959 743.208 545.637 747.033 538.602 748.051C500.855 753.802 492.814 696.573 529.975 691.557C539.83 690.227 547.483 694.242 555.051 700.208C552.948 701.881 550.998 702.998 550.158 705.438L550.809 706.25C553.443 705.926 554.479 704.6 556.524 702.817Z"/><path fill="#FCD34D" d="M556.028 566.997C548.067 579.804 531.35 583.929 518.347 576.294C505.345 568.66 500.797 552.049 508.096 538.854C515.395 525.658 531.88 520.687 545.254 527.649C558.628 534.612 564.016 550.969 557.398 564.519C556.984 565.368 556.526 566.195 556.028 566.997Z"/><path fill="#835361" d="M636.113 637.366C636.422 638.429 636.768 639.481 637.149 640.52C610.933 660.533 581.883 682.009 556.524 702.817C554.479 704.6 553.443 705.926 550.809 706.25L550.158 705.438C550.998 702.998 552.948 701.881 555.051 700.208C582.284 679.522 608.547 657.867 636.113 637.366Z"/><path fill="#835361" d="M722.144 650.802C743.24 674.439 765.913 697.526 786.621 720.834C785.829 721.474 785.071 722.157 784.352 722.879C777.119 713.934 768.288 705.121 760.369 696.63L720.262 653.404C720.918 652.558 721.546 651.69 722.144 650.802Z"/><path fill="#835361" d="M557.398 564.519C576.271 573.7 599.234 581.178 618.576 590.027C625.868 593.363 633.524 596.087 640.53 600.105C640.051 600.944 639.597 601.798 639.169 602.664C611.916 589.581 583.354 579.499 556.028 566.997C556.526 566.195 556.984 565.368 557.398 564.519Z"/><path fill="#835361" d="M793.969 572.194L794.434 574.774L725.779 603.504C725.337 602.562 724.864 601.635 724.361 600.724C746.684 592.493 772.715 579.368 793.969 572.194Z"/><path fill="#835361" d="M680.641 672C681.619 672.033 682.598 672.036 683.576 672.01C685.472 690.91 687.1 710.744 689.227 729.515C688.09 729.418 686.949 729.389 685.809 729.425C684.767 710.978 682.51 690.5 680.641 672Z"/><path fill="#F87171" d="M633.794 196.059C651.962 195.439 671.218 196.22 689.512 196.035C701.724 196.185 714.035 195.874 726.225 196.518C728.757 196.652 731.037 197.467 732.249 199.677C733.991 202.855 731.353 205.408 729.509 207.233C725.876 208.09 721.573 207.978 717.835 207.973C698.802 207.95 679.76 207.804 660.728 207.936C652.748 207.992 644.734 208.144 636.78 207.762C634.463 207.651 631.898 207.171 630.841 204.832C629.227 201.264 631.464 198.522 633.794 196.059Z"/><path fill="#FEFEFE" d="M679.421 877.055C686.381 876.307 692.669 881.243 693.596 888.183C694.523 895.123 689.751 901.537 682.839 902.642C678.207 903.383 673.538 901.552 670.643 897.86C667.749 894.167 667.085 889.195 668.909 884.872C670.733 880.55 674.757 877.557 679.421 877.055Z"/><path fill="#F87171" d="M677.77 880.386C681.196 879.286 684.949 880.123 687.584 882.575C690.218 885.027 691.323 888.711 690.472 892.209C689.622 895.706 686.948 898.471 683.482 899.438C678.264 900.895 672.84 897.905 671.284 892.715C669.728 887.524 672.612 882.043 677.77 880.386Z"/><path fill="#FEFEFE" d="M809.204 878.776C816.176 878.68 823.381 878.784 830.375 878.791C830.483 885.931 830.421 893.072 830.189 900.209C824.15 900.712 815.447 900.603 809.195 900.7C809.121 893.392 809.123 886.083 809.204 878.776Z"/><path fill="#F87171" d="M811.784 881.271L827.692 881.258L827.626 897.92L811.866 898.013L811.784 881.271Z"/><path fill="#FEFEFE" d="M547.1 876.568C549.389 878.697 548.094 898.316 547.96 902.756L534.267 895.823C530.279 893.722 528.052 892.398 524.788 889.362C531.378 884.87 539.929 880.107 547.1 876.568Z"/><path fill="#F87171" d="M544.177 881.312L544.898 881.58C545.575 884.25 545.288 894.855 545.268 898.264C542.182 896.695 538.997 894.914 535.934 893.265C534.019 892.188 531.604 890.553 529.696 889.346C534.643 886.958 539.42 884.072 544.177 881.312Z"/><path fill="#A55151" d="M270.376 243.153C349.373 236.746 418.612 295.588 425.052 374.601C431.491 453.614 372.693 522.896 293.702 529.372C214.663 535.851 145.346 476.995 138.903 397.933C132.459 318.872 191.331 249.563 270.376 243.153Z"/><path fill="#F87171" d="M181.123 484.51C152.734 453.289 137.615 420.972 139.612 377.9C141.15 341.525 157.105 307.259 183.951 282.673C212.505 256.835 248.698 243.183 287.252 245.295C323.701 247.292 361.569 264.133 386.144 291.332C412.102 319.968 425.621 357.748 423.723 396.357C422.273 423.185 413.351 447.563 398.961 470.031C378.112 450.418 358.021 437.399 329.882 430.849C325.936 429.931 316.738 429.013 315.852 425.279C316.724 422.386 319.729 420.752 322.029 417.758C327.595 410.513 333.454 395.268 334.424 386.157L333.269 385.884C325.44 426.105 307.718 437.019 279.693 401.999C277.396 399.129 268.894 388.707 268.138 385.696C269.256 384.405 269.491 384.332 269.941 382.657L269.124 381.632C267.914 382.366 267.212 382.713 265.96 383.315C253.244 382.502 245.522 369.255 252.129 357.918L251.555 356.654C240.937 370.08 253.506 381.071 265.664 385.881C267.751 386.707 267.159 423.608 267.15 427.616C230.1 435.612 202.985 452.837 181.123 484.51Z"/><path fill="#FAD5CE" d="M273.764 361.291C279.582 354.842 283.304 345.536 287.469 337.941C291.157 331.214 294.394 330.234 301.561 329.537C322.331 327.518 335.236 336.698 336.207 358.19C336.659 368.209 334.971 376.01 333.269 385.884C325.44 426.105 307.718 437.019 279.693 401.999C277.396 399.129 268.894 388.707 268.138 385.696C269.256 384.405 269.491 384.332 269.941 382.657L269.124 381.632C267.914 382.366 267.212 382.713 265.96 383.315C253.244 382.502 245.522 369.255 252.129 357.918C260.927 353.265 266.208 356.104 273.764 361.291Z"/><path fill="#F9B5AE" d="M307.257 365.187C309.699 366.534 315.872 375.491 317.841 378.191C314.495 381.456 309.566 384.286 307.646 388.249L306.383 387.778L306.37 386.478C308.155 383.6 312.14 380.408 314.797 378.057C311.345 373.685 308.498 370.616 307.257 365.187Z"/><path fill="#6A4251" d="M293.559 355.225C296.456 355.228 297.254 355.17 299.336 357.281C300.004 359.884 299.747 360.225 299.039 362.938C296.608 363.506 295.562 363.723 293.577 362.228C292.601 359.781 293.182 357.899 293.559 355.225Z"/><path fill="#6A4251" d="M322.666 356.493C323.887 355.918 325.325 356.059 326.413 356.859C327.5 357.659 328.062 358.99 327.878 360.327C327.694 361.665 326.793 362.794 325.53 363.271C323.68 363.968 321.61 363.08 320.841 361.259C320.071 359.438 320.877 357.334 322.666 356.493Z"/><path fill="#A55151" d="M255.855 359.318C260.942 358.862 266.828 360.905 268.883 365.889C267.359 365.718 266.545 364.417 265.224 363.119C260.841 359.679 258.596 360.6 254.017 362.995L253.412 363.316L252.968 362.964C253.618 361.822 254.957 360.374 255.855 359.318Z"/><path fill="#AA6964" d="M251.555 356.654C252.673 354.09 253.876 345.512 254.177 342.305C257.067 311.427 293.605 295.64 321.062 306.293C330.92 310.05 338.837 317.641 343.006 327.335C346.161 334.685 348.133 349.499 344.098 356.159C336.712 368.353 337.505 373.144 334.424 386.157L333.269 385.884C334.971 376.01 336.659 368.209 336.207 358.19C335.236 336.698 322.331 327.518 301.561 329.537C294.394 330.234 291.157 331.214 287.469 337.941C283.304 345.536 279.582 354.842 273.764 361.291C266.208 356.104 260.927 353.265 252.129 357.918L251.555 356.654Z"/><path fill="#FEFEFE" d="M264.315 430.171L265.861 429.997C267.5 430.98 268.854 435.06 269.942 437.199C276.297 449.687 291.951 453.961 304.062 447.233C311.077 443.336 313.584 437.418 315.647 429.611C353.28 437.653 368.241 446.322 398.175 471.007C381.901 494.785 357.415 509.441 330.832 519.006C278.478 535.667 222.691 523.772 182.982 485.523C203.929 456.957 228.794 437.156 264.315 430.171Z"/><path fill="#FAD5CE" d="M268.511 389.703C270.053 390.986 273.651 396.372 275.077 398.241C285.287 411.619 295.517 425.631 313.986 425.282C312.934 432.849 312.655 435.749 307.694 441.601C298.721 450.045 284.709 450.343 275.814 441.705C272.905 438.846 270.828 435.251 269.802 431.303C268.126 425.031 268.625 397.913 268.511 389.703Z"/><path fill="#A55151" d="M1066.89 273.654C1075.64 273.334 1086.54 274.255 1095.09 275.951C1128.39 282.835 1157.62 302.596 1176.42 330.934C1194.43 357.87 1200.78 393.179 1194.29 424.703C1178.94 499.345 1108.82 536.067 1037.48 521.724C1005.83 513.465 989.162 502.025 966.647 479.377C960.213 484.401 945.873 490.512 937.588 490.105C937.999 488.46 944.608 487.16 946.26 486.784C953.648 485.106 959.055 482.974 964.845 477.961L965.589 477.312C950.19 457.345 941.372 433.086 940.354 407.889C938.696 373.758 950.896 340.406 974.185 315.407C998.966 288.378 1030.69 275.279 1066.89 273.654Z"/><path fill="#FCD34D" d="M966.828 476.69C898.644 382.83 978.396 258.475 1091.79 277.181C1124.07 282.807 1152.89 300.787 1172.14 327.309C1191.43 354.545 1199.07 388.353 1193.35 421.239C1188.81 448.332 1175.07 474.132 1154.22 492.171C1144.74 472.588 1136.27 461.786 1118.21 449.198C1107.64 444.29 1100.74 440.641 1088.62 438.989C1088.54 432.166 1085.93 397.397 1088.14 393.718C1089.38 393.289 1090.41 392.919 1091.48 392.128C1090.03 392.317 1087.85 391.978 1086.32 391.808C1084.7 394.096 1083.06 396.372 1081.4 398.637C1074.57 407.965 1062.66 419.59 1050.92 421.197C1026.3 424.567 1025.17 383.499 1023.6 367.744L1022.42 367.207L1021.37 368.483C1024.85 386.661 1023.58 406.737 1037.12 419.531L1036.78 437.093C1012.13 441.675 998.012 447.753 978.99 464.873C975.233 468.255 970.219 473.799 966.828 476.69Z"/><path fill="#F87171" d="M1021.37 368.483C1018.96 359.479 1020.74 350.105 1025.33 342.097C1030.77 332.55 1039.84 325.611 1050.47 322.861C1087.82 313.17 1105.74 350.207 1113.12 380.208C1119.11 404.512 1119.28 424.536 1118.21 449.198C1107.64 444.29 1100.74 440.641 1088.62 438.989C1088.54 432.166 1085.93 397.397 1088.14 393.718C1089.38 393.289 1090.41 392.919 1091.48 392.128C1090.03 392.317 1087.85 391.978 1086.32 391.808C1084.7 394.096 1083.06 396.372 1081.4 398.637C1074.57 407.965 1062.66 419.59 1050.92 421.197C1026.3 424.567 1025.17 383.499 1023.6 367.744L1022.42 367.207L1021.37 368.483Z"/><path fill="#FAD5CE" d="M1045.35 343.714C1056.35 365.247 1066.89 362.071 1085.21 373.129C1085.28 373.171 1084.77 375.788 1085.48 377.097C1087.38 375.321 1089.94 371.486 1092.61 372.046C1104.89 374.621 1099.58 387.755 1091.48 392.128C1090.03 392.317 1087.85 391.978 1086.32 391.808C1084.7 394.096 1083.06 396.372 1081.4 398.637C1074.57 407.965 1062.66 419.59 1050.92 421.197C1026.3 424.567 1025.17 383.499 1023.6 367.744C1025.02 363.099 1040.98 350.092 1045.35 343.714Z"/><path fill="#523E53" d="M1033.24 364.916C1034.82 363.789 1037.02 364.139 1038.17 365.703C1039.32 367.266 1039 369.464 1037.46 370.639C1036.43 371.415 1035.07 371.581 1033.9 371.073C1032.72 370.564 1031.91 369.461 1031.77 368.185C1031.64 366.91 1032.2 365.66 1033.24 364.916Z"/><path fill="#6A4251" d="M1057.17 365.092C1058.86 364.103 1061.04 364.685 1062.01 366.387C1062.99 368.089 1062.39 370.259 1060.68 371.218C1058.99 372.166 1056.85 371.574 1055.89 369.893C1054.93 368.211 1055.5 366.069 1057.17 365.092Z"/><path fill="#C68A8C" d="M1045.25 375.1C1046.15 378.316 1045.02 388.946 1044.73 392.876C1042.68 388.492 1043.87 379.564 1045.25 375.1Z"/><path fill="#AA6964" d="M1055.62 400.023L1056.13 400.545C1052 405.281 1046.75 405.602 1041.29 403.331L1041.04 402.364C1048.05 404.337 1049.5 403.96 1055.62 400.023Z"/><path fill="#F87171" d="M1035.45 439.04C1036.04 438.956 1035.93 439.114 1036.7 439.637C1035.78 462.566 1088.82 476.867 1089.41 440.084C1093.19 440.961 1096.94 442.014 1100.63 443.238C1126.68 451.831 1141.17 469.696 1153.01 493.132C1136.79 506.664 1124.27 512.25 1104.16 518.809C1050.31 531.916 1005.5 517.842 967.578 478.004C972.825 473.744 979.259 466.983 984.707 462.151C998.657 449.782 1016.84 441.073 1035.45 439.04Z"/><path fill="#FAD5CE" d="M1085.45 395.811C1086.47 400.038 1085.59 411.386 1085.87 416.388C1085.38 424.776 1088.76 436.155 1087.61 444.246C1084.3 467.499 1058.7 462.587 1045.96 453.736C1042.39 450.509 1040.74 448.632 1037.95 444.796C1038.69 436.993 1038.65 428.555 1038.77 420.664C1058.28 428.514 1075.19 410.248 1085.45 395.811Z"/><path fill="#F87171" d="M129.641 557.345C140.127 557.036 137.431 575.225 134.034 580.975C131.574 585.138 127.381 582.418 124.612 580.19C120.538 576.939 112.494 571.796 113.044 566.207C115.395 561.728 124.586 559.22 129.641 557.345Z"/><path fill="#FEFEFE" d="M127.848 560.733L131.361 560.431C136.76 563.156 134.925 577.127 130.308 580.191C127.977 579.815 128.609 579.839 126.499 578.195C116.117 568.372 108.738 567.376 127.848 560.733Z"/><path fill="#FCD34D" d="M1253.1 590.324L1255.71 590.66C1258.25 592.263 1258.88 594.885 1260.3 596.483C1264.02 600.663 1266.87 591.592 1273.14 592.168C1277.96 597.747 1271.36 601.838 1267.42 604.851C1271.94 608.678 1274.8 609.658 1272.83 615.69C1267.09 617.3 1265.09 613.161 1261.77 609.024C1258.66 611.672 1255.94 614.949 1251.63 613.728C1248.35 609.591 1253.49 605.751 1256.36 602.871C1254.26 600.487 1251.54 597.931 1250.8 595.012C1250.88 592.73 1251.59 592.238 1253.1 590.324Z"/><path fill="#FCD34D" d="M658.165 96.3792C660.682 96.8269 660.971 97.0138 662.358 98.7032C663.111 101.742 662.29 104.37 661.7 107.513C665.424 109.793 668.117 110.74 669.143 114.869C667.465 119.599 661.56 117.487 657.738 116.689C656.516 119.384 655.089 121.833 653.649 124.413C651.023 125.032 650.031 124.04 648.622 122.229C647.795 119.277 648.373 116.953 648.831 113.949C645.931 112.09 642.488 110.582 642.139 106.951C644.093 104.994 650.871 105.476 653.419 103.906C654.202 103.423 657.473 97.5311 658.165 96.3792Z"/></svg>