<?xml version="1.0" encoding="utf-8" ?><svg xmlns="http://www.w3.org/2000/svg" xmlns:xlink="http://www.w3.org/1999/xlink" width="1365" height="1024" viewBox="0 0 1365 1024"><path fill="white" d="M0 0L1365 0L1365 1024L0 1024L0 0Z"/><path fill="white" d="M881.044 90.376C970.87 7.54468 1112.32 55.6178 1133.5 175.066C1134.48 180.621 1136.18 190.81 1135.44 196.203C1135.31 232.63 1128.28 258.531 1108.72 289.67L1109.13 290.754C1092.44 313.667 1083.65 322.491 1059.66 337.329L1058.86 337.145C1056.23 337.904 1053.92 338.6 1052.06 340.783L1051.12 340.704C1044.74 347.87 1014.34 353.965 1004.1 355.17C1001.51 355.475 995.632 355.771 993.568 356.644L992.304 357.402C990.021 356.022 983.059 356.652 980.075 356.769C983.56 370.316 990.91 389.974 995.628 403.777C1006.19 434.951 1016.94 466.06 1027.88 497.102C1032.3 509.971 1038.09 525.204 1041.91 537.984C1056.81 537.44 1066.89 536.306 1082.35 537.665C1125.79 541.484 1173.2 563.482 1205.15 593.087C1246.41 631.336 1270.8 684.41 1272.96 740.642C1275.08 797.642 1254.33 853.124 1215.34 894.748C1186.34 925.976 1148.45 947.535 1106.79 956.503C1115.41 956.677 1129.84 956.129 1137.73 956.784L1239.03 956.608C1252.15 956.599 1265.64 956.163 1278.67 957.177C1282.5 957.475 1284.31 966.482 1278.26 967.564C1273.06 968.493 1268.27 967.877 1263.05 967.879L1222.2 967.788L1074.62 967.897L339.293 967.893L170.646 968.001C144.892 967.995 119.141 968.183 93.3911 968.167C88.7958 968.164 85.4841 966.995 84.8197 962.046C85.9722 957.731 88.2996 956.349 92.6294 956.302C106.226 956.152 119.908 956.493 133.508 956.556L203.422 956.652C217.702 956.675 233.224 957.05 247.359 956.524C245.253 955.226 235.957 952.216 233.112 951.23C228.745 949.97 221.536 946.864 217.374 945.018C207.664 941.133 178.795 926.093 172.398 918.321C162.601 913.774 140.714 889.276 134.037 880.056C130.511 875.274 127.092 870.414 123.785 865.478C120.641 860.75 117.645 855.926 114.801 851.011C87.3668 803.196 79.2259 748.889 93.8143 695.474C89.0024 689.309 83.1666 659.471 81.4027 649.874C73.6084 607.468 72.3953 560.931 81.8304 518.757C83.0624 513.25 85.448 502.431 88.4175 498.052C61.4035 447.475 101.044 392.557 156.29 389.969C162.938 385.594 170.161 378.558 176.82 373.635C192.745 361.862 208.797 352.398 226.399 343.577C274.039 319.703 354.831 307.645 392.507 269.775C365.954 229.838 381.31 182.47 423.138 161.132L423.07 139.057C423.052 124.439 422.074 113.492 433.207 101.882C437.989 96.8965 445.321 92.5055 452.197 91.5059C460.868 90.2454 470.955 90.6519 479.816 90.6867L522.915 90.8255L692.67 91.0568C694.95 89.7364 863.29 90.5366 881.044 90.376Z"/><path fill="#FEFEFE" d="M881.044 90.376C970.87 7.54468 1112.32 55.6178 1133.5 175.066C1134.48 180.621 1136.18 190.81 1135.44 196.203C1135.31 232.63 1128.28 258.531 1108.72 289.67L1109.13 290.754C1092.44 313.667 1083.65 322.491 1059.66 337.329L1058.86 337.145C1056.23 337.904 1053.92 338.6 1052.06 340.783L1051.12 340.704C1044.74 347.87 1014.34 353.965 1004.1 355.17C1001.51 355.475 995.632 355.771 993.568 356.644L992.304 357.402C990.021 356.022 983.059 356.652 980.075 356.769L978.274 357.072C976.66 356.471 969.93 356.087 967.823 355.879C957.111 354.819 947.048 353.128 936.668 350.308C930.059 347.924 922.958 344.904 916.463 342.158L915.556 341.665L914.26 340.947C903.477 335.984 894.542 328.441 885.205 321.211C874.061 328.824 860.225 341.265 848.718 349.722C842.301 354.413 835.795 358.982 829.205 363.427C826.788 365.06 819.769 369.57 818.105 371.134L816.416 370.692L816.78 369.896C816.612 360.05 795.438 336.612 787.96 329.386C760.359 303.236 723.554 289.041 685.546 289.887C646.448 290.62 609.276 306.999 582.346 335.361C567.67 350.523 554.865 374.463 548.969 394.603L548.967 395.909C521.184 380.036 492.324 357.965 463.721 342.264C461.493 345.067 459.186 348.327 457.033 351.23L449.467 342.514C447.331 337.853 445.019 335.917 441.52 332.263L441.049 331.435C434.671 333.648 430.285 333.383 424.526 334.951L424.609 311.745C423.956 310.375 415.782 300.051 414.41 298.292C407.008 288.864 399.706 279.358 392.507 269.775C365.954 229.838 381.31 182.47 423.138 161.132L423.07 139.057C423.052 124.439 422.074 113.492 433.207 101.882C437.989 96.8965 445.321 92.5055 452.197 91.5059C460.868 90.2454 470.955 90.6519 479.816 90.6867L522.915 90.8255L692.67 91.0568C694.95 89.7364 863.29 90.5366 881.044 90.376Z"/><path fill="white" d="M881.044 90.376C970.87 7.54468 1112.32 55.6178 1133.5 175.066C1134.48 180.621 1136.18 190.81 1135.44 196.203C1135.31 232.63 1128.28 258.531 1108.72 289.67L1109.13 290.754C1092.44 313.667 1083.65 322.491 1059.66 337.329L1058.86 337.145C1056.23 337.904 1053.92 338.6 1052.06 340.783L1051.12 340.704C1044.74 347.87 1014.34 353.965 1004.1 355.17C1001.51 355.475 995.632 355.771 993.568 356.644L992.304 357.402C990.021 356.022 983.059 356.652 980.075 356.769L978.274 357.072C976.66 356.471 969.93 356.087 967.823 355.879C957.111 354.819 947.048 353.128 936.668 350.308C930.059 347.924 922.958 344.904 916.463 342.158L915.556 341.665L914.26 340.947C903.477 335.984 894.542 328.441 885.205 321.211L884.154 319.978L881.012 316.857L881.017 315.506C878.703 313.131 869.71 303.399 867.195 302.937C862.623 299.91 845.388 274.419 844.197 268.72L842.485 265.123C832.642 243.541 828.201 213.506 831.498 190.011L832.376 186.835C830.907 169.707 849.771 127.351 861.26 114.36C861.944 114.063 878.884 93.941 881.757 91.1109L692.67 91.0568C694.95 89.7364 863.29 90.5366 881.044 90.376Z"/><path fill="#FDBD3E" d="M1002.82 200.352C1014.35 202.177 1024.24 204.49 1035.38 208.23C1038.16 209.165 1047.59 213.885 1049.24 214.14C1053.56 217.708 1060.35 220.351 1065.19 223.858C1089.03 241.128 1101.72 261.337 1108.72 289.67L1109.13 290.754C1092.44 313.667 1083.65 322.491 1059.66 337.329L1058.86 337.145C1056.23 337.904 1053.92 338.6 1052.06 340.783L1051.12 340.704C1044.74 347.87 1014.34 353.965 1004.1 355.17C1001.51 355.475 995.632 355.771 993.568 356.644L992.304 357.402C990.021 356.022 983.059 356.652 980.075 356.769L978.274 357.072C976.66 356.471 969.93 356.087 967.823 355.879C957.111 354.819 947.048 353.128 936.668 350.308C930.059 347.924 922.958 344.904 916.463 342.158L915.556 341.665L914.26 340.947C903.477 335.984 894.542 328.441 885.205 321.211L884.154 319.978L881.012 316.857L881.017 315.506C881.607 302.491 883.703 289.589 887.265 277.057C895.666 248.044 911.857 225.921 938.508 211.277C946.745 206.957 955.507 203.726 964.576 201.666C958.179 212.488 961.046 238.688 973.071 244.512C989.651 252.542 1006.21 223.492 1005.37 209.758C1005.14 205.901 1004.3 203.883 1002.82 200.352Z"/><path fill="#FEFEFE" d="M1050.41 304.474C1052.62 307.928 1059.47 332.902 1059.66 337.329L1058.86 337.145C1056.23 337.904 1053.92 338.6 1052.06 340.783L1051.12 340.704C1050.44 338.838 1050.85 315.153 1050.3 309.888L1050.41 304.474Z"/><path fill="#3D2E16" d="M914.26 340.947C906.792 314.028 903.011 292.954 917.555 266.285C918.868 263.878 920.083 261.704 921.89 259.607L922.621 260.325C920.464 264.471 918.247 266.839 915.935 272.034C908.522 288.691 907.134 304.677 910.93 322.449C911.481 325.026 915.558 340.334 915.556 341.665L914.26 340.947Z"/><path fill="#3D2E16" d="M1050.3 309.888C1048.16 306.472 1047.52 295.718 1045.97 291.152C1045.02 288.364 1041.47 281.353 1042.13 279.086C1047.66 285.225 1047.47 298.951 1050.41 304.474L1050.3 309.888Z"/><path fill="#302D3A" d="M942.746 154.938C893.219 127.749 949.379 67.0262 978.616 98.8103C984.453 97.2654 991.094 96.2943 997.015 97.6756C1019.02 102.808 1023.4 122.28 1022.25 141.428C1051.98 158.097 1061.15 182.079 1049.24 214.14C1047.59 213.885 1038.16 209.165 1035.38 208.23C1024.24 204.49 1014.35 202.177 1002.82 200.352C1004.3 203.883 1005.14 205.901 1005.37 209.758C1006.21 223.492 989.651 252.542 973.071 244.512C961.046 238.688 958.179 212.488 964.576 201.666C964.834 201.639 966.26 201.046 966.555 200.93C966.087 198.471 965.734 196.136 965.369 193.667C952.269 188.781 944.22 183.025 942.862 168.304C942.608 163.329 942.43 159.949 942.746 154.938Z"/><path fill="#F49B8B" d="M958.428 128.261C967.071 139.163 976.936 137.448 989.243 141.286C992.066 144.332 992.554 145.318 994.57 149.004C996.915 147.434 997.998 145.291 1001.25 146.125C1006.18 147.39 1009.44 150.513 1007.89 155.825C1006.34 161.11 1004.68 162.567 999.828 164.608C1000.33 170.066 1002.12 197.201 1002.82 200.352C1004.3 203.883 1005.14 205.901 1005.37 209.758C1006.21 223.492 989.651 252.542 973.071 244.512C961.046 238.688 958.179 212.488 964.576 201.666C964.834 201.639 966.26 201.046 966.555 200.93C966.087 198.471 965.734 196.136 965.369 193.667C952.269 188.781 944.22 183.025 942.862 168.304C942.608 163.329 942.43 159.949 942.746 154.938L944.775 145.62C954.021 140.666 955.249 138.131 958.428 128.261Z"/><path fill="#2B1E29" d="M965.369 193.667C975.888 192.944 981.32 190.561 989.807 184.24C981.527 194.639 978.6 195.498 966.555 200.93C966.087 198.471 965.734 196.136 965.369 193.667Z"/><path fill="#2B1E29" d="M973.315 145.539C976.656 145.37 979.822 145.284 982.615 147.505L982.293 148.223L979.928 148.612C975.563 148.461 975.089 149.185 970.226 148.404L969.728 147.515C970.91 146.25 971.699 146.125 973.315 145.539Z"/><path fill="#18171C" d="M974.323 151.623C975.512 151.134 976.877 151.376 977.827 152.244C978.776 153.112 979.14 154.45 978.759 155.679C978.379 156.908 977.324 157.807 976.05 157.987C974.392 158.222 972.818 157.184 972.379 155.567C971.94 153.95 972.773 152.259 974.323 151.623Z"/><path fill="#18171C" d="M950.85 151.937C952.343 151.419 953.989 152.095 954.686 153.515C955.384 154.934 954.914 156.651 953.591 157.517C952.577 158.18 951.273 158.2 950.24 157.567C949.208 156.934 948.632 155.763 948.763 154.559C948.893 153.355 949.706 152.334 950.85 151.937Z"/><path fill="#2B1E29" d="M949.771 145.47C952.516 145.338 956.639 145.153 958.536 147.462L958.26 148.328L956.946 148.909C953.621 148.477 951.498 149.203 948.128 148.058L948.022 146.988L949.771 145.47Z"/><path fill="#F87171" d="M961.165 154.372C964.03 159.231 961.047 160.313 966.692 166.714C959.955 164.657 961.007 160.495 961.165 154.372Z"/><path fill="#302D3A" d="M942.862 168.304C944.22 183.025 952.269 188.781 965.369 193.667C965.734 196.136 966.087 198.471 966.555 200.93C966.26 201.046 964.834 201.639 964.576 201.666C955.507 203.726 946.745 206.957 938.508 211.277C926.192 193.183 922.192 182.306 942.862 168.304Z"/><path fill="#A1AEC9" d="M832.376 186.835C832.673 187.619 831.663 213.018 832.201 218.344C833.03 227.351 834.622 236.272 836.96 245.009C838.117 249.297 844.193 266.286 844.197 268.72L842.485 265.123C832.642 243.541 828.201 213.506 831.498 190.011L832.376 186.835Z"/><path fill="#FEFEFE" d="M423.138 161.132L423.07 139.057C423.052 124.439 422.074 113.492 433.207 101.882C437.989 96.8965 445.321 92.5055 452.197 91.5059C460.868 90.2454 470.955 90.6519 479.816 90.6867L522.915 90.8255L692.67 91.0568L881.757 91.1109C878.884 93.941 861.944 114.063 861.26 114.36C849.771 127.351 830.907 169.707 832.376 186.835L831.498 190.011C729.252 188.267 624.893 189.855 522.51 189.931C503.344 162.226 480.543 151.298 447.232 154.368C438.266 155.734 431.563 157.962 423.138 161.132Z"/><path fill="#64748B" d="M423.138 161.132L423.07 139.057C423.052 124.439 422.074 113.492 433.207 101.882C437.989 96.8965 445.321 92.5055 452.197 91.5059C460.868 90.2454 470.955 90.6519 479.816 90.6867L522.915 90.8255L692.67 91.0568L881.757 91.1109C878.884 93.941 861.944 114.063 861.26 114.36C847.746 114.103 834.23 114.02 820.714 114.113C814.372 114.117 803.188 113.838 797.249 114.492C793.835 117.405 791.109 121.104 788.455 124.745C779.318 137.284 766.97 149.844 750.44 150.463C732.121 151.149 713.621 150.556 695.277 150.76C670.406 150.698 645.324 150.963 620.516 150.536C607.887 150.319 597.335 146.452 588.92 137.038C583.315 130.769 575.607 118.346 569.339 113.74C548.3 113.551 527.26 113.5 506.22 113.587C497.705 113.585 488.538 113.695 480.186 113.61C461.506 113.42 446.431 124.282 446.907 144.052C446.988 147.413 447.086 150.953 447.232 154.368C438.266 155.734 431.563 157.962 423.138 161.132Z"/><path fill="#FEFEFE" d="M639.796 116.088C649.025 116.052 721.242 115.171 724.831 117.206C725.764 119.34 725.481 118.639 724.743 121.454C697.45 122.425 669.293 121.227 641.938 121.341C640.803 121.345 640.154 121.025 639.322 120.282C638.768 118.439 639.154 117.907 639.796 116.088Z"/><path fill="#E5E7EB" d="M522.51 189.931C624.893 189.855 729.252 188.267 831.498 190.011C828.201 213.506 832.642 243.541 842.485 265.123C829.314 265.848 810.064 265.352 796.458 265.367L708.347 265.345L589.529 265.401C567.643 265.399 544.922 265.689 523.123 265.13C537.978 238.78 536.656 216.154 522.51 189.931Z"/><path fill="#FEFEFE" d="M583.027 223.48C602.783 222.519 781.197 222.618 785.101 224.279C786.962 225.071 788.685 227.008 789.499 228.837C790.527 231.145 790.374 233.807 789.295 236.07C788.076 238.626 786.173 239.678 783.622 240.635C772.096 241.081 758.434 240.743 746.779 240.748C721.929 240.679 697.079 240.736 672.229 240.918C652.475 241.167 632.72 241.293 612.964 241.296C605.783 241.294 582.8 243.37 578.394 236.619C575.245 231.794 577.995 226.462 583.027 223.48Z"/><path fill="#F87171" d="M447.232 154.368C480.543 151.298 503.344 162.226 522.51 189.931C536.656 216.154 537.978 238.78 523.123 265.13C509.987 282.993 495.421 300.422 482.086 318.204C476.618 325.495 469.796 333.579 464.797 341.046C492.277 358.415 521.448 377.858 548.969 394.603L548.967 395.909C521.184 380.036 492.324 357.965 463.721 342.264C461.493 345.067 459.186 348.327 457.033 351.23L449.467 342.514C447.331 337.853 445.019 335.917 441.52 332.263L441.049 331.435C434.671 333.648 430.285 333.383 424.526 334.951L424.609 311.745C423.956 310.375 415.782 300.051 414.41 298.292C407.008 288.864 399.706 279.358 392.507 269.775C365.954 229.838 381.31 182.47 423.138 161.132C431.563 157.962 438.266 155.734 447.232 154.368Z"/><path fill="#64748B" d="M424.609 311.745C429.59 317.229 436.448 325.494 441.049 331.435C434.671 333.648 430.285 333.383 424.526 334.951L424.609 311.745Z"/><path fill="#FEFEFE" d="M452.694 189.713C474.27 187.817 493.298 203.774 495.197 225.355C497.095 246.936 481.145 265.972 459.569 267.873C437.989 269.775 418.955 253.817 417.056 232.232C415.157 210.647 431.114 191.61 452.694 189.713Z"/><path fill="#F49B8B" d="M884.154 319.978L885.205 321.211C874.061 328.824 860.225 341.265 848.718 349.722C842.301 354.413 835.795 358.982 829.205 363.427C826.788 365.06 819.769 369.57 818.105 371.134L816.416 370.692L816.78 369.896C840.166 354.548 862.66 337.881 884.154 319.978Z"/><path fill="#E5E7EB" d="M867.195 302.937C869.71 303.399 878.703 313.131 881.017 315.506L881.012 316.857C875.505 311.873 872.164 308.4 867.195 302.937Z"/><path fill="#FEFEFE" d="M548.969 394.603C554.865 374.463 567.67 350.523 582.346 335.361C609.276 306.999 646.448 290.62 685.546 289.887C723.554 289.041 760.359 303.236 787.96 329.386C795.438 336.612 816.612 360.05 816.78 369.896L816.416 370.692L818.105 371.134C819.769 369.57 826.788 365.06 829.205 363.427C835.795 358.982 842.301 354.413 848.718 349.722C860.225 341.265 874.061 328.824 885.205 321.211C894.542 328.441 903.477 335.984 914.26 340.947L915.556 341.665L916.463 342.158C922.958 344.904 930.059 347.924 936.668 350.308L936.972 576.456L936.733 577.425C931.002 581.733 922.381 587.849 917.323 592.543C916.914 589.22 917.004 580.86 916.944 576.992C916.544 582.206 916.539 586.879 916.518 592.085C898.795 606.321 888.122 620.887 875.98 639.951C869.914 650.645 863.28 663.06 859.086 674.665C851.148 673.831 838.538 674.613 830.124 674.47C806.4 674.066 780.952 675.365 757.392 674.198C753.86 684.924 751.283 689.441 744.726 698.733L743.335 699.615C739.776 702.567 730.61 716.066 727.234 720.336C713.711 737.438 699.79 758.643 685.351 774.819L681.974 774.5C675.058 768.127 659.835 747.243 653.715 738.964L623.083 698.334L621.395 697.169C615.231 687.464 613.398 685.307 609.534 674.564C574.662 674.598 539.045 675.026 504.236 674.542C501.424 665.096 494.811 652.795 490.212 644.042C476.75 620.926 468.382 611.253 449.192 592.97L449.467 342.514L457.033 351.23C459.186 348.327 461.493 345.067 463.721 342.264C492.324 357.965 521.184 380.036 548.967 395.909L548.969 394.603Z"/><path fill="#FEFEFE" d="M548.969 394.603C554.865 374.463 567.67 350.523 582.346 335.361C609.276 306.999 646.448 290.62 685.546 289.887C723.554 289.041 760.359 303.236 787.96 329.386C795.438 336.612 816.612 360.05 816.78 369.896L816.416 370.692L818.105 371.134C819.884 373.485 821.725 378.228 822.806 381.113C830.596 401.893 832.824 424.13 829.849 446.015C824.617 485.178 804.123 520.686 772.833 544.802C743.068 567.858 705.271 577.947 667.979 572.79C632.101 567.877 594.535 546.669 572.68 517.71C550.098 487.787 539.443 450.385 545.061 413.177C545.64 409.341 547.353 399.063 548.967 395.909L548.969 394.603Z"/><path fill="#E5E7EB" d="M548.969 394.603C554.865 374.463 567.67 350.523 582.346 335.361C609.276 306.999 646.448 290.62 685.546 289.887C723.554 289.041 760.359 303.236 787.96 329.386C795.438 336.612 816.612 360.05 816.78 369.896L816.416 370.692C807.906 349.329 783.682 324.742 764.511 312.8C726.307 289.001 677.381 284.512 635.584 301.176C599.737 315.284 571.087 343.248 556.109 378.748C541.659 412.476 541.481 447.925 554.284 482.509C554.867 484.084 557.765 490.753 558.577 491.641C573.435 525.115 603.379 550.035 637.159 563.245C752.985 608.538 867.12 485.977 818.107 373.215C817.572 371.983 817.488 371.596 816.416 370.692L818.105 371.134C819.884 373.485 821.725 378.228 822.806 381.113C830.596 401.893 832.824 424.13 829.849 446.015C824.617 485.178 804.123 520.686 772.833 544.802C743.068 567.858 705.271 577.947 667.979 572.79C632.101 567.877 594.535 546.669 572.68 517.71C550.098 487.787 539.443 450.385 545.061 413.177C545.64 409.341 547.353 399.063 548.967 395.909L548.969 394.603Z"/><path fill="#E5E7EB" d="M598.014 524.785C547.407 472.451 543.473 400.277 593.308 345.204C616.954 319.073 647.401 305.76 682.681 304.41C717.805 302.88 752.067 315.557 777.741 339.582C801.272 361.554 815.622 390.748 816.609 423.109C817.567 447.38 811.491 471.411 799.11 492.307C796.77 496.263 793.105 502.142 790.019 505.425C788.93 501.759 788.769 498.516 787.996 494.826C786.803 489.131 783.905 489.848 779.455 489.816C782.4 489.336 784.273 489.872 785.761 488.392L785.129 486.174C775.971 486.02 766.533 486.139 757.351 486.141L757.304 455.277C755.762 453.439 754.515 452.872 752.278 452.313L749.087 451.52C744.986 451.208 739.689 451.227 735.492 451.122C731.061 451.168 718.928 450.288 716.17 452.097L715.84 454.638L716.229 457.8C714.323 460.138 713.13 461.325 712.779 464.464C712.506 471.395 712.724 479.604 712.738 486.632L677.866 486.657L677.92 463.862L674.411 459.135C673.931 455.795 674.555 442.72 674.595 438.334C663.438 439.799 644.816 443.971 635.925 450.655C633.376 450.987 633.129 451.255 630.822 452.548L630.481 453.554C631.969 454.079 631.943 454.074 633.518 454.17C636.053 457.154 634.638 481.429 634.605 486.706C624.415 486.708 613.833 486.577 603.677 486.747C602.789 488.013 602.42 488.428 601.871 489.918C612.784 490.131 623.701 490.167 634.615 490.027L634.618 524.276C627.654 524.261 603.89 523.848 598.014 524.785Z"/><path fill="#F87171" d="M654.642 374.167C621.991 359.27 646.088 321.602 669.378 312.202C685.197 305.817 700.809 313.167 706.525 329.878C724.785 334.337 745.245 353.658 740.167 373.864C737.718 383.611 729.257 392.786 720.831 397.751C721.264 395.53 722.359 393.945 722.489 391.355C722.914 382.876 716.708 382.569 710.044 382.57L709.873 371.233C687.549 379.894 678.254 379.624 654.642 374.167Z"/><path fill="#F49B8B" d="M654.642 374.167C678.254 379.624 687.549 379.894 709.873 371.233L710.044 382.57C716.708 382.569 722.914 382.876 722.489 391.355C722.359 393.945 721.264 395.53 720.831 397.751C718.699 399.182 716.778 400.494 714.543 401.78C714.63 407.107 714.927 437.687 716.76 439.507L717.004 439.568C715.011 441.73 715.727 447.515 715.823 450.755C720.569 450.8 731.229 450.623 735.492 451.122C731.061 451.168 718.928 450.288 716.17 452.097L715.84 454.638L716.229 457.8C714.323 460.138 713.13 461.325 712.779 464.464C712.506 471.395 712.724 479.604 712.738 486.632L677.866 486.657L677.92 463.862L674.411 459.135C673.931 455.795 674.555 442.72 674.595 438.334C675.595 435.762 675.621 427.656 675.75 424.459L675.301 418.744C674.489 418.831 673.675 418.891 672.86 418.924C651.369 419.622 654.958 388.349 654.642 374.167Z"/><path fill="#FDBD3E" d="M677.92 463.862C689.345 471.43 700.618 473.322 711.354 463.33L712.374 463.337L712.779 464.464C712.506 471.395 712.724 479.604 712.738 486.632L677.866 486.657L677.92 463.862Z"/><path fill="#302D3A" d="M675.301 418.744C679.725 417.907 691.106 418.093 696.029 418.158C688.169 421.712 684.446 422.756 675.75 424.459L675.301 418.744Z"/><path fill="#302D3A" d="M665.771 380.327C672.423 381.197 672.685 385.31 669.319 390.322C662.81 390.264 661.507 385.105 665.771 380.327Z"/><path fill="#302D3A" d="M687.697 379.571C693.683 382.169 693.278 385.694 689.915 390.325C687.697 390.188 687.629 390.132 685.661 389.01C682.883 385.044 684.777 382.76 687.697 379.571Z"/><path fill="#CC3C3A" d="M683.371 398.435L683.787 400.66C682.203 407.046 677.101 408.14 671.322 407.23C671.233 406.878 671.298 406.182 671.311 405.776C678.753 406.064 681.219 405.572 683.371 398.435Z"/><path fill="white" d="M675.328 397.068C677.59 396.895 678.61 396.824 680.859 396.969L681.679 397.976L680.992 400.182C678.156 400.213 676.782 400.406 674.063 399.517L673.855 398.434L675.328 397.068Z"/><path fill="#FDBD3E" d="M601.871 489.918C612.784 490.131 623.701 490.167 634.615 490.027L634.618 524.276C627.654 524.261 603.89 523.848 598.014 524.785C597.53 509.856 598.012 504.732 601.871 489.918Z"/><path fill="#FDBD3E" d="M603.677 486.747C606.155 477.055 618.724 462.789 626.393 456.765C629.214 454.549 629.927 454.201 633.518 454.17C636.053 457.154 634.638 481.429 634.605 486.706C624.415 486.708 613.833 486.577 603.677 486.747Z"/><path fill="#FDBD3E" d="M757.304 455.277C770.715 464.344 777.317 471.575 785.129 486.174C775.971 486.02 766.533 486.139 757.351 486.141L757.304 455.277Z"/><path fill="#FDBD3E" d="M717.004 439.568C726.452 440.783 740.949 445.417 749.227 450.419L749.087 451.52C744.986 451.208 739.689 451.227 735.492 451.122C731.229 450.623 720.569 450.8 715.823 450.755C715.727 447.515 715.011 441.73 717.004 439.568Z"/><path fill="#FDBD3E" d="M635.925 450.655C644.816 443.971 663.438 439.799 674.595 438.334C674.555 442.72 673.931 455.795 674.411 459.135L674.314 486.707L638.27 486.703L638.356 454.564C644.233 454.512 670.944 456.532 672.737 451.656L672.727 452.766L672.105 451.292L672.91 452.469C672.439 452.022 671.969 451.575 671.499 451.128C663.149 450.359 642.895 451.556 635.925 450.655Z"/><path fill="#FDBD3E" d="M716.73 489.985L753.888 489.891C753.904 497.598 754.388 518.241 753.58 524.486L716.77 524.482C716.897 512.983 716.884 501.484 716.73 489.985Z"/><path fill="#FDBD3E" d="M638.283 490.06L674.12 490.006L674.05 524.32C662.823 523.941 649.752 524.246 638.39 524.247L638.283 490.06Z"/><path fill="#FDBD3E" d="M677.89 490L712.697 489.98C712.64 501.483 712.667 512.986 712.779 524.488C701.263 524.317 689.411 524.447 677.871 524.453L677.89 490Z"/><path fill="#FDBD3E" d="M715.84 454.638C728.227 454.588 741.609 454.766 753.912 454.355L753.935 486.527L716.77 486.548C716.874 477.914 717.214 466.175 716.229 457.8L715.84 454.638Z"/><path fill="#FDBD3E" d="M677.85 527.761C689.481 527.906 701.314 527.819 712.963 527.842C712.976 531.833 713.531 554.598 712.275 556.393C698.763 558.948 691.455 558.929 677.826 558.268L677.85 527.761Z"/><path fill="#FDBD3E" d="M779.455 489.816C783.905 489.848 786.803 489.131 787.996 494.826C788.769 498.516 788.93 501.759 790.019 505.425C785.229 513.621 780.328 517.853 773.659 524.628L757.205 524.524C757.443 513.238 757.268 501.274 757.263 489.936C764.661 489.952 772.058 489.912 779.455 489.816Z"/><path fill="#FDBD3E" d="M638.754 527.65C650.522 527.728 662.291 527.744 674.06 527.697L673.996 558.091C659.633 555.774 652.116 553.815 638.48 548.836C638.473 543.778 638.058 531.992 638.754 527.65Z"/><path fill="#FDBD3E" d="M716.835 527.86L753.875 527.821C753.843 532.159 753.712 535.658 754.399 539.981C751.464 541.866 747.941 543.65 744.833 545.314C733.988 550.535 728.33 552.395 716.686 555.771C717.393 547.423 716.992 536.395 716.835 527.86Z"/><path fill="#FDBD3E" d="M601.299 527.382L634.609 527.555L634.672 547.255C625.187 543.25 609.232 533.743 601.299 527.382Z"/><path fill="#FDBD3E" d="M757.115 528.021L770.197 528.009L764.567 532.685C762.579 534.253 759.957 536.777 757.654 537.125C756.313 535.128 757.002 530.89 757.115 528.021Z"/><path fill="#F87171" d="M623.267 608.203C631.107 599.842 638.11 593.896 648.636 588.806C677.533 574.831 714.131 580.598 737.425 602.705C739.233 604.434 741.013 606.191 742.766 607.975C758.306 628.4 764.808 648.893 757.392 674.198C753.86 684.924 751.283 689.441 744.726 698.733L743.335 699.615C739.776 702.567 730.61 716.066 727.234 720.336C713.711 737.438 699.79 758.643 685.351 774.819L681.974 774.5C675.058 768.127 659.835 747.243 653.715 738.964L623.083 698.334L621.395 697.169C615.231 687.464 613.398 685.307 609.534 674.564C602.393 649.472 608.388 628.86 623.267 608.203Z"/><path fill="#FEFEFE" d="M676.616 616.174C698.207 612.275 718.875 626.602 722.805 648.192C726.735 669.782 712.441 690.477 690.862 694.44C669.238 698.411 648.496 684.077 644.558 662.442C640.62 640.807 654.98 620.081 676.616 616.174Z"/><path fill="#E5E7EB" d="M490.212 644.042C491.827 634.948 488.297 624.222 497.519 615.491C500.446 612.719 505.803 609.409 509.705 608.937C521.64 607.492 536.181 608.011 548.249 608.016L623.267 608.203C608.388 628.86 602.393 649.472 609.534 674.564C574.662 674.598 539.045 675.026 504.236 674.542C501.424 665.096 494.811 652.795 490.212 644.042Z"/><path fill="#E5E7EB" d="M742.766 607.975L812.242 607.949C824.113 607.947 837.601 607.316 849.309 608.928C854.945 609.704 862.317 614.869 866.247 618.685C870.678 623.156 872.777 628.292 874.522 634.33C874.976 635.898 875.278 638.727 875.98 639.951C869.914 650.645 863.28 663.06 859.086 674.665C851.148 673.831 838.538 674.613 830.124 674.47C806.4 674.066 780.952 675.365 757.392 674.198C764.808 648.893 758.306 628.4 742.766 607.975Z"/><path fill="#64748B" d="M916.463 342.158C922.958 344.904 930.059 347.924 936.668 350.308L936.972 576.456L936.733 577.425C931.002 581.733 922.381 587.849 917.323 592.543C916.914 589.22 917.004 580.86 916.944 576.992L916.992 436.543C917.023 406.306 917.81 372 916.463 342.158Z"/><path fill="white" d="M936.668 350.308C947.048 353.128 957.111 354.819 967.823 355.879C969.93 356.087 976.66 356.471 978.274 357.072L980.075 356.769C983.56 370.316 990.91 389.974 995.628 403.777C1006.19 434.951 1016.94 466.06 1027.88 497.102C1032.3 509.971 1038.09 525.204 1041.91 537.984C1056.81 537.44 1066.89 536.306 1082.35 537.665C1125.79 541.484 1173.2 563.482 1205.15 593.087C1246.41 631.336 1270.8 684.41 1272.96 740.642C1275.08 797.642 1254.33 853.124 1215.34 894.748C1186.34 925.976 1148.45 947.535 1106.79 956.503C1115.41 956.677 1129.84 956.129 1137.73 956.784C1131.35 957.546 1109.59 957.538 1103.82 956.446C1096.43 957.481 1089.14 957.302 1081.68 957.172C1071.97 957.817 1048.36 957.554 1038.52 957.229C1031.96 957.48 1023.48 957.346 1016.88 957.161C1014.65 956.82 1011.67 956.324 1010.27 954.658C995.799 950.752 985.174 947.168 971.54 940.617C966.658 938.271 953.845 930.875 949.686 929.666C948.399 929.681 945.919 927.341 944.937 926.478C943.083 923.799 943.14 924.052 939.759 922.807C939.637 922.556 919.519 905.922 917.468 904.068L916.418 904.49C909.651 897.373 902.479 891.03 896.102 883.549C860.766 842.095 840.916 786.293 846.295 731.381C835.87 728.743 822.354 724.151 811.744 720.897C788.892 713.962 766.088 706.868 743.335 699.615L744.726 698.733C751.283 689.441 753.86 684.924 757.392 674.198C780.952 675.365 806.4 674.066 830.124 674.47C838.538 674.613 851.148 673.831 859.086 674.665C863.28 663.06 869.914 650.645 875.98 639.951C888.122 620.887 898.795 606.321 916.518 592.085C916.539 586.879 916.544 582.206 916.944 576.992C917.004 580.86 916.914 589.22 917.323 592.543C922.381 587.849 931.002 581.733 936.733 577.425L936.972 576.456L936.668 350.308Z"/><path fill="#FDBD3E" d="M1090.86 721.988C1114.05 722.772 1136.8 728.555 1157.55 738.941C1160.53 740.417 1171.5 747.456 1173.63 747.851C1173.75 748.044 1173.88 748.237 1174 748.43C1212.62 777.103 1225.72 808.98 1239.19 854.671C1225.13 881.371 1197.63 909.305 1171.71 924.624C1169.7 918.236 1161.65 891.295 1158.21 887.24C1157.37 895.698 1158.54 923.181 1158.52 933.199C1142.54 941.657 1131.02 946.644 1113.4 951.246C1107.17 952.873 1084.51 955.642 1081.68 957.172C1071.97 957.817 1048.36 957.554 1038.52 957.229C1036.23 955.917 1022.13 954.363 1018 953.486C1000.02 949.666 972.018 940.075 956.996 929.679C944.613 924.278 920.758 903.461 911.9 893.483C911.717 873.38 914.124 853.338 919.06 833.851C927.115 802.016 941.595 770.008 967.806 749.12C974.448 743.827 980.883 740.141 988.132 735.808C989.225 735.601 993.084 733.91 994.323 733.381C1007.66 727.694 1019.82 724.744 1034.2 723.091C1033.12 736.002 1030.67 750.886 1040.62 761.095C1051.31 772.059 1069.47 771.045 1079.87 760.135C1090.54 748.932 1090.92 736.474 1090.86 721.988Z"/><path fill="#3D2E16" d="M956.996 929.679C955.856 925.086 956.371 904.352 956.323 898.391C956.001 858.139 953.377 836.148 974.173 800.051C974.624 799.267 975.12 798.383 975.903 798.142C975.963 799.145 961.11 830.93 959.57 838.796C958.632 843.662 958.056 848.592 957.847 853.543C957.473 862.572 958.73 926.616 956.996 929.679Z"/><path fill="#3D2E16" d="M1158.21 887.24C1156.19 884.674 1147.9 843.304 1148.81 839.793C1150.37 845.93 1158.71 882.722 1158.43 886.939L1158.21 887.24Z"/><path fill="#302D3A" d="M1011.39 671.335C961.169 670.951 963.815 626.176 986.816 594.372C1005.91 567.971 1049.87 552.389 1076.55 576.467C1107.4 576.75 1125.76 600.947 1126.06 630.621C1126.17 641.475 1122.48 647.936 1120.47 657.863C1129.68 690.213 1169.41 684.404 1173.63 747.851C1171.5 747.456 1160.53 740.417 1157.55 738.941C1136.8 728.555 1114.05 722.772 1090.86 721.988C1090.92 736.474 1090.54 748.932 1079.87 760.135C1069.47 771.045 1051.31 772.059 1040.62 761.095C1030.67 750.886 1033.12 736.002 1034.2 723.091C1034.58 717.248 1034.77 711.351 1035.99 705.633C1025.74 700.609 1018.27 694.095 1014 683.247C1013.23 678.954 1012.46 675.567 1011.39 671.335Z"/><path fill="#F49B8B" d="M1035.24 610.181C1036.06 613.218 1036.94 616.762 1038.75 619.471C1048.16 633.561 1068.29 641.231 1084.5 643.231C1085.46 643.822 1086.57 646.264 1087.98 645.202C1093.16 641.324 1095.38 637.135 1102.78 639.733C1111.49 642.794 1113.33 653.832 1110.08 661.413C1108.43 665.288 1105.28 668.328 1101.34 669.837C1098.55 670.912 1095.64 670.935 1092.68 671.057L1090.86 721.988C1090.92 736.474 1090.54 748.932 1079.87 760.135C1069.47 771.045 1051.31 772.059 1040.62 761.095C1030.67 750.886 1033.12 736.002 1034.2 723.091C1034.58 717.248 1034.77 711.351 1035.99 705.633C1025.74 700.609 1018.27 694.095 1014 683.247C1013.23 678.954 1012.46 675.567 1011.39 671.335C1009.94 661.298 1009.72 649.476 1011.75 639.522C1021.52 631.318 1030.58 622.329 1035.24 610.181Z"/><path fill="#302D3A" d="M1070.9 700.755L1071.42 701.077C1063.3 708.867 1051.66 715.355 1040.13 715.581C1039.33 712.618 1039.37 710.171 1039.24 707.115C1052.68 708.237 1058.68 706.811 1070.9 700.755Z"/><path fill="#FEFEFE" d="M1055.42 680.989L1056.65 679.257L1057.1 679.908C1052.55 694.017 1038.17 691.632 1036.55 682.957L1036.67 682.421C1037.36 681.842 1052.39 681.444 1055.42 680.989Z"/><path fill="#CC3C3A" d="M1055.42 680.989L1056.65 679.257L1057.1 679.908C1052.55 694.017 1038.17 691.632 1036.55 682.957C1044 690.288 1049.93 689.454 1055.42 680.989Z"/><path fill="#F87171" d="M1095.29 657.83C1093.24 658.119 1093.01 658.174 1090.98 657.908L1090.18 656.583C1090.15 649.448 1101.34 643.279 1102.17 656.111L1103.66 657.325C1103.85 659.364 1102.41 662.328 1100.51 663.259C1097.58 662.325 1097.01 661.476 1096.47 658.4L1095.29 657.83Z"/><path fill="#F87171" d="M1095.29 657.83C1096.6 657.081 1099.41 657.553 1102.17 656.111L1103.66 657.325C1103.85 659.364 1102.41 662.328 1100.51 663.259C1097.58 662.325 1097.01 661.476 1096.47 658.4L1095.29 657.83Z"/><path fill="#F49B8B" d="M1095.21 650.45C1097.18 650.642 1097.08 650.592 1098.74 651.651C1099.06 653.904 1099.02 653.117 1097.86 655.499C1095.71 655.462 1094.76 655.69 1093.11 654.526C1093.21 652.422 1093.68 652.523 1095.21 650.45Z"/><path fill="#18171C" d="M1055.53 638.156C1063.21 639.898 1068.67 641.996 1075.78 645.065C1072.83 644.944 1070.01 644.514 1067.02 644.348L1067.11 644.877L1070.9 647.305L1070.06 648.116C1067.63 648.514 1055.14 643.777 1051.81 642.623L1051.6 641.976C1053.73 641.804 1053.7 641.902 1055.52 640.881L1055.53 638.156Z"/><path fill="#302D3A" d="M1026.41 652.57C1028.85 651.571 1031.64 652.753 1032.63 655.204C1033.61 657.656 1032.42 660.441 1029.96 661.413C1027.52 662.378 1024.76 661.192 1023.79 658.759C1022.81 656.326 1023.98 653.561 1026.41 652.57Z"/><path fill="#18171C" d="M1056.22 651.956C1057.83 651.481 1059.58 651.948 1060.74 653.165C1061.9 654.383 1062.28 656.147 1061.73 657.737C1061.18 659.326 1059.79 660.474 1058.12 660.711C1055.79 661.042 1053.6 659.517 1053.1 657.217C1052.6 654.916 1053.96 652.62 1056.22 651.956Z"/><path fill="#F87171" d="M1024.22 670.564C1026.69 670.492 1026.96 670.371 1029.12 671.368C1031.97 674.927 1030.15 676.651 1027.01 679.289C1023.66 678.607 1022.45 678.212 1021.3 674.997C1021.98 672.169 1021.87 672.966 1024.22 670.564Z"/><path fill="#F87171" d="M1065.24 668.758C1067.53 668.407 1069.68 669.928 1070.11 672.2C1070.55 674.472 1069.11 676.68 1066.85 677.197C1065.32 677.548 1063.72 677.033 1062.67 675.855C1061.63 674.678 1061.32 673.025 1061.85 671.545C1062.39 670.066 1063.69 668.997 1065.24 668.758Z"/><defs><linearGradient id="gradient_0" gradientUnits="userSpaceOnUse" x1="1022.825" y1="644.34784" x2="1019.0133" y2="639.93726"><stop offset="0" stop-color="#171A1E"/><stop offset="1" stop-color="#372220"/></linearGradient></defs><path fill="url(#gradient_0)" d="M1019.95 645.747L1018.28 644.518L1014.89 645.732L1014.39 644.565C1016.43 640.999 1025.08 638.797 1028.68 640.019L1028.49 641.153C1027.46 642.081 1024.58 643.507 1023.23 644.231L1021.32 646.489L1020.42 646.466L1019.95 645.747Z"/><path fill="#402627" d="M1023.23 644.231L1024.03 644.141C1030.8 643.318 1030.33 642.293 1038.5 642.551C1034.27 644.143 1021.17 648.228 1016.97 647.422L1016.93 646.851L1019.95 645.747L1020.42 646.466L1021.32 646.489L1023.23 644.231Z"/><path fill="white" d="M936.668 350.308C947.048 353.128 957.111 354.819 967.823 355.879C969.93 356.087 976.66 356.471 978.274 357.072L1014.66 463.586C1020.51 480.164 1026.27 496.777 1031.92 513.425C1034.57 521.181 1038.22 530.669 1040.32 538.368C1005.35 541.173 966.517 558.163 936.972 576.456L936.668 350.308Z"/><path fill="#FEFEFE" d="M757.392 674.198C780.952 675.365 806.4 674.066 830.124 674.47C838.538 674.613 851.148 673.831 859.086 674.665C853.85 688.889 846.581 714.998 846.287 730.177C817.601 720.589 788.065 712.586 759.281 703.185C754.7 701.689 749.376 699.911 744.726 698.733C751.283 689.441 753.86 684.924 757.392 674.198Z"/><path fill="#302D3A" d="M1014 683.247C1018.27 694.095 1025.74 700.609 1035.99 705.633C1034.77 711.351 1034.58 717.248 1034.2 723.091C1019.82 724.744 1007.66 727.694 994.323 733.381C993.084 733.91 989.225 735.601 988.132 735.808C987.904 735.353 987.679 734.896 987.458 734.437C975.36 709.294 992.238 693.431 1014 683.247Z"/><path fill="#F49B8B" d="M978.274 357.072L980.075 356.769C983.56 370.316 990.91 389.974 995.628 403.777C1006.19 434.951 1016.94 466.06 1027.88 497.102C1032.3 509.971 1038.09 525.204 1041.91 537.984C1056.81 537.44 1066.89 536.306 1082.35 537.665C1125.79 541.484 1173.2 563.482 1205.15 593.087C1246.41 631.336 1270.8 684.41 1272.96 740.642C1275.08 797.642 1254.33 853.124 1215.34 894.748C1186.34 925.976 1148.45 947.535 1106.79 956.503C1115.41 956.677 1129.84 956.129 1137.73 956.784C1131.35 957.546 1109.59 957.538 1103.82 956.446C1127.34 950.472 1142.42 945.557 1163.72 933.63C1214.01 905.467 1250.5 857.979 1265.09 801.943C1279.12 747.439 1270.93 689.588 1242.31 641.13C1213.48 592.865 1166.68 558.022 1112.18 544.257C1048.93 527.901 991.379 545.195 936.733 577.425L936.972 576.456C966.517 558.163 1005.35 541.173 1040.32 538.368C1038.22 530.669 1034.57 521.181 1031.92 513.425C1026.27 496.777 1020.51 480.164 1014.66 463.586L978.274 357.072Z"/><path fill="#F49B8B" d="M916.518 592.085C916.539 586.879 916.544 582.206 916.944 576.992C917.004 580.86 916.914 589.22 917.323 592.543C911.12 598.349 903.211 605.483 897.721 611.742C868.995 645.009 851.434 686.457 847.515 730.241C849.316 730.846 852.293 731.542 853.371 732.899C850.522 732.929 849.739 732.534 847.072 731.688C846.941 744.349 846.563 756.633 847.852 769.554C852.346 814.594 872.109 855.588 902.445 888.923C905.936 892.76 914.842 900.653 917.468 904.068L916.418 904.49C909.651 897.373 902.479 891.03 896.102 883.549C860.766 842.095 840.916 786.293 846.295 731.381C835.87 728.743 822.354 724.151 811.744 720.897C788.892 713.962 766.088 706.868 743.335 699.615L744.726 698.733C749.376 699.911 754.7 701.689 759.281 703.185C788.065 712.586 817.601 720.589 846.287 730.177C846.581 714.998 853.85 688.889 859.086 674.665C863.28 663.06 869.914 650.645 875.98 639.951C888.122 620.887 898.795 606.321 916.518 592.085Z"/><path fill="#FEFEFE" d="M448.451 593.334L449.192 592.97C468.382 611.253 476.75 620.926 490.212 644.042C494.811 652.795 501.424 665.096 504.236 674.542C539.045 675.026 574.662 674.598 609.534 674.564C613.398 685.307 615.231 687.464 621.395 697.169L623.083 698.334L653.715 738.964C659.835 747.243 675.058 768.127 681.974 774.5L685.351 774.819C699.79 758.643 713.711 737.438 727.234 720.336C730.61 716.066 739.776 702.567 743.335 699.615C766.088 706.868 788.892 713.962 811.744 720.897C822.354 724.151 835.87 728.743 846.295 731.381C840.916 786.293 860.766 842.095 896.102 883.549C902.479 891.03 909.651 897.373 916.418 904.49L917.468 904.068C919.519 905.922 939.637 922.556 939.759 922.807C943.14 924.052 943.083 923.799 944.937 926.478C945.919 927.341 948.399 929.681 949.686 929.666C953.845 930.875 966.658 938.271 971.54 940.617C985.174 947.168 995.799 950.752 1010.27 954.658C1011.67 956.324 1014.65 956.82 1016.88 957.161C1023.48 957.346 1031.96 957.48 1038.52 957.229C1048.36 957.554 1071.97 957.817 1081.68 957.172C1089.14 957.302 1096.43 957.481 1103.82 956.446C1109.59 957.538 1131.35 957.546 1137.73 956.784L1239.03 956.608C1252.15 956.599 1265.64 956.163 1278.67 957.177C1282.5 957.475 1284.31 966.482 1278.26 967.564C1273.06 968.493 1268.27 967.877 1263.05 967.879L1222.2 967.788L1074.62 967.897L339.293 967.893L170.646 968.001C144.892 967.995 119.141 968.183 93.3911 968.167C88.7958 968.164 85.4841 966.995 84.8197 962.046C85.9722 957.731 88.2996 956.349 92.6294 956.302C106.226 956.152 119.908 956.493 133.508 956.556L203.422 956.652C217.702 956.675 233.224 957.05 247.359 956.524C249.924 956.054 258.143 956.692 261.309 956.738L267.238 956.777C285.305 956.996 305.905 957.382 323.913 956.952L329.825 956.973C334.925 956.957 340.025 956.866 345.123 956.701C350.296 955.36 355.457 953.974 360.605 952.543L358.4 950.826C364.855 950.9 373.333 946.793 379.441 944.264C383.285 943.262 383.897 943.357 387.341 941.189C389.489 940.242 391.7 939.401 393.886 938.541C398.154 937.177 401.45 934.278 406.541 932.92C409.428 931.951 420.518 924.597 423.23 922.554C424.631 920.704 440.929 907.54 443.859 905.099L445.165 903.166L445.212 889.377C450.762 889.493 456.429 890.613 460.239 887.323L463.485 883.052L464.391 881.449C464.623 877.13 463.396 869.712 463.192 864.722C486.327 835.788 498.881 800.952 503.458 764.367C504.617 755.103 503.338 744.697 504.633 735.664L504.069 734.51L514.663 731.061C509.945 674.59 489.116 631.905 448.854 593.851C448.72 593.678 448.585 593.506 448.451 593.334Z"/><path fill="#783642" d="M445.165 903.166L448.964 900.979C448.649 917.405 454.451 929.672 469.857 936.996C474.513 939.21 482.047 939.207 487.208 939.256L760.576 939.236L845.743 939.284C860.947 939.304 877.138 939.762 892.213 938.666C896.801 938.332 903.338 934.246 906.655 930.976C914.308 923.429 915.443 914.593 916.418 904.49L917.468 904.068C919.519 905.922 939.637 922.556 939.759 922.807C943.14 924.052 943.083 923.799 944.937 926.478C945.919 927.341 948.399 929.681 949.686 929.666C953.845 930.875 966.658 938.271 971.54 940.617C985.174 947.168 995.799 950.752 1010.27 954.658C1011.67 956.324 1014.65 956.82 1016.88 957.161C1023.48 957.346 1031.96 957.48 1038.52 957.229C1048.36 957.554 1071.97 957.817 1081.68 957.172C1089.14 957.302 1096.43 957.481 1103.82 956.446C1109.59 957.538 1131.35 957.546 1137.73 956.784L1239.03 956.608C1252.15 956.599 1265.64 956.163 1278.67 957.177C1282.5 957.475 1284.31 966.482 1278.26 967.564C1273.06 968.493 1268.27 967.877 1263.05 967.879L1222.2 967.788L1074.62 967.897L339.293 967.893L170.646 968.001C144.892 967.995 119.141 968.183 93.3911 968.167C88.7958 968.164 85.4841 966.995 84.8197 962.046C85.9722 957.731 88.2996 956.349 92.6294 956.302C106.226 956.152 119.908 956.493 133.508 956.556L203.422 956.652C217.702 956.675 233.224 957.05 247.359 956.524C249.924 956.054 258.143 956.692 261.309 956.738L267.238 956.777C285.305 956.996 305.905 957.382 323.913 956.952L329.825 956.973C334.925 956.957 340.025 956.866 345.123 956.701C350.296 955.36 355.457 953.974 360.605 952.543L358.4 950.826C364.855 950.9 373.333 946.793 379.441 944.264C383.285 943.262 383.897 943.357 387.341 941.189C389.489 940.242 391.7 939.401 393.886 938.541C398.154 937.177 401.45 934.278 406.541 932.92C409.428 931.951 420.518 924.597 423.23 922.554C424.631 920.704 440.929 907.54 443.859 905.099L445.165 903.166Z"/><path fill="#64748B" d="M445.165 903.166L448.964 900.979C448.649 917.405 454.451 929.672 469.857 936.996C474.513 939.21 482.047 939.207 487.208 939.256L760.576 939.236L845.743 939.284C860.947 939.304 877.138 939.762 892.213 938.666C896.801 938.332 903.338 934.246 906.655 930.976C914.308 923.429 915.443 914.593 916.418 904.49L917.468 904.068C919.519 905.922 939.637 922.556 939.759 922.807L939.48 923.747C938.869 925.88 938.465 929.948 937.976 932.293C935.196 945.618 932.741 949.019 922.448 957.253C867.602 958.436 809.169 957.495 754.176 957.476L448.084 957.244C431.7 947.246 426.858 941.974 423.23 922.554C424.631 920.704 440.929 907.54 443.859 905.099L445.165 903.166Z"/><path fill="#FEFEFE" d="M406.541 932.92C409.428 931.951 420.518 924.597 423.23 922.554C426.858 941.974 431.7 947.246 448.084 957.244C426.822 957.059 405.56 957.02 384.298 957.126C372.683 957.157 356.39 957.653 345.123 956.701C350.296 955.36 355.457 953.974 360.605 952.543L358.4 950.826C364.855 950.9 373.333 946.793 379.441 944.264C383.285 943.262 383.897 943.357 387.341 941.189C389.489 940.242 391.7 939.401 393.886 938.541C398.154 937.177 401.45 934.278 406.541 932.92Z"/><path fill="#F49B8B" d="M393.886 938.541C398.154 937.177 401.45 934.278 406.541 932.92C394.621 940.955 374.247 947.934 360.605 952.543L358.4 950.826C364.855 950.9 373.333 946.793 379.441 944.264C383.285 943.262 383.897 943.357 387.341 941.189C389.489 940.242 391.7 939.401 393.886 938.541Z"/><path fill="#FEFEFE" d="M939.759 922.807C943.14 924.052 943.083 923.799 944.937 926.478C945.919 927.341 948.399 929.681 949.686 929.666C953.845 930.875 966.658 938.271 971.54 940.617C985.174 947.168 995.799 950.752 1010.27 954.658C1011.67 956.324 1014.65 956.82 1016.88 957.161C1010.08 957.856 992.201 957.318 984.812 957.291L922.448 957.253C932.741 949.019 935.196 945.618 937.976 932.293C938.465 929.948 938.869 925.88 939.48 923.747L939.759 922.807Z"/><path fill="#F49B8B" d="M949.686 929.666C953.845 930.875 966.658 938.271 971.54 940.617C985.174 947.168 995.799 950.752 1010.27 954.658C1001.21 957.117 957.677 936.219 949.686 929.666Z"/><path fill="#E3BEBE" d="M939.759 922.807C943.14 924.052 943.083 923.799 944.937 926.478C941.475 925.19 941.593 925.351 939.759 922.807Z"/><path fill="#FEFEFE" d="M609.534 674.564C613.398 685.307 615.231 687.464 621.395 697.169C587.208 707.302 550.114 719.417 516.177 730.668C515.062 724.708 514.412 717.282 513.435 711.038C511.348 697.692 508.628 687.194 504.236 674.542C539.045 675.026 574.662 674.598 609.534 674.564Z"/><path fill="#E5E7EB" d="M681.974 774.5L685.351 774.819C689.352 775.467 706.361 774.741 711.467 774.712L782.373 774.767C794.336 774.75 806.64 774.559 818.622 774.583C823.087 774.592 828.481 776.38 830.33 780.879C830.478 790.178 809.427 787.967 803.392 787.967L764.431 787.971L601.109 787.81C592.997 787.799 544.023 789.166 540.562 786.672C539.125 785.645 538.183 784.065 537.962 782.313C537.384 777.329 542.374 775.152 546.518 774.97C557.515 774.485 568.714 774.757 579.729 774.801L644.113 774.778C654.36 774.796 671.342 775.344 681.164 774.568L681.974 774.5Z"/><path fill="#FEFEFE" d="M504.633 735.664C507.926 734.685 511.766 733.646 514.914 732.401C516.311 777.888 506.588 817.254 482.566 856.26C478.997 862.054 470.615 874.898 466.045 879.787C465.513 880.36 464.961 880.914 464.391 881.449C464.623 877.13 463.396 869.712 463.192 864.722C486.327 835.788 498.881 800.952 503.458 764.367C504.617 755.103 503.338 744.697 504.633 735.664Z"/><path fill="#F49B8B" d="M448.451 593.334L449.192 592.97C468.382 611.253 476.75 620.926 490.212 644.042C494.811 652.795 501.424 665.096 504.236 674.542C508.628 687.194 511.348 697.692 513.435 711.038C514.412 717.282 515.062 724.708 516.177 730.668C550.114 719.417 587.208 707.302 621.395 697.169L623.083 698.334C610.715 701.247 594.367 706.929 582.086 710.862L515.849 732.051C517.225 781.172 506.685 823.467 478.67 864.26C473.701 871.494 466.823 882.591 460.507 888.259L460.239 887.323L463.485 883.052L464.391 881.449C464.961 880.914 465.513 880.36 466.045 879.787C470.615 874.898 478.997 862.054 482.566 856.26C506.588 817.254 516.311 777.888 514.914 732.401C511.766 733.646 507.926 734.685 504.633 735.664L504.069 734.51L514.663 731.061C509.945 674.59 489.116 631.905 448.854 593.851C448.72 593.678 448.585 593.506 448.451 593.334Z"/><path fill="#FDBD3E" d="M445.212 889.377C450.762 889.493 456.429 890.613 460.239 887.323L460.507 888.259C456.71 892.524 452.924 896.87 448.964 900.979L445.165 903.166L445.212 889.377Z"/><path fill="#E5E7EB" d="M533.067 826.08C554.074 823.362 573.304 838.199 576.011 859.213C578.717 880.226 563.873 899.454 542.863 902.149C521.869 904.843 502.664 890.009 499.96 869.011C497.256 848.014 512.075 828.796 533.067 826.08Z"/><path fill="#E5E7EB" d="M678.244 826.368C699.041 823.293 718.398 837.646 721.503 858.442C724.609 879.239 710.289 898.622 689.502 901.759C668.671 904.903 649.242 890.543 646.131 869.702C643.019 848.862 657.404 829.45 678.244 826.368Z"/><path fill="#E5E7EB" d="M827.496 826.408C848.511 825.587 866.188 842.012 866.917 863.035C867.645 884.058 851.148 901.668 830.126 902.305C809.235 902.938 791.762 886.56 791.037 865.666C790.313 844.772 806.611 827.224 827.496 826.408Z"/><path fill="#FEFEFE" d="M392.507 269.775C399.706 279.358 407.008 288.864 414.41 298.292C415.782 300.051 423.956 310.375 424.609 311.745L424.526 334.951C430.285 333.383 434.671 333.648 441.049 331.435L441.52 332.263C445.019 335.917 447.331 337.853 449.467 342.514L449.192 592.97L448.451 593.334C448.585 593.506 448.72 593.678 448.854 593.851C489.116 631.905 509.945 674.59 514.663 731.061L504.069 734.51C504.158 725.407 502.529 716.046 500.82 707.152C470.703 550.395 272.961 496.666 159.706 604.114C86.1686 673.88 80.4044 768.899 125.997 855.598C125.771 857.394 125.204 863.132 124.556 864.409L123.785 865.478C120.641 860.75 117.645 855.926 114.801 851.011C87.3668 803.196 79.2259 748.889 93.8143 695.474C89.0024 689.309 83.1666 659.471 81.4027 649.874C73.6084 607.468 72.3953 560.931 81.8304 518.757C83.0624 513.25 85.448 502.431 88.4175 498.052C61.4035 447.475 101.044 392.557 156.29 389.969C162.938 385.594 170.161 378.558 176.82 373.635C192.745 361.862 208.797 352.398 226.399 343.577C274.039 319.703 354.831 307.645 392.507 269.775Z"/><path fill="white" d="M232.21 447.991C235.481 446.596 243.244 441.919 246.508 440.045L273.536 424.475L384.111 360.416C394.569 354.446 414.782 341.42 424.652 336.965L424.791 342.174C424.922 347.778 416.889 357.539 413.45 362.582L391.642 394.713L325.985 492.431C316.311 506.794 303.332 524.429 294.707 538.537C280.457 539.559 270.387 540.343 256.216 543.313C210.101 553.203 168.483 577.9 137.703 613.643C121.029 633.147 107.897 655.418 98.8996 679.45C97.7959 682.339 94.2612 692.625 93.8143 695.474C89.0024 689.309 83.1666 659.471 81.4027 649.874C73.6084 607.468 72.3953 560.931 81.8304 518.757C83.0624 513.25 85.448 502.431 88.4175 498.052C61.4035 447.475 101.044 392.557 156.29 389.969C178.314 390.518 196.969 398.021 212.369 414.114C217.197 419.186 221.35 424.86 224.726 430.995C227.216 435.537 229.595 445.122 231.834 447.028L232.21 447.991Z"/><path fill="#F87171" d="M156.29 389.969C178.314 390.518 196.969 398.021 212.369 414.114C217.197 419.186 221.35 424.86 224.726 430.995C227.216 435.537 229.595 445.122 231.834 447.028L232.21 447.991C230.946 450.388 232.923 461.204 232.764 465.808C232.51 473.578 231.111 481.269 228.612 488.63C226.871 493.75 224.488 498.629 221.521 503.151C212.748 516.766 201.897 529.483 192.207 542.482C183.264 554.48 174.868 567.558 165.19 578.915C163.694 580.671 161.798 582.862 159.602 583.677C157.735 584.369 154.413 584.373 152.66 583.339C148.428 580.842 93.4018 506.196 88.4175 498.052C61.4035 447.475 101.044 392.557 156.29 389.969Z"/><path fill="#FEFEFE" d="M150.689 426.284C172.375 423.091 192.513 438.17 195.56 459.882C198.606 481.595 183.396 501.636 161.669 504.538C140.147 507.412 120.34 492.373 117.323 470.865C114.305 449.358 129.207 429.446 150.689 426.284Z"/><path fill="white" d="M392.507 269.775C399.706 279.358 407.008 288.864 414.41 298.292C415.782 300.051 423.956 310.375 424.609 311.745L424.526 334.951L287.236 414.996C269.8 425.145 248.578 436.503 231.834 447.028C229.595 445.122 227.216 435.537 224.726 430.995C221.35 424.86 217.197 419.186 212.369 414.114C196.969 398.021 178.314 390.518 156.29 389.969C162.938 385.594 170.161 378.558 176.82 373.635C192.745 361.862 208.797 352.398 226.399 343.577C274.039 319.703 354.831 307.645 392.507 269.775Z"/><path fill="#64748B" d="M441.52 332.263C445.019 335.917 447.331 337.853 449.467 342.514L449.192 592.97L448.451 593.334C442.8 587.685 431.306 579.629 424.529 574.667L424.519 349.232C429.295 342.468 434.918 337.177 441.52 332.263Z"/><path fill="#F49B8B" d="M441.049 331.435L441.52 332.263C434.918 337.177 429.295 342.468 424.519 349.232C414.422 362.686 404.501 377.977 395.063 392.04L351.983 456.192L316.779 508.367C310.608 517.446 301.998 529.184 296.668 538.378C334.077 536.267 389.038 548.424 419.596 570.564L419.889 571.345C417.739 571.092 414.88 568.837 412.914 567.705C401.37 561.056 388.294 554.901 375.657 550.73C304.9 527.053 226.992 540.354 168.093 586.168C81.1702 654.602 62.8928 772.679 124.556 864.409L123.785 865.478C120.641 860.75 117.645 855.926 114.801 851.011C87.3668 803.196 79.2259 748.889 93.8143 695.474C94.2612 692.625 97.7959 682.339 98.8996 679.45C107.897 655.418 121.029 633.147 137.703 613.643C168.483 577.9 210.101 553.203 256.216 543.313C270.387 540.343 280.457 539.559 294.707 538.537C303.332 524.429 316.311 506.794 325.985 492.431L391.642 394.713L413.45 362.582C416.889 357.539 424.922 347.778 424.791 342.174L424.652 336.965C414.782 341.42 394.569 354.446 384.111 360.416L273.536 424.475L246.508 440.045C243.244 441.919 235.481 446.596 232.21 447.991L231.834 447.028C248.578 436.503 269.8 425.145 287.236 414.996L424.526 334.951C430.285 333.383 434.671 333.648 441.049 331.435Z"/><path fill="#64748B" d="M424.652 336.965C427.972 335.217 432.562 334.543 436.312 333.948C431.377 338.029 429.797 340.136 425.862 345.073C424.881 343.878 425.027 343.75 424.791 342.174L424.652 336.965Z"/><path fill="#FDBD3E" d="M134.987 878.763C138.499 884.756 143.997 890.575 148.701 895.763L150.141 895.135L144.715 888.843C162.384 888.842 181.829 888.43 199.351 888.956C199.299 904.404 199.331 919.852 199.448 935.299L205.683 938.545L205.664 888.769L261.001 888.857C260.732 907.278 260.68 925.703 260.845 944.125C250.206 944.123 228.948 943.465 219.166 944.282L217.374 945.018C207.664 941.133 178.795 926.093 172.398 918.321C162.601 913.774 140.714 889.276 134.037 880.056L134.987 878.763Z"/><path fill="#F49B8B" d="M134.987 878.763C138.499 884.756 143.997 890.575 148.701 895.763C154.152 901.481 169.117 913.581 172.398 918.321C162.601 913.774 140.714 889.276 134.037 880.056L134.987 878.763Z"/><path fill="#FEFEFE" d="M150.141 895.135C152.801 897.932 172.22 916.528 172.803 917.843L172.398 918.321C169.117 913.581 154.152 901.481 148.701 895.763L150.141 895.135Z"/><path fill="#FDBD3E" d="M329.992 888.665C348.978 888.984 368.64 888.74 387.679 888.759L387.341 941.189C383.897 943.357 383.285 943.262 379.441 944.264C366.615 943.284 343.563 944.108 329.992 944.169L329.992 888.665Z"/><path fill="#FDBD3E" d="M393.836 827.9L443.194 827.968C443.274 845.455 442.87 865.45 443.512 882.718L393.81 882.748L393.836 827.9Z"/><path fill="#FDBD3E" d="M393.851 766.769L401.69 766.631C422.478 783.982 427.581 790.068 443.437 812.003C443.109 815.867 443.097 818.228 443.208 822.117C426.744 822.113 410.281 822.213 393.819 822.419L393.851 766.769Z"/><path fill="#FDBD3E" d="M443.603 888.777C443.675 893.947 443.617 900.001 443.859 905.099C440.929 907.54 424.631 920.704 423.23 922.554C420.518 924.597 409.428 931.951 406.541 932.92C401.45 934.278 398.154 937.177 393.886 938.541L393.797 888.708C401.726 888.77 438.539 890.249 443.603 888.777Z"/><path fill="#FDBD3E" d="M443.437 812.003C445.671 815.898 446.056 818.381 444.958 822.871C444.808 824.508 444.588 826.353 444.567 827.973L448.667 827.727C450.407 827.921 451.353 827.631 452.218 829.117C456.859 837.093 462.201 855.82 463.192 864.722C463.396 869.712 464.623 877.13 464.391 881.449L463.485 883.052L460.239 887.323C456.429 890.613 450.762 889.493 445.212 889.377L445.165 903.166L443.859 905.099C443.617 900.001 443.675 893.947 443.603 888.777L443.512 882.718C442.87 865.45 443.274 845.455 443.194 827.968L443.208 822.117C443.097 818.228 443.109 815.867 443.437 812.003Z"/><path fill="#3D2E16" d="M443.437 812.003C445.671 815.898 446.056 818.381 444.958 822.871C444.808 824.508 444.588 826.353 444.567 827.973C445.413 845.253 444.919 865.32 445.167 882.895L445.212 889.377L445.165 903.166L443.859 905.099C443.617 900.001 443.675 893.947 443.603 888.777L443.512 882.718C442.87 865.45 443.274 845.455 443.194 827.968L443.208 822.117C443.097 818.228 443.109 815.867 443.437 812.003Z"/><path fill="#FEFEFE" d="M445.167 882.895C451.245 882.944 457.416 882.935 463.485 883.052L460.239 887.323C456.429 890.613 450.762 889.493 445.212 889.377L445.167 882.895Z"/><path fill="#FDBD3E" d="M267.238 956.777C267.197 954.533 266.847 952.253 267.898 950.405C283.952 949.916 300.176 950.519 316.245 950.411C318.638 950.396 320.981 950.35 323.346 950.742C324.304 952.901 324.002 954.56 323.913 956.952C305.905 957.382 285.305 956.996 267.238 956.777Z"/><path fill="#FDBD3E" d="M135.165 830.554C134.546 840.448 134.151 868.773 134.987 878.763L134.037 880.056C130.511 875.274 127.092 870.414 123.785 865.478L124.556 864.409C125.204 863.132 125.771 857.394 125.997 855.598C128.615 845.709 130.896 839.873 135.165 830.554Z"/><path fill="#FDBD3E" d="M329.825 956.973C329.784 954.879 329.456 952.522 330.445 950.777C335.536 950.098 352.893 950.558 358.4 950.826L360.605 952.543C355.457 953.974 350.296 955.36 345.123 956.701C340.025 956.866 334.925 956.957 329.825 956.973Z"/><path fill="#FDBD3E" d="M248.907 950.226L256.322 949.919C258.369 949.818 258.506 949.901 260.366 950.844C261.799 953.354 261.319 953.609 261.309 956.738C258.143 956.692 249.924 956.054 247.359 956.524C245.253 955.226 235.957 952.216 233.112 951.23C236.351 950.373 245.2 950.326 248.907 950.226Z"/><path fill="#FEFEFE" d="M444.958 822.871C448.916 822.679 447.487 822.241 450.501 824.245L451.127 825.767L450.574 827.043L448.667 827.727L444.567 827.973C444.588 826.353 444.808 824.508 444.958 822.871Z"/><path fill="#F49B8B" d="M217.374 945.018L219.166 944.282C232.315 950.575 234.414 950.332 248.907 950.226C245.2 950.326 236.351 950.373 233.112 951.23C228.745 949.97 221.536 946.864 217.374 945.018Z"/><path fill="#AA7269" d="M283.342 607.811C285.158 602.308 286.126 599.061 290.018 594.708C294.165 589.995 300.04 587.159 306.309 586.845C318.751 586.234 322.261 594.461 322.484 605.153C327.703 599.441 336.32 590.482 345.56 596.443C350.642 599.721 347.596 607.433 348.419 612.15C362.2 610.278 370.525 611.67 363.978 627.704C360.621 635.925 355.066 638.782 347.27 641.894L347.253 650.634C347.233 652.494 347.342 655.822 346.855 657.478L347.431 660.163L347.175 661.247C346.679 685.601 350.411 709.831 319.912 715.884L319.856 733.007C322.323 733.57 322.582 733.145 323.607 734.669C323.854 740.21 324.026 755.323 323.163 760.286L322.481 760.746L321.522 760.424C319.939 762.888 318.868 764.729 317.492 767.304C302.82 782.512 286.605 780.358 271.877 766.252C265.981 758.642 264.954 756.051 261.524 747.307C260.868 742.49 260.519 739.116 261.442 734.355C262.797 729.915 261.95 698.438 261.928 691.826C252.902 690.984 244.883 685.997 244.775 676.049C226.083 668.528 220.438 653.405 237.967 640.335C229.435 610.379 257.711 596.66 283.342 607.811Z"/><path fill="#8C5C5A" d="M283.342 607.811C285.158 602.308 286.126 599.061 290.018 594.708C294.165 589.995 300.04 587.159 306.309 586.845C318.751 586.234 322.261 594.461 322.484 605.153C327.703 599.441 336.32 590.482 345.56 596.443C350.642 599.721 347.596 607.433 348.419 612.15C362.2 610.278 370.525 611.67 363.978 627.704C360.621 635.925 355.066 638.782 347.27 641.894L347.253 650.634C344.872 650.685 343.202 650.508 340.857 650.292L339.774 651.285C334.384 652.858 328.524 649.92 323.937 647.428C324.365 644.161 314.897 637.84 312.185 635.692C310.653 638.231 304.679 645.669 304.486 646.72C300.899 646.587 295.136 650.181 291.725 652.011C283.101 651.291 270.009 649.096 270.873 661.919L269.629 662.667C261.25 658.804 254.016 656.351 248.38 666.459C246.988 668.956 246.361 674.556 244.775 676.049C226.083 668.528 220.438 653.405 237.967 640.335C229.435 610.379 257.711 596.66 283.342 607.811Z"/><path fill="#2B1E29" d="M323.937 647.428L324.903 645.682C328.819 645.349 335.632 647.186 339.471 648.255C340.401 649.13 340.562 649.089 340.857 650.292L339.774 651.285C334.384 652.858 328.524 649.92 323.937 647.428Z"/><path fill="white" d="M270.873 661.919C274.17 660.317 318.187 660.076 323.228 661.026L322.564 661.986C317.176 662.03 272.958 663.173 270.873 661.919Z"/><path fill="#FDBD3E" d="M319.856 733.007C322.323 733.57 322.582 733.145 323.607 734.669C323.854 740.21 324.026 755.323 323.163 760.286L322.481 760.746L321.522 760.424C323.515 754.429 321.528 751.331 320.477 745.468C319.717 741.231 319.744 737.285 319.856 733.007Z"/><path fill="#3B3736" d="M326.137 659.702C331.562 655.785 340.063 657.542 346.855 657.478L347.431 660.163C341.249 659.679 332.615 659.666 326.472 660.063L326.137 659.702Z"/><path fill="#2B1E29" d="M291.725 652.011C295.136 650.181 300.899 646.587 304.486 646.72C303.892 652.38 296.21 652.826 291.725 652.011Z"/><path fill="#E5E7EB" d="M326.472 660.063C332.615 659.666 341.249 659.679 347.431 660.163L347.175 661.247C342.437 661.342 330.608 661.833 326.489 661.295L326.472 660.063Z"/><path fill="#402627" d="M279.547 702.408C281.946 702.661 292.494 710.395 296.557 711.955C305.228 715.286 310.305 715.44 319.268 715.4L319.34 729.06C307.296 725.283 286.275 713.151 279.547 702.408Z"/><path fill="#18171C" d="M330.804 663.892C333.045 663.722 333.421 663.572 335.484 664.273C338.931 667.594 337.874 670.193 335.869 674.225C329.023 674.561 327.655 669.103 330.804 663.892Z"/><path fill="#18171C" d="M299.19 665.569C305.891 666.065 306.936 670.381 303.729 675.783C302.279 675.842 301.602 675.666 300.206 675.415C296.258 672.265 297.551 669.753 299.19 665.569Z"/><path fill="#402627" d="M315.687 662.249L317.166 662.655C318.882 664.309 319.827 667.45 320.763 669.788C331.654 675.495 329.177 681.785 318.092 684.107L316.967 683.624C318.627 681.108 322.703 682.51 324.933 678.681C324.969 673.804 321.347 672.534 318.916 668.8C317.9 667.241 316.498 664.039 315.687 662.249Z"/><path fill="#402627" d="M309.269 691.262C311.436 692.983 312.298 695.938 315.248 697.701C319.152 700.035 319.618 697.607 323.144 697.855L323.685 699.625C316.899 703.124 307.966 699.436 309.269 691.262Z"/><path fill="#402627" d="M258.819 673.012C262.61 674.403 263.243 678.172 266.591 680.186C269.196 681.753 271.436 680.217 274.171 682.431C267.081 684.781 260.826 679.704 258.819 673.012Z"/><path fill="#FEFEFE" d="M321.767 688.246C324.268 688.277 323.744 687.915 325.592 689.056L325.343 690.197C323.26 692.029 322.633 692.004 319.846 692.423L319.138 692.132C317.232 691.336 316.017 691.041 315.372 689.446C317.32 688.215 319.383 688.386 321.767 688.246Z"/><path fill="#FDBD3E" d="M329.988 767.283C349.112 767.451 368.493 767.239 387.637 767.186C387.506 785.58 387.532 803.975 387.714 822.369L329.937 822.414L329.988 767.283Z"/><path fill="#FDBD3E" d="M329.989 827.896L387.603 827.907C387.201 845.47 387.553 864.17 387.587 881.817C385.877 883.402 337.073 882.811 329.932 882.821L329.989 827.896Z"/><path fill="#FDBD3E" d="M141.676 828.031L199.396 827.987C199.165 846.086 199.374 864.571 199.393 882.699L141.678 882.708L141.676 828.031Z"/><path fill="#FDBD3E" d="M267.27 888.743C286.142 888.901 305.014 888.89 323.885 888.71L323.794 944.295L267.245 944.395L267.27 888.743Z"/><path fill="#FDBD3E" d="M267.254 827.915L323.937 827.896C323.847 846.176 323.852 864.458 323.953 882.739C305.185 882.506 286.07 882.685 267.275 882.677L267.254 827.915Z"/><path fill="#FDBD3E" d="M205.508 767.25C224.071 767.337 242.634 767.262 261.196 767.025C261.177 783.464 261.891 805.721 261.053 821.615L259.811 822.403C241.691 822.242 223.571 822.222 205.451 822.342C205.783 804.232 205.518 785.413 205.508 767.25Z"/><path fill="#FDBD3E" d="M205.538 827.901L261.17 827.906C261.015 846.064 261.389 864.674 261.02 882.701L205.559 882.721C205.705 864.448 205.698 846.174 205.538 827.901Z"/><path fill="#FDBD3E" d="M271.877 766.252C286.605 780.358 302.82 782.512 317.492 767.304C319.599 767.278 321.734 766.947 323.412 768.077C324.074 772.721 323.741 783.301 323.73 788.47L323.831 822.244L267.266 822.235C267.381 807.099 266.37 782.061 267.586 767.875C269.152 766.204 269.008 766.722 271.877 766.252Z"/><path fill="#FDBD3E" d="M187.163 766.002C189.382 767.639 196.202 767.225 199.293 767.232L199.334 822.344C184.405 822.138 169.009 822.331 154.041 822.328C150.934 822.364 144.693 822.773 142.091 821.463C139.729 810.726 177.704 773.034 187.163 766.002Z"/><path fill="#FDBD3E" d="M205.707 753.063C224.975 743.649 240.298 737.849 261.442 734.355C260.519 739.116 260.868 742.49 261.524 747.307C261.114 751.039 261.264 757.717 261.235 761.674L205.577 761.833L205.707 753.063Z"/><path fill="#FDBD3E" d="M330.001 734.675C345.026 738.024 375.916 747.171 386.799 757.667C387.668 759.97 387.465 759.094 387.018 761.737C367.991 761.597 348.964 761.585 329.936 761.702L330.001 734.675Z"/><path fill="white" d="M1135.44 196.203C1147.59 204.998 1162.17 215.685 1173.37 225.735C1229.97 275.665 1267.74 343.487 1280.4 417.898C1281.56 425.127 1283.77 437.904 1281.12 444.513C1290.69 480.987 1279.76 497.034 1259.09 524.81C1242.28 547.395 1223.93 567.921 1206.5 589.812C1191.8 572.501 1177.53 554.834 1163.69 536.828C1157.36 528.631 1147.83 516.851 1142.54 508.445C1139.5 503.679 1137.02 498.588 1135.12 493.267C1130.44 479.838 1130.83 468.953 1131.77 455.119C1085.24 423.318 1038.78 389.642 992.304 357.402L993.568 356.644C995.632 355.771 1001.51 355.475 1004.1 355.17C1014.34 353.965 1044.74 347.87 1051.12 340.704L1052.06 340.783C1053.92 338.6 1056.23 337.904 1058.86 337.145L1059.66 337.329C1083.65 322.491 1092.44 313.667 1109.13 290.754L1108.72 289.67C1128.28 258.531 1135.31 232.63 1135.44 196.203Z"/><path fill="#F87171" d="M1132.24 454.123C1138.14 427.087 1155.38 405.559 1181.82 396.163C1201.5 389.295 1223.1 390.514 1241.89 399.554C1260.81 408.77 1274.27 424.747 1281.12 444.513C1290.69 480.987 1279.76 497.034 1259.09 524.81C1242.28 547.395 1223.93 567.921 1206.5 589.812C1191.8 572.501 1177.53 554.834 1163.69 536.828C1157.36 528.631 1147.83 516.851 1142.54 508.445C1139.5 503.679 1137.02 498.588 1135.12 493.267C1130.44 479.838 1130.83 468.953 1131.77 455.119L1132.24 454.123Z"/><path fill="#FEFEFE" d="M1201.82 428.382C1223.24 425.119 1243.26 439.789 1246.62 461.199C1249.97 482.609 1235.39 502.705 1214 506.155C1192.48 509.626 1172.24 494.934 1168.86 473.391C1165.49 451.848 1180.26 431.665 1201.82 428.382Z"/><path fill="#F49B8B" d="M993.568 356.644C1007.01 366.616 1022.69 376.997 1036.54 386.726L1132.24 454.123L1131.77 455.119C1085.24 423.318 1038.78 389.642 992.304 357.402L993.568 356.644Z"/><path fill="#E3BEBE" d="M1135.44 196.203C1136.47 199.731 1136.27 206.802 1136.11 210.614C1134.95 234.632 1128.26 258.059 1116.58 279.075C1114.72 282.468 1111.56 287.942 1109.13 290.754L1108.72 289.67C1128.28 258.531 1135.31 232.63 1135.44 196.203Z"/><path fill="#E3BEBE" d="M1052.06 340.783C1053.92 338.6 1056.23 337.904 1058.86 337.145C1056.86 339.909 1055.37 340.417 1052.06 340.783Z"/></svg>