<?xml version="1.0" encoding="utf-8" ?><svg xmlns="http://www.w3.org/2000/svg" xmlns:xlink="http://www.w3.org/1999/xlink" width="1365" height="1024" viewBox="0 0 1365 1024"><path fill="#FEFEFE" d="M0 0L1365 0L1365 1024L0 1024L0 0Z"/><path fill="#F87171" d="M115.581 702.468C112.965 698.46 104.76 667.16 102.834 660.256L88.9474 609.545C82.1042 585.173 74.6549 559.149 69.5638 534.287C67.0038 521.313 65.3527 508.177 64.6223 494.973C60.8206 431.636 96.54 333.098 128.252 278.205C143.12 252.705 160.502 228.758 180.137 206.719C253.487 123.821 356.988 73.78 467.501 67.7839C557.084 62.4981 653.486 86.8389 726.531 140.122C750.888 157.89 766.173 181.047 788.508 200.435C791.293 202.852 795.513 204.614 798.616 207.368C802.786 207.639 813.163 213.441 817.861 215.126C821.882 216.568 825.391 217.774 829.576 219.037C794.064 219.934 754.802 218.91 718.938 218.803L521.881 218.747C486.709 218.764 450.271 218.172 415.217 218.833C440.65 247.237 468.815 273.406 495.485 300.655C506.145 311.547 519.616 323.007 527.569 336.014C532.122 343.46 533.938 352.243 533.406 360.905C531.866 385.946 513.862 392.527 508.018 411.666C504.432 423.41 506.493 472.757 506.476 488.16C513.107 488.174 520.245 488.477 526.565 486.666C548.753 480.307 572.354 448.613 595.4 445.552C609.975 443.617 639.321 444.61 655.136 444.665L776.382 444.674C773.136 439.856 761.289 427.704 756.747 423.165C748.162 414.586 738.829 404.423 730.037 396.135C721.525 411.668 698.757 465.946 675.852 432.25C663.864 414.615 654.41 393.249 643.599 374.842C636.51 361.173 621 337.123 617.436 323.793C612.675 305.987 620.03 281.239 630.24 265.819C641.327 248.975 658.62 237.197 678.351 233.049C698.195 229.025 718.824 233.182 735.563 244.576C763.967 263.539 779.46 303.829 763.57 335.729C754.869 353.197 743.322 369.839 734.887 387.562C753.198 403.628 772.718 428.526 790.437 444.928L977.15 444.7C990.555 420.776 994.643 414.499 994.491 386.985C987.341 383.735 984.845 380.886 980.714 374.252C979.194 370.006 978.796 368.799 978.245 364.368C980.467 353.635 983.773 348.362 993.795 343.586C997.832 342.298 1000.49 342.44 1004.58 342.75C1011.77 344.856 1016.84 347.413 1020.63 354.304C1022.03 356.905 1022.96 359.733 1023.37 362.658C1029.29 361.025 1063.61 362.356 1067.53 363.973C1079.56 364.23 1091.59 364.07 1103.6 364.322C1102.22 367.727 1100.74 371.246 1099.5 374.688C1090.09 405.701 1099.05 418.786 1111.66 444.757L1116.2 453.624L983.84 454.018C968.892 484.461 953.593 514.73 937.945 544.82L925.255 569.144C923.473 572.479 919.323 579.633 918.285 582.681C926.741 582.227 936.937 582.692 945.574 582.516C972.775 581.963 1001.11 583.207 1028.2 582.303L1031.58 583.4C1031.76 586.442 1032.07 589.847 1031.95 592.861L1032.85 594.992L1033.21 596.339C1035.04 610.135 1042.23 632.165 1053.78 640.319C1062.86 646.729 1068.53 647.639 1079.19 648.123L1080.23 649.686L1082.04 654.86C1085.86 663.958 1089.9 673.754 1094.4 682.486C1107.88 673.701 1119.33 662.604 1127.89 648.816C1130.82 644.097 1132.92 638.6 1135.57 633.714C1135.88 633.784 1136.18 633.858 1136.49 633.923C1142.88 635.274 1151.76 633.808 1158.95 634.792C1192.07 639.323 1219.16 655.899 1238.14 683.515C1279.67 743.93 1279.42 853.839 1273.07 924.679C1280.19 924.752 1294.36 923.741 1301.37 925.395C1302.71 925.71 1303.34 927.665 1303.77 928.831C1302.86 933.42 1298.49 933.514 1294.43 933.546L78.4008 933.332C73.0507 933.342 60.0701 935.385 60.8898 927.686C66.8396 920.885 123.4 927.497 132.851 924.145L133.596 922.145C136.465 902.44 140.934 882.159 143.594 862.54C136.876 862.743 127.911 859.691 121.947 856.774C57.3833 825.192 93.9779 748.428 115.581 702.468Z"/><path fill="white" d="M115.581 702.468C112.965 698.46 104.76 667.16 102.834 660.256L88.9474 609.545C82.1042 585.173 74.6549 559.149 69.5638 534.287C67.0038 521.313 65.3527 508.177 64.6223 494.973C60.8206 431.636 96.54 333.098 128.252 278.205C143.12 252.705 160.502 228.758 180.137 206.719C253.487 123.821 356.988 73.78 467.501 67.7839C557.084 62.4981 653.486 86.8389 726.531 140.122C750.888 157.89 766.173 181.047 788.508 200.435C791.293 202.852 795.513 204.614 798.616 207.368C802.786 207.639 813.163 213.441 817.861 215.126C821.882 216.568 825.391 217.774 829.576 219.037C794.064 219.934 754.802 218.91 718.938 218.803L521.881 218.747C486.709 218.764 450.271 218.172 415.217 218.833C414.395 218.019 413.514 217.267 412.58 216.583C408.251 213.357 404.865 213.806 401.9 218.294C397.539 219.055 386.947 218.798 381.992 218.791L344.353 218.717L344.324 236.169C344.161 226.56 344.054 216.951 344.003 207.342C343.884 192.203 343.945 177.064 344.185 161.927L335.247 161.963L335.187 207.298L335.179 218.731L335.165 335.531C335.159 354.457 333.866 380.38 336.815 398.755C340.928 424.379 380.713 446.274 393.983 467.841C396.753 472.343 397.297 478.456 397.312 483.365C397.316 484.754 397.3 486.144 397.265 487.533C364.056 487.633 324.908 486.562 292.268 488.085C302.162 490.053 305.677 491.554 314.006 497.397C327.281 508.703 335.78 519.784 339.491 537.881C339.493 538.205 339.495 538.53 339.496 538.855L338.869 538.898C339.285 540.988 339.036 540.266 341.215 541.918L340.23 543.402C340.777 545.762 342.21 547.445 343.374 549.573C352.543 566.344 358.777 585.386 368.4 601.818C346.912 609.392 318.794 617.988 296.496 621.567C299.108 623.055 302.914 623.298 305.948 623.541L279.874 676.428C267.779 667.288 255.405 656.934 243.596 647.357C236.797 641.843 223.82 631.707 218.325 625.523C213.818 626.205 209.589 626.857 205.107 627.753C197.65 629.363 188.567 631.294 181.418 633.932L176.856 635.762C170.703 639.025 165.505 641.982 159.935 646.303C156.723 649.272 153.665 651.874 150.308 654.682C135.953 668.908 125.093 684.611 115.581 702.468Z"/><path fill="#32313E" d="M256.102 487.195C271.25 483.619 277.484 489.005 292.268 488.085C302.162 490.053 305.677 491.554 314.006 497.397C327.281 508.703 335.78 519.784 339.491 537.881C339.493 538.205 339.495 538.53 339.496 538.855L338.869 538.898C339.285 540.988 339.036 540.266 341.215 541.918L340.23 543.402C340.777 545.762 342.21 547.445 343.374 549.573C352.543 566.344 358.777 585.386 368.4 601.818C346.912 609.392 318.794 617.988 296.496 621.567C299.108 623.055 302.914 623.298 305.948 623.541L279.874 676.428C267.779 667.288 255.405 656.934 243.596 647.357C236.797 641.843 223.82 631.707 218.325 625.523C213.818 626.205 209.589 626.857 205.107 627.753C202.552 627.065 194.861 610.068 196.616 606.736C193.171 605.276 191.913 604.585 188.737 602.589C189.491 600.453 190.053 599.539 189.729 597.384C188.088 598.06 187.689 599.516 186.603 601.342C182.736 598.996 178.775 596.806 174.732 594.777L173.776 593.981C173.52 592.82 184.522 566.938 185.671 564.032L188.524 557.346C196.902 539.382 205.456 529.111 219.957 515.91C222.414 519.278 224.892 522.63 227.391 525.966C228.816 513.047 233.698 505.417 242.429 496.156C246.838 492.182 250.87 489.888 256.102 487.195Z"/><path fill="#F87171" d="M236.111 570.372C231.361 563.389 228.215 556.956 229.413 548.256C230.116 543.158 236.501 541.592 240.331 543.233C262.488 552.729 284.887 553.945 296.828 529.388C306.1 538.479 310.851 540.228 322.911 545.082C321.466 566.787 314.825 602.203 288.744 608.588C286.757 609.075 282.054 608.765 279.873 608.687L279.259 610.328C284.211 610.746 286.952 610.72 291.943 610.218C292.008 614.006 291.516 618.268 293.241 621.315C294.896 621.72 294.809 621.736 296.496 621.567C299.108 623.055 302.914 623.298 305.948 623.541L279.874 676.428C267.779 667.288 255.405 656.934 243.596 647.357C236.797 641.843 223.82 631.707 218.325 625.523C223.334 624.438 229.849 624.624 234.36 622.521C235.445 622.015 235.279 620.203 235.402 618.863C236.341 614.95 235.379 579.96 236.117 572.152L236.111 570.372Z"/><path fill="#120D0B" d="M279.259 610.328C275.077 609.675 268.336 608.245 265.346 605.092C267.644 605.192 275.518 607.929 279.873 608.687L279.259 610.328Z"/><path fill="#120D0B" d="M236.111 570.372C238.134 572.003 240.587 573.455 241.164 575.779C238.736 575.48 237.728 574.085 236.117 572.152L236.111 570.372Z"/><path fill="#120D0B" d="M240.853 554.496C247.068 554.497 249.426 556.421 248.321 562.722C242.001 562.973 240.104 560.623 240.853 554.496Z"/><path fill="#120D0B" d="M288.666 560.923C294.316 565.321 285.142 571.638 295.231 578.605C292.836 578.721 292.384 578.928 290.428 577.77C287.375 573.663 288.481 566.261 288.666 560.923Z"/><path fill="#120D0B" d="M295.571 547.152L296.452 548.364C296.1 553.518 293.102 556.376 288.903 558.834L288.287 557.422C292.343 553.779 293.542 552.107 295.571 547.152Z"/><path fill="#271A0D" d="M294.73 585.684L295.429 586.756L294.918 587.463C291.175 589.433 287.415 589.341 283.381 588.688L282.743 587.942C282.86 587.652 282.977 587.362 283.094 587.072C288.656 587.055 289.713 588.013 294.73 585.684Z"/><path fill="#120D0B" d="M301.93 561.934C305.371 564.054 306.223 563.834 310.258 562.905L310.923 562.747L311.888 563.534C308.354 565.894 303.458 567.01 301.93 561.934Z"/><path fill="#FEFEFE" d="M196.616 606.736C210.72 611.943 220.674 615.379 235.402 618.863C235.279 620.203 235.445 622.015 234.36 622.521C229.849 624.624 223.334 624.438 218.325 625.523C213.818 626.205 209.589 626.857 205.107 627.753C202.552 627.065 194.861 610.068 196.616 606.736Z"/><path fill="#FCD34D" d="M459.872 207.319C460.943 207.619 461.094 207.836 462.045 207.674C471.247 206.83 487.315 207.267 496.814 207.288L556.198 207.367L711.977 207.306C739.898 207.336 770.927 208.089 798.616 207.368C802.786 207.639 813.163 213.441 817.861 215.126C821.882 216.568 825.391 217.774 829.576 219.037C794.064 219.934 754.802 218.91 718.938 218.803L521.881 218.747C486.709 218.764 450.271 218.172 415.217 218.833C414.395 218.019 413.514 217.267 412.58 216.583C408.251 213.357 404.865 213.806 401.9 218.294C397.539 219.055 386.947 218.798 381.992 218.791L344.353 218.717L344.324 236.169C344.161 226.56 344.054 216.951 344.003 207.342L412.092 207.369L419.689 207.385C433.083 207.486 446.478 207.464 459.872 207.319Z"/><path fill="white" d="M159.935 646.303C160.159 620.92 160.163 595.535 159.946 570.152C159.878 556.426 159.633 542.194 159.987 528.543C160.414 519.417 163.826 510.25 170.835 504.234C182.854 493.917 199.137 496.266 213.809 496.177C223.034 496.121 233.258 495.557 242.429 496.156C233.698 505.417 228.816 513.047 227.391 525.966C224.892 522.63 222.414 519.278 219.957 515.91C205.456 529.111 196.902 539.382 188.524 557.346L185.671 564.032C184.522 566.938 173.52 592.82 173.776 593.981L174.732 594.777C178.775 596.806 182.736 598.996 186.603 601.342C187.689 599.516 188.088 598.06 189.729 597.384C190.053 599.539 189.491 600.453 188.737 602.589C191.913 604.585 193.171 605.276 196.616 606.736C194.861 610.068 202.552 627.065 205.107 627.753C197.65 629.363 188.567 631.294 181.418 633.932L176.856 635.762C170.703 639.025 165.505 641.982 159.935 646.303Z"/><path fill="white" d="M181.418 633.932C183.828 624.016 186.603 612.623 188.737 602.589C191.913 604.585 193.171 605.276 196.616 606.736C194.861 610.068 202.552 627.065 205.107 627.753C197.65 629.363 188.567 631.294 181.418 633.932Z"/><path fill="#FEFEFE" d="M174.732 594.777C178.775 596.806 182.736 598.996 186.603 601.342C187.689 599.516 188.088 598.06 189.729 597.384C190.053 599.539 189.491 600.453 188.737 602.589C186.603 612.623 183.828 624.016 181.418 633.932L176.856 635.762C177.1 630.385 179.663 626.467 179.086 621.11C178.232 613.168 174.422 602.739 174.732 594.777Z"/><path fill="#FEFEFE" d="M185.671 564.032C184.038 563.622 184.833 563.945 183.404 562.46C182.911 559.932 182.792 560.989 183.734 558.548C185.86 556.749 184.987 557.276 188.524 557.346L185.671 564.032Z"/><path fill="#64748B" d="M459.872 207.319C451.779 194.604 444.213 181.729 436.764 168.63C429.993 156.724 422.933 146.744 426.016 132.385C427.896 123.586 433.302 115.943 440.971 111.241C449.262 106.156 459.211 104.512 468.696 106.66C478.039 108.886 486.092 114.781 491.039 123.015C495.436 130.446 496.629 139.344 494.344 147.671C491.154 159.501 469.155 195.886 462.045 207.674C461.094 207.836 460.943 207.619 459.872 207.319Z"/><path fill="#FEFEFE" d="M455.928 123.781C465.247 121.608 474.57 127.373 476.794 136.681C479.017 145.99 473.306 155.347 464.012 157.623C454.645 159.916 445.2 154.149 442.96 144.767C440.719 135.385 446.537 125.97 455.928 123.781Z"/><path fill="#E5E7EB" d="M150.308 654.682C150.53 625.239 150.598 595.795 150.512 566.35C150.506 553.118 150.219 539.373 150.704 526.171C151.115 514.997 157.054 503.336 165.891 496.337C171.007 492.287 176.97 489.442 183.337 488.014C191.914 486.089 246.649 486.073 256.102 487.195C250.87 489.888 246.838 492.182 242.429 496.156C233.258 495.557 223.034 496.121 213.809 496.177C199.137 496.266 182.854 493.917 170.835 504.234C163.826 510.25 160.414 519.417 159.987 528.543C159.633 542.194 159.878 556.426 159.946 570.152C160.163 595.535 160.159 620.92 159.935 646.303C156.723 649.272 153.665 651.874 150.308 654.682Z"/><path fill="#F87171" d="M262.313 245.203C270.02 253.563 270.244 266.373 262.834 274.998C255.425 283.624 242.73 285.33 233.307 278.968C223.883 272.605 220.718 260.191 225.945 250.092C231.171 239.992 243.132 235.41 253.767 239.433C257.025 240.665 259.951 242.641 262.313 245.203Z"/><path fill="#FEFEFE" d="M242.093 241.787C252.342 239.702 262.343 246.316 264.441 256.565C266.538 266.815 259.939 276.827 249.695 278.938C239.432 281.053 229.4 274.438 227.299 264.169C225.197 253.901 231.824 243.875 242.093 241.787Z"/><path fill="#FCD34D" d="M335.187 207.298L335.179 218.731C325.45 218.633 294.666 217.595 286.998 219.676C281.606 221.151 276.692 224.009 272.742 227.965C267.979 232.651 264.574 238.96 262.313 245.203C259.951 242.641 257.025 240.665 253.767 239.433C264.93 210.852 282.308 207.265 309.942 207.274L335.187 207.298Z"/><path fill="#FEFEFE" d="M412.092 207.369C412.236 198.444 411.441 169.616 412.411 162.877C414.505 161.733 415.823 162.244 418.537 162.337L419.65 163.028C420.568 167.613 420.174 202.138 419.689 207.385L412.092 207.369Z"/><path fill="#FEFEFE" d="M195.158 348.178C197.982 348.852 198.415 350.388 199.405 352.906C214.405 391.066 229.73 429.076 242.132 468.187C243.551 472.66 247.678 481.394 248.069 485.307C246.448 487.03 247.196 486.719 245.144 487.105C243.762 486.417 242.827 485.227 242.313 483.767C235.183 463.492 229.437 442.375 221.131 422.558C206.095 431.437 190.851 438.832 175.65 447.345L168.087 451.438C162.185 442.307 149.035 429.608 141.481 421.152C137.566 416.769 132.693 412.53 129.636 407.392C130.113 405.369 129.571 406.12 131.229 405.007C136.154 405.507 164.329 438.403 169.654 444.485C184.691 437.678 204.986 425.893 219.562 417.724C212.426 398.174 204.481 379.349 196.778 360.044C194.799 355.083 193.195 352.561 195.158 348.178Z"/><path fill="#FEFEFE" d="M506.922 162.066C509.662 161.973 511.132 161.785 513.815 162.574C515.732 165.54 514.811 200.956 514.759 206.993C512.413 207.038 508.928 207.384 507.16 206.04C506.792 203.288 506.852 200.52 506.907 197.749C507.142 185.868 506.388 173.937 506.922 162.066Z"/><path fill="#FEFEFE" d="M698.867 162.038C701.072 161.968 704.775 161.492 706.153 163.255C706.79 167.838 707.037 201.927 706.388 206.741C705.352 206.787 704.315 206.818 703.278 206.835C701.138 206.856 700.088 206.893 698.723 205.543L698.867 162.038Z"/><path fill="#FEFEFE" d="M572.344 162.086C575.02 162.017 576.945 161.744 579.458 162.627C580.322 166.12 580.134 201.476 580.104 206.928C577.534 206.996 575.456 207.347 573.209 206.248C571.554 203.248 572.313 168.22 572.344 162.086Z"/><path fill="#F87171" d="M335.247 161.963L344.185 161.927C343.945 177.064 343.884 192.203 344.003 207.342C344.054 216.951 344.161 226.56 344.324 236.169L344.353 218.717L381.992 218.791C386.947 218.798 397.539 219.055 401.9 218.294C404.865 213.806 408.251 213.357 412.58 216.583C413.514 217.267 414.395 218.019 415.217 218.833C440.65 247.237 468.815 273.406 495.485 300.655C506.145 311.547 519.616 323.007 527.569 336.014C532.122 343.46 533.938 352.243 533.406 360.905C531.866 385.946 513.862 392.527 508.018 411.666C504.432 423.41 506.493 472.757 506.476 488.16C513.107 488.174 520.245 488.477 526.565 486.666C548.753 480.307 572.354 448.613 595.4 445.552C609.975 443.617 639.321 444.61 655.136 444.665L776.382 444.674C773.136 439.856 761.289 427.704 756.747 423.165C748.162 414.586 738.829 404.423 730.037 396.135C721.525 411.668 698.757 465.946 675.852 432.25C663.864 414.615 654.41 393.249 643.599 374.842C636.51 361.173 621 337.123 617.436 323.793C612.675 305.987 620.03 281.239 630.24 265.819C641.327 248.975 658.62 237.197 678.351 233.049C698.195 229.025 718.824 233.182 735.563 244.576C763.967 263.539 779.46 303.829 763.57 335.729C754.869 353.197 743.322 369.839 734.887 387.562C753.198 403.628 772.718 428.526 790.437 444.928L977.15 444.7C990.555 420.776 994.643 414.499 994.491 386.985C987.341 383.735 984.845 380.886 980.714 374.252C979.194 370.006 978.796 368.799 978.245 364.368C980.467 353.635 983.773 348.362 993.795 343.586C997.832 342.298 1000.49 342.44 1004.58 342.75C1011.77 344.856 1016.84 347.413 1020.63 354.304C1022.03 356.905 1022.96 359.733 1023.37 362.658C1029.29 361.025 1063.61 362.356 1067.53 363.973C1079.56 364.23 1091.59 364.07 1103.6 364.322C1102.22 367.727 1100.74 371.246 1099.5 374.688C1090.09 405.701 1099.05 418.786 1111.66 444.757L1116.2 453.624L983.84 454.018C968.892 484.461 953.593 514.73 937.945 544.82L925.255 569.144C923.473 572.479 919.323 579.633 918.285 582.681L918.344 582.939C916.39 585.96 915.055 588.322 913.358 591.502C909.36 600.486 868.483 679.572 868.697 680.807L872.78 681.664C865.214 682.103 862.041 682.119 854.896 684.834C858.144 679.648 865.14 664.524 868.504 657.947L901.843 592.732L719.721 592.787C719.39 589.402 718.977 586.026 718.483 582.662C718.419 581.803 718.207 578.911 718.719 578.503C725.798 572.855 726.52 574.59 729.541 566.232L728.332 565.173C728.926 553.359 720.106 542.256 712.024 554.276L709.969 555.084L705.303 551.839C685.34 552.326 665.509 548.492 647.166 540.599C645.378 546.085 643.527 554.541 637.051 555.965L635.716 556.164C635.416 561.957 637.04 572.349 636.709 574.955L636.172 575.767L636.429 576.59C638.524 578.698 638.391 579.478 638.99 582.686C634.806 583.381 611.103 582.981 605.202 583.026L514.827 583.366L506.873 583.416L506.907 593.194L506.834 625.307C504.055 623.914 500.865 622.703 497.956 621.521C489.497 619.62 479.95 620.24 472.468 625.002C465.732 629.289 461.512 636.335 459.411 643.927C458.931 644.234 458.451 644.54 457.972 644.846C456.903 645.818 455.85 646.807 454.813 647.812C453.658 645.537 422.123 642.385 417.052 640.769C402.321 639.195 389.526 638.72 378.411 628.525L371.126 635.134C366.144 639.636 361.101 644.071 356.002 648.44C354.354 646.703 351.069 643.968 349.15 642.284C336.696 632.215 321.204 627.406 305.948 623.541C302.914 623.298 299.108 623.055 296.496 621.567C318.794 617.988 346.912 609.392 368.4 601.818C358.777 585.386 352.543 566.344 343.374 549.573C342.21 547.445 340.777 545.762 340.23 543.402L341.215 541.918C339.036 540.266 339.285 540.988 338.869 538.898L339.496 538.855C339.495 538.53 339.493 538.205 339.491 537.881C335.78 519.784 327.281 508.703 314.006 497.397C305.677 491.554 302.162 490.053 292.268 488.085C324.908 486.562 364.056 487.633 397.265 487.533C397.3 486.144 397.316 484.754 397.312 483.365C397.297 478.456 396.753 472.343 393.983 467.841C380.713 446.274 340.928 424.379 336.815 398.755C333.866 380.38 335.159 354.457 335.165 335.531L335.179 218.731L335.187 207.298L335.247 161.963Z"/><path fill="white" d="M579.198 462.178C583.453 459.23 592.562 454.419 597.814 454.179C635.896 452.441 674.367 453.885 712.535 453.342C720.986 453.221 729.812 453.337 738.243 453.876L751.824 454.058C762.894 454.075 775.067 453.853 786.046 454.368C814.851 483.045 843.24 512.136 871.205 541.633C881.521 552.621 898.342 569.955 907.168 581.31L906.659 582.499C905.493 585.072 902.67 590.537 901.843 592.732L719.721 592.787C719.39 589.402 718.977 586.026 718.483 582.662C718.419 581.803 718.207 578.911 718.719 578.503C725.798 572.855 726.52 574.59 729.541 566.232L728.332 565.173C728.926 553.359 720.106 542.256 712.024 554.276L709.969 555.084L705.303 551.839C685.34 552.326 665.509 548.492 647.166 540.599C645.378 546.085 643.527 554.541 637.051 555.965L635.716 556.164C635.416 561.957 637.04 572.349 636.709 574.955L636.172 575.767L636.429 576.59C638.524 578.698 638.391 579.478 638.99 582.686C634.806 583.381 611.103 582.981 605.202 583.026L514.827 583.366C515.399 578.125 515.015 561.726 515.012 555.724L515.011 498.405C513.736 496.833 513.436 497.218 510.977 496.56C539.112 497.36 551.197 483.522 572.703 466.605C574.804 465.014 576.996 463.624 579.198 462.178Z"/><path fill="#32313E" d="M673.317 501.835C681.969 499.057 686.404 492.939 695.457 493.254C706.036 493.622 706.542 506.551 714.159 510.408C718.005 512.356 726.337 511.156 729.611 515.501C734.282 521.701 729.162 527.5 728.249 534.006C727.33 540.047 733.932 541.697 736.969 545.558C738.708 547.367 738.473 551.974 736.996 553.882C732.13 560.171 730.606 557.941 729.541 566.232L728.332 565.173C728.926 553.359 720.106 542.256 712.024 554.276L709.969 555.084L705.303 551.839C685.34 552.326 665.509 548.492 647.166 540.599C645.378 546.085 643.527 554.541 637.051 555.965L635.716 556.164C635.416 561.957 637.04 572.349 636.709 574.955L636.172 575.767L636.429 576.59C625.425 575.612 628.301 566.058 620.316 557.117L624.893 547.605C615.008 535.605 608.523 532.375 626.185 523.121C622.366 498.051 630.257 511.37 643.719 506.084C647.234 504.704 646.684 501.463 648.794 498.584C654.568 495.739 667.021 500.138 673.317 501.835Z"/><path fill="#FBB6B0" d="M636.709 574.955C625.956 572.232 622.328 557.898 635.716 556.164C635.416 561.957 637.04 572.349 636.709 574.955Z"/><path fill="#FCD34D" d="M718.483 582.662L839.182 582.751C861.233 582.754 884.757 583.116 906.659 582.499C905.493 585.072 902.67 590.537 901.843 592.732L719.721 592.787C719.39 589.402 718.977 586.026 718.483 582.662Z"/><path fill="#FEFEFE" d="M579.198 462.178C580.931 467.327 579.275 541.715 579.85 553.351C580.091 558.228 579.709 569.895 580.23 575.753C580.338 576.97 579.607 580.443 579.003 581.607C578.455 582.663 578.296 582.819 577.444 583.632L575.584 583.575C574.052 581.772 573.291 579.805 573.252 577.38C572.651 540.67 573.818 503.27 572.703 466.605C574.804 465.014 576.996 463.624 579.198 462.178Z"/><path fill="#FEFEFE" d="M738.243 453.876L751.824 454.058C752.964 458.063 748.254 460.55 745.445 462.539C742.995 459.692 740.594 456.804 738.243 453.876Z"/><path fill="white" d="M401.9 218.294C415.596 230.511 433.358 250.633 446.873 264.176C461.91 279.222 476.826 294.39 491.619 309.677C503.801 322.042 523.788 337.929 525.028 356.073C526.53 378.055 506.462 389.991 500.1 408.845C496.738 418.952 497.684 436.14 497.722 447.312C497.821 460.707 497.85 474.103 497.808 487.499L405.756 487.567C406.032 470.574 405.447 465.713 393.796 452.848C381.354 439.109 358.284 421.766 349.039 406.774C341.678 394.835 344.295 352.08 344.347 336.853L344.324 236.169L344.353 218.717L381.992 218.791C386.947 218.798 397.539 219.055 401.9 218.294Z"/><path fill="white" d="M405.506 496.63L497.886 496.571L497.875 583.322L497.95 593.282L497.956 621.521C489.497 619.62 479.95 620.24 472.468 625.002C465.732 629.289 461.512 636.335 459.411 643.927C458.931 644.234 458.451 644.54 457.972 644.846C456.903 645.818 455.85 646.807 454.813 647.812C453.658 645.537 422.123 642.385 417.052 640.769C402.321 639.195 389.526 638.72 378.411 628.525C386.859 620.691 402.241 610.472 404.362 599.051C406.568 587.173 405.768 571.229 405.714 558.892L405.506 496.63Z"/><path fill="#FCD34D" d="M419.769 583.406L497.875 583.322L497.95 593.282C472.33 592.789 445.518 593.185 419.758 593.076L419.769 583.406Z"/><path fill="#E5E7EB" d="M417.052 640.769C435.871 639.452 440.864 642.922 457.972 644.846C456.903 645.818 455.85 646.807 454.813 647.812C453.658 645.537 422.123 642.385 417.052 640.769Z"/><path fill="white" d="M972.462 454.051L983.84 454.018C968.892 484.461 953.593 514.73 937.945 544.82L925.255 569.144C923.473 572.479 919.323 579.633 918.285 582.681L918.344 582.939C916.39 585.96 915.055 588.322 913.358 591.502C909.36 600.486 868.483 679.572 868.697 680.807L872.78 681.664C865.214 682.103 862.041 682.119 854.896 684.834C858.144 679.648 865.14 664.524 868.504 657.947L901.843 592.732C902.67 590.537 905.493 585.072 906.659 582.499L907.168 581.31C908.436 579.717 910.752 574.575 911.767 572.466C879.41 532.044 834.477 493.013 800.153 454.287C816.123 453.373 836.859 454.51 853.197 454.461L972.462 454.051Z"/><path fill="#E5E7EB" d="M972.462 454.051L983.84 454.018C968.892 484.461 953.593 514.73 937.945 544.82L925.255 569.144C923.473 572.479 919.323 579.633 918.285 582.681L918.344 582.939C916.39 585.96 915.055 588.322 913.358 591.502C909.36 600.486 868.483 679.572 868.697 680.807L872.78 681.664C865.214 682.103 862.041 682.119 854.896 684.834C858.144 679.648 865.14 664.524 868.504 657.947L901.843 592.732C902.67 590.537 905.493 585.072 906.659 582.499L907.168 581.31C908.436 579.717 910.752 574.575 911.767 572.466C915.593 566.16 919.185 558.539 922.711 551.968C937.916 523.636 952.149 494.653 966.761 466.009C968.829 462.101 970.432 458.966 972.18 454.916L972.462 454.051Z"/><path fill="#FEFEFE" d="M972.18 454.916C970.432 458.966 968.829 462.101 966.761 466.009C964.155 463.985 959.57 459.979 959.058 456.685L960.294 455.48C963.475 454.352 968.627 454.814 972.18 454.916Z"/><path fill="white" d="M993.795 343.586C997.832 342.298 1000.49 342.44 1004.58 342.75C1011.77 344.856 1016.84 347.413 1020.63 354.304C1022.03 356.905 1022.96 359.733 1023.37 362.658C1029.29 361.025 1063.61 362.356 1067.53 363.973C1079.56 364.23 1091.59 364.07 1103.6 364.322C1102.22 367.727 1100.74 371.246 1099.5 374.688C1090.09 405.701 1099.05 418.786 1111.66 444.757L988.228 444.759L977.15 444.7C990.555 420.776 994.643 414.499 994.491 386.985C987.341 383.735 984.845 380.886 980.714 374.252C979.194 370.006 978.796 368.799 978.245 364.368C980.467 353.635 983.773 348.362 993.795 343.586Z"/><path fill="#F87171" d="M993.795 343.586C997.832 342.298 1000.49 342.44 1004.58 342.75C1011.77 344.856 1016.84 347.413 1020.63 354.304C1022.03 356.905 1022.96 359.733 1023.37 362.658L1023.41 364.353C1022.98 368.839 1022.72 370.24 1021.17 374.519C1016.71 381.585 1013.45 385.109 1005.05 387.353C1000.51 387.995 998.97 387.726 994.491 386.985C987.341 383.735 984.845 380.886 980.714 374.252C979.194 370.006 978.796 368.799 978.245 364.368C980.467 353.635 983.773 348.362 993.795 343.586Z"/><path fill="#FEFEFE" d="M998.182 347.131C1004.65 346.097 1011.17 348.626 1015.25 353.749C1019.33 358.872 1020.34 365.796 1017.88 371.869C1015.43 377.943 1009.9 382.224 1003.41 383.075C993.562 384.364 984.507 377.506 983.079 367.679C981.651 357.852 988.378 348.699 998.182 347.131Z"/><path fill="#E5E7EB" d="M1023.37 362.658C1029.29 361.025 1063.61 362.356 1067.53 363.973C1079.56 364.23 1091.59 364.07 1103.6 364.322C1102.22 367.727 1100.74 371.246 1099.5 374.688C1093.31 372.85 1031.85 374.448 1021.17 374.519C1022.72 370.24 1022.98 368.839 1023.41 364.353L1023.37 362.658Z"/><path fill="white" d="M1023.37 362.658C1029.29 361.025 1063.61 362.356 1067.53 363.973C1056.13 364.946 1035.3 364.392 1023.41 364.353L1023.37 362.658Z"/><path fill="#E5E7EB" d="M994.491 386.985C998.97 387.726 1000.51 387.995 1005.05 387.353C1004.98 407.587 1000.57 428.197 988.228 444.759L977.15 444.7C990.555 420.776 994.643 414.499 994.491 386.985Z"/><path fill="#FEFEFE" d="M314.006 497.397C317.798 495.961 386.899 496.677 396.776 496.677L396.983 559.493C397.136 600.586 402.867 595.635 371.566 622.888C369.471 624.78 362.795 631.061 360.842 632.358C357.039 635.818 353.364 639.334 349.15 642.284C336.696 632.215 321.204 627.406 305.948 623.541C302.914 623.298 299.108 623.055 296.496 621.567C318.794 617.988 346.912 609.392 368.4 601.818C358.777 585.386 352.543 566.344 343.374 549.573C342.21 547.445 340.777 545.762 340.23 543.402L341.215 541.918C339.036 540.266 339.285 540.988 338.869 538.898L339.496 538.855C339.495 538.53 339.493 538.205 339.491 537.881C335.78 519.784 327.281 508.703 314.006 497.397Z"/><path fill="#E5E7EB" d="M326.385 623.54C338.913 619.433 358.827 619.957 371.566 622.888C369.471 624.78 362.795 631.061 360.842 632.358C351.015 631.764 333.208 631.095 326.385 623.54Z"/><path fill="#120D0B" d="M341.215 541.918C344.209 542.109 348.168 543.381 351.175 544.228L351.373 544.604C346.814 544.811 344.767 544.288 340.23 543.402L341.215 541.918Z"/><path fill="#FEFEFE" d="M506.873 583.416C506.617 579.366 506.585 574.335 506.689 570.241C507.295 546.3 505.569 521.175 506.787 497.347C507.971 496.357 509.036 496.676 510.977 496.56C513.436 497.218 513.736 496.833 515.011 498.405L515.012 555.724C515.015 561.726 515.399 578.125 514.827 583.366L506.873 583.416Z"/><path fill="#FEFEFE" d="M687.736 274.484C705.415 271.617 722.041 283.717 724.752 301.425C727.463 319.133 715.22 335.655 697.494 338.211C679.986 340.735 663.716 328.674 661.039 311.185C658.361 293.696 670.276 277.317 687.736 274.484Z"/><path fill="#FCD34D" d="M305.948 623.541C321.204 627.406 336.696 632.215 349.15 642.284C351.069 643.968 354.354 646.703 356.002 648.44C361.101 644.071 366.144 639.636 371.126 635.134L378.411 628.525C389.526 638.72 402.321 639.195 417.052 640.769C422.123 642.385 453.658 645.537 454.813 647.812C454.725 649.594 454.536 651.928 454.55 653.661C456.797 655.268 457.462 655.633 459.99 656.755C461.384 667.847 463.086 679.716 464.219 690.775C460.309 691.066 460.764 691.152 458.273 693.922C453.922 698.762 439.12 721.909 434.696 724.483C435.385 728.013 461.667 766.136 465.373 771.692C468.597 776.628 483.482 798.655 484.105 801.944C491.763 802.628 496.661 808.806 500.359 814.819L500.535 815.988L503.223 814.889C503.555 825.843 499.057 851.152 507.188 857.719L507.592 858.183L510.102 859.045C510.932 862.236 510.585 877.395 510.573 881.481C510.498 895.907 510.505 910.333 510.593 924.759C476.417 924.697 414.991 924.863 378.574 924.416C378.229 924.129 377.883 923.841 377.537 923.554L376.741 924.325L376.263 924.037C373.51 925.399 339.602 924.879 334.643 924.88L189.484 924.873C179.254 924.872 168.919 924.883 158.702 924.906C153.458 924.918 140.352 925.5 135.804 924.523L134.999 922.993L133.596 922.145C136.465 902.44 140.934 882.159 143.594 862.54C136.876 862.743 127.911 859.691 121.947 856.774C57.3833 825.192 93.9779 748.428 115.581 702.468C125.093 684.611 135.953 668.908 150.308 654.682C153.665 651.874 156.723 649.272 159.935 646.303C165.505 641.982 170.703 639.025 176.856 635.762L181.418 633.932C188.567 631.294 197.65 629.363 205.107 627.753C209.589 626.857 213.818 626.205 218.325 625.523C223.82 631.707 236.797 641.843 243.596 647.357C255.405 656.934 267.779 667.288 279.874 676.428L305.948 623.541Z"/><path fill="white" d="M484.105 801.944C491.763 802.628 496.661 808.806 500.359 814.819L500.535 815.988L503.223 814.889C503.555 825.843 499.057 851.152 507.188 857.719L507.592 858.183L510.102 859.045C510.932 862.236 510.585 877.395 510.573 881.481C510.498 895.907 510.505 910.333 510.593 924.759C476.417 924.697 414.991 924.863 378.574 924.416C378.229 924.129 377.883 923.841 377.537 923.554C376.059 907.277 373.675 890.966 372.149 874.683C371.773 870.677 371.075 866.327 371.332 862.318C402.644 858.771 428.539 847.387 454.125 829.504C455.817 827.747 456.002 827.423 458.118 826.327L458.601 827.211C459.247 823.898 479.923 806.976 483.547 804.866L484.105 801.944Z"/><path fill="white" d="M484.105 801.944C491.763 802.628 496.661 808.806 500.359 814.819L500.535 815.988C501.812 824.595 502.332 831.065 496.692 838.539C492.778 843.692 486.971 847.072 480.558 847.928C474.424 848.764 468.211 847.094 463.322 843.295C458.761 839.69 456.048 834.922 454.125 829.504C455.817 827.747 456.002 827.423 458.118 826.327L458.601 827.211C459.247 823.898 479.923 806.976 483.547 804.866L484.105 801.944Z"/><path fill="#F87171" d="M484.105 801.944C491.763 802.628 496.661 808.806 500.359 814.819L500.535 815.988C501.812 824.595 502.332 831.065 496.692 838.539C492.778 843.692 486.971 847.072 480.558 847.928C474.424 848.764 468.211 847.094 463.322 843.295C458.761 839.69 456.048 834.922 454.125 829.504C455.817 827.747 456.002 827.423 458.118 826.327L458.601 827.211C461.15 838.874 469.796 846.223 482.115 843.092C487.585 841.673 492.264 838.132 495.116 833.253C502.649 820.254 494.682 810.923 483.547 804.866L484.105 801.944Z"/><path fill="white" d="M378.411 628.525C389.526 638.72 402.321 639.195 417.052 640.769C422.123 642.385 453.658 645.537 454.813 647.812C454.725 649.594 454.536 651.928 454.55 653.661C456.797 655.268 457.462 655.633 459.99 656.755C461.384 667.847 463.086 679.716 464.219 690.775C460.309 691.066 460.764 691.152 458.273 693.922C453.922 698.762 439.12 721.909 434.696 724.483L433.449 722.799C431.931 723.271 407.185 749.753 404.395 752.672C401.695 740.804 394.819 725.9 390.26 714.379C380.866 690.639 374.535 667.016 356.002 648.44C361.101 644.071 366.144 639.636 371.126 635.134L378.411 628.525Z"/><path fill="#E5E7EB" d="M378.411 628.525C389.526 638.72 402.321 639.195 417.052 640.769C422.123 642.385 453.658 645.537 454.813 647.812C454.725 649.594 454.536 651.928 454.55 653.661C451.673 652.816 447.044 652.379 443.935 651.988C446.282 662.015 448.668 672.286 449.651 682.548C448.14 686.345 438.29 705.981 435.536 707.569C435.301 703.558 447.258 686.537 447.024 681.893C446.59 673.289 443.474 660.333 441.526 651.827C431.57 650.105 421.578 648.597 411.557 647.303C402.457 646.077 391.982 645.223 383.388 642.19C379.686 640.883 375.443 637.059 371.126 635.134L378.411 628.525Z"/><path fill="#F87171" d="M224.768 770.502C229.409 774.926 272.438 765.623 279.394 763.467C282.061 764.78 284.386 766.549 286.869 766.228C287.286 767.946 287.196 768.368 288.148 769.791C297.716 770.146 330.403 769.26 336.914 771.932L338.371 772.499C338.753 774.646 340.989 778.948 341.008 779.817C341.238 788.794 339.422 800.377 335.137 808.261C332.162 813.734 318.703 813.347 312.978 813.529C287.733 814.334 264.923 814.791 240.641 823.464C234.298 823.026 218.484 828.882 215.825 827.955L215.487 827.51C217.47 820.044 219.241 806.935 220.562 798.982C221.852 791.212 224.352 777.993 224.768 770.502Z"/><path fill="#FCD34D" d="M286.197 727.124C305.024 726.836 323.854 726.713 342.683 726.756C340.822 740.104 337.74 758.679 336.914 771.932C330.403 769.26 297.716 770.146 288.148 769.791C289.446 762.893 286.545 736.262 286.197 727.124Z"/><path fill="#120D0B" d="M286.869 766.228C286.372 756.536 285.668 737.038 284.118 728.003C282.749 727 282.185 727.111 280.502 726.993C279.442 724.907 280.293 722.626 281.05 720.323C283.885 711.676 290.094 704.542 298.266 700.542C306.573 696.466 316.49 695.661 325.262 698.708C333.928 701.759 340.988 708.191 344.833 716.536C346.357 719.824 346.851 721.934 347.55 725.455L347.043 726.492L344.664 727.066C343.518 729.017 338.895 767.463 338.371 772.499L336.914 771.932C337.74 758.679 340.822 740.104 342.683 726.756C323.854 726.713 305.024 726.836 286.197 727.124C286.545 736.262 289.446 762.893 288.148 769.791C287.196 768.368 287.286 767.946 286.869 766.228Z"/><path fill="#FEFEFE" d="M308.485 698.794C328.91 696.094 339.588 707.124 346.275 724.929C338.629 725.639 327.28 725.332 319.351 725.345L280.988 725.437C284.978 710.387 293.5 702.415 308.485 698.794Z"/><path fill="#120D0B" d="M376.263 924.037C374.251 912.979 373.111 897.742 371.866 886.375C369.409 865.818 367.175 845.234 365.163 824.628C362.663 800.358 360.622 776.043 359.042 751.696C358.325 741.311 356.792 718.681 357.306 708.723C359.445 711.035 360.181 741.252 360.482 746.543C361.509 762.639 362.69 778.726 364.024 794.8C369.692 787.996 395.556 759.327 401.534 755.027C400.674 758.092 368.759 791.888 364.096 796.642L368.049 836.931C368.744 843.956 369.707 855.792 371.332 862.318C371.075 866.327 371.773 870.677 372.149 874.683C373.675 890.966 376.059 907.277 377.537 923.554L376.741 924.325L376.263 924.037Z"/><path fill="#120D0B" d="M197.232 771.2C199.958 766.312 212.536 741.784 214.42 739.207C215.096 743.776 202.738 765.003 199.695 770.795C204.858 770.674 221.813 768.628 224.768 770.502C224.352 777.993 221.852 791.212 220.562 798.982C219.241 806.935 217.47 820.044 215.487 827.51C215.029 828.883 214.731 830.219 213.826 831.315C214.56 816.681 220.947 787.775 222.967 771.309C206.53 771.462 187.224 774.019 170.54 774.55C164.788 774.733 156.317 775.903 150.99 775.51C153.687 772.668 190.667 771.544 197.232 771.2Z"/><path fill="#120D0B" d="M213.599 832.051C214.487 833.946 214.234 835.513 214.191 837.635C213.013 844.247 210.011 864.339 208.373 870.089C196.005 869.38 182.615 867.78 170.234 866.496C163.01 865.747 152.011 865.053 145.091 863.852C141.801 883.533 138.054 903.306 134.999 922.993L133.596 922.145C136.465 902.44 140.934 882.159 143.594 862.54C147.011 861.59 199.665 867.795 207.036 868.693C208.974 857.499 211.046 842.891 213.599 832.051Z"/><path fill="#232045" d="M215.487 827.51L215.825 827.955C218.484 828.882 234.298 823.026 240.641 823.464C232.722 827.782 222.168 833.947 214.191 837.635C214.234 835.513 214.487 833.946 213.599 832.051L213.826 831.315C214.731 830.219 215.029 828.883 215.487 827.51Z"/><path fill="#FCD34D" d="M647.166 540.599C665.509 548.492 685.34 552.326 705.303 551.839L709.969 555.084C717.493 568.361 718.85 600.615 720.836 617.296L727.484 619.219C715.714 642.815 712.5 661.85 712.479 687.779L709.481 830.398C709.044 853.237 707.547 884.733 708.408 907.113C707.878 913.018 707.97 918.772 707.966 924.693L665.816 924.77C662.127 924.773 648.382 924.956 645.741 924.307L644.866 924.163C637.996 926.16 578.297 924.85 566.578 924.828L566.142 924.922C565.555 919.685 566.221 910.392 565.751 903.891C565.284 910.83 565.339 917.84 565.294 924.798L510.593 924.759C510.505 910.333 510.498 895.907 510.573 881.481C510.585 877.395 510.932 862.236 510.102 859.045L507.592 858.183L507.188 857.719C499.057 851.152 503.555 825.843 503.223 814.889L500.535 815.988L500.359 814.819C496.661 808.806 491.763 802.628 484.105 801.944C483.482 798.655 468.597 776.628 465.373 771.692C461.667 766.136 435.385 728.013 434.696 724.483C439.12 721.909 453.922 698.762 458.273 693.922C460.764 691.152 460.309 691.066 464.219 690.775C463.086 679.716 461.384 667.847 459.99 656.755C457.462 655.633 456.797 655.268 454.55 653.661C454.536 651.928 454.725 649.594 454.813 647.812C455.85 646.807 456.903 645.818 457.972 644.846C458.451 644.54 458.931 644.234 459.411 643.927C461.512 636.335 465.732 629.289 472.468 625.002C479.95 620.24 489.497 619.62 497.956 621.521C500.865 622.703 504.055 623.914 506.834 625.307L506.907 593.194L506.873 583.416L514.827 583.366L605.202 583.026C611.103 582.981 634.806 583.381 638.99 582.686C638.391 579.478 638.524 578.698 636.429 576.59L636.172 575.767L636.709 574.955C637.04 572.349 635.416 561.957 635.716 556.164L637.051 555.965C643.527 554.541 645.378 546.085 647.166 540.599Z"/><path fill="white" d="M638.99 582.686C639.828 585.762 640.927 590.366 641.91 593.27C644.175 599.29 656.012 615.321 655.368 617.227C644.012 621.226 641.673 621.39 631.734 628.102C596.842 635.548 564.719 666.176 545.277 695.007C525.377 725.94 517.25 763.706 512.72 799.7C512.573 800.869 512.174 801.403 511.339 802.176L511.301 802.313L507.574 802.609C507.129 811.547 507.445 808.874 501.221 813.468L500.359 814.819C496.661 808.806 491.763 802.628 484.105 801.944C483.482 798.655 468.597 776.628 465.373 771.692C461.667 766.136 435.385 728.013 434.696 724.483C439.12 721.909 453.922 698.762 458.273 693.922C460.764 691.152 460.309 691.066 464.219 690.775C463.086 679.716 461.384 667.847 459.99 656.755C457.462 655.633 456.797 655.268 454.55 653.661C454.536 651.928 454.725 649.594 454.813 647.812C455.85 646.807 456.903 645.818 457.972 644.846C458.451 644.54 458.931 644.234 459.411 643.927C461.512 636.335 465.732 629.289 472.468 625.002C479.95 620.24 489.497 619.62 497.956 621.521C500.865 622.703 504.055 623.914 506.834 625.307L506.907 593.194L506.873 583.416L514.827 583.366L605.202 583.026C611.103 582.981 634.806 583.381 638.99 582.686Z"/><path fill="#120D0B" d="M457.972 644.846C458.451 644.54 458.931 644.234 459.411 643.927C461.512 636.335 465.732 629.289 472.468 625.002C479.95 620.24 489.497 619.62 497.956 621.521C500.865 622.703 504.055 623.914 506.834 625.307C509.319 627.096 511.465 628.601 513.762 630.639C515.422 632.823 518.359 636.959 518.877 639.653C519.984 645.406 524.459 645.806 526.28 649.954C525.964 654.566 523.835 655.128 519.827 656.38L518.984 657.979C518.733 660.194 518.006 665.318 517.979 667.319C516.673 675.099 515.846 685.886 514.352 693.009L513.57 699.497C510.767 701.985 508.089 704.131 505.152 706.462C492.889 707.265 478.953 708.546 466.903 706.018C465.832 702.684 464.873 694.657 464.219 690.775C463.086 679.716 461.384 667.847 459.99 656.755C457.462 655.633 456.797 655.268 454.55 653.661C454.536 651.928 454.725 649.594 454.813 647.812C455.85 646.807 456.903 645.818 457.972 644.846Z"/><path fill="#FCD34D" d="M460.988 655.488C458.268 654.608 457.878 654.664 456.279 652.483C455.725 650.197 455.966 649.986 456.904 647.686C458.5 646.478 458.733 646.514 460.742 646.062C462.829 643.116 462.571 639.44 463.889 636.436C467.235 628.81 476.305 623.867 483.998 622.48C492.479 621.001 501.197 623.02 508.165 628.076C514.146 632.381 516.413 636.727 518.709 643.567C519.838 646.929 525.893 649.246 523.286 653.401C521.001 654.848 520.6 654.738 517.806 655.023C515.274 666.641 513.886 685.824 511.584 698.782C508.86 701.534 508.173 702.325 505.119 703.941C501.536 705.955 471.432 706.473 469.973 704.494C463.463 695.662 465.013 665.705 460.988 655.488Z"/><path fill="#FEFEFE" d="M460.988 655.488C458.268 654.608 457.878 654.664 456.279 652.483C455.725 650.197 455.966 649.986 456.904 647.686C458.5 646.478 458.733 646.514 460.742 646.062C462.829 643.116 462.571 639.44 463.889 636.436C467.235 628.81 476.305 623.867 483.998 622.48C492.479 621.001 501.197 623.02 508.165 628.076C514.146 632.381 516.413 636.727 518.709 643.567C519.838 646.929 525.893 649.246 523.286 653.401C521.001 654.848 520.6 654.738 517.806 655.023L517.776 650.635C514.153 651.825 463.1 651.764 460.872 650.499L460.988 655.488Z"/><path fill="#271A0D" d="M460.872 650.499C461.206 650.178 461.541 649.857 461.876 649.536C477.208 649.354 501.018 649.234 515.462 649.607C516.225 649.632 516.986 649.665 517.748 649.709C517.922 650.493 518.019 650.2 517.776 650.635C514.153 651.825 463.1 651.764 460.872 650.499Z"/><path fill="#F87171" d="M464.219 690.775C464.873 694.657 465.832 702.684 466.903 706.018C478.953 708.546 492.889 707.265 505.152 706.462C508.089 704.131 510.767 701.985 513.57 699.497L514.352 693.009C525.39 701.53 517.565 710.774 511.149 719.498C508.093 722.851 503.904 727.192 501.208 730.695C494.03 738.591 486.941 746.567 479.942 754.623C475.535 759.764 469.896 766.922 465.373 771.692C461.667 766.136 435.385 728.013 434.696 724.483C439.12 721.909 453.922 698.762 458.273 693.922C460.764 691.152 460.309 691.066 464.219 690.775Z"/><path fill="white" d="M501.208 730.695C503.904 727.192 508.093 722.851 511.149 719.498C511.222 724.053 511.482 802.59 511.339 802.176L511.301 802.313L507.574 802.609C507.129 811.547 507.445 808.874 501.221 813.468L500.359 814.819C496.661 808.806 491.763 802.628 484.105 801.944C483.482 798.655 468.597 776.628 465.373 771.692C469.896 766.922 475.535 759.764 479.942 754.623C486.941 746.567 494.03 738.591 501.208 730.695Z"/><path fill="#E5E7EB" d="M501.208 730.695C503.904 727.192 508.093 722.851 511.149 719.498C511.222 724.053 511.482 802.59 511.339 802.176L511.301 802.313L507.574 802.609C507.129 811.547 507.445 808.874 501.221 813.468C501.072 803.665 501.509 793.851 501.53 784.042L501.208 730.695Z"/><path fill="#FCD34D" d="M638.99 582.686C639.828 585.762 640.927 590.366 641.91 593.27C635.216 592.608 624.351 592.975 617.428 593.032L579.741 593.182L573.156 593.195L515.116 593.235L506.907 593.194L506.873 583.416L514.827 583.366L605.202 583.026C611.103 582.981 634.806 583.381 638.99 582.686Z"/><path fill="#FEFEFE" d="M573.156 593.195L579.741 593.182C579.409 610.626 580.075 630.249 580.301 647.878L573.454 644.509C572.735 628.394 573.176 609.492 573.156 593.195Z"/><path fill="#FEFEFE" d="M506.907 593.194L515.116 593.235C515.075 598.689 516.423 627.896 513.762 630.639C511.465 628.601 509.319 627.096 506.834 625.307L506.907 593.194Z"/><path fill="#FCD34D" d="M518.984 657.979L519.091 658.636C521.492 672.641 525.306 678.098 524.647 694.328C524.059 698.676 523.906 701.884 523.743 706.287L531.661 706.222L532.619 707.244L534.463 706.894C530.998 707.586 522.928 708.511 520.294 705.891C521.862 695.954 523.957 676.108 517.979 667.319C518.006 665.318 518.733 660.194 518.984 657.979Z"/><path fill="#FEFEFE" d="M647.991 684.615C673.064 689.827 686.466 689.671 712.479 687.779L709.481 830.398C709.044 853.237 707.547 884.733 708.408 907.113C707.878 913.018 707.97 918.772 707.966 924.693L665.816 924.77C662.127 924.773 648.382 924.956 645.741 924.307C647.098 892.987 645.464 859.349 645.825 827.78C646.37 779.981 645.612 732.442 647.991 684.615Z"/><path fill="#FBB6B0" d="M647.166 540.599C665.509 548.492 685.34 552.326 705.303 551.839L709.969 555.084C717.493 568.361 718.85 600.615 720.836 617.296L727.484 619.219C715.714 642.815 712.5 661.85 712.479 687.779C686.466 689.671 673.064 689.827 647.991 684.615C649.186 676.125 648.853 664.499 650.308 656.165C652.733 642.282 655.879 629.638 657.679 615.463C670.909 624.213 687.613 622.78 699.93 612.988L699.922 612.339C692.707 613.578 686.857 619.221 678.25 619.471C643.956 620.467 639.168 581.409 637.051 555.965C643.527 554.541 645.378 546.085 647.166 540.599Z"/><path fill="#120D0B" d="M669.625 560.921L670.948 562.113C672.574 570.311 665.624 579.296 669.708 584.588C671.926 585.95 672.367 585.812 674.97 585.637L676.142 587.232C661.003 592.065 668.755 569.318 669.625 560.921Z"/><path fill="#120D0B" d="M684.704 594.369C685.726 595.28 685.275 594.769 685.738 596.294C684.165 602.009 677.507 604.507 671.999 604.208C667.738 603.977 665.725 601.9 663.13 598.899L662.845 597.139L663.46 596.56C671.101 604.101 679.574 605.546 684.704 594.369Z"/><path fill="#120D0B" d="M651.904 562.433C652.941 561.814 654.236 561.825 655.263 562.462C656.289 563.099 656.874 564.256 656.78 565.46C656.685 566.664 655.927 567.715 654.814 568.185C653.251 568.844 651.443 568.181 650.677 566.667C649.911 565.152 650.446 563.303 651.904 562.433Z"/><path fill="#120D0B" d="M685.901 561.242C687.443 560.532 689.271 561.147 690.072 562.644C690.872 564.142 690.368 566.004 688.921 566.893C687.905 567.516 686.627 567.526 685.603 566.916C684.578 566.307 683.975 565.18 684.038 563.989C684.101 562.798 684.818 561.74 685.901 561.242Z"/><path fill="#120D0B" d="M565.712 802.575C565.76 778.306 565.295 755.173 574.961 732.36C576.31 729.176 579.02 723.077 581.439 720.676C580.335 725.835 576.868 731.768 575.031 736.859C565.691 762.751 567.316 790.384 567.328 817.447L567.203 888.158C567.19 894.128 567.577 920.334 566.578 924.828L566.142 924.922C565.555 919.685 566.221 910.392 565.751 903.891C565.284 910.83 565.339 917.84 565.294 924.798L510.593 924.759C510.505 910.333 510.498 895.907 510.573 881.481C510.585 877.395 510.932 862.236 510.102 859.045L507.592 858.183L507.188 857.719C499.057 851.152 503.555 825.843 503.223 814.889L500.535 815.988L500.359 814.819L501.221 813.468C507.445 808.874 507.129 811.547 507.574 802.609L511.301 802.313C528.911 802.926 547.991 802.582 565.712 802.575Z"/><path fill="#FBB6B0" d="M507.592 858.183C525.755 857.297 547.356 857.804 565.713 857.861C565.72 872.077 565.193 889.969 565.751 903.891C565.284 910.83 565.339 917.84 565.294 924.798L510.593 924.759C510.505 910.333 510.498 895.907 510.573 881.481C510.585 877.395 510.932 862.236 510.102 859.045L507.592 858.183Z"/><path fill="#E5E7EB" d="M503.223 814.889C505.391 813.851 505.271 813.437 507.103 813.832C508.066 824.24 507.174 846.075 507.188 857.719C499.057 851.152 503.555 825.843 503.223 814.889Z"/><path fill="#64748B" d="M501.221 813.468C507.445 808.874 507.129 811.547 507.574 802.609C508.493 812.752 507.81 826.146 507.979 836.484C508.052 840.952 508.125 854.148 507.592 858.183L507.188 857.719C507.174 846.075 508.066 824.24 507.103 813.832C505.271 813.437 505.391 813.851 503.223 814.889L500.535 815.988L500.359 814.819L501.221 813.468Z"/><path fill="#FCD34D" d="M509.235 804.02L565.667 804.022C566.06 820.949 565.769 839.132 565.589 856.105L509.212 856.124C509.046 838.756 509.054 821.387 509.235 804.02Z"/><path fill="#120D0B" d="M635.716 556.164L637.051 555.965C639.168 581.409 643.956 620.467 678.25 619.471C686.857 619.221 692.707 613.578 699.922 612.339L699.93 612.988C687.613 622.78 670.909 624.213 657.679 615.463C655.879 629.638 652.733 642.282 650.308 656.165C648.853 664.499 649.186 676.125 647.991 684.615C645.612 732.442 646.37 779.981 645.825 827.78C645.464 859.349 647.098 892.987 645.741 924.307L644.866 924.163C644.082 921.018 644.489 877.843 644.516 871.283C644.716 821.906 644.024 772.105 645.089 722.759C645.596 699.262 646.21 669.838 649.923 646.893C642.425 638.935 617.825 660.769 612.16 665.703C616.442 649.364 619.086 639.887 631.734 628.102C641.673 621.39 644.012 621.226 655.368 617.227C656.012 615.321 644.175 599.29 641.91 593.27C640.927 590.366 639.828 585.762 638.99 582.686C638.391 579.478 638.524 578.698 636.429 576.59L636.172 575.767L636.709 574.955C637.04 572.349 635.416 561.957 635.716 556.164Z"/><path fill="#FCD34D" d="M651.085 619.992C652.671 619.882 652.954 619.962 654.486 620.168C655.575 622.86 651.675 640.444 650.873 644.592C640.224 641.054 626.817 651.024 619.251 657.441C617.872 658.866 617.844 658.909 616.167 659.948L615.675 658.982C616.284 655.584 619.432 648.043 621.02 644.644C627.132 631.559 638.136 624.814 651.085 619.992Z"/><path fill="#FCD34D" d="M712.024 554.276C720.106 542.256 728.926 553.359 728.332 565.173L729.541 566.232C726.52 574.59 725.798 572.855 718.719 578.503C718.207 578.911 718.419 581.803 718.483 582.662C718.977 586.026 719.39 589.402 719.721 592.787L901.843 592.732L868.504 657.947C865.14 664.524 858.144 679.648 854.896 684.834C841.699 692.636 838.84 696.22 831.991 710.378L841.314 710.263L844.046 730.358L837.846 730.888C830.502 739.171 837.058 738.451 835.917 745.167C826.443 755.072 834.214 753.58 834.661 759.143C834.86 761.619 824.44 767.521 833.437 775.31C837.206 779.777 852.598 783.008 854.131 784.332L854.803 784.664C855.372 789.914 854.843 796.343 855.682 801.019L855.76 814.369C858.107 814.437 860.593 814.188 862.446 815.402C862.737 822.321 863.635 863.145 861.71 867.569C860.412 868.053 860.83 868.015 859.486 868.083L857.497 868.486C855.761 871.294 856.513 896.881 856.496 902.297L856.395 909.164C856.045 911.941 854.538 922.012 854.942 924.136L855.079 924.661L817.846 924.733C811.439 924.743 801.982 924.994 795.84 924.437L794.671 924.588C780.756 925.393 762.069 924.558 747.746 924.872C739.555 925.051 717.537 925.443 710.396 924.678C709.269 922.7 709.602 920.004 709.613 917.591C708.798 919.859 708.909 921.76 708.823 924.176C708.83 918.91 708.959 913.146 708.487 907.937L708.408 907.113C707.547 884.733 709.044 853.237 709.481 830.398L712.479 687.779C712.5 661.85 715.714 642.815 727.484 619.219L720.836 617.296C718.85 600.615 717.493 568.361 709.969 555.084L712.024 554.276Z"/><path fill="white" d="M719.721 592.787L901.843 592.732L868.504 657.947C865.14 664.524 858.144 679.648 854.896 684.834C841.699 692.636 838.84 696.22 831.991 710.378L841.314 710.263L844.046 730.358L837.846 730.888C837.05 729.264 836.009 725.588 835.472 723.716C824.387 685.055 796.124 648.66 759.735 630.805C754.315 628.146 748.106 624.78 742.032 623.227C736.093 620.475 728.323 617.603 721.998 616.011C721.143 608.279 720.384 600.537 719.721 592.787Z"/><path fill="#120D0B" d="M794.671 924.588C793.836 915.488 794.347 897.069 794.344 887.523L794.45 810.072C794.493 786.881 796.711 763.118 787.997 741.4C786.577 737.861 780.576 728.272 780.826 725.479L781.838 725.951C798.906 746.665 796.297 787.078 796.273 812.722C815.321 813.014 834.816 814.139 853.942 814.648C853.892 805.681 853.463 792.974 854.131 784.332L854.803 784.664C855.372 789.914 854.843 796.343 855.682 801.019L855.76 814.369C858.107 814.437 860.593 814.188 862.446 815.402C862.737 822.321 863.635 863.145 861.71 867.569C860.412 868.053 860.83 868.015 859.486 868.083L857.497 868.486C855.761 871.294 856.513 896.881 856.496 902.297L856.395 909.164C856.045 911.941 854.538 922.012 854.942 924.136L855.079 924.661L817.846 924.733C811.439 924.743 801.982 924.994 795.84 924.437L794.671 924.588Z"/><path fill="#FBB6B0" d="M795.954 867.975C817.131 867.843 838.309 867.879 859.486 868.083L857.497 868.486C855.761 871.294 856.513 896.881 856.496 902.297L856.395 909.164C856.045 911.941 854.538 922.012 854.942 924.136L855.079 924.661L817.846 924.733C811.439 924.743 801.982 924.994 795.84 924.437C796.246 905.877 795.974 886.588 795.954 867.975Z"/><path fill="#FCD34D" d="M796.069 814.583C816.586 814.584 840.986 817.043 861.03 816.29C861.133 832.959 861.132 849.629 861.025 866.298C841.455 865.444 815.749 866.091 795.903 866.159L796.069 814.583Z"/><path fill="#120D0B" d="M712.024 554.276C720.106 542.256 728.926 553.359 728.332 565.173L729.541 566.232C726.52 574.59 725.798 572.855 718.719 578.503C718.207 578.911 718.419 581.803 718.483 582.662C718.977 586.026 719.39 589.402 719.721 592.787C720.384 600.537 721.143 608.279 721.998 616.011C728.323 617.603 736.093 620.475 742.032 623.227C751.23 633.732 754.967 643.584 756.652 657.684C756.973 660.369 758.147 665.06 757.163 667.465C755.654 667.617 755.696 667.337 754.133 665.981C744.256 657.416 733.294 646.065 719.774 644.073C712.944 664.279 714.003 685.054 713.511 706.477L712.359 764.068C711.12 815.236 710.205 866.411 709.613 917.591C708.798 919.859 708.909 921.76 708.823 924.176C708.83 918.91 708.959 913.146 708.487 907.937L708.408 907.113C707.547 884.733 709.044 853.237 709.481 830.398L712.479 687.779C712.5 661.85 715.714 642.815 727.484 619.219L720.836 617.296C718.85 600.615 717.493 568.361 709.969 555.084L712.024 554.276Z"/><path fill="#FBB6B0" d="M712.024 554.276C720.106 542.256 728.926 553.359 728.332 565.173C727.371 568.442 724.426 575.516 720.332 575.12C716.625 572.341 715.133 560.972 712.024 554.276Z"/><path fill="#FCD34D" d="M729.074 619.716C733.51 621.111 736.423 621.785 740.227 624.556C751.881 633.046 754.064 651.68 755.936 665.237L750.647 660.458C740.99 652.194 733.122 644.886 720.346 642.313C722.954 634.413 725.468 627.22 729.074 619.716Z"/><path fill="#120D0B" d="M727.649 677.547C729.61 678.023 729.501 678.002 730.903 679.488C731.48 681.918 730.849 682.787 729.888 685.19C727.192 684.177 727.973 684.885 726.456 682.704C726.251 680.392 726.724 679.78 727.649 677.547Z"/><path fill="white" d="M1028.2 582.303L1031.58 583.4C1031.76 586.442 1032.07 589.847 1031.95 592.861L1032.85 594.992L1033.21 596.339C1035.04 610.135 1042.23 632.165 1053.78 640.319C1062.86 646.729 1068.53 647.639 1079.19 648.123L1080.23 649.686L1082.04 654.86C1055.6 667.352 1035.3 677.563 1018.63 702.54L1015.06 708.188C1010.81 707.672 1006.1 706.616 1002.25 708.111C1000.45 709.836 1000.93 710.112 1000.52 713.015C1000.53 717.124 1000.88 728.108 999.731 731.255L1000.46 732.13C999.028 735.131 998.051 737.242 996.24 740.044C995.443 742.836 993.772 745.076 992.181 747.501C990.221 743.776 991.004 713.506 991.03 706.994C972.104 706.942 928.639 706.601 907.987 707.072C907.676 707.381 907.366 707.689 907.055 707.997C905.03 703.884 903.452 701.1 901.044 697.193C892.415 686.852 885.622 683.955 872.78 681.664L868.697 680.807C868.483 679.572 909.36 600.486 913.358 591.502C915.055 588.322 916.39 585.96 918.344 582.939L918.285 582.681C926.741 582.227 936.937 582.692 945.574 582.516C972.775 581.963 1001.11 583.207 1028.2 582.303Z"/><path fill="white" d="M918.344 582.939C921.513 586.194 924.765 590.258 928.271 592.835C938.455 603.436 948.522 614.149 958.471 624.972C961.512 628.237 969.294 636.981 972.23 639.557L972.374 640.186C970.197 642.874 967.304 645.196 966.01 646.85C981.807 662.415 989.657 673.137 990.743 696.881C990.874 700.243 991.045 703.632 991.03 706.994C972.104 706.942 928.639 706.601 907.987 707.072C907.676 707.381 907.366 707.689 907.055 707.997C905.03 703.884 903.452 701.1 901.044 697.193C892.415 686.852 885.622 683.955 872.78 681.664L868.697 680.807C868.483 679.572 909.36 600.486 913.358 591.502C915.055 588.322 916.39 585.96 918.344 582.939Z"/><path fill="#E5E7EB" d="M990.743 696.881C990.874 700.243 991.045 703.632 991.03 706.994C972.104 706.942 928.639 706.601 907.987 707.072C907.676 707.381 907.366 707.689 907.055 707.997C905.03 703.884 903.452 701.1 901.044 697.193C922.894 694.799 948.746 698.149 970.947 697.344C976.003 697.161 986.449 698.059 990.743 696.881Z"/><path fill="#F9A87A" d="M918.344 582.939C921.513 586.194 924.765 590.258 928.271 592.835C938.455 603.436 948.522 614.149 958.471 624.972C961.512 628.237 969.294 636.981 972.23 639.557L972.374 640.186C970.197 642.874 967.304 645.196 966.01 646.85L964.689 645.673C947.391 627.634 930.995 609.427 913.358 591.502C915.055 588.322 916.39 585.96 918.344 582.939Z"/><path fill="#F9A87A" d="M964.689 645.673C967.396 643.259 969.311 641.711 972.23 639.557L972.374 640.186C970.197 642.874 967.304 645.196 966.01 646.85L964.689 645.673Z"/><path fill="#FCD34D" d="M1028.2 582.303L1031.58 583.4C1031.76 586.442 1032.07 589.847 1031.95 592.861C1027.19 592.208 1017.9 592.486 1012.8 592.5L980.868 592.561L946.088 592.624C941.275 592.635 932.575 592.388 928.271 592.835C924.765 590.258 921.513 586.194 918.344 582.939L918.285 582.681C926.741 582.227 936.937 582.692 945.574 582.516C972.775 581.963 1001.11 583.207 1028.2 582.303Z"/><path fill="#F9A87A" d="M972.374 640.186C976.793 644.504 981.748 649.218 985.581 654.017C993.797 664.304 1000.16 683.214 1000.47 696.485L1000.52 713.015C1000.53 717.124 1000.88 728.108 999.731 731.255L1000.46 732.13C999.028 735.131 998.051 737.242 996.24 740.044C995.443 742.836 993.772 745.076 992.181 747.501C990.221 743.776 991.004 713.506 991.03 706.994C991.045 703.632 990.874 700.243 990.743 696.881C989.657 673.137 981.807 662.415 966.01 646.85C967.304 645.196 970.197 642.874 972.374 640.186Z"/><path fill="#FBB6B0" d="M999.731 731.255L1000.46 732.13C999.028 735.131 998.051 737.242 996.24 740.044C996.321 737.181 998.377 733.87 999.731 731.255Z"/><path fill="#E5E7EB" d="M1000.47 696.485C1008.31 700.771 1009.68 701.62 1018.63 702.54L1015.06 708.188C1010.81 707.672 1006.1 706.616 1002.25 708.111C1000.45 709.836 1000.93 710.112 1000.52 713.015L1000.47 696.485Z"/><path fill="#32313E" d="M565.751 903.891C566.221 910.392 565.555 919.685 566.142 924.922L566.578 924.828C578.297 924.85 637.996 926.16 644.866 924.163L645.741 924.307C648.382 924.956 662.127 924.773 665.816 924.77L707.966 924.693C707.97 918.772 707.878 913.018 708.408 907.113L708.487 907.937C708.959 913.146 708.83 918.91 708.823 924.176C708.909 921.76 708.798 919.859 709.613 917.591C709.602 920.004 709.269 922.7 710.396 924.678C717.537 925.443 739.555 925.051 747.746 924.872C762.069 924.558 780.756 925.393 794.671 924.588L795.84 924.437C801.982 924.994 811.439 924.743 817.846 924.733L855.079 924.661L875.075 924.624L946.697 924.708C951.513 924.711 981.79 925.542 984.035 923.498L984.887 924.299L985.273 923.904C989.968 926.038 1159.13 924.783 1184.45 924.727C1184.72 924.704 1185.57 924.676 1185.77 924.569C1212.88 925.558 1245.61 924.744 1273.07 924.679C1280.19 924.752 1294.36 923.741 1301.37 925.395C1302.71 925.71 1303.34 927.665 1303.77 928.831C1302.86 933.42 1298.49 933.514 1294.43 933.546L78.4008 933.332C73.0507 933.342 60.0701 935.385 60.8898 927.686C66.8396 920.885 123.4 927.497 132.851 924.145L133.596 922.145L134.999 922.993L135.804 924.523C140.352 925.5 153.458 924.918 158.702 924.906C168.919 924.883 179.254 924.872 189.484 924.873L334.643 924.88C339.602 924.879 373.51 925.399 376.263 924.037L376.741 924.325L377.537 923.554C377.883 923.841 378.229 924.129 378.574 924.416C414.991 924.863 476.417 924.697 510.593 924.759L565.294 924.798C565.339 917.84 565.284 910.83 565.751 903.891Z"/><path fill="white" d="M855.708 784.413C860.162 786.18 863.144 787.487 867.396 789.681C869.654 791.302 872.906 793.503 874.921 795.247C882.595 801.59 889.796 807.334 898.262 812.623L893.646 821.354C892.306 826.53 893.729 826.312 897.349 829.827C917.275 843.378 936.355 858.963 956.079 872.877C959.447 875.253 962.911 877.829 966.156 880.368C966.619 880.74 969.719 883.185 969.919 883.423C975.91 887.795 983.163 892.787 988.906 897.288C987.441 905.018 985.006 915.95 984.035 923.498C981.79 925.542 951.513 924.711 946.697 924.708L875.075 924.624L855.079 924.661L854.942 924.136C854.538 922.012 856.045 911.941 856.395 909.164L856.496 902.297C856.513 896.881 855.761 871.294 857.497 868.486L859.486 868.083C860.83 868.015 860.412 868.053 861.71 867.569C863.635 863.145 862.737 822.321 862.446 815.402C860.593 814.188 858.107 814.437 855.76 814.369L855.682 801.019C855.951 796.542 855.723 789.109 855.708 784.413Z"/><path fill="white" d="M966.156 880.368C966.619 880.74 969.719 883.185 969.919 883.423C975.91 887.795 983.163 892.787 988.906 897.288C987.441 905.018 985.006 915.95 984.035 923.498C981.79 925.542 951.513 924.711 946.697 924.708L875.075 924.624C873.957 922.693 874.965 910.927 875.06 907.627L875.036 899.937C889.818 901.34 952.081 886.808 966.156 880.368Z"/><path fill="#FEFEFE" d="M966.156 880.368C966.619 880.74 969.719 883.185 969.919 883.423L969.981 884.102C970.848 893.07 977.392 916.54 975.182 923.174C973.553 924.417 973.937 923.985 971.193 923.735L970.143 922.929L970.124 922.171C969.995 917.804 968.714 914.611 968.296 910.41C967.542 902.821 965.764 894.912 965.004 887.407C933.444 896.39 907.752 902.638 875.06 907.627L875.036 899.937C889.818 901.34 952.081 886.808 966.156 880.368Z"/><path fill="#E5E7EB" d="M855.708 784.413C860.162 786.18 863.144 787.487 867.396 789.681C869.654 791.302 872.906 793.503 874.921 795.247C882.595 801.59 889.796 807.334 898.262 812.623L893.646 821.354C892.306 826.53 893.729 826.312 897.349 829.827C889.616 830.442 882.78 830.53 875.007 830.61L875.036 899.937L875.06 907.627C874.965 910.927 873.957 922.693 875.075 924.624L855.079 924.661L854.942 924.136C854.538 922.012 856.045 911.941 856.395 909.164L856.496 902.297C856.513 896.881 855.761 871.294 857.497 868.486L859.486 868.083C860.83 868.015 860.412 868.053 861.71 867.569C863.635 863.145 862.737 822.321 862.446 815.402C860.593 814.188 858.107 814.437 855.76 814.369L855.682 801.019C855.951 796.542 855.723 789.109 855.708 784.413Z"/><path fill="#E5E7EB" d="M855.708 784.413C860.162 786.18 863.144 787.487 867.396 789.681C864.623 801.697 865.657 820.036 865.343 832.525C864.767 855.439 865.762 879.612 865.071 902.391L864.693 902.454C862.547 902.008 858.81 902.247 856.496 902.297C856.513 896.881 855.761 871.294 857.497 868.486L859.486 868.083C860.83 868.015 860.412 868.053 861.71 867.569C863.635 863.145 862.737 822.321 862.446 815.402C860.593 814.188 858.107 814.437 855.76 814.369L855.682 801.019C855.951 796.542 855.723 789.109 855.708 784.413Z"/><path fill="white" d="M874.921 795.247C882.595 801.59 889.796 807.334 898.262 812.623L893.646 821.354C887.459 821.287 881.275 821.09 875.097 820.764L874.921 795.247Z"/><path fill="white" d="M856.496 902.297C858.81 902.247 862.547 902.008 864.693 902.454L865.071 902.391L865.247 924.145L854.942 924.136C854.538 922.012 856.045 911.941 856.395 909.164L856.496 902.297Z"/><path fill="#FEFEFE" d="M856.496 902.297C858.81 902.247 862.547 902.008 864.693 902.454C864.669 905.535 865.161 906.31 863.776 908.686C861.627 909.643 858.858 909.252 856.395 909.164L856.496 902.297Z"/><path fill="#120D0B" d="M872.78 681.664C885.622 683.955 892.415 686.852 901.044 697.193C903.452 701.1 905.03 703.884 907.055 707.997L907.459 709.632C905.097 711.208 900.464 710.561 897.361 710.433C896.413 718.796 895.322 727.142 894.086 735.467C896.377 737.893 901.465 737.614 903.804 741.355C904.781 745.33 904.061 747.408 902.943 751.246C909.2 754.444 917.674 757.137 924.671 758.505C920.114 771.197 904.848 799.836 898.262 812.623C889.796 807.334 882.595 801.59 874.921 795.247C872.906 793.503 869.654 791.302 867.396 789.681C863.144 787.487 860.162 786.18 855.708 784.413C855.723 789.109 855.951 796.542 855.682 801.019C854.843 796.343 855.372 789.914 854.803 784.664L854.131 784.332C852.598 783.008 837.206 779.777 833.437 775.31C824.44 767.521 834.86 761.619 834.661 759.143C834.214 753.58 826.443 755.072 835.917 745.167C837.058 738.451 830.502 739.171 837.846 730.888L844.046 730.358L841.314 710.263L831.991 710.378C838.84 696.22 841.699 692.636 854.896 684.834C862.041 682.119 865.214 682.103 872.78 681.664Z"/><path fill="#9D5F5D" d="M844.046 730.358C845.348 740.986 846.428 751.639 847.287 762.312C860.794 762.313 877.723 761.837 890.952 762.459C891.834 753.443 892.878 744.445 894.086 735.467C896.377 737.893 901.465 737.614 903.804 741.355C904.781 745.33 904.061 747.408 902.943 751.246C909.2 754.444 917.674 757.137 924.671 758.505C920.114 771.197 904.848 799.836 898.262 812.623C889.796 807.334 882.595 801.59 874.921 795.247C872.906 793.503 869.654 791.302 867.396 789.681C863.144 787.487 860.162 786.18 855.708 784.413C855.723 789.109 855.951 796.542 855.682 801.019C854.843 796.343 855.372 789.914 854.803 784.664L854.131 784.332C852.598 783.008 837.206 779.777 833.437 775.31C824.44 767.521 834.86 761.619 834.661 759.143C834.214 753.58 826.443 755.072 835.917 745.167C837.058 738.451 830.502 739.171 837.846 730.888L844.046 730.358Z"/><path fill="#FCD34D" d="M843.048 710.294C860.675 710.139 878.303 710.148 895.93 710.321C893.577 724.1 891.956 740.045 890.057 754.129C889.898 756.657 889.939 757.112 889.134 759.462C886.145 761.541 854.794 760.674 848.77 760.648C847.404 743.807 845.496 727.013 843.048 710.294Z"/><path fill="#FEFEFE" d="M867.308 683.536C885.569 682.678 898.324 692.108 905.604 708.601C896.216 708.974 883.724 708.632 874.12 708.622L834.995 708.552C841.447 693.703 851.334 685.863 867.308 683.536Z"/><path fill="white" d="M907.055 707.997C907.366 707.689 907.676 707.381 907.987 707.072C928.639 706.601 972.104 706.942 991.03 706.994C991.004 713.506 990.221 743.776 992.181 747.501C985.582 763.326 980.338 770.433 974.735 788.647C970.807 787.157 960.501 782.854 957.571 779.944C954.953 778.562 952.557 776.847 950.1 775.189C941.832 769.984 933.899 763.629 925.646 758.248L924.671 758.505C917.674 757.137 909.2 754.444 902.943 751.246C904.061 747.408 904.781 745.33 903.804 741.355C901.465 737.614 896.377 737.893 894.086 735.467C895.322 727.142 896.413 718.796 897.361 710.433C900.464 710.561 905.097 711.208 907.459 709.632L907.055 707.997Z"/><path fill="#FEFEFE" d="M950.1 775.189C953.066 764.728 948.887 710.909 951.506 707.905C953.011 707.67 953.819 707.372 955.204 707.984C956.188 710.511 958.253 777.001 957.571 779.944C954.953 778.562 952.557 776.847 950.1 775.189Z"/><path fill="#120D0B" d="M997.474 846.054C1003.64 821.106 1006.95 792.665 1011.99 767.329C1013.19 761.307 1015.61 742.874 1017.44 738.323L1018.16 738.084C1018.63 743.73 1011.98 777.764 1010.72 784.977L999.069 849.338C994.672 874.284 990.57 899.079 985.273 923.904L984.887 924.299L984.035 923.498C985.006 915.95 987.441 905.018 988.906 897.288C990.739 887.08 996.259 860.024 996.346 850.947C996.414 843.9 984.142 812.035 981.822 802.809C980.878 799.054 978.44 794.091 978.457 789.799L979.213 789.778C981.037 793.438 984.2 804.618 985.657 809.241C989.529 821.534 993.468 833.805 997.474 846.054Z"/><path fill="#120D0B" d="M1184.45 924.727C1183.1 875.695 1183.04 837.755 1161.99 793.43C1159.6 788.399 1141.98 746.806 1141.54 743.766L1142.2 743.385C1145.09 746.956 1155.48 773.384 1157.76 779.189C1162.71 791.851 1170.86 808.874 1174.8 821.463C1184.1 851.164 1186.22 893.28 1185.77 924.569C1185.57 924.676 1184.72 924.704 1184.45 924.727Z"/><path fill="#FEFEFE" d="M1000.52 713.015C1000.93 710.112 1000.45 709.836 1002.25 708.111C1006.1 706.616 1010.81 707.672 1015.06 708.188C1010.27 715.784 1004.64 724.296 1000.46 732.13L999.731 731.255C1000.88 728.108 1000.53 717.124 1000.52 713.015Z"/><path fill="#64748B" d="M1103.6 364.322C1119.65 336.565 1146.94 324.099 1178.47 329.261C1182.26 330.233 1185.83 331.095 1189.53 332.428C1206.85 339.203 1215.65 348.571 1224.76 364.271C1226.17 367.441 1228.04 371.376 1229.12 374.586C1237.86 404.367 1229.36 420.066 1215.99 444.977C1214.48 447.763 1212.98 450.558 1211.49 453.362C1197.13 478.936 1183.14 506.359 1169.21 532.355L1158.37 531.996C1144.12 509.192 1128.29 477.847 1116.2 453.624L1111.66 444.757C1099.05 418.786 1090.09 405.701 1099.5 374.688C1100.74 371.246 1102.22 367.727 1103.6 364.322Z"/><path fill="#FEFEFE" d="M1157.85 367.148C1174.82 363.449 1191.55 374.29 1195.11 391.293C1198.67 408.295 1187.7 424.944 1170.68 428.372C1153.84 431.761 1137.42 420.937 1133.9 404.125C1130.38 387.313 1141.07 370.805 1157.85 367.148Z"/><path fill="#9D5F5D" d="M1091.83 520.005C1091.74 509.374 1092.99 499.082 1103.1 493.446C1118.16 485.051 1141.67 503.338 1135.41 520.314C1131.84 529.961 1126.68 533.797 1118.18 538.413C1122.13 545.951 1124.16 549.805 1126.19 558.24C1126.65 561.691 1127.14 565.14 1127.65 568.586C1128.01 574.165 1128.84 580.54 1127.54 585.896C1126.19 592.893 1124.53 596.979 1120.04 602.724C1123.75 609.88 1133.36 627.368 1135.57 633.714C1132.92 638.6 1130.82 644.097 1127.89 648.816C1119.33 662.604 1107.88 673.701 1094.4 682.486C1089.9 673.754 1085.86 663.958 1082.04 654.86L1080.23 649.686L1079.19 648.123C1068.53 647.639 1062.86 646.729 1053.78 640.319C1042.23 632.165 1035.04 610.135 1033.21 596.339L1032.85 594.992L1031.95 592.861C1032.07 589.847 1031.76 586.442 1031.58 583.4L1028.2 582.303C1016.22 569.981 1028.32 548.31 1038.3 538.736C1055.45 522.294 1069.4 520.075 1091.83 520.005Z"/><path fill="#32313E" d="M1091.83 520.005C1091.74 509.374 1092.99 499.082 1103.1 493.446C1118.16 485.051 1141.67 503.338 1135.41 520.314C1131.84 529.961 1126.68 533.797 1118.18 538.413C1122.13 545.951 1124.16 549.805 1126.19 558.24C1126.65 561.691 1127.14 565.14 1127.65 568.586C1128.01 574.165 1128.84 580.54 1127.54 585.896C1126.02 585.52 1121.17 566.246 1112.07 566.061C1099.35 565.803 1098.38 571.533 1096.71 582.053C1092.53 582.152 1088.35 581.783 1084.25 580.953C1068.27 577.815 1059.31 572.135 1050.55 558.949C1040.84 565.269 1035.69 572.61 1031.58 583.4L1028.2 582.303C1016.22 569.981 1028.32 548.31 1038.3 538.736C1055.45 522.294 1069.4 520.075 1091.83 520.005Z"/><path fill="#120D0B" d="M1079.19 648.123C1100.63 643.468 1115.95 629.27 1115.89 606.37C1115.87 602.556 1115.49 602.405 1118.39 600.77C1119.36 603.469 1117.54 604.571 1117.62 606.759C1118.4 627.432 1101.56 646.05 1080.23 649.686L1079.19 648.123Z"/><path fill="#120D0B" d="M1032.85 594.992C1063.72 578.355 1049.91 612.339 1055.75 617.284C1058.22 616.798 1060.27 616.447 1062.77 616.102L1063.28 616.586C1061.19 618.91 1059.31 618.873 1055.98 619.226C1047.72 616.03 1057.6 595.735 1048.26 592.092C1044.61 590.67 1036.76 596.706 1033.21 596.339L1032.85 594.992Z"/><path fill="#120D0B" d="M1068.17 590.095C1071.13 590.465 1072.02 590.748 1073.55 593.283C1073.88 595.945 1073.4 596.673 1072.48 599.223C1069.51 598.96 1069.26 598.729 1067.63 596.384C1067.12 593.586 1067.44 592.88 1068.17 590.095Z"/><path fill="#120D0B" d="M1081.51 616.508L1081.65 618.016C1078.85 624.716 1070.6 629.989 1063.28 628.872L1062.73 628.141L1063.05 627.433C1072.91 627.688 1075.67 623.555 1081.51 616.508Z"/><path fill="#120D0B" d="M1041.35 597.484C1043.93 598.067 1044.82 598.552 1046.18 600.635C1046.64 603.182 1046.47 603.372 1045.66 605.928C1042.9 605.556 1042.56 605.274 1041.02 603.356C1040.45 600.723 1040.74 600.212 1041.35 597.484Z"/><path fill="#120D0B" d="M1067.45 584.152C1071.34 583.846 1074.5 583.728 1077.78 586.311C1075.69 586.89 1071.02 585.195 1066.52 586.055C1063 587.094 1062.76 588.073 1058.59 588.796L1059.36 588.551L1058.14 588.583L1058.14 588.58L1059.09 588.565L1059.26 587.692C1061.79 585.914 1064.53 585.16 1067.45 584.152Z"/><path fill="#120D0B" d="M1113.51 581.653L1114.81 581.999C1117.61 584.382 1118.26 588.176 1116.61 591.428L1115.97 590.549C1115.8 587.263 1115.67 586.453 1114.93 583.302C1110.22 584.229 1112.22 587.639 1109.46 589.801C1106.95 587.176 1111.47 583.341 1113.51 581.653Z"/><path fill="#120D0B" d="M1108.17 575.171C1112.63 574.935 1114.61 575.251 1116.2 579.787L1115.65 580.598L1114.63 580.296L1112.52 576.333L1109.5 576.895C1108.25 578.401 1107.69 579.31 1106.65 580.982L1106.01 580.646C1106.18 577.732 1106.31 577.424 1108.17 575.171Z"/><path fill="#E5E7EB" d="M839.15 222.26L849.288 224.355L849.125 260.197C849.082 265.113 848.528 277.054 849.49 281.032C851.667 290.034 866.177 303.19 872.335 309.619L906.953 345.358C930.494 369.341 947.014 364.066 978.245 364.368C978.796 368.799 979.194 370.006 980.714 374.252C977.971 374.431 975.224 374.546 972.476 374.598C914.65 375.748 910.265 365.289 871.648 323.343C865.26 316.405 842.595 295.514 841.502 287.742C838.605 267.136 839.457 243.362 839.15 222.26Z"/><path fill="#FBB6B0" d="M993.727 205.22C997.432 204.496 1001.04 203.327 1004.66 202.234C1004.4 249.072 1004.37 295.911 1004.58 342.75C1000.49 342.44 997.832 342.298 993.795 343.586L993.727 205.22Z"/><path fill="#F7AD46" d="M1126.19 558.24C1163.39 538.651 1210.79 511.601 1248.91 496.113C1237.69 506.516 1230.3 516.736 1216.16 522.768C1186.25 535.534 1156.89 555.433 1127.65 568.586C1127.14 565.14 1126.65 561.691 1126.19 558.24Z"/><path fill="#E5E7EB" d="M1178.47 329.261C1184.29 325.416 1201.2 309.266 1207.19 303.817L1255.66 260.157C1258.38 263.272 1260.01 265.225 1262.33 268.616C1242.39 284.55 1223.54 303.306 1204.06 319.906C1199.74 323.59 1193.34 328.503 1189.53 332.428C1185.83 331.095 1182.26 330.233 1178.47 329.261Z"/><path fill="#E5E7EB" d="M1224.76 364.271L1298.36 363.9L1298.49 374.359C1275.49 374.902 1252.08 373.663 1229.12 374.586C1228.04 371.376 1226.17 367.441 1224.76 364.271Z"/><path fill="#F87171" d="M1215.99 444.977C1237.93 444.796 1260.8 444.431 1282.66 445.097L1279.37 453.311L1211.49 453.362C1212.98 450.558 1214.48 447.763 1215.99 444.977Z"/></svg>