<?xml version="1.0" encoding="utf-8" ?><svg xmlns="http://www.w3.org/2000/svg" xmlns:xlink="http://www.w3.org/1999/xlink" width="1365" height="1024" viewBox="0 0 1365 1024"><path fill="#F87171" d="M0 0L1365 0L1365 580.008L1365 691.854L1365 1024L0 1024L0 971.253L0 960.715L0 668.576L0 571.483L0 0Z"/><path fill="white" d="M0 0L1365 0L1365 580.008C1363.26 577.605 1353.15 540.071 1351.02 532.926C1336.07 482.714 1309.06 435.853 1273.68 397.27C1263.34 385.987 1253.12 377.792 1241.94 367.824C1243.23 366.079 1244.55 364.037 1245.78 362.221L1247.69 358.8C1252.2 347.774 1253.36 333.877 1246.86 323.347L1245.51 320.832C1233.28 303.491 1216.03 295.572 1195.74 291.714C1195.75 285.654 1196.07 277.811 1194.98 272.064C1191.66 269.022 1192.39 269.408 1192.48 265.232C1179.94 264.6 1161.31 264.986 1148.55 265.428C1147.47 265.251 1146.38 265.045 1145.31 264.809C1133.74 262.218 1129.69 252.915 1132.46 241.904C1121.91 238.115 1111.05 231.218 1100.87 227.146C1068.58 214.238 1032.95 201.778 998.423 197.027C970.005 176.873 944.934 175.897 914.692 192.916C905.517 190.577 887.361 192.821 877.336 193.791C821.667 199.177 768.434 209.843 714.068 222.521C702.267 225.292 690.493 228.174 678.746 231.166C676.744 231.681 665.635 234.894 664.517 235.052C661.681 234.121 659.087 232.884 656.489 233.963C654.48 235.493 645.014 236.385 641.316 237.183C603.764 245.29 566.587 252.976 528.361 257.325C524.438 257.771 509.285 260.132 506.6 259.781C502.53 264.529 496.091 274.995 491.955 280.475C483.068 292.253 474.237 304.305 464.615 315.514C447.25 294.916 436.671 280.56 421.135 259.156C415.3 261.735 385.74 259.87 380.137 263.536C377.701 262.143 375.251 260.628 372.403 260.346C364.211 259.537 237.995 259.254 232.763 260.749C229.626 261.646 226.273 263.934 224.71 266.838C220.476 274.703 222.427 296.273 222.475 305.518L221.554 307.892C210.405 312.619 199.731 316.054 189.038 321.971C179.967 326.78 170.533 331.258 161.778 336.626C95.9902 376.957 41.8273 437.969 17.7108 512.045C12.6097 527.714 7.22736 542.421 4.20903 558.711C3.58566 562.075 2.16024 568.919 0 571.483L0 0Z"/><path fill="#9F9FA8" d="M421.135 259.156C406.559 236.331 390.925 209.659 397.566 181.677C402.006 162.969 412.042 148.72 428.212 138.49C443.768 128.787 462.554 125.704 480.394 129.925C498.376 134.186 514.392 145.221 524.014 161.163C545.209 196.281 525.348 229.34 506.6 259.781C502.53 264.529 496.091 274.995 491.955 280.475C483.068 292.253 474.237 304.305 464.615 315.514C447.25 294.916 436.671 280.56 421.135 259.156Z"/><path fill="#868693" d="M460.299 170.169C478.006 167.683 494.388 179.992 496.933 197.695C499.478 215.398 487.227 231.825 469.536 234.43C451.762 237.046 435.245 224.722 432.688 206.935C430.131 189.148 442.508 172.667 460.299 170.169Z"/><path fill="#FFFEFE" d="M459.779 174.36C469.807 172.548 480.032 176.285 486.529 184.138C493.026 191.99 494.785 202.737 491.129 212.251C487.474 221.766 478.973 228.569 468.891 230.049C453.655 232.285 439.441 221.887 436.954 206.687C434.467 191.486 444.626 177.099 459.779 174.36Z"/><path fill="#F87171" d="M1155.49 231.715C1163.95 231.166 1172.62 231.505 1181.1 231.626C1185.19 231.684 1190.64 232.261 1194.55 231.919C1204.44 232.637 1211.35 238.992 1210.28 249.426C1209.81 254.157 1207.45 258.498 1203.74 261.465C1200.17 264.354 1196.9 264.793 1192.48 265.232C1179.94 264.6 1161.31 264.986 1148.55 265.428C1147.47 265.251 1146.38 265.045 1145.31 264.809C1133.74 262.218 1129.69 252.915 1132.46 241.904C1138.1 231.269 1145.14 232.028 1155.49 231.715Z"/><path fill="#FFFEFE" d="M1147.11 234.907C1157.78 235.259 1192.81 233.094 1200.56 237.088C1203.38 238.542 1205.56 240.885 1206.5 243.945C1207.54 247.325 1207.05 251.671 1205.39 254.791C1203.45 258.44 1200.32 260.218 1196.48 261.339C1185.11 261.407 1149.7 263.505 1141.16 259.027C1138.27 257.509 1135.71 255.149 1134.81 251.919C1133.78 248.216 1135.14 243.809 1137.16 240.653C1139.48 237.036 1143.12 235.741 1147.11 234.907Z"/><path fill="#FEAAA5" d="M1158.53 192.245C1167.11 192.324 1175.69 192.345 1184.26 192.31C1184.75 205.398 1186.26 218.354 1186.76 231.331C1188.85 231.458 1192.62 231.576 1194.55 231.919C1190.64 232.261 1185.19 231.684 1181.1 231.626C1172.62 231.505 1163.95 231.166 1155.49 231.715C1156.79 218.582 1157.8 205.422 1158.53 192.245Z"/><path fill="#FCD34D" d="M733.265 8.24982C767.602 3.83057 804.412 30.0786 808.282 65.2633C809.302 74.2299 808.44 83.3106 805.752 91.9251C796.907 120.539 762.79 162.309 743.738 186.213C742.539 187.827 742.538 187.779 740.892 188.974C737.456 186.84 728.049 174.542 725.003 170.602C707.28 147.449 688.854 123.807 677.375 96.7833C659.439 54.5625 689.714 13.1545 733.265 8.24982Z"/><path fill="#FFFEFE" d="M727.677 53.5115C735.631 50.2083 744.117 50.0296 752.12 53.3521C759.677 56.5293 765.615 62.6469 768.568 70.2964C770.731 75.7643 771.224 81.7511 769.985 87.4995C768.533 91.9596 765.68 99.2939 761.74 102.161C759.14 102.83 757.995 103.195 755.241 103.267L749.733 106.33C750.946 107.15 752.007 108.01 753.397 108.42C743.865 112.428 734.88 113.532 725.72 107.794C723.801 107.23 721.873 105.59 720.206 104.376C717.154 101.777 714.199 97.9326 712.444 94.3314C708.93 87.1297 708.444 78.8207 711.095 71.2586C713.992 63.009 719.899 57.223 727.677 53.5115Z"/><path fill="#9F9FA8" d="M727.677 53.5115C729.612 53.6021 735.04 53.2522 736.111 53.7047C734.941 54.375 735.228 54.1186 733.638 54.1305L733.334 55.1538C724.988 58.6778 718.833 62.5015 715.163 71.3353C712.514 77.7318 712.555 84.9267 715.278 91.2923C717.06 95.4686 719.396 98.3562 722.592 101.48L720.206 104.376C717.154 101.777 714.199 97.9326 712.444 94.3314C708.93 87.1297 708.444 78.8207 711.095 71.2586C713.992 63.009 719.899 57.223 727.677 53.5115Z"/><path fill="#A49285" d="M727.677 53.5115C735.631 50.2083 744.117 50.0296 752.12 53.3521C759.677 56.5293 765.615 62.6469 768.568 70.2964C770.731 75.7643 771.224 81.7511 769.985 87.4995C767.763 82.7857 770.857 81.8598 767.177 77.0679C766.865 76.6169 766.91 76.7395 766.735 76.0801C763.487 63.816 755.091 55.3735 742.069 54.6566C739.241 54.5008 736.215 54.8723 733.334 55.1538L733.638 54.1305C735.228 54.1186 734.941 54.375 736.111 53.7047C735.04 53.2522 729.612 53.6021 727.677 53.5115Z"/><path fill="#9F9FA8" d="M767.177 77.0679C770.857 81.8598 767.763 82.7857 769.985 87.4995C768.533 91.9596 765.68 99.2939 761.74 102.161C759.14 102.83 757.995 103.195 755.241 103.267C764.585 95.3522 767.481 89.2894 767.177 77.0679Z"/><path fill="#A49285" d="M736.202 107.986C742.138 108.376 744.071 108.091 749.733 106.33C750.946 107.15 752.007 108.01 753.397 108.42C743.865 112.428 734.88 113.532 725.72 107.794C730.301 108.448 731.73 108.553 736.202 107.986Z"/><path fill="#A69288" d="M722.592 101.48C727.733 105.052 730.172 106.252 736.202 107.986C731.73 108.553 730.301 108.448 725.72 107.794C723.801 107.23 721.873 105.59 720.206 104.376L722.592 101.48Z"/><path fill="#A69288" d="M755.241 103.267C757.995 103.195 759.14 102.83 761.74 102.161C758.958 105.011 756.948 106.495 753.397 108.42C752.007 108.01 750.946 107.15 749.733 106.33L755.241 103.267Z"/><path fill="#FEAAA5" d="M1165.07 128.682L1177.86 128.715C1179.68 144.806 1179.04 161.99 1180.46 178.156C1180.6 179.747 1180.95 179.631 1182.08 180.457C1184.23 180.542 1185.44 180.392 1187.34 181.3C1188.03 183.493 1187.84 182.747 1187.33 185.235C1184.59 186.251 1180.2 185.847 1177.12 185.769C1172.14 185.787 1160.09 186.14 1155.82 185.172C1154.51 183.384 1154.83 184.355 1154.77 182.172C1156.14 181.358 1159.99 181.409 1161.37 179.858C1164.21 176.669 1163.31 168.36 1163.51 163.88C1164.11 152.151 1164.63 140.418 1165.07 128.682Z"/><path fill="#FEAAA5" d="M1168.88 45.2853C1171.32 45.1184 1171.58 45.0581 1173.93 45.5759C1174.62 47.7864 1174.24 56.6238 1174.21 59.3552L1173.93 92.1808C1173.89 97.3939 1173.56 106.655 1174.26 111.541C1175.61 112.932 1176.95 112.485 1179.41 112.581L1180.32 113.695C1180.98 117.103 1181 117.536 1180.62 120.984C1178.7 122.28 1177.85 121.839 1175.21 121.87C1170.49 121.876 1165.66 121.757 1160.93 121.691C1160.83 119.158 1160.33 116.107 1161.54 114.099C1163.49 112.74 1166.09 113.161 1168.63 113.199C1168.34 90.8183 1169.12 67.9494 1168.88 45.2853Z"/><path fill="#868693" d="M638.927 116.647C639.77 117.13 639.46 116.934 640.024 117.876C638.347 119.997 630.698 123.843 627.889 125.458C627.61 125.294 626.925 124.535 626.663 124.265L627.096 122.909C630.141 120.481 635.276 118.349 638.927 116.647Z"/><path fill="#9F9FA8" d="M602.977 205.774C606.014 206.459 613.675 214.322 615.329 216.82C610.621 217.134 603.841 210.304 602.977 205.774Z"/><path fill="#868693" d="M590.483 179.714C590.925 179.981 591.655 180.645 592.082 181.003C593.055 184.619 595.296 191.826 595.24 195.259C590.599 193.427 589.523 183.777 590.483 179.714Z"/><path fill="#868693" d="M613.639 131.215L614.551 132.641C614.002 133.973 606.999 140.917 605.06 143.218L603.979 141.308C604.664 137.719 610.654 133.599 613.639 131.215Z"/><path fill="#868693" d="M665.156 105.353C666.267 106.572 666.013 105.881 666.036 107.456C663.923 109.311 657.315 111.421 654.381 112.543L653.589 111.834L653.677 110.515C656.419 108.502 661.805 106.667 665.156 105.353Z"/><path fill="#868693" d="M595.934 152.287C596.715 152.692 596.799 152.88 597.466 153.483C597.133 155.678 593.855 163.524 592.789 167.603C591.868 167.106 592.089 167.152 591.362 166.293C591.143 161.84 594.035 156.395 595.934 152.287Z"/><path fill="#868693" d="M627.954 224.648C631.379 225.291 640.554 227.989 641.745 231.27C638.831 230.974 631.489 228.741 628.903 226.99C627.78 226.229 628.179 226.352 627.954 224.648Z"/><path fill="#F87171" d="M222.475 305.518C222.427 296.273 220.476 274.703 224.71 266.838C226.273 263.934 229.626 261.646 232.763 260.749C237.995 259.254 364.211 259.537 372.403 260.346C375.251 260.628 377.701 262.143 380.137 263.536C382.025 265.869 384.791 269.222 384.917 272.234C385.405 283.942 384.941 296.517 384.951 308.223L385.167 391.127L564.988 391.189L611.814 391.099C619.2 391.049 633.967 390.526 640.426 391.521C644.166 393.987 645.359 394.888 647.717 398.955C648.449 446.584 647.7 495.653 647.763 543.442C664.243 543.571 682.041 543.985 698.413 543.46L698.493 547.932C683.271 547.03 663.068 547.587 647.65 547.617L647.821 710.144L647.71 717.607C646.434 722.606 648.494 730.96 645.304 733.441L642.468 733.814C642.613 742.017 642.646 750.222 642.569 758.426C626.361 758.532 605.941 759.072 589.974 758.35L586.792 758.094C579.395 758.79 568.443 758.376 560.716 758.288C537.748 758.274 542.143 778.619 542.218 795.386L542.39 832.51C542.505 866.055 542.538 899.603 542.787 933.146C542.853 942.088 547.994 946.087 554.842 950.184C553.849 951.805 553.552 953.758 554.02 955.6C554.487 957.443 555.678 959.019 557.324 959.97C551.699 961.086 541.568 960.68 535.471 960.792C521.155 961.055 506.329 960.473 492.049 961.058C481.349 961.176 470.649 961.234 459.949 961.235C455.413 960.199 420.6 960.782 414.233 961.02C409.976 961.239 407.515 961.295 403.285 960.999L399.562 960.639C381.031 961.523 353.525 960.654 334.219 960.645L207.988 960.625L204.102 960.646L188.568 960.681C174.001 960.781 159.434 960.758 144.867 960.61L52.6781 960.595C38.8712 960.525 13.0231 959.564 0 960.715L0 668.576L0 571.483C2.16024 568.919 3.58566 562.075 4.20903 558.711C7.22736 542.421 12.6097 527.714 17.7108 512.045C41.8273 437.969 95.9902 376.957 161.778 336.626C170.533 331.258 179.967 326.78 189.038 321.971C199.731 316.054 210.405 312.619 221.554 307.892L222.475 305.518Z"/><path fill="#FFFEFE" d="M222.475 305.518C222.427 296.273 220.476 274.703 224.71 266.838C226.273 263.934 229.626 261.646 232.763 260.749C237.995 259.254 364.211 259.537 372.403 260.346C375.251 260.628 377.701 262.143 380.137 263.536C382.025 265.869 384.791 269.222 384.917 272.234C385.405 283.942 384.941 296.517 384.951 308.223L385.167 391.127L564.988 391.189L611.814 391.099C619.2 391.049 633.967 390.526 640.426 391.521C644.166 393.987 645.359 394.888 647.717 398.955C648.449 446.584 647.7 495.653 647.763 543.442C664.243 543.571 682.041 543.985 698.413 543.46L698.493 547.932C683.271 547.03 663.068 547.587 647.65 547.617L647.821 710.144L647.71 717.607C646.434 722.606 648.494 730.96 645.304 733.441L642.468 733.814C642.613 742.017 642.646 750.222 642.569 758.426C626.361 758.532 605.941 759.072 589.974 758.35L586.792 758.094C579.395 758.79 568.443 758.376 560.716 758.288L560.662 602.622L560.559 552.569C560.527 544.234 561.019 516.68 558.058 510.32C559.456 508.49 559.658 507.669 560.524 505.492C544.681 513.94 535.676 517.368 518.155 522.533C501.096 527.236 480.821 531.145 463.154 532.315C461.326 532.455 459.394 532.644 457.57 532.695C433.4 533.276 409.223 533.484 385.046 533.319L380.591 533.354L226.462 533.324L222.41 533.349C222.945 504.541 222.413 474.63 222.299 445.727L222.475 305.518Z"/><path fill="#FFFEFE" d="M566.018 395.355L609.984 395.311C616.316 395.304 637.833 394.22 641.86 397.927C643.957 406.225 643.418 425.726 643.441 435.269L643.321 496.999L643.356 709.924L647.821 710.144L647.71 717.607C646.434 722.606 648.494 730.96 645.304 733.441L642.468 733.814C642.613 742.017 642.646 750.222 642.569 758.426C626.361 758.532 605.941 759.072 589.974 758.35L586.792 758.094C579.395 758.79 568.443 758.376 560.716 758.288L560.662 602.622L560.559 552.569C560.527 544.234 561.019 516.68 558.058 510.32C559.456 508.49 559.658 507.669 560.524 505.492L560.717 428.801C560.773 419.454 560.175 405.654 560.786 396.828C562.002 395.613 564.19 395.602 566.018 395.355Z"/><path fill="white" d="M590.443 717.741C607.758 717.557 625.074 717.462 642.39 717.455C642.389 722.908 642.415 728.361 642.468 733.814C642.613 742.017 642.646 750.222 642.569 758.426C626.361 758.532 605.941 759.072 589.974 758.35C589.945 752.493 589.603 742.067 590.283 736.625C590.657 731.371 590.435 723.204 590.443 717.741Z"/><path fill="#4D5475" d="M643.356 709.924L647.821 710.144L647.71 717.607C646.434 722.606 648.494 730.96 645.304 733.441L642.468 733.814C642.415 728.361 642.389 722.908 642.39 717.455C625.074 717.462 607.758 717.557 590.443 717.741C590.435 723.204 590.657 731.371 590.283 736.625C588.512 735.697 588.377 735.757 586.318 735.758C584.906 732.845 585.431 714.836 585.326 709.941C604.232 709.604 624.35 709.966 643.356 709.924Z"/><path fill="#64748B" d="M586.318 735.758C588.377 735.757 588.512 735.697 590.283 736.625C589.603 742.067 589.945 752.493 589.974 758.35L586.792 758.094C586.905 753.411 587.519 739.695 586.318 735.758Z"/><path fill="#E5E7EB" d="M601.459 486.447C612.856 484.405 623.76 491.962 625.852 503.352C627.945 514.743 620.439 525.682 609.061 527.827C597.61 529.984 586.588 522.419 584.483 510.956C582.377 499.493 589.99 488.502 601.459 486.447Z"/><path fill="#E5E7EB" d="M600.386 543.12C611.617 540.422 622.91 547.331 625.625 558.56C628.34 569.789 621.451 581.096 610.229 583.83C598.981 586.57 587.646 579.66 584.925 568.405C582.203 557.151 589.13 545.823 600.386 543.12Z"/><path fill="#E5E7EB" d="M603.147 657.678C614.649 656.646 624.806 665.143 625.827 676.648C626.847 688.154 618.344 698.306 606.84 699.316C595.351 700.325 585.217 691.833 584.198 680.342C583.179 668.851 591.66 658.708 603.147 657.678Z"/><path fill="#E5E7EB" d="M600.469 429.462C611.772 426.879 623.014 434.001 625.51 445.326C628.007 456.651 620.8 467.841 609.459 470.251C598.24 472.635 587.199 465.522 584.73 454.319C582.261 443.116 589.288 432.018 600.469 429.462Z"/><path fill="#E5E7EB" d="M599.279 600.839C606.51 598.772 614.294 600.756 619.654 606.032C625.014 611.309 627.122 619.062 625.171 626.327C623.219 633.592 617.511 639.245 610.229 641.124C599.17 643.978 587.872 637.411 584.876 626.387C581.879 615.364 588.298 603.979 599.279 600.839Z"/><path fill="#FFFEFE" d="M323.124 409.243C341.908 409.83 362.329 409.429 381.232 409.413L381.235 420.917L381.144 427.08C381.311 443.033 381.338 458.988 381.223 474.942L381.149 488.424C381.212 493.857 381.847 529.687 380.724 532.643L380.591 533.354L226.462 533.324L226.348 527.255L226.368 515.732L226.351 475.166L226.374 463.506C226.269 449.381 226.27 435.256 226.376 421.131L226.452 409.363L261.635 409.487C267.428 409.52 276.626 409.846 282.186 409.404C294.375 408.718 310.695 409.156 323.124 409.243Z"/><path fill="#E5E7EB" d="M323.165 475.387C340.489 474.63 363.499 474.8 381.223 474.942L381.149 488.424C381.212 493.857 381.847 529.687 380.724 532.643L380.591 533.354L226.462 533.324L226.348 527.255L226.368 515.732L226.351 475.166C239.413 474.546 269.09 474.451 282.031 475.271C294.694 475.321 310.292 475.754 322.744 475.25L323.165 475.387Z"/><path fill="#FFFEFE" d="M323.165 475.387C340.489 474.63 363.499 474.8 381.223 474.942L381.149 488.424C380.185 496.014 380.494 508.059 380.518 516.012C362.59 515.993 340.718 516.596 323.138 515.903C322.625 504.615 322.611 486.616 323.165 475.387Z"/><path fill="#FFFEFE" d="M226.351 475.166C239.413 474.546 269.09 474.451 282.031 475.271C282.228 484.93 282.73 506.813 281.803 515.909C265.027 516.515 243.555 515.753 226.368 515.732L226.351 475.166Z"/><path fill="white" d="M282.031 475.271C294.694 475.321 310.292 475.754 322.744 475.25L323.165 475.387C322.611 486.616 322.625 504.615 323.138 515.903L322.729 516.035C310.559 515.43 294.598 515.87 282.264 516.011L281.803 515.909C282.73 506.813 282.228 484.93 282.031 475.271Z"/><path fill="#FFFEFE" d="M226.348 527.255C244.76 527.263 263.942 526.995 282.293 527.393L283.094 527.432C288.256 528.423 303.359 528.093 309.553 528.064L359.891 527.706C364.125 527.683 376.523 527.355 380.026 528.154C380.708 530.156 380.652 530.489 380.724 532.643L380.591 533.354L226.462 533.324L226.348 527.255Z"/><path fill="#FFFEFE" d="M226.376 421.131L262.746 421.209C267.965 421.216 277.207 420.97 282.103 421.433C282.298 433.749 282.559 450.978 282.076 463.29C279.441 463.475 276.403 463.417 273.725 463.402C257.985 463.315 242.098 463.933 226.374 463.506C226.269 449.381 226.27 435.256 226.376 421.131Z"/><path fill="#E5E7EB" d="M323.124 409.243C341.908 409.83 362.329 409.429 381.232 409.413L381.235 420.917C367.269 420.542 336.345 420.297 323.039 421.4C311.192 421.958 294.042 421.805 282.103 421.433C277.207 420.97 267.965 421.216 262.746 421.209L226.376 421.131L226.452 409.363L261.635 409.487C267.428 409.52 276.626 409.846 282.186 409.404C294.375 408.718 310.695 409.156 323.124 409.243Z"/><path fill="#E5E7EB" d="M380.526 463.699C380.518 454.994 380.081 434.575 381.144 427.08C381.311 443.033 381.338 458.988 381.223 474.942C363.499 474.8 340.489 474.63 323.165 475.387L322.744 475.25C310.292 475.754 294.694 475.321 282.031 475.271C269.09 474.451 239.413 474.546 226.351 475.166L226.374 463.506C242.098 463.933 257.985 463.315 273.725 463.402C276.403 463.417 279.441 463.475 282.076 463.29C294.582 463.232 310.923 462.779 323.089 463.487C325.803 464.034 335.464 463.953 338.456 463.971C352.498 464.054 366.467 463.288 380.526 463.699Z"/><path fill="white" d="M282.103 421.433C294.042 421.805 311.192 421.958 323.039 421.4C323.136 435.429 323.153 449.458 323.089 463.487C310.923 462.779 294.582 463.232 282.076 463.29C282.559 450.978 282.298 433.749 282.103 421.433Z"/><path fill="#FFFEFE" d="M459.081 395.445L460.762 395.354C477.01 395.365 495.3 394.949 511.375 395.464C528.933 395.114 548.437 395.12 566.018 395.355C564.19 395.602 562.002 395.613 560.786 396.828C560.175 405.654 560.773 419.454 560.717 428.801L560.524 505.492C544.681 513.94 535.676 517.368 518.155 522.533C501.096 527.236 480.821 531.145 463.154 532.315C461.326 532.455 459.394 532.644 457.57 532.695C458.78 532.009 458.543 532.092 459.562 531.084C460.025 496.789 458.596 462.149 459.226 427.795C459.42 417.187 459.394 406.018 459.081 395.445Z"/><path fill="white" d="M511.375 395.464C528.933 395.114 548.437 395.12 566.018 395.355C564.19 395.602 562.002 395.613 560.786 396.828C560.175 405.654 560.773 419.454 560.717 428.801L560.524 505.492C544.681 513.94 535.676 517.368 518.155 522.533C516.602 507.978 518.496 400.136 516.809 396.707C516.488 396.056 512.937 396.173 511.923 395.757C511.731 395.679 511.557 395.562 511.375 395.464Z"/><path fill="#E5E7EB" d="M459.081 395.445L460.762 395.354C460.282 405.262 460.607 416.657 460.615 426.682L460.586 482.817L460.483 514.58C460.471 518.22 460.223 528.209 460.75 531.314C461.953 531.925 461.865 531.935 463.154 532.315C461.326 532.455 459.394 532.644 457.57 532.695C458.78 532.009 458.543 532.092 459.562 531.084C460.025 496.789 458.596 462.149 459.226 427.795C459.42 417.187 459.394 406.018 459.081 395.445Z"/><path fill="#FFFEFE" d="M384.978 395.31C409.679 395.23 434.38 395.274 459.081 395.445C459.394 406.018 459.42 417.187 459.226 427.795C458.596 462.149 460.025 496.789 459.562 531.084C458.543 532.092 458.78 532.009 457.57 532.695C433.4 533.276 409.223 533.484 385.046 533.319C385.322 487.316 385.3 441.312 384.978 395.31Z"/><path fill="#9F9FA8" d="M222.475 305.518C222.427 296.273 220.476 274.703 224.71 266.838C226.273 263.934 229.626 261.646 232.763 260.749C237.995 259.254 364.211 259.537 372.403 260.346C375.251 260.628 377.701 262.143 380.137 263.536C382.025 265.869 384.791 269.222 384.917 272.234C385.405 283.942 384.941 296.517 384.951 308.223L385.167 391.127L564.988 391.189L611.814 391.099C619.2 391.049 633.967 390.526 640.426 391.521C644.166 393.987 645.359 394.888 647.717 398.955C648.449 446.584 647.7 495.653 647.763 543.442C664.243 543.571 682.041 543.985 698.413 543.46L698.493 547.932C683.271 547.03 663.068 547.587 647.65 547.617L647.821 710.144L643.356 709.924L643.321 496.999L643.441 435.269C643.418 425.726 643.957 406.225 641.86 397.927C637.833 394.22 616.316 395.304 609.984 395.311L566.018 395.355C548.437 395.12 528.933 395.114 511.375 395.464C495.3 394.949 477.01 395.365 460.762 395.354L459.081 395.445C434.38 395.274 409.679 395.23 384.978 395.31C385.3 441.312 385.322 487.316 385.046 533.319L380.591 533.354L380.724 532.643C381.847 529.687 381.212 493.857 381.149 488.424L381.223 474.942C381.338 458.988 381.311 443.033 381.144 427.08L381.235 420.917L381.232 409.413L381.233 365.126L381.278 304.012C381.282 296.98 381.644 279.431 380.731 272.976C379.319 260.047 349.517 263.982 340.297 264.139C330.057 263.646 316.071 264.072 305.58 264.068L240.885 264.15C234.211 263.963 227.769 264.806 226.99 273.064C226.136 282.121 226.489 291.596 226.494 300.719L226.533 353.326L226.511 365.061L226.452 409.363L226.376 421.131C226.27 435.256 226.269 449.381 226.374 463.506L226.351 475.166L226.368 515.732L226.348 527.255L226.462 533.324L222.41 533.349C222.945 504.541 222.413 474.63 222.299 445.727L222.475 305.518Z"/><path fill="#FFFEFE" d="M226.533 353.326L226.494 300.719C226.489 291.596 226.136 282.121 226.99 273.064C227.769 264.806 234.211 263.963 240.885 264.15C246.26 265.546 274.823 264.822 282.061 264.837L282.451 353.331C268.411 354.342 241.42 353.38 226.533 353.326Z"/><path fill="#FFFEFE" d="M226.511 365.061C242.764 365.137 266.599 364.454 282.055 365.352L282.488 365.234C292.248 365.61 313.2 365.804 323.124 365.282L323.124 409.243C310.695 409.156 294.375 408.718 282.186 409.404C276.626 409.846 267.428 409.52 261.635 409.487L226.452 409.363L226.511 365.061Z"/><path fill="white" d="M282.488 365.234C292.248 365.61 313.2 365.804 323.124 365.282L323.124 409.243C310.695 409.156 294.375 408.718 282.186 409.404C282.454 401.939 283.027 371.743 282.055 365.352L282.488 365.234Z"/><path fill="white" d="M240.885 264.15L305.58 264.068C316.071 264.072 330.057 263.646 340.297 264.139C336.024 265.114 327.64 264.826 322.959 264.828C324.072 293.4 322.93 324.538 323.323 353.39C310.232 353.109 296.102 353.379 282.925 353.376L282.451 353.331L282.061 264.837C274.823 264.822 246.26 265.546 240.885 264.15Z"/><path fill="#FFFEFE" d="M323.124 365.282L363.215 364.959C366.859 364.928 378.447 364.416 381.233 365.126L381.232 409.413C362.329 409.429 341.908 409.83 323.124 409.243L323.124 365.282Z"/><path fill="#E5E7EB" d="M380.731 272.976C381.644 279.431 381.282 296.98 381.278 304.012L381.233 365.126C378.447 364.416 366.859 364.928 363.215 364.959L323.124 365.282C313.2 365.804 292.248 365.61 282.488 365.234L282.055 365.352C266.599 364.454 242.764 365.137 226.511 365.061L226.533 353.326C241.42 353.38 268.411 354.342 282.451 353.331L282.925 353.376C296.102 353.379 310.232 353.109 323.323 353.39C342.07 353.738 361.778 353.483 380.599 353.52C380.549 328.827 379.548 296.976 380.731 272.976Z"/><path fill="white" d="M0 571.483C2.16024 568.919 3.58566 562.075 4.20903 558.711C7.22736 542.421 12.6097 527.714 17.7108 512.045C41.8273 437.969 95.9902 376.957 161.778 336.626C170.533 331.258 179.967 326.78 189.038 321.971C199.731 316.054 210.405 312.619 221.554 307.892L222.475 305.518L222.299 445.727C222.413 474.63 222.945 504.541 222.41 533.349C157.651 533.318 104.006 536.61 45.1147 504.593C46.6395 508.122 51.4488 516.185 53.518 519.85C64.1342 539.225 76.8232 560.688 88.2616 579.587C102.642 579.681 125.931 580.505 139.925 579.472C139.672 593.496 144.861 593.623 157.222 593.441C157.861 610.192 155.856 632.85 155.22 650.001L100.067 649.849C102.649 656.626 107.337 665.307 110.708 671.961C125.536 671.864 140.363 671.846 155.191 671.907C153.394 708.455 152.454 745.665 151.149 782.266C149.954 815.76 148.1 850.534 147.714 883.992C147.134 893.714 147.405 916.569 146.048 924.712C146.143 935.562 145.574 949.683 144.867 960.61L52.6781 960.595C38.8712 960.525 13.0231 959.564 0 960.715L0 668.576L0 571.483Z"/><path fill="#FFFEFE" d="M0 668.576C2.65984 671.139 4.19497 681.842 5.14227 686.127C10.0007 708.107 15.9579 730.408 24.2034 751.419C44.1307 802.195 74.5882 848.909 114.538 886.184C123.174 894.251 136.092 906.56 145.971 912.778C145.837 916.516 145.513 921.091 146.048 924.712C146.143 935.562 145.574 949.683 144.867 960.61L52.6781 960.595C38.8712 960.525 13.0231 959.564 0 960.715L0 668.576Z"/><path fill="#E5E7EB" d="M180.056 671.907L222.505 671.819L225.948 672.041L225.92 690.496L282.116 690.627L282.563 690.722C295.52 690.263 310.058 690.445 323.086 690.661C341.888 691.119 362.161 690.766 381.082 690.796C381.037 685.9 381.053 681.915 381.365 676.991L381.387 671.942L385.387 672.061C385.303 757.384 384.361 845.093 385.533 930.173C390.947 930.085 397.974 929.159 402.205 932.295C405.025 936.228 403.196 955.142 403.285 960.999L399.562 960.639C381.031 961.523 353.525 960.654 334.219 960.645L207.988 960.625L204.102 960.646L188.568 960.681C174.001 960.781 159.434 960.758 144.867 960.61C145.574 949.683 146.143 935.562 146.048 924.712C147.405 916.569 147.134 893.714 147.714 883.992C159.764 884.135 174.07 884.566 186.049 884.112C184.899 813.887 181.853 742.314 180.056 671.907Z"/><path fill="white" d="M180.056 671.907L222.505 671.819L222.384 930.082C215.752 929.93 202.814 927.825 203.653 937.814C204.291 945.414 204.259 953.027 204.102 960.646L188.568 960.681C174.001 960.781 159.434 960.758 144.867 960.61C145.574 949.683 146.143 935.562 146.048 924.712C147.405 916.569 147.134 893.714 147.714 883.992C159.764 884.135 174.07 884.566 186.049 884.112C184.899 813.887 181.853 742.314 180.056 671.907Z"/><path fill="#F87171" d="M146.048 924.712C147.405 916.569 147.134 893.714 147.714 883.992C159.764 884.135 174.07 884.566 186.049 884.112L186.179 888.847C187.675 910.387 188.35 938.955 188.568 960.681C174.001 960.781 159.434 960.758 144.867 960.61C145.574 949.683 146.143 935.562 146.048 924.712Z"/><path fill="#C35C57" d="M147.714 883.992C159.764 884.135 174.07 884.566 186.049 884.112L186.179 888.847C174.977 888.515 159.454 889.769 149.072 888.721C147.799 887.597 148.007 886.077 147.714 883.992Z"/><path fill="#FFFEFE" d="M323.145 862.702C342.429 862.418 361.916 862.812 381.143 862.14L381.024 907.699C381.016 911.582 380.774 926.721 381.41 930.179L322.72 930.193L282.665 930.051L282.529 862.735C292.564 863.087 312.943 863.222 323.145 862.702Z"/><path fill="white" d="M282.529 862.735C292.564 863.087 312.943 863.222 323.145 862.702L323.11 901.614C323.164 908.225 323.519 924.5 322.72 930.193L282.665 930.051L282.529 862.735Z"/><path fill="#E5E7EB" d="M208.021 933.722C271.904 933.488 335.788 933.593 399.67 934.037C399.677 942.756 399.835 951.961 399.562 960.639C381.031 961.523 353.525 960.654 334.219 960.645L207.988 960.625L208.021 933.722Z"/><path fill="#FFFEFE" d="M226.757 862.653C244.955 862.606 264.43 862.215 282.529 862.735L282.665 930.051L225.98 930.201L226.086 915.706C227.145 911.633 226.754 868.876 226.757 862.653Z"/><path fill="#9F9FA8" d="M222.505 671.819L225.948 672.041L225.92 690.496L225.889 701.989L225.952 741.409L226.115 853.797C226.081 872.595 225.172 897.4 226.086 915.706L225.98 930.201L282.665 930.051L322.72 930.193L381.41 930.179C381.977 927.78 381.866 914.733 381.867 911.493L381.847 871.887C381.925 815.771 382.464 758.29 381.786 702.243C381.776 694.621 382.035 684.374 381.365 676.991L381.387 671.942L385.387 672.061C385.303 757.384 384.361 845.093 385.533 930.173C390.947 930.085 397.974 929.159 402.205 932.295C405.025 936.228 403.196 955.142 403.285 960.999L399.562 960.639C399.835 951.961 399.677 942.756 399.67 934.037C335.788 933.593 271.904 933.488 208.021 933.722L207.988 960.625L204.102 960.646C204.259 953.027 204.291 945.414 203.653 937.814C202.814 927.825 215.752 929.93 222.384 930.082L222.505 671.819Z"/><path fill="#FFFEFE" d="M322.935 701.998L361.754 701.892C366.457 701.891 376.754 701.607 381.12 702.063L381.11 742.731C364.643 742.776 338.657 743.597 323.136 742.596C322.957 729.421 322.574 715.091 322.935 701.998Z"/><path fill="#FFFEFE" d="M225.889 701.989C244.685 701.884 263.481 701.883 282.277 701.985C283.216 711.255 282.644 732.215 282.615 742.309C282.26 742.36 281.905 742.411 281.55 742.463C263.52 742.451 245.243 743.039 227.242 742.42C226.812 742.083 226.382 741.746 225.952 741.409L225.889 701.989Z"/><path fill="white" d="M282.277 701.985L282.758 701.869C294.685 702.407 310.895 702.327 322.935 701.998C322.574 715.091 322.957 729.421 323.136 742.596C318.352 741.738 288.397 741.961 282.615 742.309C282.644 732.215 283.216 711.255 282.277 701.985Z"/><path fill="#FFFEFE" d="M282.548 808.427C289.867 809.506 317.069 808.811 324.457 807.956C343.39 808.213 362.325 808.217 381.258 807.969L381.259 851.428C368.553 851.187 355.844 851.067 343.135 851.067C338.81 851.056 326.405 851.315 323.087 850.71C316.795 849.877 290.051 850.543 282.506 850.599L282.548 808.427Z"/><path fill="white" d="M282.548 808.427C289.867 809.506 317.069 808.811 324.457 807.956C324.105 808.405 323.754 808.853 323.403 809.302C322.903 821.216 323.137 839.398 323.087 850.71C316.795 849.877 290.051 850.543 282.506 850.599L282.548 808.427Z"/><path fill="#FFFEFE" d="M226.643 754.07C233.056 753.364 239.817 754.189 246.139 753.787C270.619 752.234 299.25 757.147 323.261 754.693C323.285 768.2 323.516 782.488 323.109 795.922C312.57 795.464 293.036 795.666 282.613 796.032C265.599 796.767 244.058 796.133 226.789 796.12C226.656 782.104 226.607 768.087 226.643 754.07Z"/><path fill="white" d="M226.643 754.07C233.056 753.364 239.817 754.189 246.139 753.787C270.619 752.234 299.25 757.147 323.261 754.693C323.285 768.2 323.516 782.488 323.109 795.922C312.57 795.464 293.036 795.666 282.613 796.032L282.569 754.638C266.418 754.119 241.935 755.563 226.643 754.07Z"/><path fill="#FFFEFE" d="M323.261 754.693C342.777 753.778 361.7 754.536 381.116 754.104L381.144 796.165C364.027 796.129 339.607 796.869 323.109 795.922C323.516 782.488 323.285 768.2 323.261 754.693Z"/><path fill="#FFFEFE" d="M226.786 808.096C241.335 808.352 269.564 807.031 282.548 808.427L282.506 850.599C266.091 851.371 243.69 850.626 226.812 850.588L226.786 808.096Z"/><path fill="#FFFEFE" d="M551.05 520.719C552.099 519.643 556.938 512.012 558.058 510.32C561.019 516.68 560.527 544.234 560.559 552.569L560.662 602.622L560.716 758.288C537.748 758.274 542.143 778.619 542.218 795.386L542.39 832.51C542.505 866.055 542.538 899.603 542.787 933.146C542.853 942.088 547.994 946.087 554.842 950.184C553.849 951.805 553.552 953.758 554.02 955.6C554.487 957.443 555.678 959.019 557.324 959.97C551.699 961.086 541.568 960.68 535.471 960.792C521.155 961.055 506.329 960.473 492.049 961.058C481.349 961.176 470.649 961.234 459.949 961.235C459.67 922.724 457.425 881.805 455.925 843.293L450.485 671.895C462.979 671.855 475.473 671.896 487.966 672.016C492.938 664.711 498.045 657.387 502.586 649.814C485.17 650.08 467.28 649.878 449.827 649.884C449.024 630.953 448.641 612.007 448.68 593.059L451.042 593.174C462.514 593.659 466.973 591.647 466.509 579.598L474.716 579.605L517.095 579.632C527.863 559.784 540.039 541.106 551.05 520.719Z"/><path fill="white" d="M551.05 520.719C552.099 519.643 556.938 512.012 558.058 510.32C561.019 516.68 560.527 544.234 560.559 552.569L560.662 602.622L560.716 758.288C537.748 758.274 542.143 778.619 542.218 795.386L542.39 832.51C542.505 866.055 542.538 899.603 542.787 933.146C542.853 942.088 547.994 946.087 554.842 950.184C553.849 951.805 553.552 953.758 554.02 955.6C554.487 957.443 555.678 959.019 557.324 959.97C551.699 961.086 541.568 960.68 535.471 960.792C521.155 961.055 506.329 960.473 492.049 961.058C493.783 959.859 514.022 960.386 517.626 960.408L517.392 580.242C512.67 580.261 476.856 580.844 474.716 579.605L517.095 579.632C527.863 559.784 540.039 541.106 551.05 520.719Z"/><path fill="#F87171" d="M45.1147 504.593C104.006 536.61 157.651 533.318 222.41 533.349L226.462 533.324L380.591 533.354L385.046 533.319C409.223 533.484 433.4 533.276 457.57 532.695C459.394 532.644 461.326 532.455 463.154 532.315C480.821 531.145 501.096 527.236 518.155 522.533C535.676 517.368 544.681 513.94 560.524 505.492C559.658 507.669 559.456 508.49 558.058 510.32C556.938 512.012 552.099 519.643 551.05 520.719C540.039 541.106 527.863 559.784 517.095 579.632L474.716 579.605L466.509 579.598C466.973 591.647 462.514 593.659 451.042 593.174L448.68 593.059C441.083 593.069 433.485 593.123 425.888 593.221C413.075 593.523 405.779 595.147 405.775 579.653C400.91 580.129 391.004 579.924 385.759 579.967L381.806 579.885C381.829 588.692 381.611 598.691 381.903 607.392C381.446 608.687 381.458 608.595 380.479 609.576C374.449 610.553 340.967 609.939 332.456 609.908C332.514 605.857 332.589 602.798 332.174 598.778C330.117 593.007 328.282 592.298 322.698 590.679L307.598 590.582C307.431 587.511 307.51 583.634 307.485 580.494L298.05 580.124C294.895 579.779 285.806 579.913 282.22 579.885C263.702 579.774 245.184 579.796 226.667 579.951L225.99 579.931L222.478 579.645C214.085 579.765 205.691 579.69 197.303 579.418C198.738 593.851 191.255 593.816 179.438 593.46C172.289 593.249 164.425 593.424 157.222 593.441C144.861 593.623 139.672 593.496 139.925 579.472C125.931 580.505 102.642 579.681 88.2616 579.587C76.8232 560.688 64.1342 539.225 53.518 519.85C51.4488 516.185 46.6395 508.122 45.1147 504.593Z"/><path fill="#4D5475" d="M45.1147 504.593C104.006 536.61 157.651 533.318 222.41 533.349L226.462 533.324L380.591 533.354L385.046 533.319C409.223 533.484 433.4 533.276 457.57 532.695C459.394 532.644 461.326 532.455 463.154 532.315C480.821 531.145 501.096 527.236 518.155 522.533C535.676 517.368 544.681 513.94 560.524 505.492C559.658 507.669 559.456 508.49 558.058 510.32C556.938 512.012 552.099 519.643 551.05 520.719C527.258 530.865 502.109 537.473 476.403 540.331C449.807 543.313 423.917 542.389 397.236 542.269L304.256 542.237L201.65 542.571C140.798 542.618 111.063 542.516 53.518 519.85C51.4488 516.185 46.6395 508.122 45.1147 504.593Z"/><path fill="#FFFEFE" d="M327.621 580.078C345.131 580.005 364.529 580.44 381.806 579.885C381.829 588.692 381.611 598.691 381.903 607.392C381.446 608.687 381.458 608.595 380.479 609.576C374.449 610.553 340.967 609.939 332.456 609.908C332.514 605.857 332.589 602.798 332.174 598.778C330.117 593.007 328.282 592.298 322.698 590.679C322.499 587.66 322.067 584.939 322.878 582.067C324.782 580.079 324.313 580.7 327.621 580.078Z"/><path fill="#BD5456" d="M405.775 579.653C415.196 578.984 428.664 579.417 438.443 579.408C446.173 579.4 459.06 579.087 466.509 579.598C466.973 591.647 462.514 593.659 451.042 593.174L448.68 593.059C441.083 593.069 433.485 593.123 425.888 593.221C413.075 593.523 405.779 595.147 405.775 579.653Z"/><path fill="#BD5456" d="M139.925 579.472C155.823 578.77 172.099 579.551 188.031 579.27C191.038 579.216 194.316 579.218 197.303 579.418C198.738 593.851 191.255 593.816 179.438 593.46C172.289 593.249 164.425 593.424 157.222 593.441C144.861 593.623 139.672 593.496 139.925 579.472Z"/><path fill="#E5E7EB" d="M307.695 580.077L327.621 580.078C324.313 580.7 324.782 580.079 322.878 582.067C322.067 584.939 322.499 587.66 322.698 590.679L307.598 590.582L307.695 580.077Z"/><path fill="#FFFEFE" d="M226.667 579.951C245.184 579.796 263.702 579.774 282.22 579.885C285.806 579.913 294.895 579.779 298.05 580.124L307.485 580.494C307.51 583.634 307.431 587.511 307.598 590.582L322.698 590.679C328.282 592.298 330.117 593.007 332.174 598.778C332.589 602.798 332.514 605.857 332.456 609.908C340.967 609.939 374.449 610.553 380.479 609.576C381.458 608.595 381.446 608.687 381.903 607.392C381.824 614.469 382.092 630.657 381.345 636.901C381.375 641.211 381.379 645.521 381.359 649.832C365.84 649.267 349.966 649.977 334.439 649.82C298.644 649.456 261.676 650.689 225.953 650.032L226.01 626.959L225.99 579.931L226.667 579.951Z"/><path fill="#4D5475" d="M282.22 579.885C285.806 579.913 294.895 579.779 298.05 580.124L307.485 580.494C307.51 583.634 307.431 587.511 307.598 590.582L322.698 590.679C328.282 592.298 330.117 593.007 332.174 598.778C331.77 604.14 331.44 637.009 332.207 641.942C328.584 650.114 319.11 650.233 311.216 649.154C298.58 647.428 279.776 654.333 274.185 641.142C274.948 636.627 274.639 603.845 274.123 598.8C276.441 593.773 277.841 592.677 282.643 590.664L282.22 579.885Z"/><path fill="#E5E7EB" d="M282.22 579.885C285.806 579.913 294.895 579.779 298.05 580.124L298.085 590.647L282.643 590.664L282.22 579.885Z"/><path fill="#FFFEFE" d="M282.219 596.723C287.305 596.543 326.655 594.024 326.033 600.595C325.374 607.548 327.74 637.987 324.456 642.793C317.015 642.829 286.181 643.592 281.17 641.742C279.312 637.174 280.195 626.117 280.349 620.906C280.537 614.586 278.386 601.344 282.219 596.723Z"/><path fill="#FFFEFE" d="M226.667 579.951C245.184 579.796 263.702 579.774 282.22 579.885L282.643 590.664C277.841 592.677 276.441 593.773 274.123 598.8C274.639 603.845 274.948 636.627 274.185 641.142C273.5 637.286 273.761 625.627 273.769 621.13C261.741 621.454 238.105 620.358 227.476 621.563C226.135 623.198 226.346 624.59 226.01 626.959L225.99 579.931L226.667 579.951Z"/><path fill="#E5E7EB" d="M225.99 579.931L226.667 579.951L226.749 609.996L273.744 610.058C273.739 606.978 273.557 601.601 274.123 598.8C274.639 603.845 274.948 636.627 274.185 641.142C273.5 637.286 273.761 625.627 273.769 621.13C261.741 621.454 238.105 620.358 227.476 621.563C226.135 623.198 226.346 624.59 226.01 626.959L225.99 579.931Z"/><path fill="#E5E7EB" d="M332.174 598.778C332.589 602.798 332.514 605.857 332.456 609.908C340.967 609.939 374.449 610.553 380.479 609.576C381.458 608.595 381.446 608.687 381.903 607.392C381.824 614.469 382.092 630.657 381.345 636.901C380.953 631.403 381.015 626.607 381.06 621.112L332.296 621.268C332.403 625.515 333.015 638.585 332.207 641.942C331.44 637.009 331.77 604.14 332.174 598.778Z"/><path fill="#FFFEFE" d="M385.387 672.061C397.997 671.938 410.608 671.891 423.22 671.92C423.224 697.198 421.724 725.184 420.831 750.669L416.528 883.586L416.538 888.527C415.647 912.687 414.879 936.852 414.233 961.02C409.976 961.239 407.515 961.295 403.285 960.999C403.196 955.142 405.025 936.228 402.205 932.295C397.974 929.159 390.947 930.085 385.533 930.173C384.361 845.093 385.303 757.384 385.387 672.061Z"/><path fill="white" d="M197.303 579.418C205.691 579.69 214.085 579.765 222.478 579.645L225.99 579.931L226.01 626.959L225.953 650.032L222.515 650.134C208.957 649.593 193.31 649.963 179.593 649.987C179.313 632.154 178.91 611.215 179.438 593.46C191.255 593.816 198.738 593.851 197.303 579.418Z"/><path fill="#9F9FA8" d="M222.478 579.645L225.99 579.931L226.01 626.959L225.953 650.032L222.515 650.134L222.478 579.645Z"/><path fill="#FFFEFE" d="M385.759 579.967C391.004 579.924 400.91 580.129 405.775 579.653C405.779 595.147 413.075 593.523 425.888 593.221C425.445 610.5 425.504 632.954 424.065 649.859C411.563 649.869 398.095 649.617 385.677 649.912L381.359 649.832C381.379 645.521 381.375 641.211 381.345 636.901C382.092 630.657 381.824 614.469 381.903 607.392C381.611 598.691 381.829 588.692 381.806 579.885L385.759 579.967Z"/><path fill="#9F9FA8" d="M381.806 579.885L385.759 579.967L385.677 649.912L381.359 649.832C381.379 645.521 381.375 641.211 381.345 636.901C382.092 630.657 381.824 614.469 381.903 607.392C381.611 598.691 381.829 588.692 381.806 579.885Z"/><path fill="#FFFEFE" d="M327.638 672.159C344.294 672.121 365.191 672.75 381.387 671.942L381.365 676.991C381.053 681.915 381.037 685.9 381.082 690.796C362.161 690.766 341.888 691.119 323.086 690.661C323.113 686.07 321.696 677.291 323.741 673.458C324.214 672.571 326.287 672.452 327.638 672.159Z"/><path fill="#FFFEFE" d="M225.948 672.041C244.299 672.041 264.348 671.62 282.553 672.104C282.571 675.707 282.849 687.704 282.116 690.627L225.92 690.496L225.948 672.041Z"/><path fill="white" d="M282.553 672.104L327.638 672.159C326.287 672.452 324.214 672.571 323.741 673.458C321.696 677.291 323.113 686.07 323.086 690.661C310.058 690.445 295.52 690.263 282.563 690.722L282.116 690.627C282.849 687.704 282.571 675.707 282.553 672.104Z"/><path fill="#C35C57" d="M416.528 883.586C422.456 883.502 454.444 882.911 457.743 884.977L458.051 886.784C453.252 889.874 423.86 888.574 416.538 888.527L416.528 883.586Z"/><path fill="white" d="M914.692 192.916C944.934 175.897 970.005 176.873 998.423 197.027C1032.95 201.778 1068.58 214.238 1100.87 227.146C1111.05 231.218 1121.91 238.115 1132.46 241.904C1129.69 252.915 1133.74 262.218 1145.31 264.809C1146.38 265.045 1147.47 265.251 1148.55 265.428C1161.31 264.986 1179.94 264.6 1192.48 265.232C1192.39 269.408 1191.66 269.022 1194.98 272.064C1196.07 277.811 1195.75 285.654 1195.74 291.714C1216.03 295.572 1233.28 303.491 1245.51 320.832L1246.86 323.347C1253.36 333.877 1252.2 347.774 1247.69 358.8L1245.78 362.221C1244.55 364.037 1243.23 366.079 1241.94 367.824C1228.26 382.619 1217 387.544 1197.63 392.489L1197.17 392.69C1179.66 391.718 1159.39 393.46 1141.35 392.333L1141.56 394.674C1140.41 405.56 1140.57 424.304 1140.23 435.862C1139.34 461.487 1138.59 487.117 1137.96 512.75L1137.76 515.952C1137.73 535.99 1136.59 556.25 1136.31 576.287C1136.23 581.464 1135.53 597.981 1136.2 602.166L1135.81 605.124L1133.67 677.681C1133.32 692.533 1133.35 710.612 1132.29 725.287C1129.72 727.491 1128.89 724.755 1126.56 727.05C1125.9 736.456 1125.46 749.52 1124.43 758.65C1115.83 758.625 1106.99 758.49 1098.42 758.879L1095.15 758.94C1087.64 758.312 1077.53 759.501 1070.2 758.424L1067.49 758.547C1051.37 759.153 1033.01 758.791 1016.72 758.844C967.525 757.639 917.218 759.488 867.961 758.464L865.058 758.863C857.033 758.374 846.535 758.687 838.329 758.705L836.35 758.734C830.12 758.482 822.636 758.677 816.31 758.686L812.952 758.704L797.379 758.708L797.36 751.94C797.172 737.128 797.125 722.315 797.221 707.503L797.24 699.286L797.357 654.749L797.331 646.596L797.303 602.634L797.312 594.074L797.115 548.023C787.025 548.978 769.715 548.393 758.858 548.356C739.022 548.289 718.261 548.528 698.493 547.932L698.413 543.46C682.041 543.985 664.243 543.571 647.763 543.442C647.7 495.653 648.449 446.584 647.717 398.955C645.359 394.888 644.166 393.987 640.426 391.521C633.967 390.526 619.2 391.049 611.814 391.099L564.988 391.189L385.167 391.127L384.951 308.223C384.941 296.517 385.405 283.942 384.917 272.234C384.791 269.222 382.025 265.869 380.137 263.536C385.74 259.87 415.3 261.735 421.135 259.156C436.671 280.56 447.25 294.916 464.615 315.514C474.237 304.305 483.068 292.253 491.955 280.475C496.091 274.995 502.53 264.529 506.6 259.781C509.285 260.132 524.438 257.771 528.361 257.325C566.587 252.976 603.764 245.29 641.316 237.183C645.014 236.385 654.48 235.493 656.489 233.963C659.087 232.884 661.681 234.121 664.517 235.052C665.635 234.894 676.744 231.681 678.746 231.166C690.493 228.174 702.267 225.292 714.068 222.521C768.434 209.843 821.667 199.177 877.336 193.791C887.361 192.821 905.517 190.577 914.692 192.916Z"/><path fill="#C35C57" d="M797.313 547.545L859.729 547.361C871.092 547.306 882.449 547.055 893.796 547.557C903.902 548.004 902.808 559.038 903.11 566.54C903.914 566.701 904.506 566.669 904.984 567.082C904.942 576.72 905.034 586.358 905.261 595.994C919.821 590.84 941.974 572.63 953.089 561.786C957.605 557.379 961.648 552.322 965.845 548.307L966.213 547.961C967.84 550.349 968.63 551.803 971.017 553.523C975.646 557.138 979.428 562.349 984.942 566.621C989.638 571.291 1001.73 581.202 1007.26 584.583C1015.84 590.337 1030.3 598.661 1040.12 602.054C1043.12 604.147 1045.49 604.655 1048.97 605.71C1056.01 604.926 1070.44 605.196 1078.18 605.154L1135.81 605.124L1133.67 677.681C1133.32 692.533 1133.35 710.612 1132.29 725.287C1129.72 727.491 1128.89 724.755 1126.56 727.05C1125.9 736.456 1125.46 749.52 1124.43 758.65C1115.83 758.625 1106.99 758.49 1098.42 758.879L1095.15 758.94C1087.64 758.312 1077.53 759.501 1070.2 758.424L1067.49 758.547C1051.37 759.153 1033.01 758.791 1016.72 758.844C967.525 757.639 917.218 759.488 867.961 758.464L865.058 758.863C857.033 758.374 846.535 758.687 838.329 758.705L836.35 758.734C830.12 758.482 822.636 758.677 816.31 758.686L812.952 758.704L797.379 758.708L797.36 751.94C797.172 737.128 797.125 722.315 797.221 707.503L797.24 699.286L797.357 654.749L797.331 646.596L797.303 602.634L797.312 594.074L797.115 548.023L797.313 547.545Z"/><path fill="#FFFEFE" d="M797.313 547.545L859.729 547.361C871.092 547.306 882.449 547.055 893.796 547.557C903.902 548.004 902.808 559.038 903.11 566.54C903.914 566.701 904.506 566.669 904.984 567.082C904.942 576.72 905.034 586.358 905.261 595.994L902.655 597.809C892.586 601.818 882.91 606.249 872.539 609.537C869.263 610.576 864.866 612.063 861.83 613.562L861.771 614.698C866.619 618.115 885.429 617.63 891.914 617.566L892.112 674.037C877.323 674.079 861.928 673.917 847.19 674.304L844.595 674.197L824.606 674.046C827.346 678.113 831.371 683.381 836.373 684.54L838.4 685.757C848.178 689.107 854.535 689.961 864.697 690.979L867.767 690.802L867.723 735.61C867.721 741.295 867.418 752.962 867.961 758.464L865.058 758.863C857.033 758.374 846.535 758.687 838.329 758.705L836.35 758.734C830.12 758.482 822.636 758.677 816.31 758.686L812.952 758.704L797.379 758.708L797.36 751.94C797.172 737.128 797.125 722.315 797.221 707.503L797.24 699.286L797.357 654.749L797.331 646.596L797.303 602.634L797.312 594.074L797.115 548.023L797.313 547.545Z"/><path fill="#FFFEFE" d="M838.4 685.757C848.178 689.107 854.535 689.961 864.697 690.979L867.767 690.802L867.723 735.61C867.721 741.295 867.418 752.962 867.961 758.464L865.058 758.863C857.033 758.374 846.535 758.687 838.329 758.705C838.064 734.39 838.087 710.072 838.4 685.757Z"/><path fill="#C66066" d="M864.697 690.979L867.767 690.802L867.723 735.61C867.721 741.295 867.418 752.962 867.961 758.464L865.058 758.863C864.584 752.33 864.863 741.705 864.845 734.865L864.697 690.979Z"/><path fill="#E5E7EB" d="M812.952 758.704L813.039 758.009C813.898 750.75 813.315 726.927 813.299 718.744L813.016 638.229C812.981 632.266 812.543 608.063 813.475 603.791L814.321 603.372C815.196 604.404 815.785 605.078 815.795 606.547C816.098 648.74 814.746 690.899 815.367 733.096C815.424 736.955 814.976 756.367 816.31 758.686L812.952 758.704Z"/><path fill="#E5E7EB" d="M844.595 674.197C845.818 661.142 843.902 609.874 846.262 603.932C847.25 609.219 847.032 622.926 847.045 628.788C846.996 643.96 847.044 659.133 847.19 674.304L844.595 674.197Z"/><path fill="#E5E7EB" d="M836.373 684.54L838.4 685.757C838.087 710.072 838.064 734.39 838.329 758.705L836.35 758.734C836.986 735.001 836.402 708.497 836.373 684.54Z"/><path fill="#64748B" d="M903.11 566.54C903.914 566.701 904.506 566.669 904.984 567.082C904.942 576.72 905.034 586.358 905.261 595.994L902.655 597.809C902.331 588.951 902.961 575.814 903.11 566.54Z"/><path fill="#F87171" d="M1066.57 690.479C1067.9 690.569 1068.78 690.691 1070.09 690.885C1070.65 698.158 1070.37 707.604 1070.37 715.132L1070.2 758.424L1067.49 758.547C1051.37 759.153 1033.01 758.791 1016.72 758.844C967.525 757.639 917.218 759.488 867.961 758.464C867.418 752.962 867.721 741.295 867.723 735.61L867.767 690.802C886.52 690.148 906.383 690.83 925.239 690.648C972.103 690.197 1019.75 691.358 1066.57 690.479Z"/><path fill="#C66066" d="M1066.57 690.479C1067.9 690.569 1068.78 690.691 1070.09 690.885C1070.65 698.158 1070.37 707.604 1070.37 715.132L1070.2 758.424L1067.49 758.547C1067.96 751.6 1068.02 693.581 1066.57 690.479Z"/><path fill="#FFFEFE" d="M891.312 714.181C893.855 714.096 894.934 714.133 897.458 714.435C899.325 716.46 898.487 734.25 898.443 738.306C895.925 738.365 893.695 738.696 891.49 737.641C890.83 732.779 891.259 719.683 891.312 714.181Z"/><path fill="#FFFEFE" d="M1033.8 714.206C1036.35 714.163 1038.68 713.822 1040.4 715.353C1041.1 721.041 1040.68 732.238 1040.6 738.382C1038.09 738.477 1037 738.461 1034.51 738.177C1032.81 735.551 1033.71 718.492 1033.8 714.206Z"/><path fill="#FFFEFE" d="M962.947 714.253C965.236 714.177 966.51 714.237 968.793 714.442C970.676 716.388 969.805 734.411 969.757 738.472C967.42 738.527 966.018 738.472 963.689 738.266C962.262 736.571 962.908 717.781 962.947 714.253Z"/><path fill="#FFFEFE" d="M998.913 714.646C1001.04 714.571 1003.86 714.351 1005.54 715.39C1006.27 720.555 1005.79 732.735 1005.7 738.47C1003.46 738.513 1001.99 738.404 999.76 738.2C998.128 736.182 998.865 718.511 998.913 714.646Z"/><path fill="#FFFEFE" d="M926.996 714.664C929.416 714.598 931.212 714.3 933.385 715.271C934.112 719.713 933.734 732.857 933.697 737.991C931.647 738.084 928.686 738.466 927.265 737.03C926.58 731.551 926.949 720.591 926.996 714.664Z"/><path fill="#FFFEFE" d="M1048.97 605.71C1056.01 604.926 1070.44 605.196 1078.18 605.154L1135.81 605.124L1133.67 677.681C1133.32 692.533 1133.35 710.612 1132.29 725.287C1129.72 727.491 1128.89 724.755 1126.56 727.05C1125.9 736.456 1125.46 749.52 1124.43 758.65C1115.83 758.625 1106.99 758.49 1098.42 758.879L1095.15 758.94C1087.64 758.312 1077.53 759.501 1070.2 758.424L1070.37 715.132C1070.37 707.604 1070.65 698.158 1070.09 690.885C1072.8 689.512 1088.82 685.155 1095.17 682.377L1098.5 680.881L1099.15 680.492L1097.16 678.772C1098.54 678.059 1099.21 677.892 1099.95 676.532C1098.26 675.562 1094.28 675.971 1092.11 676.02L1089.04 673.995L1068 673.994L1065.94 674.16L1064.87 673.799C1058.65 673.831 1045.85 673.431 1040.47 674.191C1039.14 674.296 1038.19 674.18 1036.87 674.097C1037.02 657.441 1037.8 634.013 1036.71 617.686C1039.57 617.363 1042.5 616.591 1045.1 617.303L1045.57 617.7C1050.38 617.757 1076.16 619.015 1078.15 616.023C1075.45 613.233 1054.17 607.411 1048.97 605.71Z"/><path fill="#FFFEFE" d="M1095.17 682.377L1095.15 758.94C1087.64 758.312 1077.53 759.501 1070.2 758.424L1070.37 715.132C1070.37 707.604 1070.65 698.158 1070.09 690.885C1072.8 689.512 1088.82 685.155 1095.17 682.377Z"/><path fill="#9F9FA8" d="M1095.17 682.377L1098.5 680.881C1098.29 706.545 1098.09 733.248 1098.42 758.879L1095.15 758.94L1095.17 682.377Z"/><path fill="#C66066" d="M1036.71 617.686C1039.57 617.363 1042.5 616.591 1045.1 617.303L1045.57 617.7C1043.57 617.691 1041.56 617.389 1040 618.491C1039.21 624.737 1039.35 671.323 1040.47 674.191C1039.14 674.296 1038.19 674.18 1036.87 674.097C1037.02 657.441 1037.8 634.013 1036.71 617.686Z"/><path fill="#9F9FA8" d="M1064.87 673.799C1064.8 669.955 1064.15 658.94 1066.41 656.262C1068.8 659.207 1068.02 669.883 1068 673.994L1065.94 674.16L1064.87 673.799Z"/><path fill="#BD5456" d="M1089.04 673.995C1095.35 673.983 1104.01 673.734 1110.12 674.154C1106.95 676.312 1102.74 679.055 1099.15 680.492L1097.16 678.772C1098.54 678.059 1099.21 677.892 1099.95 676.532C1098.26 675.562 1094.28 675.971 1092.11 676.02L1089.04 673.995Z"/><path fill="#F87171" d="M894.903 617.545C930.245 616.118 966.869 617.732 1002.25 617.258C1013.22 617.111 1025.8 616.964 1036.71 617.686C1037.8 634.013 1037.02 657.441 1036.87 674.097C1024.42 673.289 1002.88 673.942 989.679 673.946L894.931 673.949C894.566 655.418 894.825 636.13 894.903 617.545Z"/><path fill="#FFFEFE" d="M999.822 631.43C1001.96 631.379 1005.57 631.024 1006.95 632.313C1007.62 638.502 1007.17 648.706 1007.07 655.23C1004.64 655.295 1001.72 655.663 1000.01 654.325C999.335 648.839 999.755 637.394 999.822 631.43Z"/><path fill="#FFFEFE" d="M925.863 631.28C927.977 631.246 931.222 630.952 932.771 632.104C933.48 637.289 933.028 649.469 932.954 655.215C930.698 655.241 927.919 655.525 926.19 654.492C925.471 649.124 925.832 637.173 925.863 631.28Z"/><path fill="#FFFEFE" d="M962.774 631.338C964.874 631.29 967.91 630.962 969.418 632.151C970.138 637.187 969.688 649.643 969.616 655.279C966.943 655.377 966.035 655.431 963.421 654.969C961.866 653.174 962.704 634.968 962.774 631.338Z"/><path fill="#FCD34D" d="M1040.47 674.191C1045.85 673.431 1058.65 673.831 1064.87 673.799L1065.94 674.16L1068 673.994L1089.04 673.995L1092.11 676.02C1094.28 675.971 1098.26 675.562 1099.95 676.532C1099.21 677.892 1098.54 678.059 1097.16 678.772C1072.39 689.986 1061.62 688.066 1035.34 688.048L975.869 688.08L900.795 688.108C886.025 688.107 871.072 688.41 856.346 687.467C851.611 687.163 831.654 682.962 830.569 678.052C834.105 675.552 880.191 676.605 888.099 676.484C938.89 675.837 989.686 675.752 1040.48 676.229L1040.47 674.191Z"/><path fill="#C35C57" d="M1040.47 674.191C1045.85 673.431 1058.65 673.831 1064.87 673.799L1065.94 674.16L1065.79 676.307L1040.48 676.229L1040.47 674.191Z"/><path fill="#C35C57" d="M1068 673.994L1089.04 673.995L1092.11 676.02L1065.79 676.307L1065.94 674.16L1068 673.994Z"/><path fill="#FCD34D" d="M966.262 551.108C971.312 556.408 975.888 561.87 981.327 566.838C1009.42 592.495 1032.93 603.738 1068.62 614.578C1056.38 615.308 1041.3 614.869 1028.85 614.852C1009.01 614.841 989.161 614.931 969.316 615.122C949.154 614.988 928.991 614.956 908.828 615.026C895.929 615.098 878.124 615.773 865.799 614.402C909.377 600.402 935.509 585.194 966.262 551.108Z"/><path fill="#9F9FA8" d="M914.692 192.916C944.934 175.897 970.005 176.873 998.423 197.027C1062 256.817 986.979 318.019 954.117 369.589C918.116 318.367 843.074 251.23 914.692 192.916Z"/><path fill="#868693" d="M946.77 223.761C963.91 220.201 980.707 231.154 984.368 248.277C988.028 265.399 977.179 282.265 960.082 286.029C942.841 289.824 925.805 278.86 922.114 261.592C918.422 244.325 929.485 227.35 946.77 223.761Z"/><path fill="#FFFEFE" d="M948.444 227.724C963.438 225.015 977.78 235 980.446 250.005C983.112 265.009 973.088 279.327 958.079 281.951C943.131 284.564 928.887 274.587 926.232 259.642C923.577 244.698 933.511 230.422 948.444 227.724Z"/><path fill="#FCD34D" d="M1148.55 265.428C1161.31 264.986 1179.94 264.6 1192.48 265.232C1192.39 269.408 1191.66 269.022 1194.98 272.064C1196.07 277.811 1195.75 285.654 1195.74 291.714C1216.03 295.572 1233.28 303.491 1245.51 320.832L1246.86 323.347C1253.36 333.877 1252.2 347.774 1247.69 358.8L1245.78 362.221C1244.55 364.037 1243.23 366.079 1241.94 367.824C1228.26 382.619 1217 387.544 1197.63 392.489L1197.17 392.69C1179.66 391.718 1159.39 393.46 1141.35 392.333C1140.55 392.2 1139.76 392.045 1138.97 391.866C1121.43 387.898 1104.01 377.599 1094.34 362.133L1092.49 358.805C1087.14 348.156 1086.81 333.621 1093.22 323.338L1094.6 320.937C1104.65 304.265 1126 293.548 1144.95 291.759C1144.93 286.097 1144.57 276.967 1145.74 271.768C1149.19 269.227 1148.48 269.336 1148.55 265.428Z"/><path fill="#FCD34D" d="M1148.55 265.428C1161.31 264.986 1179.94 264.6 1192.48 265.232C1192.39 269.408 1191.66 269.022 1194.98 272.064C1196.07 277.811 1195.75 285.654 1195.74 291.714C1216.03 295.572 1233.28 303.491 1245.51 320.832C1196.34 320.436 1143.7 320.046 1094.6 320.937C1104.65 304.265 1126 293.548 1144.95 291.759C1144.93 286.097 1144.57 276.967 1145.74 271.768C1149.19 269.227 1148.48 269.336 1148.55 265.428Z"/><path fill="#FEAAA5" d="M1148.55 265.428C1161.31 264.986 1179.94 264.6 1192.48 265.232C1192.39 269.408 1191.66 269.022 1194.98 272.064C1196.07 277.811 1195.75 285.654 1195.74 291.714C1184.47 290.411 1156.04 291.028 1144.95 291.759C1144.93 286.097 1144.57 276.967 1145.74 271.768C1149.19 269.227 1148.48 269.336 1148.55 265.428Z"/><path fill="#FCD34D" d="M1094.34 362.133L1245.78 362.221C1244.55 364.037 1243.23 366.079 1241.94 367.824C1228.26 382.619 1217 387.544 1197.63 392.489L1197.17 392.69C1179.66 391.718 1159.39 393.46 1141.35 392.333C1140.55 392.2 1139.76 392.045 1138.97 391.866C1121.43 387.898 1104.01 377.599 1094.34 362.133Z"/><path fill="#FABC49" d="M1092.49 358.805C1107.66 358.272 1123.99 358.431 1139.19 358.674C1175.17 359.247 1211.81 357.853 1247.69 358.8L1245.78 362.221L1094.34 362.133L1092.49 358.805Z"/><path fill="#FABC49" d="M1245.51 320.832L1246.86 323.347C1245.49 323.86 1095.45 324.152 1093.22 323.338L1094.6 320.937C1143.7 320.046 1196.34 320.436 1245.51 320.832Z"/><path fill="#FFFEFE" d="M971.017 553.523L970.768 531.789C970.73 521.227 971.012 516.194 982.941 516.059C1000.04 515.867 1017.15 515.989 1034.25 515.996L1137.76 515.952C1137.73 535.99 1136.59 556.25 1136.31 576.287C1136.23 581.464 1135.53 597.981 1136.2 602.166L1135.81 605.124L1078.18 605.154C1070.44 605.196 1056.01 604.926 1048.97 605.71C1045.49 604.655 1043.12 604.147 1040.12 602.054C1030.3 598.661 1015.84 590.337 1007.26 584.583C1001.73 581.202 989.638 571.291 984.942 566.621C979.428 562.349 975.646 557.138 971.017 553.523Z"/><path fill="white" d="M985.742 541.149L1008.5 540.842C1008.45 548.15 1008.66 579.654 1007.26 584.583C1001.73 581.202 989.638 571.291 984.942 566.621C986.336 563.027 985.656 546.2 985.742 541.149Z"/><path fill="#9F9FA8" d="M1040.12 602.054L1103.39 601.983C1112.72 601.98 1127.37 601.563 1136.2 602.166L1135.81 605.124L1078.18 605.154C1070.44 605.196 1056.01 604.926 1048.97 605.71C1045.49 604.655 1043.12 604.147 1040.12 602.054Z"/><path fill="white" d="M1032.36 540.7C1041.58 540.817 1051.11 540.637 1060.35 540.585C1060.54 553.964 1059.98 568.576 1060 582.222C1051.1 582.417 1041.43 582.224 1032.46 582.237C1032.59 568.495 1032.41 554.465 1032.36 540.7Z"/><path fill="white" d="M1084.2 541.159C1092.83 541.448 1102.72 541.21 1111.45 541.207C1110.79 552.461 1111.52 569.778 1111.47 581.741C1108.76 582.259 1088.87 581.993 1084.32 582.047C1084.16 568.418 1084.12 554.788 1084.2 541.159Z"/><path fill="#FCD34D" d="M725.876 491.424C730.637 491.704 740.215 491.933 744.995 491.501L747.967 491.967L769.393 492.052L769.784 492.212L768.984 493.135L769.874 494.633L777.871 494.689L778.491 492.306C782.697 492.391 787.166 492.177 791.047 493.77C793.545 495.125 796.139 496.725 796.6 499.734C797.706 506.952 797.974 534.203 797.02 540.841L797.165 543.812L797.313 547.545L797.115 548.023C787.025 548.978 769.715 548.393 758.858 548.356C739.022 548.289 718.261 548.528 698.493 547.932L698.413 543.46L698.58 542.46C698.527 529.882 698.067 517.104 698.425 504.553C698.725 494.004 705.126 491.092 714.35 491.999L719.234 491.444C721.56 491.345 723.55 491.185 725.876 491.424Z"/><path fill="#FABC49" d="M698.58 542.46L699.023 540.939C699.387 540.682 699.75 540.425 700.113 540.169C722.331 540.93 778.057 540.265 797.02 540.841L797.165 543.812L797.313 547.545L797.115 548.023C787.025 548.978 769.715 548.393 758.858 548.356C739.022 548.289 718.261 548.528 698.493 547.932L698.413 543.46L698.58 542.46Z"/><path fill="#FABC49" d="M725.876 491.424C730.637 491.704 740.215 491.933 744.995 491.501L747.967 491.967L769.393 492.052L769.784 492.212L768.984 493.135L769.874 494.633C759.972 494.692 720.763 495.957 714.35 491.999L719.234 491.444C721.56 491.345 723.55 491.185 725.876 491.424Z"/><path fill="#FABC49" d="M778.491 492.306C782.697 492.391 787.166 492.177 791.047 493.77C788.486 495.295 781.269 494.74 777.871 494.689L778.491 492.306Z"/><path fill="#FCD34D" d="M744.267 429.824C744.287 420 743.617 399.271 744.51 390.512C746.189 389.522 746.286 389.956 748.711 390.165C749.807 390.96 750.049 390.766 750.131 392.358C750.755 404.484 749.865 417.709 750.039 429.818L777.628 429.55C777.68 450.083 777.425 471.524 777.797 491.984L778.491 492.306L777.871 494.689L769.874 494.633L768.984 493.135L769.784 492.212L769.393 492.052L747.967 491.967L744.995 491.501C740.215 491.933 730.637 491.704 725.876 491.424C723.55 491.185 721.56 491.345 719.234 491.444C719.026 470.861 718.981 450.276 719.098 429.692L744.267 429.824Z"/><path fill="#FFFEFE" d="M748.005 434.379C755.229 434.139 762.458 434.106 769.684 434.282L769.753 472.529C769.757 476.721 769.972 488.278 769.393 492.052L747.967 491.967C747.645 473.558 747.638 452.756 748.005 434.379Z"/><path fill="#FFFEFE" d="M743.093 433.953C744.575 435.093 744.824 434.86 744.941 437.074C745.24 442.726 745.114 448.855 745.101 454.509L744.995 491.501C740.215 491.933 730.637 491.704 725.876 491.424L725.848 434.196C731.76 434.245 737.18 434.323 743.093 433.953Z"/><path fill="#FABC49" d="M777.797 491.984L778.491 492.306L777.871 494.689L769.874 494.633L768.984 493.135L769.784 492.212L777.797 491.984Z"/><path fill="#9F9FA8" d="M1137.96 512.75L1137.76 515.952L1034.25 515.996C1017.15 515.989 1000.04 515.867 982.941 516.059C971.012 516.194 970.73 521.227 970.768 531.789L971.017 553.523C968.63 551.803 967.84 550.349 966.213 547.961C967.859 545.812 967.554 525.903 967.864 520.681C970.643 516.735 972.988 513.242 978.33 513.035C995.648 512.367 1013.12 512.671 1030.47 512.687L1137.96 512.75Z"/><defs><linearGradient id="gradient_0" gradientUnits="userSpaceOnUse" x1="852.60236" y1="570.28625" x2="850.50031" y2="540.93829"><stop offset="0" stop-color="#696B84"/><stop offset="1" stop-color="#A2A0AE"/></linearGradient></defs><path fill="url(#gradient_0)" d="M797.165 543.812L861.351 543.865C872.028 543.873 882.797 543.583 893.443 544.167C903.362 544.711 905.442 551.497 905.223 560.153C905.161 562.463 905.081 564.773 904.984 567.082C904.506 566.669 903.914 566.701 903.11 566.54C902.808 559.038 903.902 548.004 893.796 547.557C882.449 547.055 871.092 547.306 859.729 547.361L797.313 547.545L797.165 543.812Z"/><path fill="#868693" d="M656.489 233.963C659.087 232.884 661.681 234.121 664.517 235.052C666.704 235.442 669.193 235.63 670.191 237.726C667.173 239.564 657.836 237.456 656.489 233.963Z"/><path fill="#868693" d="M1054.35 362.853C1057.57 362.668 1065.15 361.852 1067.91 363.295C1068.59 363.656 1068.49 364.81 1068.61 365.79C1065.17 365.865 1057.13 366.767 1054.63 364.897L1054.35 362.853Z"/><path fill="#868693" d="M900.852 362.997C904.174 362.882 910.706 362.47 913.464 364.322L913.336 365.375L911.802 365.905C908.407 365.973 901.009 366.518 898.634 364.434L899.031 363.483L900.852 362.997Z"/><path fill="#868693" d="M838.884 362.873C842.982 362.709 851.579 361.848 854.704 364.024L854.929 365.637C850.873 365.671 844.212 365.97 840.367 364.911C839.242 364.601 839.466 364.27 838.884 362.873Z"/><path fill="#868693" d="M683.722 241.305C686.96 241.38 693.356 243.778 696.407 245.264C698.607 246.336 698.172 246.28 698.842 248.397C694.761 248.6 686.004 244.981 683.722 241.305Z"/><path fill="#868693" d="M764.495 320.343C767.635 321.499 774.667 330.305 774.845 333.584C771.015 332.845 764.807 324.231 764.495 320.343Z"/><path fill="#868693" d="M732.932 272.54C734.663 273.595 738.825 279.038 739.86 281.046C741.459 284.147 741.316 283.537 740.515 286.16C738.683 284.473 733.661 277.748 732.451 275.23C731.855 273.991 732.212 274.162 732.932 272.54Z"/><path fill="#868693" d="M1026.04 362.872C1029.44 362.795 1037.98 361.591 1039.62 364.288L1038.95 365.582C1035.85 365.704 1027.86 366.479 1025.78 364.608L1026.04 362.872Z"/><path fill="#868693" d="M997.369 362.902C1001.23 362.8 1007.29 362.479 1010.8 363.817L1011.06 364.832L1009.84 365.519C1007.72 365.64 1005.59 365.746 1003.46 365.836C1000.55 365.95 998.81 366.294 996.836 364.472L997.369 362.902Z"/><path fill="#868693" d="M710.46 253.9C714.364 254.237 722.282 260.098 723.133 264.215C720.23 264.028 711.334 256.685 710.46 253.9Z"/><path fill="#868693" d="M869.233 363.627C872.422 363.073 879.117 363.025 882.468 363.288C884.498 363.446 884.297 363.718 885.312 365.128C882.831 365.981 876.202 366.068 873.374 365.846C870.418 365.614 870.684 365.454 869.233 363.627Z"/><path fill="#868693" d="M811.075 356.629C814.555 356.764 823.324 359.104 825.432 362.14C822.3 363.085 818.358 361.523 815.294 360.382C812.087 359.189 812.124 359.044 811.075 356.629Z"/><path fill="#868693" d="M786.307 341.986C788.851 343.19 797.621 348.688 798.598 351.377C794.892 351.216 789.307 347.697 786.825 344.892C785.706 343.626 786.142 343.759 786.307 341.986Z"/><path fill="#868693" d="M748.47 297.043L750.552 297.909C752.933 301.102 756.728 306.252 756.588 310.169L754.914 309.31C752.795 306.364 748.969 300.478 748.47 297.043Z"/><path fill="white" d="M1241.94 367.824C1253.12 377.792 1263.34 385.987 1273.68 397.27C1309.06 435.853 1336.07 482.714 1351.02 532.926C1353.15 540.071 1363.26 577.605 1365 580.008L1365 691.854C1362.47 695.384 1352.81 736.348 1349.66 745.249C1343.23 763.442 1338.51 778.332 1329.56 796.304C1319.63 815.961 1308.26 834.856 1295.54 852.834C1288.37 862.999 1280.33 870.492 1272.41 879.938C1271.7 880.783 1271.3 883.032 1271.08 884.186L1271.06 920.408C1271.06 924.527 1270.85 934.848 1271.48 938.293C1273.92 939.193 1275.08 939.131 1277.65 939.297C1273.37 939.823 1238.55 939.866 1235.18 939.083C1231.45 939.06 1227.72 938.976 1224 939.283C1221.24 938.799 1193.03 939.086 1188.76 939.092L1115.55 938.732C1116.07 933.122 1115.73 921.6 1115.71 915.674C1115.58 900.565 1115.59 885.455 1115.76 870.346C1129.92 867.865 1142.49 864.097 1153.45 854.262C1141.42 853.679 1124.45 854.076 1112.21 854.293C1114.92 830.04 1117.9 797.798 1119.04 773.679C1130.8 770.491 1141.22 766.809 1150.59 758.705C1142.05 758.518 1133.01 758.66 1124.43 758.65C1125.46 749.52 1125.9 736.456 1126.56 727.05C1128.89 724.755 1129.72 727.491 1132.29 725.287C1133.35 710.612 1133.32 692.533 1133.67 677.681L1135.81 605.124L1136.2 602.166C1135.53 597.981 1136.23 581.464 1136.31 576.287C1136.59 556.25 1137.73 535.99 1137.76 515.952L1137.96 512.75C1138.59 487.117 1139.34 461.487 1140.23 435.862C1140.57 424.304 1140.41 405.56 1141.56 394.674L1141.35 392.333C1159.39 393.46 1179.66 391.718 1197.17 392.69L1197.63 392.489C1217 387.544 1228.26 382.619 1241.94 367.824Z"/><path fill="#FEAAA5" d="M1197.17 392.69L1197.63 392.489C1198.45 432.721 1199.62 472.945 1201.12 513.156L1201.28 515.973C1200.76 523.345 1201.79 534.642 1201.78 542.593C1202.1 554.618 1202.03 570.208 1202.84 581.917L1203.14 602.63L1203.77 605.837C1202.97 629.961 1205.52 659.049 1205.44 683.627C1205.41 689.446 1206.27 722.239 1206.97 725.845C1209.22 726.506 1212.77 725.715 1213.06 727.731C1214.66 738.908 1215.92 755.635 1216.99 766.381L1229.54 886.209C1231.14 900.907 1232.83 925.381 1235.18 939.083C1231.45 939.06 1227.72 938.976 1224 939.283C1221.24 938.799 1193.03 939.086 1188.76 939.092L1115.55 938.732C1116.07 933.122 1115.73 921.6 1115.71 915.674C1115.58 900.565 1115.59 885.455 1115.76 870.346C1129.92 867.865 1142.49 864.097 1153.45 854.262C1141.42 853.679 1124.45 854.076 1112.21 854.293C1114.92 830.04 1117.9 797.798 1119.04 773.679C1130.8 770.491 1141.22 766.809 1150.59 758.705C1142.05 758.518 1133.01 758.66 1124.43 758.65C1125.46 749.52 1125.9 736.456 1126.56 727.05C1128.89 724.755 1129.72 727.491 1132.29 725.287C1133.35 710.612 1133.32 692.533 1133.67 677.681L1135.81 605.124L1136.2 602.166C1135.53 597.981 1136.23 581.464 1136.31 576.287C1136.59 556.25 1137.73 535.99 1137.76 515.952L1137.96 512.75C1138.59 487.117 1139.34 461.487 1140.23 435.862C1140.57 424.304 1140.41 405.56 1141.56 394.674L1141.35 392.333C1159.39 393.46 1179.66 391.718 1197.17 392.69Z"/><path fill="#F9A87A" d="M1141.35 392.333C1159.39 393.46 1179.66 391.718 1197.17 392.69L1196.54 395.063C1190.14 395.711 1177.52 395.351 1170.68 395.325C1163.3 395.298 1148.4 395.721 1141.56 394.674L1141.35 392.333Z"/><path fill="#FFFEFE" d="M1203.77 605.837L1239.22 605.944C1246.23 605.939 1260.81 604.635 1266.11 608.998C1268.42 616.351 1267.62 643.124 1267.62 652.451L1267.59 710.141L1267.65 938.701C1260.22 938.685 1241.89 938.213 1235.18 939.083C1232.83 925.381 1231.14 900.907 1229.54 886.209L1216.99 766.381C1215.92 755.635 1214.66 738.908 1213.06 727.731C1212.77 725.715 1209.22 726.506 1206.97 725.845C1206.27 722.239 1205.41 689.446 1205.44 683.627C1205.52 659.049 1202.97 629.961 1203.77 605.837Z"/><path fill="#FFFEFE" d="M1201.28 515.973C1203.85 515.97 1206.73 515.986 1209.27 515.964C1251.89 515.595 1246.75 511.586 1246.8 551.713L1246.87 602.634L1203.14 602.63L1202.84 581.917C1202.03 570.208 1202.1 554.618 1201.78 542.593C1201.79 534.642 1200.76 523.345 1201.28 515.973Z"/><path fill="white" d="M1201.78 542.593C1205.43 544.072 1214.84 542.937 1219.21 542.544C1219.44 555.159 1219.57 569.053 1219.22 581.679C1213.77 581.88 1208.31 581.96 1202.84 581.917C1202.03 570.208 1202.1 554.618 1201.78 542.593Z"/><path fill="#9F9FA8" d="M1201.12 513.156C1209.66 513.098 1239.53 511.125 1246.43 515.541C1251.72 518.93 1250.22 541.623 1250.22 549.393L1250.08 602.635C1259.65 602.424 1265.32 600.952 1271.05 610.22C1272.1 638.669 1271.08 672.687 1271.07 701.618L1271.08 884.186L1271.06 920.408C1271.06 924.527 1270.85 934.848 1271.48 938.293C1273.92 939.193 1275.08 939.131 1277.65 939.297C1273.37 939.823 1238.55 939.866 1235.18 939.083C1241.89 938.213 1260.22 938.685 1267.65 938.701L1267.59 710.141L1267.62 652.451C1267.62 643.124 1268.42 616.351 1266.11 608.998C1260.81 604.635 1246.23 605.939 1239.22 605.944L1203.77 605.837L1203.14 602.63L1246.87 602.634L1246.8 551.713C1246.75 511.586 1251.89 515.595 1209.27 515.964C1206.73 515.986 1203.85 515.97 1201.28 515.973L1201.12 513.156Z"/><path fill="#FFFEFE" d="M1271.08 884.186C1271.3 883.032 1271.7 880.783 1272.41 879.938C1280.33 870.492 1288.37 862.999 1295.54 852.834C1308.26 834.856 1319.63 815.961 1329.56 796.304C1338.51 778.332 1343.23 763.442 1349.66 745.249C1352.81 736.348 1362.47 695.384 1365 691.854L1365 1024L0 1024L0 971.253C8.6967 972.069 25.3731 971.59 34.7007 971.576L100.047 971.484L306.755 971.572L1021.11 971.376L1265.24 971.412C1276.25 971.389 1339.12 972.865 1345.47 970.314C1348.2 967.719 1348.4 964.868 1345.99 961.935C1341.89 959.228 1286.67 960.513 1277.67 960.495L1277.65 939.297C1275.08 939.131 1273.92 939.193 1271.48 938.293C1270.85 934.848 1271.06 924.527 1271.06 920.408L1271.08 884.186Z"/><path fill="#FCD34D" d="M647.65 547.617C663.068 547.587 683.271 547.03 698.493 547.932C718.261 548.528 739.022 548.289 758.858 548.356C769.715 548.393 787.025 548.978 797.115 548.023L797.312 594.074L797.303 602.634L797.331 646.596L797.357 654.749L797.24 699.286L797.221 707.503C797.125 722.315 797.172 737.128 797.36 751.94L797.379 758.708C794.531 758.962 791.867 759.104 789.08 759.757C784.499 760.715 759.45 760.378 754.074 760.321C735.591 760.125 716.909 760.47 698.456 760.263C698.461 774.759 698.612 789.506 698.455 803.98L698.423 812.634C698.407 826.996 697.997 843.189 698.382 857.385C697.502 869.301 698.238 883.475 697.955 895.584C697.868 899.313 697.777 915.128 698.335 918.097C698.358 932.278 698.291 946.46 698.134 960.641C690.821 960.685 683.376 960.816 676.084 960.486C672.152 961.516 670.911 961.442 667.144 960.553C661.94 960.721 656.734 960.764 651.528 960.683L642.622 960.585L641.933 960.651C624.258 959.872 605.611 960.653 587.833 960.348C580.056 960.214 572.135 960.632 564.391 959.963C562.207 961.232 559.511 961.235 557.324 959.97C555.678 959.019 554.487 957.443 554.02 955.6C553.552 953.758 553.849 951.805 554.842 950.184C547.994 946.087 542.853 942.088 542.787 933.146C542.538 899.603 542.505 866.055 542.39 832.51L542.218 795.386C542.143 778.619 537.748 758.274 560.716 758.288C568.443 758.376 579.395 758.79 586.792 758.094L589.974 758.35C605.941 759.072 626.361 758.532 642.569 758.426C642.646 750.222 642.613 742.017 642.468 733.814L645.304 733.441C648.494 730.96 646.434 722.606 647.71 717.607L647.821 710.144L647.65 547.617Z"/><path fill="#FCD34D" d="M698.493 547.932C718.261 548.528 739.022 548.289 758.858 548.356C769.715 548.393 787.025 548.978 797.115 548.023L797.312 594.074L797.303 602.634L797.331 646.596L797.357 654.749L797.24 699.286L797.221 707.503C797.125 722.315 797.172 737.128 797.36 751.94L797.379 758.708C794.531 758.962 791.867 759.104 789.08 759.757C784.499 760.715 759.45 760.378 754.074 760.321C735.591 760.125 716.909 760.47 698.456 760.263L698.456 751.921C698.721 737.303 698.495 722.102 698.473 707.441L698.453 698.588C698.657 684.317 698.453 669.617 698.424 655.314L698.429 646.639C698.674 632.089 698.492 617.028 698.507 602.437L698.498 594.029L698.493 547.932Z"/><path fill="#FCD34D" d="M698.493 547.932C718.261 548.528 739.022 548.289 758.858 548.356C769.715 548.393 787.025 548.978 797.115 548.023L797.312 594.074L797.303 602.634C764.49 601.99 731.257 603.12 698.507 602.437L698.498 594.029L698.493 547.932Z"/><path fill="#FABC49" d="M698.498 594.029C729.973 593.479 765.78 593.618 797.312 594.074L797.303 602.634C764.49 601.99 731.257 603.12 698.507 602.437L698.498 594.029Z"/><path fill="#FCD34D" d="M698.473 707.441L797.221 707.503C797.125 722.315 797.172 737.128 797.36 751.94L797.379 758.708C794.531 758.962 791.867 759.104 789.08 759.757C784.499 760.715 759.45 760.378 754.074 760.321C735.591 760.125 716.909 760.47 698.456 760.263L698.456 751.921C698.721 737.303 698.495 722.102 698.473 707.441Z"/><path fill="#FABC49" d="M698.456 751.921C731.287 752.011 764.538 752.317 797.36 751.94L797.379 758.708C794.531 758.962 791.867 759.104 789.08 759.757C784.499 760.715 759.45 760.378 754.074 760.321C735.591 760.125 716.909 760.47 698.456 760.263L698.456 751.921Z"/><path fill="#FCD34D" d="M698.507 602.437C731.257 603.12 764.49 601.99 797.303 602.634L797.331 646.596C764.65 647.064 731.154 646.675 698.429 646.639C698.674 632.089 698.492 617.028 698.507 602.437Z"/><path fill="#FABC49" d="M698.453 698.588C731.393 698.749 764.327 699.384 797.24 699.286L797.221 707.503L698.473 707.441L698.453 698.588Z"/><path fill="#FABC49" d="M698.429 646.639C731.154 646.675 764.65 647.064 797.331 646.596L797.357 654.749C766.716 654.57 728.605 653.886 698.424 655.314L698.429 646.639Z"/><path fill="#FFFEFE" d="M647.65 547.617C663.068 547.587 683.271 547.03 698.493 547.932L698.498 594.029L698.507 602.437C698.492 617.028 698.674 632.089 698.429 646.639L698.424 655.314C698.453 669.617 698.657 684.317 698.453 698.588L698.473 707.441C698.495 722.102 698.721 737.303 698.456 751.921L698.456 760.263C698.461 774.759 698.612 789.506 698.455 803.98L698.423 812.634C698.407 826.996 697.997 843.189 698.382 857.385C697.502 869.301 698.238 883.475 697.955 895.584C697.868 899.313 697.777 915.128 698.335 918.097C698.358 932.278 698.291 946.46 698.134 960.641C690.821 960.685 683.376 960.816 676.084 960.486C676.604 959.821 677.089 959.13 677.537 958.415C679.506 955.247 678.912 953.496 678.094 950.056C682.443 948.08 687.593 943.471 688.452 938.887C690.315 928.942 689.589 915.221 689.632 905.093L689.766 848.662L689.769 801.648C689.767 792.981 689.872 784.299 689.61 775.64C689.468 770.929 688.206 767.199 684.962 763.666C682.281 760.747 679.352 759.652 675.754 758.431L674.142 758.363C669.668 758.138 649.524 759.192 647.51 757.598C645.321 758.515 645.011 758.412 642.569 758.426C642.646 750.222 642.613 742.017 642.468 733.814L645.304 733.441C648.494 730.96 646.434 722.606 647.71 717.607L647.821 710.144L647.65 547.617Z"/><path fill="#E5E7EB" d="M674.142 758.363C674.504 722.871 674.591 687.378 674.402 651.885C674.395 644.345 673.438 608.709 675.53 605.133C676.156 624.751 675.819 645.392 675.79 665.134L675.754 758.431L674.142 758.363Z"/><path fill="#64748B" d="M642.468 733.814L645.304 733.441C648.494 730.96 646.434 722.606 647.71 717.607C647.945 731.043 647.169 744.298 647.51 757.598C645.321 758.515 645.011 758.412 642.569 758.426C642.646 750.222 642.613 742.017 642.468 733.814Z"/><path fill="#FFFEFE" d="M567.66 952.046C592.146 951.927 617.559 952.112 641.979 951.521L641.933 960.651C624.258 959.872 605.611 960.653 587.833 960.348C580.056 960.214 572.135 960.632 564.391 959.963C567.142 958.364 568.482 955.12 567.66 952.046Z"/><path fill="#4D5475" d="M664.28 951.474C669.037 945.109 672.252 945.798 678.094 950.056C678.912 953.496 679.506 955.247 677.537 958.415C677.089 959.13 676.604 959.821 676.084 960.486C672.152 961.516 670.911 961.442 667.144 960.553C664.41 956.905 664.441 955.844 664.28 951.474Z"/><path fill="#4D5475" d="M554.842 950.184C556.314 947.781 559.076 946.486 561.864 946.891C564.653 947.296 566.932 949.323 567.66 952.046C568.482 955.12 567.142 958.364 564.391 959.963C562.207 961.232 559.511 961.235 557.324 959.97C555.678 959.019 554.487 957.443 554.02 955.6C553.552 953.758 553.849 951.805 554.842 950.184Z"/><path fill="#FFFEFE" d="M651.103 958.738C651.16 955.299 650.612 954.74 652.222 952.144C655.052 950.714 660.566 951.445 664.28 951.474C664.441 955.844 664.41 956.905 667.144 960.553C661.94 960.721 656.734 960.764 651.528 960.683L651.103 958.738Z"/><path fill="#FABC49" d="M642.642 951.32C645.124 951.242 646.499 951.16 649.005 951.456C651.05 953.419 650.744 955.565 651.103 958.738L651.528 960.683L642.622 960.585L642.642 951.32Z"/><path fill="#BD5456" d="M1070.2 758.424C1077.53 759.501 1087.64 758.312 1095.15 758.94L1098.42 758.879C1106.99 758.49 1115.83 758.625 1124.43 758.65C1133.01 758.66 1142.05 758.518 1150.59 758.705C1141.22 766.809 1130.8 770.491 1119.04 773.679C1117.9 797.798 1114.92 830.04 1112.21 854.293C1124.45 854.076 1141.42 853.679 1153.45 854.262C1142.49 864.097 1129.92 867.865 1115.76 870.346C1098.3 872.216 1082 871.745 1064.48 871.743L999.461 871.796L891.922 871.884C871.538 871.906 848.844 872.314 828.583 871.715C827.206 881.564 829.066 957.405 827.689 959.732L826.449 959.836C823.178 961.515 803.001 960.693 797.839 960.671L797.79 917.844L797.808 909.391C797.786 898.721 797.156 875.786 798.152 865.794L797.753 865.56C791.601 862.662 786.404 860.606 781.35 855.975C780.92 856.361 780.49 856.747 780.061 857.133C759.782 857.473 717.106 858.245 698.382 857.385C697.997 843.189 698.407 826.996 698.423 812.634L698.455 803.98C698.612 789.506 698.461 774.759 698.456 760.263C716.909 760.47 735.591 760.125 754.074 760.321C759.45 760.378 784.499 760.715 789.08 759.757C791.867 759.104 794.531 758.962 797.379 758.708L812.952 758.704L816.31 758.686C822.636 758.677 830.12 758.482 836.35 758.734L838.329 758.705C846.535 758.687 857.033 758.374 865.058 758.863L867.961 758.464C917.218 759.488 967.525 757.639 1016.72 758.844C1033.01 758.791 1051.37 759.153 1067.49 758.547L1070.2 758.424Z"/><path fill="#F87171" d="M830.21 773.294C835.063 773.437 840.593 773.483 845.39 773.755C843.612 773.845 841.135 773.664 839.906 774.745C841.152 775.844 841.898 775.729 843.565 775.885C929.762 776.938 1017.98 775.922 1104.32 775.889C1104.46 801.155 1105.11 828.863 1104.48 853.989L913.147 854.032L860.426 853.984C855.442 853.973 838.813 853.65 834.448 854.364L834.211 854.818C832.135 855.501 832.766 855.267 830.155 854.225L831.172 853.234C831.461 845.019 831.926 779.072 830.594 775.547L830.21 773.294Z"/><path fill="#C66066" d="M830.21 773.294C835.063 773.437 840.593 773.483 845.39 773.755C843.612 773.845 841.135 773.664 839.906 774.745C841.152 775.844 841.898 775.729 843.565 775.885C840.311 775.925 837.058 775.944 833.804 775.941C833.806 787.311 832.507 847.401 834.448 854.364L834.211 854.818C832.135 855.501 832.766 855.267 830.155 854.225L831.172 853.234C831.461 845.019 831.926 779.072 830.594 775.547L830.21 773.294Z"/><path fill="#FFFEFE" d="M998.466 804.609C1001.2 804.486 1002.1 804.407 1004.77 804.898C1006.52 806.864 1005.4 824.129 1005.28 827.989C1003.15 828.314 1000.79 828.548 998.911 827.554C997.964 824.548 998.422 808.466 998.466 804.609Z"/><path fill="#FFFEFE" d="M894.505 804.56C897.026 804.438 898.033 804.49 900.545 804.773C902.378 806.97 901.443 823.658 901.361 827.743C899.031 827.84 896.463 828.187 894.717 826.927C894.01 821.771 894.436 810.237 894.505 804.56Z"/><path fill="#FFFEFE" d="M859.625 804.42C861.901 804.373 864.411 804.146 866.148 805.409C866.865 810.552 866.443 822.373 866.379 828.059C864.034 828.167 861.738 828.449 859.929 827.289C859.208 821.962 859.583 810.264 859.625 804.42Z"/><path fill="#FFFEFE" d="M1065.68 804.493C1068.01 804.412 1070.36 804.109 1072.1 805.407C1072.82 810.549 1072.39 822.309 1072.32 827.989C1071.72 828.015 1071.12 828.032 1070.53 828.041C1068.32 828.058 1067.12 828.289 1065.84 827.044C1065.21 821.328 1065.61 810.611 1065.68 804.493Z"/><path fill="#FFFEFE" d="M929.293 804.541C931.83 804.46 933.223 804.237 935.652 805.028C936.728 808.045 936.039 823.713 935.938 827.585C933.841 827.734 931.149 828.184 929.661 827.181C928.937 821.812 929.27 810.403 929.293 804.541Z"/><path fill="#FFFEFE" d="M1032.52 804.642C1034.57 804.617 1037.62 804.243 1039.13 805.348C1039.77 810.452 1039.32 821.995 1039.24 827.613C1036.82 827.668 1034.47 827.967 1032.71 826.601C1032.01 821.51 1032.45 810.24 1032.52 804.642Z"/><path fill="#FFFEFE" d="M963.428 804.637C966.074 804.539 966.857 804.504 969.443 804.979C971.043 807.149 970.144 823.898 970.048 827.846C967.994 827.897 965.134 828.211 963.803 827.025C963.113 821.371 963.415 810.703 963.428 804.637Z"/><path fill="#FCD34D" d="M698.456 760.263C716.909 760.47 735.591 760.125 754.074 760.321C759.45 760.378 784.499 760.715 789.08 759.757C791.82 764.018 793.29 765.548 797.783 768.158C803.019 770.444 807.52 771.79 813.137 772.946L816.959 773.605C820.972 774.224 826.674 775.277 830.594 775.547C831.926 779.072 831.461 845.019 831.172 853.234L830.155 854.225C822.995 853.482 806.261 853.969 798.387 853.978C793.823 853.908 786.509 853.577 782.201 854.173C781.22 855.174 781.45 854.562 781.35 855.975C780.92 856.361 780.49 856.747 780.061 857.133C759.782 857.473 717.106 858.245 698.382 857.385C697.997 843.189 698.407 826.996 698.423 812.634L698.455 803.98C698.612 789.506 698.461 774.759 698.456 760.263Z"/><path fill="#FFFEFE" d="M797.783 768.158C803.019 770.444 807.52 771.79 813.137 772.946L816.959 773.605C820.972 774.224 826.674 775.277 830.594 775.547C831.926 779.072 831.461 845.019 831.172 853.234L830.155 854.225C822.995 853.482 806.261 853.969 798.387 853.978L798.223 853.42C796.752 848.717 797.706 778.639 797.783 768.158Z"/><path fill="#FFFEFE" d="M797.783 768.158C803.019 770.444 807.52 771.79 813.137 772.946L813.135 853.316C808.734 853.3 802.471 853.09 798.223 853.42C796.752 848.717 797.706 778.639 797.783 768.158Z"/><path fill="#E5E7EB" d="M813.137 772.946L816.959 773.605C814.991 775.696 815.572 782.131 815.576 785.173C815.607 808.024 815.733 830.878 815.771 853.731C820.884 853.499 826.06 853.199 831.172 853.234L830.155 854.225C822.995 853.482 806.261 853.969 798.387 853.978L798.223 853.42C802.471 853.09 808.734 853.3 813.135 853.316L813.137 772.946Z"/><path fill="#FABC49" d="M698.455 803.98C731.363 804.543 764.278 804.565 797.187 804.047L797.297 812.759C765.527 812.593 729.997 811.715 698.423 812.634L698.455 803.98Z"/><path fill="#FCD34D" d="M865.058 758.863L867.961 758.464C917.218 759.488 967.525 757.639 1016.72 758.844C1024.74 760.355 1038.97 757.968 1045.21 760.89L1144.1 760.787C1122.98 775.268 1098.5 773.945 1074.24 773.89L1019.72 773.759L845.39 773.755C840.593 773.483 835.063 773.437 830.21 773.294L830.594 775.547C826.674 775.277 820.972 774.224 816.959 773.605L813.137 772.946C807.52 771.79 803.019 770.444 797.783 768.158C793.29 765.548 791.82 764.018 789.08 759.757C791.867 759.104 794.531 758.962 797.379 758.708L812.952 758.704L816.31 758.686C822.636 758.677 830.12 758.482 836.35 758.734L838.329 758.705C846.535 758.687 857.033 758.374 865.058 758.863Z"/><path fill="#C35C57" d="M865.058 758.863L867.961 758.464C917.218 759.488 967.525 757.639 1016.72 758.844C1024.74 760.355 1038.97 757.968 1045.21 760.89L918.313 760.905C903.51 760.86 879.178 761.778 865.176 760.739L861.259 759.868L865.058 758.863Z"/><path fill="#BD5456" d="M838.329 758.705C846.535 758.687 857.033 758.374 865.058 758.863L861.259 759.868L865.176 760.739C853.799 760.836 801.026 759.301 794.108 761.465C795.856 769.113 823.349 772.164 830.21 773.294L830.594 775.547C826.674 775.277 820.972 774.224 816.959 773.605L813.137 772.946C807.52 771.79 803.019 770.444 797.783 768.158C793.29 765.548 791.82 764.018 789.08 759.757C791.867 759.104 794.531 758.962 797.379 758.708L812.952 758.704L816.31 758.686C822.636 758.677 830.12 758.482 836.35 758.734L838.329 758.705Z"/><path fill="#FFFEFE" d="M798.152 865.794C809.247 868.715 814.924 869.917 826.301 870.904L826.449 959.836C823.178 961.515 803.001 960.693 797.839 960.671L797.79 917.844L797.808 909.391C797.786 898.721 797.156 875.786 798.152 865.794Z"/><path fill="#FFFEFE" d="M1107.12 776.114C1111.23 775.392 1114.97 774.597 1119.04 773.679C1117.9 797.798 1114.92 830.04 1112.21 854.293C1110.03 854.25 1109.24 854.422 1107.38 853.455C1106.68 846.99 1107 833.862 1106.99 826.867L1107.12 776.114Z"/><path fill="#FCD34D" d="M785.057 856.241C803.861 855.929 824.062 856.64 843.113 856.584L1021.78 856.471L1103.04 856.611C1114.22 856.632 1136.09 856.051 1146.35 857.163C1143.39 858.866 1140.32 860.227 1137.22 861.665C1111.49 871.731 1081.08 869.251 1053.67 869.3L955.681 869.342L872.898 869.29C849.559 869.271 803.762 871.64 785.057 856.241Z"/><path fill="#F87171" d="M828.583 871.715C848.844 872.314 871.538 871.906 891.922 871.884L999.461 871.796L1064.48 871.743C1082 871.745 1098.3 872.216 1115.76 870.346C1115.59 885.455 1115.58 900.565 1115.71 915.674C1115.73 921.6 1116.07 933.122 1115.55 938.732L1115.75 941.521C1115.6 947.735 1115.58 953.952 1115.71 960.166C1078.91 960.35 1038.94 961.155 1002.41 959.996L934.462 960.126C922.352 959.824 908.493 960.256 896.237 960.344L829.03 960.608L828.964 903.088C828.97 894.185 829.417 880.066 828.583 871.715Z"/><path fill="#FFFEFE" d="M934.462 960.126C934.409 942.266 930.882 915.224 944.106 902.187C957.637 888.847 979.091 888.358 992.663 902.045C1007.02 916.525 1002.34 940.759 1002.41 959.996L934.462 960.126Z"/><path fill="#FFFEFE" d="M1038.44 891.401L1083.08 891.482L1083.11 942.755C1068.33 942.592 1053.32 942.727 1038.52 942.728L1038.44 891.401Z"/><path fill="#FFFEFE" d="M855.104 891.576L899.077 891.519C899.069 906.718 899.756 928.461 898.862 943.231L854.756 943.309L855.104 891.576Z"/><path fill="#FCD34D" d="M781.35 855.975C786.404 860.606 791.601 862.662 797.753 865.56L798.152 865.794C797.156 875.786 797.786 898.721 797.808 909.391L797.79 917.844C765.71 918.918 730.989 917.282 698.335 918.097C697.777 915.128 697.868 899.313 697.955 895.584C698.238 883.475 697.502 869.301 698.382 857.385C717.106 858.245 759.782 857.473 780.061 857.133C780.49 856.747 780.92 856.361 781.35 855.975Z"/><path fill="#FABC49" d="M698.644 909.494L765.939 909.578C776.376 909.549 787.46 909.145 797.808 909.391L797.79 917.844C765.71 918.918 730.989 917.282 698.335 918.097C698.653 916.155 698.612 911.684 698.644 909.494Z"/><path fill="#FABC49" d="M781.35 855.975C786.404 860.606 791.601 862.662 797.753 865.56C794.93 866.354 772.418 866.023 767.757 866.02L698.735 866.073C698.708 863.05 698.569 860.393 698.382 857.385C717.106 858.245 759.782 857.473 780.061 857.133C780.49 856.747 780.92 856.361 781.35 855.975Z"/><path fill="#FCD34D" d="M698.335 918.097C730.989 917.282 765.71 918.918 797.79 917.844L797.839 960.671L698.134 960.641C698.291 946.46 698.358 932.278 698.335 918.097Z"/><path fill="#E5E7EB" d="M1115.55 938.732L1188.76 939.092C1193.03 939.086 1221.24 938.799 1224 939.283C1227.72 938.976 1231.45 939.06 1235.18 939.083C1238.55 939.866 1273.37 939.823 1277.65 939.297L1277.67 960.495L1274.58 960.195C1221.99 960.781 1168.35 960.216 1115.71 960.166C1115.58 953.952 1115.6 947.735 1115.75 941.521L1115.55 938.732Z"/><path fill="#BD5456" d="M1115.55 938.732L1188.76 939.092C1193.03 939.086 1221.24 938.799 1224 939.283C1227.15 940.547 1230.55 940.316 1233.92 940.362C1227.6 940.396 1223.72 940.73 1217.46 941.425C1208.53 942.009 1192.78 941.466 1183.43 941.457L1115.75 941.521L1115.55 938.732Z"/><path fill="#868693" d="M1235.18 939.083C1238.55 939.866 1273.37 939.823 1277.65 939.297L1277.67 960.495L1274.58 960.195L1274.65 941.965C1257.67 941.96 1233.81 942.614 1217.46 941.425C1223.72 940.73 1227.6 940.396 1233.92 940.362C1230.55 940.316 1227.15 940.547 1224 939.283C1227.72 938.976 1231.45 939.06 1235.18 939.083Z"/></svg>