<?xml version="1.0" encoding="utf-8" ?><svg xmlns="http://www.w3.org/2000/svg" xmlns:xlink="http://www.w3.org/1999/xlink" width="1365" height="1024" viewBox="0 0 1365 1024"><path fill="white" d="M0 0L1365 0L1365 1024L0 1024L0 0Z"/><path fill="#E5E7EB" d="M281.12 477.307C252.15 477.029 222.227 472.295 195.754 460.074C146.512 437.341 104.8 397.193 85.0086 346.186C64.558 293.48 64.5583 234.319 86.7613 182.404C104.116 142.637 128.396 113.088 164.032 88.6818C282.066 7.84408 445.54 57.4401 496.478 191.891C514.481 192.382 532.948 191.941 550.998 191.86L627.476 191.831C641.547 191.819 666.609 190.984 679.89 192.107C682.285 192.134 686.955 192.305 689.142 192.108C695.706 192.502 702.508 192.459 709.09 192.43C762.508 192.197 816.062 193.153 869.468 192.534C868.659 195.43 867.564 199.83 866.489 202.489C863.827 209.099 862.262 217.098 860.814 224.094C852.67 263.421 857.148 306.954 872.875 343.773C875.872 350.602 879.085 357.335 882.509 363.96C883.569 365.704 887.108 371.009 886.996 372.624L829.363 410.384C848.482 436.63 862.603 476.797 862.45 509.448L862.523 519.543C862.013 555.413 850.356 587.862 830.772 617.739L825.02 625.572C841.738 634.73 857.877 647.372 874.331 657.28C877.077 658.933 880.465 661.112 883.055 663.01C880.543 668.042 877.544 672.826 875.05 677.757C849.707 727.858 844.551 789.884 862.357 843.511C873.552 876.898 891.506 907.62 915.098 933.759C917.3 936.197 923.656 943.476 925.806 945.232L925.787 960.564L928.089 964.134C886.614 964.901 842.721 964.131 801.077 964.12L557.397 964.282L234.11 964.088L97.6981 964.04C74.0275 964.054 50.3396 964.136 26.6712 964.177C24.6094 964.18 23.2943 964.178 21.6534 962.984L21.5632 961.874C22.6243 960.707 24.0029 960.064 25.5536 960.062C34.522 960.054 43.823 960.094 52.7696 960.105L118.838 960.217C127.743 960.251 145.226 960.818 153.415 960.114L154.073 960.051C153.998 959.606 153.623 957.406 153.623 957.406C139.859 947.307 126.326 937.635 113.657 926.097C72.0057 888.163 46.6043 831.676 46.2268 775.069C45.8429 717.507 69.3012 661.083 109.841 619.785C155.179 573.537 217.163 547.404 281.919 547.235L281.796 517.028C280.855 512.793 281.128 483.832 281.12 477.307Z"/><path fill="#E5E7EB" d="M292.097 517.65C313.722 516.904 338.549 517.454 360.437 517.448L501.055 517.452C502.281 555.933 511.094 583.636 531.709 615.68C533.564 617.723 536.001 620.752 537.149 623.258C552.814 644.653 576.733 663.755 600.25 675.78C601.977 676.631 607.87 679.399 609.15 680.29C657.223 699.062 707.823 700.239 755.656 679.605C756.928 678.757 762.828 676.111 764.54 675.304C788.143 662.269 808.345 647.106 825.02 625.572C841.738 634.73 857.877 647.372 874.331 657.28C877.077 658.933 880.465 661.112 883.055 663.01C880.543 668.042 877.544 672.826 875.05 677.757C849.707 727.858 844.551 789.884 862.357 843.511C873.552 876.898 891.506 907.62 915.098 933.759C917.3 936.197 923.656 943.476 925.806 945.232L925.787 960.564L928.089 964.134C886.614 964.901 842.721 964.131 801.077 964.12L557.397 964.282L234.11 964.088L97.6981 964.04C74.0275 964.054 50.3396 964.136 26.6712 964.177C24.6094 964.18 23.2943 964.178 21.6534 962.984L21.5632 961.874C22.6243 960.707 24.0029 960.064 25.5536 960.062C34.522 960.054 43.823 960.094 52.7696 960.105L118.838 960.217C127.743 960.251 145.226 960.818 153.415 960.114L154.073 960.051C153.998 959.606 153.623 957.406 153.623 957.406C139.859 947.307 126.326 937.635 113.657 926.097C72.0057 888.163 46.6043 831.676 46.2268 775.069C45.8429 717.507 69.3012 661.083 109.841 619.785C155.179 573.537 217.163 547.404 281.919 547.235L292.102 547.332L292.105 529.631L292.097 517.65Z"/><path fill="white" d="M825.02 625.572C841.738 634.73 857.877 647.372 874.331 657.28C877.077 658.933 880.465 661.112 883.055 663.01C880.543 668.042 877.544 672.826 875.05 677.757C849.707 727.858 844.551 789.884 862.357 843.511C873.552 876.898 891.506 907.62 915.098 933.759C917.3 936.197 923.656 943.476 925.806 945.232L925.787 960.564L928.089 964.134C886.614 964.901 842.721 964.131 801.077 964.12L557.397 964.282L234.11 964.088L97.6981 964.04C74.0275 964.054 50.3396 964.136 26.6712 964.177C24.6094 964.18 23.2943 964.178 21.6534 962.984L21.5632 961.874C22.6243 960.707 24.0029 960.064 25.5536 960.062C34.522 960.054 43.823 960.094 52.7696 960.105L118.838 960.217C127.743 960.251 145.226 960.818 153.415 960.114L154.073 960.051L154.46 960.027C154.935 924.263 154.16 887.588 154.101 851.708C165.241 852.42 179.172 852.054 190.566 852.06L253.094 852.066C309.089 852.055 366.022 852.589 421.933 851.975C421.755 885.641 421.909 919.309 422.395 952.973L422.46 960.605C436.147 960.333 449.838 960.268 463.527 960.407C467.098 960.565 471.508 960.365 475.151 960.293C481.984 943.376 493.148 921.233 501.271 904.839L529.238 847.159L580.088 740.705C589.469 721.049 599.269 699.451 609.15 680.29C657.223 699.062 707.823 700.239 755.656 679.605C756.928 678.757 762.828 676.111 764.54 675.304C788.143 662.269 808.345 647.106 825.02 625.572Z"/><path fill="#FCD34D" d="M154.101 851.708C165.241 852.42 179.172 852.054 190.566 852.06L253.094 852.066C309.089 852.055 366.022 852.589 421.933 851.975C421.755 885.641 421.909 919.309 422.395 952.973L422.46 960.605C386.782 960.617 350.323 960.98 314.701 960.453L314.307 956.877L313.991 956.827C313.59 951.366 313.847 942.299 313.843 936.514L313.832 898.631C298.903 898.562 277.286 897.861 262.635 898.812L261.261 898.793L261.275 960.639L190.951 960.572C183.122 960.577 161.515 961.026 154.46 960.027C154.935 924.263 154.16 887.588 154.101 851.708Z"/><path fill="#8A8490" d="M261.228 865.319C279.208 865.444 297.19 865.445 315.171 865.319C313.901 873.652 314.588 886.835 314.519 895.62C314.362 915.691 315.346 936.892 314.307 956.877L313.991 956.827C313.59 951.366 313.847 942.299 313.843 936.514L313.832 898.631C298.903 898.562 277.286 897.861 262.635 898.812L261.261 898.793L261.228 865.319Z"/><path fill="white" d="M262.594 866.7L313.859 866.652C313.912 876.77 313.867 886.889 313.725 897.007C297.87 896.82 278.093 896.277 262.542 897.093L262.594 866.7Z"/><path fill="#CFAC62" d="M315.171 865.319C315.956 881.978 314.917 901.847 315.345 918.959C315.503 925.262 315.63 955.707 314.701 960.453L314.307 956.877C315.346 936.892 314.362 915.691 314.519 895.62C314.588 886.835 313.901 873.652 315.171 865.319Z"/><path fill="#8A8490" d="M165.349 864.534C183.33 864.715 201.312 864.753 219.294 864.65C217.629 886.204 218.598 921.428 218.656 943.855C201.304 944.305 182.713 943.977 165.269 943.974C165.565 917.661 165.33 890.885 165.349 864.534Z"/><path fill="white" d="M166.53 898.596L217.807 898.659L217.776 943.091C203.11 942.354 181.349 942.605 166.628 942.912L166.53 898.596Z"/><path fill="white" d="M214.93 865.672C215.239 865.64 216.671 865.802 217.038 865.836C218.732 869.048 217.798 891.862 217.719 896.966L169.125 896.923C167.925 896.936 168.25 896.887 167.041 896.389C165.769 892.416 166.178 871.327 166.194 865.773L214.93 865.672Z"/><path fill="#8A8490" d="M357.961 864.704L409.806 864.752C408.997 890.363 409.728 918.251 409.867 944.082L357.773 944.08C358.211 917.963 357.909 890.881 357.961 864.704Z"/><path fill="white" d="M380.9 898.333C389.806 898.304 399.68 898.073 408.495 898.566L408.491 942.706L389.138 942.703L359.101 942.617L359.152 898.595C366.402 898.561 373.652 898.474 380.9 898.333Z"/><path fill="white" d="M406.394 865.746L407.78 865.953C409.156 868.374 408.537 892.385 408.513 896.738L361.078 896.833L360.253 896.78C358.313 894.878 359.396 871.75 358.799 865.94L406.394 865.746Z"/><path fill="white" d="M825.02 625.572C841.738 634.73 857.877 647.372 874.331 657.28C877.077 658.933 880.465 661.112 883.055 663.01C880.543 668.042 877.544 672.826 875.05 677.757C849.707 727.858 844.551 789.884 862.357 843.511C873.552 876.898 891.506 907.62 915.098 933.759C917.3 936.197 923.656 943.476 925.806 945.232L925.787 960.564C916.912 960.573 907.217 960.775 898.421 960.282C895.566 960.013 890.859 960.162 887.847 960.171C878.713 939.489 868.779 919.574 859.175 899.13L804.23 781.972C787.722 747.314 771.488 714.806 755.656 679.605C756.928 678.757 762.828 676.111 764.54 675.304C788.143 662.269 808.345 647.106 825.02 625.572Z"/><path fill="#F87171" d="M764.54 675.304C773.399 698.131 788.596 727.087 799.274 749.727L875.709 912.213C880.648 922.986 885.853 933.661 890.893 944.385C893.248 949.397 896.45 955.216 898.421 960.282C895.566 960.013 890.859 960.162 887.847 960.171C878.713 939.489 868.779 919.574 859.175 899.13L804.23 781.972C787.722 747.314 771.488 714.806 755.656 679.605C756.928 678.757 762.828 676.111 764.54 675.304Z"/><path fill="#8A8490" d="M262.635 898.812C277.286 897.861 298.903 898.562 313.832 898.631L313.843 936.514C313.847 942.299 313.59 951.366 313.991 956.827L314.307 956.877L314.701 960.453C350.323 960.98 386.782 960.617 422.46 960.605C436.147 960.333 449.838 960.268 463.527 960.407C467.098 960.565 471.508 960.365 475.151 960.293L748.097 960.484L836.756 960.597C851.497 960.624 873.869 961.192 887.847 960.171C890.859 960.162 895.566 960.013 898.421 960.282C907.217 960.775 916.912 960.573 925.787 960.564L928.089 964.134C886.614 964.901 842.721 964.131 801.077 964.12L557.397 964.282L234.11 964.088L97.6981 964.04C74.0275 964.054 50.3396 964.136 26.6712 964.177C24.6094 964.18 23.2943 964.178 21.6534 962.984L21.5632 961.874C22.6243 960.707 24.0029 960.064 25.5536 960.062C34.522 960.054 43.823 960.094 52.7696 960.105L118.838 960.217C127.743 960.251 145.226 960.818 153.415 960.114L154.073 960.051L154.46 960.027C161.515 961.026 183.122 960.577 190.951 960.572L261.275 960.639L261.261 898.793L262.635 898.812Z"/><path fill="white" d="M262.635 898.812C277.286 897.861 298.903 898.562 313.832 898.631L313.843 936.514C313.847 942.299 313.59 951.366 313.991 956.827C313.902 958.555 314.07 958.898 313.021 960.258C309.806 960.857 299.849 960.591 296.146 960.583L262.463 960.5C262.301 940.06 262.614 919.295 262.635 898.812Z"/><path fill="#E5E7EB" d="M705.646 846.953C713.115 846.333 721.505 846.921 728.801 846.492C753.34 845.048 756.214 876.957 731.656 878.25C718.734 879.486 687.79 883.122 686.31 864.259C685.94 859.868 687.49 855.532 690.56 852.373C695.332 847.428 699.421 847.185 705.646 846.953Z"/><path fill="#FCD34D" d="M154.05 724.47C170.791 725.605 195.85 724.915 213.019 724.937L325.928 724.944L389.501 725.156C397.021 725.182 415.383 725.674 421.81 724.621L421.781 823.143C427.503 824.022 467.293 829.669 469.224 831.257C464.178 844.895 435.075 850.531 421.933 851.975C366.022 852.589 309.089 852.055 253.094 852.066L190.566 852.06C179.172 852.054 165.241 852.42 154.101 851.708C134.99 848.062 119.031 845.333 103.959 832.276C119.835 831.33 138.528 827.169 153.977 823.359L154.05 724.47Z"/><path fill="#57555F" d="M165.556 766.974C165.682 767.546 166.258 770.32 166.407 770.705L217.793 770.713L217.87 813.255L218.431 813.1L218.44 821.373C224.814 821.396 257.204 822.234 261.366 820.944L261.866 820.888C266.53 821.905 310.327 821.708 314.03 820.924L314.6 820.924C321.075 822.112 349.398 821.217 358.138 821.482L359.055 821.2C372.624 822.264 397.345 820.13 408.865 821.677L409.613 821.655C413.662 822.209 417.718 822.705 421.781 823.143C427.503 824.022 467.293 829.669 469.224 831.257C464.178 844.895 435.075 850.531 421.933 851.975C366.022 852.589 309.089 852.055 253.094 852.066L190.566 852.06C179.172 852.054 165.241 852.42 154.101 851.708C134.99 848.062 119.031 845.333 103.959 832.276C119.835 831.33 138.528 827.169 153.977 823.359C157.413 822.441 161.811 821.76 165.388 821.11L165.556 766.974Z"/><path fill="white" d="M166.407 770.705L217.793 770.713L217.87 813.255L217.809 821.357L166.562 821.342C166.58 805.164 167.038 786.696 166.407 770.705Z"/><path fill="white" d="M262.089 770.661L313.964 770.675L314.03 820.924C310.327 821.708 266.53 821.905 261.866 820.888L262.089 770.661Z"/><path fill="white" d="M359.248 770.642L408.54 770.693L408.525 803.626C408.526 807.962 408.331 817.763 408.865 821.677C397.345 820.13 372.624 822.264 359.055 821.2C359.754 805.365 359.276 786.685 359.248 770.642Z"/><path fill="#6C6472" d="M357.824 738.268L409.854 738.138L409.613 821.655L408.865 821.677C408.331 817.763 408.526 807.962 408.525 803.626L408.54 770.693L359.248 770.642C359.276 786.685 359.754 805.365 359.055 821.2L358.138 821.482L357.824 738.268Z"/><path fill="white" d="M359.133 739.339L408.509 739.345L408.515 769.186L359.095 769.194L359.133 739.339Z"/><path fill="#6C6472" d="M261.371 738.159L315.109 738.058C313.578 764.627 315.585 793.981 314.6 820.924L314.03 820.924L313.964 770.675L262.089 770.661L261.866 820.888L261.366 820.944C261.659 793.36 261.091 765.703 261.371 738.159Z"/><path fill="white" d="M262.326 739.302L313.938 739.301L313.846 769.216L262.238 769.228C262.479 759.496 262.31 749.087 262.326 739.302Z"/><path fill="#57555F" d="M165.404 738.118L218.551 738.119C218.496 762.391 219.07 789.081 218.431 813.1L217.87 813.255L217.793 770.713L166.407 770.705C166.258 770.32 165.682 767.546 165.556 766.974L165.404 738.118Z"/><path fill="white" d="M217.252 739.072C217.982 740.473 217.594 765.224 217.564 769.246L167.469 769.281C165.84 767.218 166.534 743.505 166.546 739.161L217.252 739.072Z"/><path fill="white" d="M531.709 615.68C533.564 617.723 536.001 620.752 537.149 623.258C552.814 644.653 576.733 663.755 600.25 675.78C601.977 676.631 607.87 679.399 609.15 680.29C599.269 699.451 589.469 721.049 580.088 740.705L529.238 847.159L501.271 904.839C493.148 921.233 481.984 943.376 475.151 960.293C471.508 960.365 467.098 960.565 463.527 960.407C449.838 960.268 436.147 960.333 422.46 960.605L422.395 952.973C428.738 947.401 434.754 943.641 441.218 937.131C471.08 907.058 494.846 867.777 505.329 826.701C519.488 771.469 511.193 712.876 482.261 663.748C479.93 660.275 479.034 658.988 477.485 655.159C493.666 642.873 515.022 626.959 531.709 615.68Z"/><path fill="#F87171" d="M600.25 675.78C601.977 676.631 607.87 679.399 609.15 680.29C599.269 699.451 589.469 721.049 580.088 740.705L529.238 847.159L501.271 904.839C493.148 921.233 481.984 943.376 475.151 960.293C471.508 960.365 467.098 960.565 463.527 960.407C465.367 957.539 469.001 949.767 470.704 946.324C476.452 934.776 481.983 923.122 487.294 911.367C496.411 891.575 506.574 871.344 516.007 851.506L572.532 733.009C581.419 714.481 592.086 694.384 600.25 675.78Z"/><path fill="#F87171" d="M531.709 615.68C533.564 617.723 536.001 620.752 537.149 623.258C521.09 635.438 504.354 646.707 488.456 659.105C486.424 660.689 484.406 662.321 482.261 663.748C479.93 660.275 479.034 658.988 477.485 655.159C493.666 642.873 515.022 626.959 531.709 615.68Z"/><path fill="#57555F" d="M288.156 618.159C318.163 642.361 348.258 668.009 378.224 691.808C405.968 695.598 442.788 700.997 470.337 702.119C458.472 717.532 440.048 720.706 421.81 724.621C415.383 725.674 397.021 725.182 389.501 725.156L325.928 724.944L213.019 724.937C195.85 724.915 170.791 725.605 154.05 724.47C135.901 719.65 120.506 716.203 106.534 702.111C128.727 701.904 147.776 699.023 169.661 695.311C178.969 693.733 191.551 691.22 200.747 690.248C221.961 671.749 245.131 654.442 266.542 636.032C273.514 630.038 281.374 624.351 288.156 618.159Z"/><path fill="white" d="M292.097 517.65C313.722 516.904 338.549 517.454 360.437 517.448L501.055 517.452C502.281 555.933 511.094 583.636 531.709 615.68C515.022 626.959 493.666 642.873 477.485 655.159C472.365 645.304 452.153 621.559 444.504 613.481C408.868 575.846 344.828 547.608 292.746 547.282C292.743 542.251 293.025 534.302 292.105 529.631L292.097 517.65Z"/><path fill="#AB6F73" d="M542.105 401.805C543.082 400.61 544.083 399.436 545.109 398.282C580.409 358.585 625.617 339.975 677.833 336.687L687.369 336.691C734.226 337.912 780.229 356.631 812.653 390.85C816.247 394.717 819.757 398.662 823.18 402.682C825.42 405.852 826.632 407.66 829.363 410.384C848.482 436.63 862.603 476.797 862.45 509.448L862.523 519.543C862.013 555.413 850.356 587.862 830.772 617.739L825.02 625.572C808.345 647.106 788.143 662.269 764.54 675.304C762.828 676.111 756.928 678.757 755.656 679.605C707.823 700.239 657.223 699.062 609.15 680.29C607.87 679.399 601.977 676.631 600.25 675.78C576.733 663.755 552.814 644.653 537.149 623.258C536.001 620.752 533.564 617.723 531.709 615.68C511.094 583.636 502.281 555.933 501.055 517.452C500.899 514.879 501.046 511.01 501.076 508.322C503.798 470.33 514.175 439.518 536.839 408.779C538.3 407.109 540.69 403.696 542.105 401.805Z"/><path fill="white" d="M676.604 339.145C774.065 336.154 855.504 412.741 858.521 510.225C861.539 607.709 784.992 689.189 687.533 692.234C590.036 695.28 508.538 618.678 505.519 521.157C502.501 423.636 579.105 342.138 676.604 339.145Z"/><path fill="#F87171" d="M676.264 370.037C756.642 366.752 824.467 429.258 827.762 509.656C831.057 590.053 768.574 657.903 688.197 661.208C607.805 664.515 539.957 602.003 536.662 521.591C533.367 441.179 595.872 373.323 676.264 370.037Z"/><path fill="#F87171" d="M675.57 640.751C667.76 624.449 659.317 600.576 652.374 583.219L632.589 533.29C623.875 510.809 614.782 493.577 623.666 468.826C642.582 416.122 716.036 412.42 739.562 463.523C746.568 478.741 747.775 495.753 741.55 511.498C724.823 554.797 706.879 597.595 689.817 640.746C695.572 640.878 710.992 640.593 715.427 641.172L716.223 641.786L716.2 643.191C714.003 644.422 646.554 644.635 644.255 643.339C644.002 641.7 643.836 642.438 644.794 641.061C650.316 640.185 668.797 640.702 675.57 640.751Z"/><path fill="#AB6F73" d="M675.57 640.751C686.531 641.105 704.741 642.053 715.427 641.172L716.223 641.786L716.2 643.191C714.003 644.422 646.554 644.635 644.255 643.339C644.002 641.7 643.836 642.438 644.794 641.061C650.316 640.185 668.797 640.702 675.57 640.751Z"/><path fill="#F87171" d="M676.87 447.745C698.526 444.521 718.676 459.521 721.805 481.196C724.934 502.872 709.85 522.961 688.166 525.995C666.617 529.011 646.683 514.036 643.574 492.495C640.464 470.953 655.348 450.95 676.87 447.745Z"/><path fill="white" d="M689.142 192.108C695.706 192.502 702.508 192.459 709.09 192.43C762.508 192.197 816.062 193.153 869.468 192.534C868.659 195.43 867.564 199.83 866.489 202.489C863.827 209.099 862.262 217.098 860.814 224.094C852.67 263.421 857.148 306.954 872.875 343.773C875.872 350.602 879.085 357.335 882.509 363.96C883.569 365.704 887.108 371.009 886.996 372.624L829.363 410.384C826.632 407.66 825.42 405.852 823.18 402.682C819.757 398.662 816.247 394.717 812.653 390.85C780.229 356.631 734.226 337.912 687.369 336.691L677.833 336.687C625.617 339.975 580.409 358.585 545.109 398.282C544.083 399.436 543.082 400.61 542.105 401.805C540.69 403.696 538.3 407.109 536.839 408.779C534.977 407.544 532.642 406.371 530.681 405.215C512.858 394.704 495.381 382.541 477.179 372.737C477.543 370.76 480.604 365.981 481.852 364.297C483.209 362.453 484.529 360.243 485.651 358.207C503.7 325.456 511.714 282.987 508.852 245.882C507.938 234.026 503.104 213.841 499.946 202.474C499.112 201.138 496.837 194.511 496.151 192.625L607.645 192.498C628.182 192.525 660.291 193.52 679.89 192.107C682.285 192.134 686.955 192.305 689.142 192.108Z"/><path fill="white" d="M499.946 202.474C513.834 201.392 531.725 201.829 545.939 202.093C589.581 202.904 633.848 201.388 677.402 202.36C678.122 247.217 677.376 291.916 677.833 336.687C625.617 339.975 580.409 358.585 545.109 398.282C544.083 399.436 543.082 400.61 542.105 401.805C540.69 403.696 538.3 407.109 536.839 408.779C534.977 407.544 532.642 406.371 530.681 405.215C512.858 394.704 495.381 382.541 477.179 372.737C477.543 370.76 480.604 365.981 481.852 364.297C483.209 362.453 484.529 360.243 485.651 358.207C503.7 325.456 511.714 282.987 508.852 245.882C507.938 234.026 503.104 213.841 499.946 202.474Z"/><path fill="#F87171" d="M477.179 372.737C477.543 370.76 480.604 365.981 481.852 364.297C498.708 374.524 527.039 390.7 542.105 401.805C540.69 403.696 538.3 407.109 536.839 408.779C534.977 407.544 532.642 406.371 530.681 405.215C512.858 394.704 495.381 382.541 477.179 372.737Z"/><path fill="#E5E7EB" d="M593.907 278.81C601.823 278.12 610.831 278.752 618.844 278.47C627.33 278.172 637.428 279.79 640.463 289.228C641.826 293.562 641.353 298.265 639.155 302.241C636.602 306.967 633.773 308.527 629.019 309.986C618.292 309.882 589.016 313.137 583.523 301.873C578.057 290.666 583.808 283.607 593.907 278.81Z"/><path fill="#F87171" d="M689.142 192.108C695.706 192.502 702.508 192.459 709.09 192.43C762.508 192.197 816.062 193.153 869.468 192.534C868.659 195.43 867.564 199.83 866.489 202.489L756.532 202.27C734.079 202.2 709.575 201.684 687.224 202.223C687.236 245.555 686.239 293.791 687.369 336.691L677.833 336.687C677.376 291.916 678.122 247.217 677.402 202.36C633.848 201.388 589.581 202.904 545.939 202.093C531.725 201.829 513.834 201.392 499.946 202.474C499.112 201.138 496.837 194.511 496.151 192.625L607.645 192.498C628.182 192.525 660.291 193.52 679.89 192.107C682.285 192.134 686.955 192.305 689.142 192.108Z"/><path fill="#F87171" d="M882.509 363.96C883.569 365.704 887.108 371.009 886.996 372.624L829.363 410.384C826.632 407.66 825.42 405.852 823.18 402.682C841.282 391.787 864.387 375.938 882.509 363.96Z"/><path fill="white" d="M477.179 372.737C495.381 382.541 512.858 394.704 530.681 405.215C532.642 406.371 534.977 407.544 536.839 408.779C514.175 439.518 503.798 470.33 501.076 508.322C501.046 511.01 500.899 514.879 501.055 517.452L360.437 517.448C338.549 517.454 313.722 516.904 292.097 517.65L292.105 529.631L292.102 547.332L281.919 547.235L281.796 517.028C282.357 505.222 281.865 489.417 281.845 477.307C285.384 477.264 288.923 477.32 292.458 477.474C295.899 477.771 298.845 477.581 302.276 477.284C344.48 473.848 384.86 458.578 418.781 433.227C426.577 427.297 433.13 422.223 439.463 414.68L440.228 413.921C446.784 411.92 463.227 391.422 467.672 385.27C469.797 382.33 474.747 374.773 477.179 372.737Z"/><path fill="#F87171" d="M281.845 477.307C285.384 477.264 288.923 477.32 292.458 477.474C292.237 487.528 291.847 498.047 292.094 508.063L501.076 508.322C501.046 511.01 500.899 514.879 501.055 517.452L360.437 517.448C338.549 517.454 313.722 516.904 292.097 517.65L292.105 529.631L292.102 547.332L281.919 547.235L281.796 517.028C282.357 505.222 281.865 489.417 281.845 477.307Z"/><path fill="#FCD34D" d="M233.235 189.908C234.367 189.852 236.005 189.864 237.034 189.573C243.674 190.458 271 190.226 279.074 190.004C297.406 189.5 320.094 190.818 337.909 189.875L341.81 189.98L349.023 189.947C357.754 189.98 367.127 189.837 375.801 190.076L435.604 190.01C422.535 211.891 401.467 223.23 375.992 223.436L349.228 223.637L349.235 260.423C309.212 260.494 267.168 260.026 227.268 260.732C227.076 248.646 227.25 236.077 227.251 223.953C218.935 224.045 208.081 224.334 200.001 223.562C193.816 222.662 186.752 222.804 180.588 221.142C161.634 216.033 151.121 205.861 141.371 189.822L200.005 189.878L227.402 190.028L233.235 189.908Z"/><path fill="#E5E7EB" d="M227.251 223.953C267.708 223.272 308.668 224.161 349.228 223.637L349.235 260.423C309.212 260.494 267.168 260.026 227.268 260.732C227.076 248.646 227.25 236.077 227.251 223.953Z"/><path fill="#FCD34D" d="M349.235 260.423L375.867 260.526C397.283 260.645 421.143 261.138 442.411 260.537C428.047 287.476 404.286 293.552 375.949 294.556C367.171 294.793 358.051 294.649 349.245 294.629C308.639 294.171 268.029 294.152 227.422 294.572C218.266 294.685 209.109 294.683 199.953 294.564C187.515 294.246 178.942 294.299 166.972 289.887C152.544 284.689 140.753 274.002 134.163 260.151C156.108 260.431 178.122 260.154 200.02 260.657C209.101 260.872 218.186 260.897 227.268 260.732C267.168 260.026 309.212 260.494 349.235 260.423Z"/><path fill="white" d="M246.566 315.498L328.704 315.509C328.782 323.042 329.258 395.826 327.981 399.34L325.966 399.82C324.577 403.041 325.316 409.09 325.251 412.825C320.495 411.148 259.847 412.161 249.802 412.192C249.82 408.884 249.709 406.942 249.361 403.651C249.573 401.878 249.773 401.437 248.951 399.837L247.203 399.291C245.658 394.828 246.525 325.754 246.566 315.498Z"/><path fill="#E5E7EB" d="M227.422 294.572C268.029 294.152 308.639 294.171 349.245 294.629L349.235 363.975C349.233 374.984 349.61 388.448 349.193 399.29C343.029 399.274 336.865 399.215 330.701 399.116L327.981 399.34C329.258 395.826 328.782 323.042 328.704 315.509L246.566 315.498C246.525 325.754 245.658 394.828 247.203 399.291L244.057 399.553C239.791 399.219 231.672 399.415 227.124 399.39C226.786 364.451 226.886 329.508 227.422 294.572Z"/><path fill="#6C6472" d="M244.021 313.248L331.03 313.265C329.926 337.35 331.062 362.122 330.542 386.274C330.456 390.224 330.431 395.18 330.701 399.116L327.981 399.34C329.258 395.826 328.782 323.042 328.704 315.509L246.566 315.498C246.525 325.754 245.658 394.828 247.203 399.291L244.057 399.553L244.021 313.248Z"/><path fill="#F87171" d="M199.953 294.564C209.109 294.683 218.266 294.685 227.422 294.572C226.886 329.508 226.786 364.451 227.124 399.39L199.899 399.328L199.953 294.564Z"/><path fill="#F87171" d="M349.245 294.629C358.051 294.649 367.171 294.793 375.949 294.556C375.907 329.285 376.233 364.711 375.725 399.383L349.193 399.29C349.61 388.448 349.233 374.984 349.235 363.975L349.245 294.629Z"/><path fill="#E5E7EB" d="M237.034 189.573C257.838 175.947 270.691 161.507 282.127 139.107C284.969 133.54 286.849 126.517 289.42 120.951C298.799 150.246 312.367 171.808 337.909 189.875C320.094 190.818 297.406 189.5 279.074 190.004C271 190.226 243.674 190.458 237.034 189.573Z"/><path fill="#57555F" d="M227.124 399.39C231.672 399.415 239.791 399.219 244.057 399.553L247.203 399.291L248.951 399.837C249.773 401.437 249.573 401.878 249.361 403.651C248.991 407.784 248.898 409.588 249.139 413.713C245.17 413.693 230.403 413.211 227.835 414.522C201.372 415.134 174.661 413.987 148.178 414.628C145.37 414.696 142.426 414.91 140.208 412.928C142.607 411.468 172.626 412.014 177.449 412.018L177.704 399.409L199.899 399.328L227.124 399.39Z"/><path fill="#57555F" d="M327.981 399.34L330.701 399.116C336.865 399.215 343.029 399.274 349.193 399.29L375.725 399.383L396.602 399.411L396.637 412.844L396.524 413.099C394.246 414.804 334.536 413.874 325.911 413.713L325.251 412.825C325.316 409.09 324.577 403.041 325.966 399.82L327.981 399.34Z"/><path fill="#F87171" d="M200.001 223.562C208.081 224.334 218.935 224.045 227.251 223.953C227.25 236.077 227.076 248.646 227.268 260.732C218.186 260.897 209.101 260.872 200.02 260.657L200.001 223.562Z"/><path fill="#F87171" d="M349.228 223.637L375.992 223.436L375.867 260.526L349.235 260.423L349.228 223.637Z"/><path fill="#F87171" d="M200.005 189.878C199.826 181.946 198.038 169.509 203.35 163.913C206.208 160.955 210.143 159.282 214.256 159.278C230.675 159.213 227.42 179.07 227.402 190.028L200.005 189.878Z"/><path fill="#F87171" d="M349.352 167.523C357.157 154.909 372.439 155.27 375.555 170.811C376.604 176.039 375.695 184.428 375.801 190.076C367.127 189.837 357.754 189.98 349.023 189.947C349.045 183.034 348.853 174.27 349.352 167.523Z"/><path fill="#57555F" d="M287.911 113.916C281.64 113.68 276.644 108.588 276.527 102.312C276.411 96.0358 281.214 90.7611 287.472 90.2931C293.73 89.825 299.265 94.3266 300.082 100.55C300.9 106.774 296.717 112.553 290.551 113.718C289.681 113.883 288.795 113.949 287.911 113.916Z"/><path fill="#6C6472" d="M249.361 403.651C249.709 406.942 249.82 408.884 249.802 412.192C259.847 412.161 320.495 411.148 325.251 412.825L325.911 413.713C334.536 413.874 394.246 414.804 396.524 413.099L396.637 412.844C400.605 411.252 432.101 412.041 438.564 412.283C439.536 412.32 439.91 413.147 440.228 413.921L439.463 414.68C369.191 414.152 297.973 415.431 227.835 414.522C230.403 413.211 245.17 413.693 249.139 413.713C248.898 409.588 248.991 407.784 249.361 403.651Z"/><path fill="#6C6472" d="M287.911 113.916C288.795 113.949 289.681 113.883 290.551 113.718C292.917 135.895 314.321 169.713 332.245 182.964C335.361 185.268 338.613 187.728 341.81 189.98L337.909 189.875C312.367 171.808 298.799 150.246 289.42 120.951C286.849 126.517 284.969 133.54 282.127 139.107C270.691 161.507 257.838 175.947 237.034 189.573C236.005 189.864 234.367 189.852 233.235 189.908C257.228 174.832 285.685 142.979 287.911 113.916Z"/><path fill="#E5E7EB" d="M886.996 372.624C890.574 379.892 899.55 391.349 904.77 397.856C931.11 430.692 963.957 451.952 1003.67 465.247C1020.98 471.042 1054.63 477.054 1072.59 475.842C1076.64 475.692 1079.58 475.559 1083.61 475.887L1083.76 547.32C1153.04 546.378 1211.52 567.724 1261.6 616.366C1304.73 657.755 1329.31 714.817 1329.76 774.598C1330.58 835.651 1305.76 894.032 1260.07 934.34C1256.64 937.367 1253.4 940.554 1249.74 943.312C1249.7 948.74 1249.52 954.914 1249.72 960.271L1249.13 964.112C1219.83 963.268 1186.36 964.145 1156.64 964.118L1011.59 964.119L928.089 964.134L925.787 960.564L925.806 945.232C923.656 943.476 917.3 936.197 915.098 933.759C891.506 907.62 873.552 876.898 862.357 843.511C844.551 789.884 849.707 727.858 875.05 677.757C877.544 672.826 880.543 668.042 883.055 663.01C880.465 661.112 877.077 658.933 874.331 657.28C857.877 647.372 841.738 634.73 825.02 625.572L830.772 617.739C850.356 587.862 862.013 555.413 862.523 519.543L862.45 509.448C862.603 476.797 848.482 436.63 829.363 410.384L886.996 372.624Z"/><path fill="white" d="M886.996 372.624C890.574 379.892 899.55 391.349 904.77 397.856C931.11 430.692 963.957 451.952 1003.67 465.247C1020.98 471.042 1054.63 477.054 1072.59 475.842C1076.64 475.692 1079.58 475.559 1083.61 475.887L1083.76 547.32C1080.43 547.578 1075.72 548.099 1072.53 547.81C1061.35 547.769 1049.8 549.838 1038.83 551.885C977.973 563.241 921.328 602.904 888.826 655.555L883.055 663.01C880.465 661.112 877.077 658.933 874.331 657.28C857.877 647.372 841.738 634.73 825.02 625.572L830.772 617.739C850.356 587.862 862.013 555.413 862.523 519.543L862.45 509.448C862.603 476.797 848.482 436.63 829.363 410.384L886.996 372.624Z"/><path fill="white" d="M862.523 519.543L995.612 519.332C1019.81 519.26 1049.1 518.412 1072.98 519.147C1072.95 528.477 1073.12 538.56 1072.53 547.81C1061.35 547.769 1049.8 549.838 1038.83 551.885C977.973 563.241 921.328 602.904 888.826 655.555L883.055 663.01C880.465 661.112 877.077 658.933 874.331 657.28C857.877 647.372 841.738 634.73 825.02 625.572L830.772 617.739C850.356 587.862 862.013 555.413 862.523 519.543Z"/><path fill="#F87171" d="M830.772 617.739L888.826 655.555L883.055 663.01C880.465 661.112 877.077 658.933 874.331 657.28C857.877 647.372 841.738 634.73 825.02 625.572L830.772 617.739Z"/><path fill="#F87171" d="M1072.59 475.842C1076.64 475.692 1079.58 475.559 1083.61 475.887L1083.76 547.32C1080.43 547.578 1075.72 548.099 1072.53 547.81C1073.12 538.56 1072.95 528.477 1072.98 519.147C1049.1 518.412 1019.81 519.26 995.612 519.332L862.523 519.543L862.45 509.448C931.62 510.178 1003.71 509.557 1072.99 509.149C1072.32 497.89 1072.5 487.1 1072.59 475.842Z"/><path fill="#FCD34D" d="M1156.02 937.913L1216.4 937.879C1225.62 937.893 1240.09 937.493 1248.96 938.26C1249.98 939.855 1249.67 941.175 1249.74 943.312C1249.7 948.74 1249.52 954.914 1249.72 960.271L1249.13 964.112C1219.83 963.268 1186.36 964.145 1156.64 964.118L1155.91 960.571C1156.15 953.021 1156.19 945.465 1156.02 937.913Z"/><path fill="#AB6F73" d="M1249.72 960.271L1249.13 964.112C1219.83 963.268 1186.36 964.145 1156.64 964.118L1155.91 960.571C1186.35 960.296 1219.85 961.231 1249.72 960.271Z"/><path fill="#FCD34D" d="M925.806 945.232C925.774 942.957 925.445 939.608 926.382 937.699C934.408 937.01 948.178 937.407 956.667 937.412L1013.62 937.462C1013.54 943.973 1013.73 953.984 1013.22 960.206L1013.07 960.608L1011.59 964.119L928.089 964.134L925.787 960.564L925.806 945.232Z"/><path fill="#AB6F73" d="M1013.22 960.206L1013.07 960.608L1011.59 964.119L928.089 964.134L925.787 960.564L1013.22 960.206Z"/><path fill="#8A8490" d="M1013.07 960.608C1060.68 960.053 1108.3 960.041 1155.91 960.571L1156.64 964.118L1011.59 964.119L1013.07 960.608Z"/><path fill="#FCD34D" d="M1156.48 763.537C1187.04 763.838 1218.95 763.339 1249.24 764.005C1249.14 780.067 1248.84 796.578 1249.09 812.604L1156.45 812.62C1156.49 803.518 1156.26 792.794 1156.63 783.832L1156.76 780.774C1156.55 775.031 1156.46 769.284 1156.48 763.537Z"/><path fill="#32323D" d="M1169.82 769.304L1234.32 769.297C1233.28 778.199 1233.76 796.924 1233.85 806.384C1228.25 807.39 1174.96 807.071 1169.78 806.255C1170.13 796.286 1170.49 779.189 1169.82 769.304Z"/><path fill="#8A723A" d="M1169.78 806.255C1177.17 805.045 1226.93 805.367 1233.85 806.384C1228.25 807.39 1174.96 807.071 1169.78 806.255Z"/><path fill="#E5E7EB" d="M1171.44 770.648L1191.06 770.628L1191.09 805.296L1171.51 805.284L1171.44 770.648Z"/><path fill="#E5E7EB" d="M1192.9 770.675L1212.33 770.648L1212.43 805.33L1192.89 805.312L1192.9 770.675Z"/><path fill="#E5E7EB" d="M1213.79 770.629L1232.82 770.63C1232.48 781.689 1232.81 794.034 1232.65 805.31L1214.02 805.337C1213.55 794.665 1213.83 781.483 1213.79 770.629Z"/><path fill="#FCD34D" d="M1156.43 822.083L1248.98 822.316C1248.67 838.614 1248.64 854.918 1248.9 871.217L1156.48 870.667L1156.43 822.083Z"/><path fill="#32323D" d="M1170.28 827.988C1190.17 828.612 1213.72 828.051 1233.87 828.061C1233.8 839.532 1233.43 852.875 1234.04 864.181C1228.53 865.988 1179.83 864.164 1170.34 863.953L1170.28 827.988Z"/><path fill="#E5E7EB" d="M1192.59 829.295L1212.38 829.315C1212.62 840.532 1212.53 852.185 1212.6 863.438L1192.54 863.388C1192.71 852.16 1192.58 840.553 1192.59 829.295Z"/><path fill="#E5E7EB" d="M1171.69 829.127L1190.87 829.182C1191.29 839.698 1190.99 852.668 1191.02 863.368L1171.7 863.387L1171.69 829.127Z"/><path fill="#E5E7EB" d="M1214.21 829.294L1232.65 829.265C1232.63 840.651 1232.69 852.038 1232.82 863.423L1214.31 863.422L1214.21 829.294Z"/><path fill="#FCD34D" d="M1156.39 880.804L1248.88 881.2C1248.25 895.515 1248.87 913.584 1249.21 928.078C1218.25 928.036 1187.29 928.162 1156.32 928.457L1156.39 880.804Z"/><path fill="#32323D" d="M1170.18 887.8C1176.29 886.64 1227.42 886.718 1234.33 887.653C1234.36 899.484 1234.27 911.555 1234.45 923.363L1213.17 923.347L1208.77 923.234C1203.92 923.505 1172.81 924.071 1170.26 922.497C1170.63 911.796 1170.23 898.68 1170.18 887.8Z"/><path fill="#E5E7EB" d="M1234.33 887.653C1234.36 899.484 1234.27 911.555 1234.45 923.363L1213.17 923.347L1213.91 922.117C1213.38 912.629 1213.75 898.494 1213.74 888.709C1220.14 888.706 1226.54 888.664 1232.93 888.582L1234.33 887.653Z"/><path fill="#625033" d="M1234.33 887.653C1234.36 899.484 1234.27 911.555 1234.45 923.363L1213.17 923.347L1213.91 922.117C1219.17 921.796 1227.49 922.048 1232.98 922.038L1232.93 888.582L1234.33 887.653Z"/><path fill="#E5E7EB" d="M1171.48 888.726L1190.92 888.711L1190.86 922.306C1186.46 921.749 1176.31 921.984 1171.42 921.984L1171.48 888.726Z"/><path fill="#625033" d="M1170.18 887.8C1176.29 886.64 1227.42 886.718 1234.33 887.653C1228.3 888.78 1176.11 888.658 1170.18 887.8Z"/><path fill="#625033" d="M1171.42 921.984C1176.31 921.984 1186.46 921.749 1190.86 922.306C1195.94 922.589 1204.42 921.854 1208.77 923.234C1203.92 923.505 1172.81 924.071 1170.26 922.497L1171.42 921.984Z"/><path fill="#E5E7EB" d="M1192.72 888.716L1212.31 888.709L1212.29 922.051L1192.72 922.077L1192.72 888.716Z"/><path fill="#FCD34D" d="M1156.48 708.008L1249.06 707.894C1248.95 717.876 1248.92 727.858 1248.97 737.84C1248.99 742.122 1249.25 750.568 1248.7 754.342L1156.49 754.596C1156.65 739.171 1156.49 723.457 1156.48 708.008Z"/><path fill="#E5E7EB" d="M1169.73 712.176C1184.27 712.233 1199.67 712.069 1214.11 712.716C1220.7 712.585 1227.3 712.531 1233.9 712.555C1233.83 724.218 1233.58 737.703 1234.36 749.253C1217.47 749.36 1186.55 750.256 1170.09 749.141C1169.4 744.981 1169.72 717.966 1169.73 712.176Z"/><path fill="#E5E7EB" d="M1214.11 712.716C1220.7 712.585 1227.3 712.531 1233.9 712.555C1233.83 724.218 1233.58 737.703 1234.36 749.253C1217.47 749.36 1186.55 750.256 1170.09 749.141L1171.36 748.047C1177.41 747.968 1185.25 747.657 1191.14 748.284L1192.73 748.143C1197.09 747.962 1208.4 747.593 1212.41 748.315C1216.56 748.681 1224.01 748.792 1228.06 748.083C1223.49 747.92 1218.51 747.991 1213.9 747.962C1213.84 741.806 1213.32 717.547 1214.19 713.311L1214.11 712.716Z"/><path fill="#625033" d="M1214.11 712.716C1220.7 712.585 1227.3 712.531 1233.9 712.555C1233.83 724.218 1233.58 737.703 1234.36 749.253C1217.47 749.36 1186.55 750.256 1170.09 749.141L1171.36 748.047C1177.41 747.968 1185.25 747.657 1191.14 748.284L1192.73 748.143C1197.09 747.962 1208.4 747.593 1212.41 748.315C1216.56 748.681 1224.01 748.792 1228.06 748.083C1229.99 748.074 1230.93 748.284 1232.51 747.194C1233.22 743.328 1232.62 718.767 1232.56 713.358L1214.19 713.311L1214.11 712.716Z"/><path fill="#E5E7EB" d="M1192.82 713.35L1212.3 713.307L1212.41 748.315C1208.4 747.593 1197.09 747.962 1192.73 748.143L1192.82 713.35Z"/><path fill="#32323D" d="M1169.73 712.176C1184.27 712.233 1199.67 712.069 1214.11 712.716L1214.19 713.311C1213.32 717.547 1213.84 741.806 1213.9 747.962C1218.51 747.991 1223.49 747.92 1228.06 748.083C1224.01 748.792 1216.56 748.681 1212.41 748.315L1212.3 713.307L1192.82 713.35L1192.73 748.143L1191.14 748.284C1190.57 738.151 1191.01 723.719 1191.04 713.327L1171.26 713.331C1171.13 724.77 1171.32 736.58 1171.36 748.047L1170.09 749.141C1169.4 744.981 1169.72 717.966 1169.73 712.176Z"/><path fill="#FCD34D" d="M958.084 821.664L1013.62 821.649L1013.22 869.978L981.373 869.955L925.594 869.917L925.679 821.889C936.481 821.894 947.283 821.819 958.084 821.664Z"/><path fill="#32323D" d="M939.706 826.724L1001.93 826.703C1002.65 830.63 1002.95 858.887 1002.05 861.933L939.676 861.909L939.706 826.724Z"/><path fill="#625033" d="M1001.93 826.703C1002.65 830.63 1002.95 858.887 1002.05 861.933C1001.06 857.456 1001.27 830.898 1001.93 826.703Z"/><path fill="#E5E7EB" d="M961.367 827.903L981.77 827.779L981.805 861.375L961.359 861.372L961.367 827.903Z"/><path fill="#E5E7EB" d="M940.722 827.931L959.708 827.928C959.825 838.959 959.7 850.23 959.689 861.28C953.672 860.919 947.046 861.007 940.969 860.963C941.035 849.952 940.952 838.94 940.722 827.931Z"/><path fill="#E5E7EB" d="M983.62 827.903L1001.1 827.843L1001.11 861.408L983.643 861.397L983.62 827.903Z"/><path fill="#FCD34D" d="M925.723 879.966L1013.65 879.957C1013.47 895.989 1013.47 912.023 1013.64 928.055L925.574 927.545C925.906 911.967 925.688 895.606 925.723 879.966Z"/><path fill="#32323D" d="M940.345 886.947C960.509 886.425 981.71 886.705 1001.95 886.664C1002.67 890.965 1002.67 915.966 1002.26 920.907L1001.41 921.869C983.051 922.573 959.078 921.952 940.349 921.949C940.555 910.497 940.363 898.442 940.345 886.947Z"/><path fill="#8A723A" d="M1001.95 886.664C1002.67 890.965 1002.67 915.966 1002.26 920.907C1001.26 915.445 1001.22 892.241 1001.95 886.664Z"/><path fill="#E5E7EB" d="M961.7 887.991L981.635 888C981.951 898.392 981.698 910.322 981.707 920.829L961.722 920.759L961.7 887.991Z"/><path fill="#E5E7EB" d="M941.198 887.944L959.984 887.956C960.015 895.643 960.484 914.279 959.675 920.714L941.383 920.682C941.499 909.769 941.437 898.855 941.198 887.944Z"/><path fill="#E5E7EB" d="M983.251 888.006L1001.08 887.993L1001.08 920.844L983.264 920.83L983.251 888.006Z"/><path fill="#FCD34D" d="M925.497 764.05L1013.29 763.958C1012.83 779.894 1012.71 795.838 1012.94 811.778C983.846 811.633 954.747 811.652 925.649 811.836C925.308 796.163 925.521 779.777 925.497 764.05Z"/><path fill="#E5E7EB" d="M983.149 769.339L1002.44 769.23L1002.49 805.29L960.145 805.326C956.695 805.327 942.165 805.512 939.34 804.899C938.731 801.381 938.9 773.183 939.57 769.397L983.149 769.339Z"/><path fill="#E5E7EB" d="M983.149 769.339L1002.44 769.23L1002.49 805.29L960.145 805.326C956.695 805.327 942.165 805.512 939.34 804.899L940.298 803.923C944.234 803.955 956.788 803.838 959.991 804.448L961.583 804.179C968.555 803.94 974.931 804.009 981.91 804.133L982.939 804.38L983.228 801.031C983.497 791.323 983.298 780.284 983.32 770.488L983.149 769.339Z"/><path fill="#625033" d="M983.149 769.339L1002.44 769.23L1002.49 805.29L960.145 805.326C956.695 805.327 942.165 805.512 939.34 804.899L940.298 803.923C944.234 803.955 956.788 803.838 959.991 804.448L961.583 804.179C968.555 803.94 974.931 804.009 981.91 804.133L982.939 804.38L983.228 801.031C983.566 803.013 983.14 802.217 984.3 803.612C988.346 804.605 996.554 804.119 1001.09 804.027L1001.06 770.466L983.32 770.488L983.149 769.339Z"/><path fill="#E5E7EB" d="M940.448 770.559L959.82 770.45C959.794 780.74 959.395 794.476 959.991 804.448C956.788 803.838 944.234 803.955 940.298 803.923C940.526 792.803 940.576 781.68 940.448 770.559Z"/><path fill="#32323D" d="M939.57 769.397L983.149 769.339L983.32 770.488C983.298 780.284 983.497 791.323 983.228 801.031L982.939 804.38L981.91 804.133C981.246 793.841 981.597 780.801 981.601 770.305C975.006 770.259 968.138 770.089 961.571 770.433L961.583 804.179L959.991 804.448C959.395 794.476 959.794 780.74 959.82 770.45L940.448 770.559C940.576 781.68 940.526 792.803 940.298 803.923L939.34 804.899C938.731 801.381 938.9 773.183 939.57 769.397Z"/><path fill="#625033" d="M939.34 804.899C938.731 801.381 938.9 773.183 939.57 769.397C940.092 773.945 940.368 801.187 939.34 804.899Z"/><path fill="#FCD34D" d="M925.15 708.188C954.457 707.717 984.319 707.907 1013.65 707.856C1013.4 723.399 1013.31 738.945 1013.38 754.49L925.259 754.414C925.676 739.882 925.169 722.922 925.15 708.188Z"/><path fill="#32323D" d="M939.246 712.351L980.777 712.024C986.004 712.007 997.845 711.756 1002.43 712.499C1002.39 719.579 1002.94 742.902 1002.32 748.654L939.18 748.708C939.473 736.943 939.244 724.191 939.246 712.351Z"/><path fill="#E5E7EB" d="M1002.43 712.499C1002.39 719.579 1002.94 742.902 1002.32 748.654C1001.56 745.267 1001.9 739.455 1001.16 734.969L1001.08 747.825L983.171 747.809L983.057 713.384L1000.96 713.315L1002.43 712.499Z"/><path fill="#8A723A" d="M1002.43 712.499C1002.39 719.579 1002.94 742.902 1002.32 748.654C1001.56 745.267 1001.9 739.455 1001.16 734.969C1000.7 731.74 1000.97 717.362 1000.96 713.315L1002.43 712.499Z"/><path fill="#E5E7EB" d="M961.623 713.257L981.274 713.248C981.515 724.548 981.458 736.215 981.543 747.545L961.732 747.496L961.623 713.257Z"/><path fill="#E5E7EB" d="M940.484 713.505C946.895 713.364 953.549 713.417 959.982 713.38L959.909 747.545L940.418 747.59L940.484 713.505Z"/><path fill="#57555F" d="M1042.12 666.938L1130.83 666.929C1138.54 674.059 1146.11 681.841 1153.55 689.288L1129.39 689.3L1018.42 689.424C1022.26 685.061 1037.41 668.906 1042.12 666.938Z"/><path fill="#57555F" d="M1156.76 780.774L1156.63 783.832C1142.61 783.545 1127.59 783.847 1113.49 783.875C1112.88 792.351 1113.03 811.398 1113.67 819.896C1095.07 820.01 1076.46 820 1057.86 819.865C1058.61 810.426 1058.18 793.437 1058 783.849C1048.95 783.787 1026.44 784.324 1018.78 783.396L1018.57 782.673C1019.99 781.611 1022.11 780.586 1023.9 780.622C1036.66 780.883 1049.43 780.885 1062.2 780.891L1156.76 780.774Z"/><path fill="#E5E7EB" d="M1067.24 783.667C1073.47 783.54 1078.77 783.514 1084.99 783.779L1085.06 818.443L1077.88 818.375L1059.93 818.174C1059.89 806.73 1059.73 795.094 1060.19 783.673L1067.24 783.667Z"/><path fill="#E5E7EB" d="M1086.99 783.756L1111.05 783.821C1111.48 795.471 1111.47 806.161 1111.37 817.813C1104.77 818.46 1093.96 818.18 1087.02 818.194L1086.99 783.756Z"/><path fill="#57555F" d="M1171.05 676.273C1189.28 675.349 1216.56 675.905 1235.05 676.318L1251.95 701.976L1234.03 702.074L1153.9 702.278C1157.47 695.527 1165.7 681.355 1171.05 676.273Z"/><path fill="#57555F" d="M936.472 676.872C957.4 676.334 980.084 676.764 1001.12 676.765C1007.39 685.069 1013.26 693.667 1018.72 702.53L1002.09 702.558L919.972 702.539L936.472 676.872Z"/><path fill="#32323D" d="M1058.17 903.181L1113.26 903.34C1113.09 916.043 1112.96 928.627 1113.72 941.326C1104.92 941.322 1095.43 941.14 1086.69 941.409C1082.09 941.445 1062.2 941.901 1058.75 940.932L1058.37 939.409C1058.34 927.939 1058.62 914.494 1058.17 903.181Z"/><path fill="#E5E7EB" d="M1060.01 904.709L1084.88 904.711C1084.93 909.773 1085.49 936.274 1084.54 939.624L1086.69 941.409C1082.09 941.445 1062.2 941.901 1058.75 940.932L1058.37 939.409L1060.02 937.475C1059.88 926.554 1059.88 915.631 1060.01 904.709Z"/><path fill="#57555F" d="M1060.02 937.475L1060.6 938.716C1064.43 940.014 1079.11 938.907 1084.54 939.624L1086.69 941.409C1082.09 941.445 1062.2 941.901 1058.75 940.932L1058.37 939.409L1060.02 937.475Z"/><path fill="#E5E7EB" d="M1086.87 905.007L1111.51 905.053C1111.58 916.478 1111.53 927.903 1111.36 939.327C1103.43 939.563 1094.65 939.392 1086.65 939.408C1086.63 927.941 1086.7 916.473 1086.87 905.007Z"/><path fill="#32323D" d="M1058 844.176C1076.52 844.31 1095.03 844.345 1113.54 844.28C1113.22 856.879 1113.11 869.482 1113.21 882.084C1095.22 881.701 1075.92 881.906 1057.92 881.982C1058.38 870.39 1058.39 855.721 1058 844.176Z"/><path fill="#E5E7EB" d="M1059.91 845.983L1085.03 845.995C1085.19 857.245 1085 868.987 1084.98 880.275L1059.92 880.014C1059.65 869.056 1059.9 857.022 1059.91 845.983Z"/><path fill="#E5E7EB" d="M1087.01 846.005L1111.59 845.994C1111.64 857.517 1111.61 869.04 1111.49 880.562L1086.95 880.486L1087.01 846.005Z"/><path fill="#32323D" d="M1058.37 719.257C1076.31 719.601 1095.1 719.328 1113.11 719.341C1112.98 731.597 1112.99 743.854 1113.14 756.11C1094.99 755.75 1076 756.007 1057.78 755.978C1058.91 748.877 1058.39 727.308 1058.37 719.257Z"/><path fill="#E5E7EB" d="M1060.42 721.07L1085 721.162C1085.09 730.921 1085.54 744.983 1084.71 754.391C1077.06 754.69 1067.85 754.411 1060.09 754.373C1059.81 744.077 1059.71 731.24 1060.42 721.07Z"/><path fill="#E5E7EB" d="M1087.02 721.129C1095.14 720.964 1103.26 720.975 1111.38 721.162L1111.39 754.429C1103.26 754.475 1095.13 754.441 1087 754.328C1086.89 743.343 1087.01 732.133 1087.02 721.129Z"/><path fill="#E5E7EB" d="M869.346 191.803C941.02 7.6269 1192.1 4.47892 1271.54 178.96C1318.95 283.102 1268.74 417.02 1162.67 458.966C1140.78 467.623 1107.09 477.029 1083.61 475.887C1079.58 475.559 1076.64 475.692 1072.59 475.842C1054.63 477.054 1020.98 471.042 1003.67 465.247C963.957 451.952 931.11 430.692 904.77 397.856C899.55 391.349 890.574 379.892 886.996 372.624C887.108 371.009 883.569 365.704 882.509 363.96C879.085 357.335 875.872 350.602 872.875 343.773C857.148 306.954 852.67 263.421 860.814 224.094C862.262 217.098 863.827 209.099 866.489 202.489C867.564 199.83 868.659 195.43 869.468 192.534C816.062 193.153 762.508 192.197 709.09 192.43C702.508 192.459 695.706 192.502 689.142 192.108C697.366 191.369 706.369 191.796 714.677 191.741C766.159 191.399 817.88 192.541 869.346 191.803Z"/><path fill="#FCD34D" d="M1035.63 79.3396C1062.33 79.4986 1089.02 79.5205 1115.72 79.4052C1117.42 86.2445 1124.29 117.499 1126.59 121.362L1127.56 123.982C1130.65 125.766 1162.59 124.977 1168.82 125.276C1172.71 131.799 1176.57 140.304 1179.93 147.273C1174.98 147.426 1170.02 147.521 1165.06 147.56L1165.18 186.06C1168.23 185.996 1170.93 185.569 1173.51 186.983L1173.4 187.947C1170.58 189.258 1168.28 188.833 1165.13 188.693L1165.07 234.944C1168.08 234.753 1170.54 234.268 1173.24 235.454L1173.77 236.469C1171.41 238.419 1168.11 237.672 1165 237.414C1164.97 251.655 1164.69 266.989 1165.13 281.14C1159.36 281.241 1153.59 281.306 1147.81 281.335L1142.28 281.21L1135.86 281.13L1134.6 281.32C1129.42 280.744 1118.81 281.215 1112.45 280.861L1105.92 280.879C1085.68 281.075 1065.44 281.134 1045.2 281.056L1038.76 281.2C1030.48 281.299 1022.2 281.258 1013.92 281.077L1008.49 281.092C1000.63 281.122 992.775 281.088 984.92 280.987C984.584 266.566 984.627 251.736 984.499 237.282C981.69 237.413 980.962 237.589 978.265 236.754L978.039 236.037C980.497 234.697 982.158 234.998 984.986 235.023C985.078 220.764 985.382 202.58 984.581 188.607C981.809 188.728 979.872 189.122 977.437 187.916L977.267 186.988C979.492 185.562 981.815 185.944 984.577 185.972C984.847 173.015 984.892 160.055 984.71 147.096L974.273 147.122C975.816 141.855 982.78 129.585 985.523 124.6C992.211 124.672 1018.86 125.431 1023.87 123.82L1024.16 121.315C1027.7 111.85 1032.95 89.5842 1035.63 79.3396Z"/><path fill="#FCD34D" d="M1035.63 79.3396C1062.33 79.4986 1089.02 79.5205 1115.72 79.4052C1117.42 86.2445 1124.29 117.499 1126.59 121.362L1127.56 123.982C1130.65 125.766 1162.59 124.977 1168.82 125.276C1172.71 131.799 1176.57 140.304 1179.93 147.273C1174.98 147.426 1170.02 147.521 1165.06 147.56L1165.18 186.06C1168.23 185.996 1170.93 185.569 1173.51 186.983L1173.4 187.947C1170.58 189.258 1168.28 188.833 1165.13 188.693L1142.09 188.68L1135.78 188.647C1129.3 188.458 1119.77 188.982 1113.62 188.134L1112.41 188.638L1105.92 188.521C1090.2 188.198 1073.9 188.392 1058.14 188.374L1045.26 188.553L1038.66 188.524C1030.85 188.41 1023.05 188.421 1015.24 188.558L1008.42 188.581C1000.52 188.498 992.485 188.593 984.581 188.607C981.809 188.728 979.872 189.122 977.437 187.916L977.267 186.988C979.492 185.562 981.815 185.944 984.577 185.972C984.847 173.015 984.892 160.055 984.71 147.096L974.273 147.122C975.816 141.855 982.78 129.585 985.523 124.6C992.211 124.672 1018.86 125.431 1023.87 123.82L1024.16 121.315C1027.7 111.85 1032.95 89.5842 1035.63 79.3396Z"/><path fill="#FCD34D" d="M1035.63 79.3396C1062.33 79.4986 1089.02 79.5205 1115.72 79.4052C1117.42 86.2445 1124.29 117.499 1126.59 121.362C1092.81 120.936 1057.99 121.255 1024.16 121.315C1027.7 111.85 1032.95 89.5842 1035.63 79.3396Z"/><path fill="#524778" d="M1112.36 185.955C1116.97 185.975 1125.67 185.745 1129.98 186.097L1134.64 187.232C1132.52 188.188 1118.27 187.223 1113.62 188.134L1112.41 188.638L1105.92 188.521C1090.2 188.198 1073.9 188.392 1058.14 188.374L1045.26 188.553L1038.66 188.524C1030.85 188.41 1023.05 188.421 1015.24 188.558L1008.42 188.581C1000.52 188.498 992.485 188.593 984.581 188.607C981.809 188.728 979.872 189.122 977.437 187.916L977.267 186.988C979.492 185.562 981.815 185.944 984.577 185.972L1008.51 185.995L1015.23 185.975L1038.8 185.995C1040.63 186.039 1043.6 186.018 1045.32 186.273C1051.49 185.668 1061.39 185.922 1067.85 185.925L1105.83 185.962L1112.36 185.955Z"/><path fill="white" d="M1038.8 185.995C1038.75 180.215 1037.59 151.342 1039.96 148.47C1041.53 148.232 1042.35 147.966 1043.89 148.413C1046.51 152.273 1045.95 180.986 1045.32 186.273C1043.6 186.018 1040.63 186.039 1038.8 185.995Z"/><path fill="white" d="M1008.51 185.995C1008.52 180.529 1007.71 150.577 1009.66 148.498C1011.42 148.416 1013.18 148.143 1014.76 148.83C1015.84 153.302 1015.26 179.903 1015.23 185.975L1008.51 185.995Z"/><path fill="white" d="M1105.83 185.962C1105.78 179.124 1105.18 153.971 1106.32 148.436C1108.75 147.85 1109.17 147.968 1111.66 148.403C1113.16 150.46 1112.4 181.169 1112.36 185.955L1105.83 185.962Z"/><path fill="white" d="M1135.78 185.981C1135.75 177.322 1135.14 156.267 1136.12 148.935C1137.78 147.851 1140.11 148.034 1141.84 148.947C1143.09 153.261 1142.38 180.024 1142.32 185.997L1135.78 185.981Z"/><path fill="#524778" d="M1024.16 121.315C1057.99 121.255 1092.81 120.936 1126.59 121.362L1127.56 123.982C1114.01 122.989 1090.32 123.682 1076.2 123.545C1062.42 123.412 1037.08 122.695 1023.87 123.82L1024.16 121.315Z"/><path fill="#5C547C" d="M1135.78 185.981L1142.32 185.997L1165.18 186.06C1168.23 185.996 1170.93 185.569 1173.51 186.983L1173.4 187.947C1170.58 189.258 1168.28 188.833 1165.13 188.693L1142.09 188.68L1135.78 188.647C1129.3 188.458 1119.77 188.982 1113.62 188.134C1118.27 187.223 1132.52 188.188 1134.64 187.232L1129.98 186.097L1135.78 185.981Z"/><path fill="#FCD34D" d="M984.499 237.282C992.267 237.267 1000.72 237.09 1008.43 237.338L1015.54 237.335C1023.1 237.335 1031.08 237.203 1038.59 237.389L1045.23 237.417C1045.42 251.963 1045.41 266.511 1045.2 281.056L1038.76 281.2C1030.48 281.299 1022.2 281.258 1013.92 281.077L1008.49 281.092C1000.63 281.122 992.775 281.088 984.92 280.987C984.584 266.566 984.627 251.736 984.499 237.282Z"/><path fill="#FCD34D" d="M984.499 237.282C992.267 237.267 1000.72 237.09 1008.43 237.338C1008.41 251.31 1008.01 267.281 1008.49 281.092C1000.63 281.122 992.775 281.088 984.92 280.987C984.584 266.566 984.627 251.736 984.499 237.282Z"/><path fill="white" d="M1008.43 237.338L1015.54 237.335C1015.55 243.753 1016.18 276.947 1014.89 280.587L1013.92 281.077L1008.49 281.092C1008.01 267.281 1008.41 251.31 1008.43 237.338Z"/><path fill="white" d="M1038.59 237.389L1045.23 237.417C1045.42 251.963 1045.41 266.511 1045.2 281.056L1038.76 281.2C1038.5 266.781 1038.65 251.851 1038.59 237.389Z"/><path fill="#FCD34D" d="M1045.23 237.417L1105.95 237.394C1106.08 251.889 1106.07 266.384 1105.92 280.879C1085.68 281.075 1065.44 281.134 1045.2 281.056C1045.41 266.511 1045.42 251.963 1045.23 237.417Z"/><path fill="#FCD34D" d="M1112.39 237.372C1120.11 237.327 1128.06 237.184 1135.76 237.328L1142.31 237.343C1149.7 237.339 1157.66 237.189 1165 237.414C1164.97 251.655 1164.69 266.989 1165.13 281.14C1159.36 281.241 1153.59 281.306 1147.81 281.335L1142.28 281.21L1135.86 281.13L1134.6 281.32C1129.42 280.744 1118.81 281.215 1112.45 280.861L1105.92 280.879C1106.07 266.384 1106.08 251.889 1105.95 237.394L1112.39 237.372Z"/><path fill="#FCD34D" d="M1142.31 237.343C1149.7 237.339 1157.66 237.189 1165 237.414C1164.97 251.655 1164.69 266.989 1165.13 281.14C1159.36 281.241 1153.59 281.306 1147.81 281.335L1142.28 281.21L1135.86 281.13C1135.15 269.096 1135.76 249.827 1135.76 237.328L1142.31 237.343Z"/><path fill="white" d="M1135.76 237.328L1142.31 237.343C1142.32 251.717 1142.58 266.905 1142.28 281.21L1135.86 281.13C1135.15 269.096 1135.76 249.827 1135.76 237.328Z"/><path fill="white" d="M1105.95 237.394L1112.39 237.372C1112.54 251.868 1112.56 266.365 1112.45 280.861L1105.92 280.879C1106.07 266.384 1106.08 251.889 1105.95 237.394Z"/><path fill="#FCD34D" d="M984.581 188.607C992.485 188.593 1000.52 188.498 1008.42 188.581L1015.24 188.558C1015.34 204.01 1015.35 219.462 1015.28 234.915L1008.45 235.036C1000.63 235.087 992.808 235.083 984.986 235.023C985.078 220.764 985.382 202.58 984.581 188.607Z"/><path fill="white" d="M1008.42 188.581L1015.24 188.558C1015.34 204.01 1015.35 219.462 1015.28 234.915L1008.45 235.036L1008.42 188.581Z"/><path fill="#FCD34D" d="M1015.24 188.558C1023.05 188.421 1030.85 188.41 1038.66 188.524L1045.26 188.553C1045.35 204.008 1045.35 219.463 1045.28 234.918L1039.62 234.993C1032.5 235.305 1022.35 235.108 1015.28 234.915C1015.35 219.462 1015.34 204.01 1015.24 188.558Z"/><path fill="white" d="M1038.66 188.524L1045.26 188.553C1045.35 204.008 1045.35 219.463 1045.28 234.918L1039.62 234.993C1037.92 232.761 1038.65 193.748 1038.66 188.524Z"/><path fill="#FCD34D" d="M1142.09 188.68L1165.13 188.693L1165.07 234.944C1156.9 235.06 1148.73 235.105 1140.56 235.078L1135.84 235.142C1135.51 219.985 1135.78 203.878 1135.78 188.647L1142.09 188.68Z"/><path fill="white" d="M1135.78 188.647L1142.09 188.68C1142.1 193.827 1142.56 232.989 1141.63 234.668L1140.56 235.078L1135.84 235.142C1135.51 219.985 1135.78 203.878 1135.78 188.647Z"/><path fill="#FCD34D" d="M1113.62 188.134C1119.77 188.982 1129.3 188.458 1135.78 188.647C1135.78 203.878 1135.51 219.985 1135.84 235.142C1128.14 235.189 1120.15 235.347 1112.49 234.961L1112.41 188.638L1113.62 188.134Z"/><path fill="#524778" d="M1015.28 234.915C1022.35 235.108 1032.5 235.305 1039.62 234.993L1045.28 234.918C1060.31 236.03 1092.18 235.403 1108.22 235.032L1112.49 234.961C1120.15 235.347 1128.14 235.189 1135.84 235.142L1140.56 235.078C1148.73 235.105 1156.9 235.06 1165.07 234.944C1168.08 234.753 1170.54 234.268 1173.24 235.454L1173.77 236.469C1171.41 238.419 1168.11 237.672 1165 237.414C1157.66 237.189 1149.7 237.339 1142.31 237.343L1135.76 237.328C1128.06 237.184 1120.11 237.327 1112.39 237.372L1105.95 237.394L1045.23 237.417L1038.59 237.389C1031.08 237.203 1023.1 237.335 1015.54 237.335L1008.43 237.338C1000.72 237.09 992.267 237.267 984.499 237.282C981.69 237.413 980.962 237.589 978.265 236.754L978.039 236.037C980.497 234.697 982.158 234.998 984.986 235.023C992.808 235.083 1000.63 235.087 1008.45 235.036L1015.28 234.915Z"/><path fill="white" d="M1105.92 188.521L1112.41 188.638L1112.49 234.961L1108.22 235.032L1107 234.751C1105.25 232.623 1105.96 194.731 1105.92 188.521Z"/><path fill="#FCD34D" d="M1105.92 280.879L1112.45 280.861C1118.81 281.215 1129.42 280.744 1134.6 281.32L1134.98 283.558L1135.92 283.617L1141.98 283.576L1142.55 283.412C1143.7 282.46 1146.29 281.819 1147.81 281.335C1153.59 281.306 1159.36 281.241 1165.13 281.14C1168.08 280.892 1170.25 280.377 1172.86 281.609L1172.89 282.586C1170.54 283.998 1167.94 283.458 1165.07 283.446C1165.11 298.241 1164.74 315.174 1165.27 329.787C1168.06 329.686 1170.58 329.257 1172.97 330.484L1172.98 331.291C1170.59 332.516 1167.95 332.107 1165.16 332.03C1164.81 363.186 1164.54 397.19 1165.11 428.332C1172.09 428.949 1194.76 427.647 1199.58 429.049L1199.38 429.756C1198.23 430.411 1197.56 430.782 1196.18 430.773C1177.42 430.646 1158.44 430.696 1139.69 430.706L1017.97 430.658L967.373 430.605C963.472 430.608 945.629 431.624 944.107 429.024C945.975 427.578 979.745 428.266 984.86 428.29C984.719 397.044 985.569 362.784 984.602 331.956C982.124 332.104 981.61 332.275 979.322 331.518L978.924 330.574C980.794 329.102 982.473 329.476 984.967 329.513L984.938 283.35C982.863 283.342 978.52 283.715 977.416 281.882C979.841 280.59 982.096 280.943 984.92 280.987C992.775 281.088 1000.63 281.122 1008.49 281.092L1013.92 281.077C1022.2 281.258 1030.48 281.299 1038.76 281.2L1045.2 281.056C1065.44 281.134 1085.68 281.075 1105.92 280.879Z"/><path fill="#FCD34D" d="M1105.92 280.879L1112.45 280.861C1118.81 281.215 1129.42 280.744 1134.6 281.32L1134.98 283.558L1135.92 283.617L1141.98 283.576L1142.55 283.412C1143.7 282.46 1146.29 281.819 1147.81 281.335C1153.59 281.306 1159.36 281.241 1165.13 281.14C1168.08 280.892 1170.25 280.377 1172.86 281.609L1172.89 282.586C1170.54 283.998 1167.94 283.458 1165.07 283.446C1165.11 298.241 1164.74 315.174 1165.27 329.787C1157.64 329.842 1149.89 329.982 1142.28 329.661L1135.81 329.682C1128.06 329.86 1120.31 329.796 1112.57 329.492L1105.87 329.484C1087.09 330.158 1064.14 329.745 1045.26 329.57L1038.66 329.673C1030.41 330.055 1017.62 329.877 1009.39 329.59L1008.4 329.54C1000.34 329.699 993.015 329.768 984.967 329.513L984.938 283.35C982.863 283.342 978.52 283.715 977.416 281.882C979.841 280.59 982.096 280.943 984.92 280.987C992.775 281.088 1000.63 281.122 1008.49 281.092L1013.92 281.077C1022.2 281.258 1030.48 281.299 1038.76 281.2L1045.2 281.056C1065.44 281.134 1085.68 281.075 1105.92 280.879Z"/><path fill="#FCD34D" d="M984.938 283.35L1008.32 283.454L1015.42 283.584L1038.59 283.708L1045.22 283.664L1045.26 329.57L1038.66 329.673C1030.41 330.055 1017.62 329.877 1009.39 329.59L1008.4 329.54C1000.34 329.699 993.015 329.768 984.967 329.513L984.938 283.35Z"/><path fill="#FCD34D" d="M984.938 283.35L1008.32 283.454C1008.34 298.733 1008.2 314.284 1008.4 329.54C1000.34 329.699 993.015 329.768 984.967 329.513L984.938 283.35Z"/><path fill="white" d="M1008.32 283.454L1015.42 283.584C1015.45 289.42 1016.38 327.283 1014.4 329.345C1012.27 329.603 1011.53 329.654 1009.39 329.59L1008.4 329.54C1008.2 314.284 1008.34 298.733 1008.32 283.454Z"/><path fill="white" d="M1038.59 283.708L1045.22 283.664L1045.26 329.57L1038.66 329.673L1038.59 283.708Z"/><path fill="#FCD34D" d="M1165.13 281.14C1168.08 280.892 1170.25 280.377 1172.86 281.609L1172.89 282.586C1170.54 283.998 1167.94 283.458 1165.07 283.446C1165.11 298.241 1164.74 315.174 1165.27 329.787C1157.64 329.842 1149.89 329.982 1142.28 329.661L1135.81 329.682C1135.79 315.143 1135.29 297.875 1135.92 283.617L1141.98 283.576L1142.55 283.412C1143.7 282.46 1146.29 281.819 1147.81 281.335C1153.59 281.306 1159.36 281.241 1165.13 281.14Z"/><path fill="white" d="M1141.98 283.576C1143.13 291.25 1142.25 320.753 1142.28 329.661L1135.81 329.682C1135.79 315.143 1135.29 297.875 1135.92 283.617L1141.98 283.576Z"/><path fill="#524778" d="M1165.13 281.14C1168.08 280.892 1170.25 280.377 1172.86 281.609L1172.89 282.586C1170.54 283.998 1167.94 283.458 1165.07 283.446C1157.56 283.503 1150.05 283.492 1142.55 283.412C1143.7 282.46 1146.29 281.819 1147.81 281.335C1153.59 281.306 1159.36 281.241 1165.13 281.14Z"/><path fill="#FCD34D" d="M1134.98 283.558L1135.92 283.617C1135.29 297.875 1135.79 315.143 1135.81 329.682C1128.06 329.86 1120.31 329.796 1112.57 329.492C1112.87 315.888 1113.16 296.94 1112.53 283.608L1134.98 283.558Z"/><path fill="#524778" d="M1105.92 280.879L1112.45 280.861C1118.81 281.215 1129.42 280.744 1134.6 281.32L1134.98 283.558L1112.53 283.608L1106.32 283.585C1087.64 283.506 1063.78 282.94 1045.22 283.664L1038.59 283.708L1015.42 283.584L1008.32 283.454L984.938 283.35C982.863 283.342 978.52 283.715 977.416 281.882C979.841 280.59 982.096 280.943 984.92 280.987C992.775 281.088 1000.63 281.122 1008.49 281.092L1013.92 281.077C1022.2 281.258 1030.48 281.299 1038.76 281.2L1045.2 281.056C1065.44 281.134 1085.68 281.075 1105.92 280.879Z"/><path fill="white" d="M1106.32 283.585L1112.53 283.608C1113.16 296.94 1112.87 315.888 1112.57 329.492L1105.87 329.484L1106.32 283.585Z"/><path fill="#57555F" d="M1051.04 386.112C1066.35 386.226 1081.66 386.26 1096.97 386.213C1096.78 400.33 1096.73 414.449 1096.82 428.567C1119.08 428.504 1143.04 427.947 1165.11 428.332C1172.09 428.949 1194.76 427.647 1199.58 429.049L1199.38 429.756C1198.23 430.411 1197.56 430.782 1196.18 430.773C1177.42 430.646 1158.44 430.696 1139.69 430.706L1017.97 430.658L967.373 430.605C963.472 430.608 945.629 431.624 944.107 429.024C945.975 427.578 979.745 428.266 984.86 428.29C1006.58 428.825 1029.35 428.654 1051.12 428.625C1051.11 414.616 1051.3 400.075 1051.04 386.112Z"/><path fill="white" d="M1053.45 388.292C1067.3 387.996 1081.17 387.923 1095.03 388.074C1095.07 399.772 1095.59 417.324 1094.79 428.568L1052.97 428.429C1053.01 422.296 1052.35 392.146 1053.45 388.292Z"/><path fill="#524778" d="M1105.87 329.484L1112.57 329.492C1120.31 329.796 1128.06 329.86 1135.81 329.682L1142.28 329.661C1149.89 329.982 1157.64 329.842 1165.27 329.787C1168.06 329.686 1170.58 329.257 1172.97 330.484L1172.98 331.291C1170.59 332.516 1167.95 332.107 1165.16 332.03C1157.52 331.958 1149.87 331.994 1142.23 332.141L1135.81 332.092C1129 331.709 1119.41 331.998 1112.39 331.996L1105.71 332.014L1045.24 332.068L1038.63 332.048C1031.02 331.879 1022.88 332.015 1015.22 332.002L1008.49 331.991L984.602 331.956C982.124 332.104 981.61 332.275 979.322 331.518L978.924 330.574C980.794 329.102 982.473 329.476 984.967 329.513C993.015 329.768 1000.34 329.699 1008.4 329.54L1009.39 329.59C1017.62 329.877 1030.41 330.055 1038.66 329.673L1045.26 329.57C1064.14 329.745 1087.09 330.158 1105.87 329.484Z"/><path fill="white" d="M1008.49 331.991L1015.22 332.002C1015.46 337.014 1015.82 363.321 1014.65 366.796C1012.17 367.39 1011.8 367.335 1009.26 366.985C1007.54 363.74 1008.43 337.312 1008.49 331.991Z"/><path fill="white" d="M1038.63 332.048L1045.24 332.068C1045.59 336.377 1045.99 364.876 1044.41 366.932C1041.93 367.245 1041.66 367.363 1039.29 366.815C1037.8 364.037 1038.58 337.282 1038.63 332.048Z"/><path fill="white" d="M1105.71 332.014L1112.39 331.996C1112.46 338.745 1113.01 361.1 1112.13 366.497C1110.78 367.503 1107.6 367.543 1106.12 366.728C1105.08 360.256 1105.67 339.741 1105.71 332.014Z"/><path fill="white" d="M1135.81 332.092L1142.23 332.141C1142.32 337.214 1143.35 365.22 1141.22 367.697C1139.37 367.77 1137.55 368.09 1136.04 367.155C1135.16 361.466 1135.71 338.735 1135.81 332.092Z"/><path fill="#5C547C" d="M1134.6 281.32L1135.86 281.13L1142.28 281.21L1147.81 281.335C1146.29 281.819 1143.7 282.46 1142.55 283.412L1141.98 283.576L1135.92 283.617L1134.98 283.558L1134.6 281.32Z"/><path fill="#E5E7EB" d="M594.178 92.9614C609.056 91.9654 627.886 93.0571 643.026 92.9603C653.767 92.8916 658.374 99.7442 661.488 109.209C658.818 120.891 653.191 127.221 640.677 127.421L605.785 127.564C596.102 127.599 583.131 129.201 575.59 122.212C572.495 119.388 570.716 115.402 570.679 111.212C570.44 95.8129 581.797 93.288 594.178 92.9614Z"/><path fill="#E5E7EB" d="M693.462 120.873C702.913 120.695 726.388 119.607 734.788 123.057C747.623 128.329 746.966 149.578 730.569 153.424C719.464 153.523 693.109 155.696 685.029 149.805C681.298 147.094 678.875 142.942 678.348 138.36C677.868 134.239 679.036 130.095 681.596 126.831C684.964 122.587 688.491 121.505 693.462 120.873Z"/><path fill="#E5E7EB" d="M113.502 476.075C125.096 475.478 145.58 474.902 156.858 476.72C170.639 478.942 172.322 496.095 158.388 503.642C152.861 504.813 121.605 504.245 114.494 504.034C101.46 495.958 100.441 484.615 113.502 476.075Z"/><path fill="#E5E7EB" d="M1258.86 522.318C1266.95 522.234 1275.52 520.405 1281.66 526.163C1284.6 528.947 1286.3 532.805 1286.36 536.859C1286.73 555.116 1264.89 552.167 1252.86 551.93C1244.84 551.819 1237.49 552.539 1230.76 547.29C1224.62 542.504 1222.85 534.447 1228.41 528.524C1235.57 520.89 1249.22 522.383 1258.86 522.318Z"/><path fill="#8A8490" d="M1249.72 960.271C1261.52 960.24 1338.53 958.884 1342.59 960.678L1343.42 961.891L1343.09 963.35C1339.67 964.809 1259.62 963.963 1249.13 964.112L1249.72 960.271Z"/></svg>