<?xml version="1.0" encoding="utf-8" ?><svg xmlns="http://www.w3.org/2000/svg" xmlns:xlink="http://www.w3.org/1999/xlink" width="1365" height="1024" viewBox="0 0 1365 1024"><path fill="#FEFEFE" d="M0 0L1365 0L1365 1024L0 1024L0 0Z"/><path fill="#FEFEFE" d="M104.303 932.732C102.375 927.02 98.3338 920.244 95.9636 914.232C60.7164 824.836 67.8491 720.751 109.977 634.933C124.53 605.287 140.005 585.925 143.181 551.721C145.989 521.487 137.281 507.875 129.446 480.457C126.2 468.763 124.123 456.775 123.247 444.67C117.738 372.675 151.099 300.789 197.181 247.215C266.121 167.344 364.108 118.335 469.352 111.086C575.669 103.1 686.592 131.918 768.217 202.686C775.346 208.866 781.682 216.49 788.913 222.715C792.114 216.366 795.851 210.538 803.054 208.168C807.794 206.641 812.956 207.167 817.291 209.618C827.581 215.346 830.648 227.027 830.535 237.983L929.066 237.967C929.081 231.678 929.119 228.548 931.116 222.671C935.95 208.44 952.635 201.098 964.169 213.176C971 220.328 971.926 228.631 971.818 238.011C983.405 237.971 1023.01 237.009 1032.08 239.327C1038.56 240.945 1044.5 244.247 1049.29 248.899C1052.95 252.48 1059.07 261.692 1059.57 266.312C1061.61 285.124 1060.87 310.407 1060.9 329.256L1060.93 714.628C1063.15 714.566 1065.55 714.444 1067.76 714.499C1072.83 714.545 1078.21 714.687 1083.25 714.564C1086.8 714.586 1092.9 714.433 1096.19 715.019C1099.53 709.907 1110.43 694.636 1112.24 690.69C1112.14 690.382 1102.06 680.435 1113.76 680.668C1123.01 680.851 1178.79 678.812 1183.02 681.522C1186.41 686.351 1183.77 688.423 1179.15 690.512C1181.15 695.338 1191.66 708.497 1195.36 715.219C1198.93 714.208 1205.77 714.472 1209.72 714.574L1224.64 714.628C1239.01 714.531 1253.52 712.972 1264.76 723.881C1268.42 727.434 1273.7 735.53 1274.24 740.452C1275.98 756.359 1275.31 775.943 1275.3 792.072L1275.69 877.276C1275.68 891.571 1277.39 905.87 1266.41 916.946C1260.04 923.365 1250.63 926.188 1241.72 926.076C1241.27 926.069 1240.81 926.056 1240.35 926.037L1238.03 932.564C1246.36 932.931 1254.71 932.763 1263.06 932.823C1281.28 932.955 1299.53 932.675 1317.74 933.039C1319 933.064 1320.06 933.792 1321.07 934.458C1322.41 936.759 1322.17 935.725 1322.01 938.356C1321.23 939.614 1319.96 941.181 1318.48 941.202C1303.14 941.422 1283.33 941.206 1268.46 941.192L1099.33 941.184L325.954 941.29C303.959 941.28 51.3302 942.549 48.5605 940.707C47.3734 939.917 45.7773 938.688 45.3465 937.292C45.8781 935.668 46.353 935.228 47.9406 934.464C55.1112 931.012 94.9156 932.724 104.303 932.732Z"/><path fill="#FEFEFE" d="M248.822 675.237L275.104 686.385L279.55 688.271C294.396 694.942 309.55 701.35 324.583 707.607C368.527 725.897 411.9 745.897 455.827 764.181C453.53 770.108 450.977 776.296 449.184 782.369C477.678 783.539 538.895 781.597 570.174 782.611C570.591 783.023 571.008 783.434 571.424 783.846L571.776 785.018C569.478 786.24 562.468 785.469 559.311 785.608C563.682 785.765 568.057 785.806 572.431 785.731C595.888 824.282 614.39 862.897 659.718 878.186L659.733 932.637L806.323 932.54C830.791 932.527 856.451 932.109 880.836 932.529L880.661 784.777L880.471 781.884C922.826 781.618 965.901 782.396 1008.09 781.771L1015.76 781.438C1015.6 744.994 1009.61 714.791 1057.4 714.597L1060.93 714.628C1063.15 714.566 1065.55 714.444 1067.76 714.499C1072.83 714.545 1078.21 714.687 1083.25 714.564C1086.8 714.586 1092.9 714.433 1096.19 715.019C1099.53 709.907 1110.43 694.636 1112.24 690.69C1112.14 690.382 1102.06 680.435 1113.76 680.668C1123.01 680.851 1178.79 678.812 1183.02 681.522C1186.41 686.351 1183.77 688.423 1179.15 690.512C1181.15 695.338 1191.66 708.497 1195.36 715.219C1198.93 714.208 1205.77 714.472 1209.72 714.574L1224.64 714.628C1239.01 714.531 1253.52 712.972 1264.76 723.881C1268.42 727.434 1273.7 735.53 1274.24 740.452C1275.98 756.359 1275.31 775.943 1275.3 792.072L1275.69 877.276C1275.68 891.571 1277.39 905.87 1266.41 916.946C1260.04 923.365 1250.63 926.188 1241.72 926.076C1241.27 926.069 1240.81 926.056 1240.35 926.037L1238.03 932.564C1246.36 932.931 1254.71 932.763 1263.06 932.823C1281.28 932.955 1299.53 932.675 1317.74 933.039C1319 933.064 1320.06 933.792 1321.07 934.458C1322.41 936.759 1322.17 935.725 1322.01 938.356C1321.23 939.614 1319.96 941.181 1318.48 941.202C1303.14 941.422 1283.33 941.206 1268.46 941.192L1099.33 941.184L325.954 941.29C303.959 941.28 51.3302 942.549 48.5605 940.707C47.3734 939.917 45.7773 938.688 45.3465 937.292C45.8781 935.668 46.353 935.228 47.9406 934.464C55.1112 931.012 94.9156 932.724 104.303 932.732L151.24 932.859C119.794 921.679 127.079 905.412 125.864 878.01C124.523 847.775 132.919 834.401 164.597 834.726C164.221 811.796 164.478 788.084 164.422 765.078C177.14 765.361 190.389 765.204 203.15 765.213C204.38 762.316 205.967 759.283 207.371 756.453C220.867 729.265 235.785 702.642 248.822 675.237Z"/><path fill="#FCD34D" d="M1096.19 715.019C1099.53 709.907 1110.43 694.636 1112.24 690.69C1112.14 690.382 1102.06 680.435 1113.76 680.668C1123.01 680.851 1178.79 678.812 1183.02 681.522C1186.41 686.351 1183.77 688.423 1179.15 690.512C1181.15 695.338 1191.66 708.497 1195.36 715.219C1198.93 714.208 1205.77 714.472 1209.72 714.574L1224.64 714.628C1239.01 714.531 1253.52 712.972 1264.76 723.881C1268.42 727.434 1273.7 735.53 1274.24 740.452C1275.98 756.359 1275.31 775.943 1275.3 792.072L1275.69 877.276C1275.68 891.571 1277.39 905.87 1266.41 916.946C1260.04 923.365 1250.63 926.188 1241.72 926.076C1241.27 926.069 1240.81 926.056 1240.35 926.037L1238.03 932.564C1233.33 933.387 1227.61 933.496 1222.86 933.037L1222.09 929.512C1221.91 927.881 1221.97 927.967 1221.17 926.542C1218.04 925.288 1213.39 925.855 1209.78 925.934C1167.49 925.244 1125.1 926.049 1082.88 925.851C1078.94 925.725 1075.85 925.82 1071.91 926.011C1066.9 925.761 1063.81 926.372 1058.71 925.434C1056.49 925.318 1054.96 924.981 1053.03 925.993L1052.66 925.025L1051.61 924.89C1040.53 923.411 1031.24 918.579 1024.21 909.744C1014.36 897.372 1015.82 883.335 1015.79 868.51L1015.76 830.787C1015.76 821.078 1015.11 792.139 1016.26 784.182L1015.61 782.396C1013.47 781.227 1010.67 781.677 1008.09 781.771L1015.76 781.438C1015.6 744.994 1009.61 714.791 1057.4 714.597L1060.93 714.628C1063.15 714.566 1065.55 714.444 1067.76 714.499C1072.83 714.545 1078.21 714.687 1083.25 714.564C1086.8 714.586 1092.9 714.433 1096.19 715.019Z"/><path fill="#FCD34D" d="M1015.76 781.438C1015.6 744.994 1009.61 714.791 1057.4 714.597L1060.93 714.628C1063.15 714.566 1065.55 714.444 1067.76 714.499C1072.83 714.545 1078.21 714.687 1083.25 714.564L1083.04 850.546C1083.04 874.702 1083.68 901.936 1082.88 925.851C1078.94 925.725 1075.85 925.82 1071.91 926.011C1066.9 925.761 1063.81 926.372 1058.71 925.434C1056.49 925.318 1054.96 924.981 1053.03 925.993L1052.66 925.025L1051.61 924.89C1040.53 923.411 1031.24 918.579 1024.21 909.744C1014.36 897.372 1015.82 883.335 1015.79 868.51L1015.76 830.787C1015.76 821.078 1015.11 792.139 1016.26 784.182L1015.61 782.396C1013.47 781.227 1010.67 781.677 1008.09 781.771L1015.76 781.438Z"/><path fill="#64748B" d="M1067.76 714.499C1072.83 714.545 1078.21 714.687 1083.25 714.564L1083.04 850.546C1083.04 874.702 1083.68 901.936 1082.88 925.851C1078.94 925.725 1075.85 925.82 1071.91 926.011C1066.9 925.761 1063.81 926.372 1058.71 925.434L1067.7 925.334L1067.76 714.499Z"/><path fill="#FCD34D" d="M1224.64 714.628C1239.01 714.531 1253.52 712.972 1264.76 723.881C1268.42 727.434 1273.7 735.53 1274.24 740.452C1275.98 756.359 1275.31 775.943 1275.3 792.072L1275.69 877.276C1275.68 891.571 1277.39 905.87 1266.41 916.946C1260.04 923.365 1250.63 926.188 1241.72 926.076C1241.27 926.069 1240.81 926.056 1240.35 926.037L1238.03 932.564C1233.33 933.387 1227.61 933.496 1222.86 933.037L1222.09 929.512C1221.91 927.881 1221.97 927.967 1221.17 926.542C1218.04 925.288 1213.39 925.855 1209.78 925.934C1209.37 903.692 1209.71 880.294 1209.68 857.976L1209.72 714.574L1224.64 714.628Z"/><path fill="#64748B" d="M1209.72 714.574L1224.64 714.628L1224.4 869.286L1224.55 907.471C1224.56 910.475 1224.69 922.689 1224.13 925.157C1222.08 926.68 1222.74 926.19 1222.09 929.512C1221.91 927.881 1221.97 927.967 1221.17 926.542C1218.04 925.288 1213.39 925.855 1209.78 925.934C1209.37 903.692 1209.71 880.294 1209.68 857.976L1209.72 714.574Z"/><path fill="#54576B" d="M1224.13 925.157C1227.96 925.288 1237.51 925.021 1240.35 926.037L1238.03 932.564C1233.33 933.387 1227.61 933.496 1222.86 933.037L1222.09 929.512C1222.74 926.19 1222.08 926.68 1224.13 925.157Z"/><path fill="#64748B" d="M1096.19 715.019C1099.53 709.907 1110.43 694.636 1112.24 690.69C1112.14 690.382 1102.06 680.435 1113.76 680.668C1123.01 680.851 1178.79 678.812 1183.02 681.522C1186.41 686.351 1183.77 688.423 1179.15 690.512C1181.15 695.338 1191.66 708.497 1195.36 715.219C1191.97 715.675 1183.92 715.654 1180.62 715.188C1175.96 714.483 1160.73 714.553 1155.44 714.597C1140.74 714.719 1125.04 714.34 1110.45 714.93C1108.19 715.916 1098.9 715.386 1096.19 715.019Z"/><path fill="white" d="M1120.58 698.685L1171.84 698.701C1174.24 705.108 1177.89 709.535 1180.62 715.188C1175.96 714.483 1160.73 714.553 1155.44 714.597C1140.74 714.719 1125.04 714.34 1110.45 714.93C1113.79 709.561 1117.16 703.983 1120.58 698.685Z"/><path fill="#FCD34D" d="M248.822 675.237L275.104 686.385L279.55 688.271C294.396 694.942 309.55 701.35 324.583 707.607C368.527 725.897 411.9 745.897 455.827 764.181C453.53 770.108 450.977 776.296 449.184 782.369C477.678 783.539 538.895 781.597 570.174 782.611C570.591 783.023 571.008 783.434 571.424 783.846L571.776 785.018C569.478 786.24 562.468 785.469 559.311 785.608L486.961 785.452C480.558 785.442 450.287 784.435 446.482 787.156C447.088 802.949 446.444 818.906 446.899 834.628L164.597 834.726C164.221 811.796 164.478 788.084 164.422 765.078C177.14 765.361 190.389 765.204 203.15 765.213C204.38 762.316 205.967 759.283 207.371 756.453C220.867 729.265 235.785 702.642 248.822 675.237Z"/><path fill="white" d="M248.822 675.237L275.104 686.385L279.55 688.271C294.396 694.942 309.55 701.35 324.583 707.607C368.527 725.897 411.9 745.897 455.827 764.181C453.53 770.108 450.977 776.296 449.184 782.369C477.678 783.539 538.895 781.597 570.174 782.611C570.591 783.023 571.008 783.434 571.424 783.846L571.776 785.018C569.478 786.24 562.468 785.469 559.311 785.608L486.961 785.452C480.558 785.442 450.287 784.435 446.482 787.156C446.355 785.166 446.512 784.175 446.736 782.177C445.782 777.793 447.554 772.09 444.585 768.296C440.092 762.555 399.141 766.151 389.221 765.137C389.047 765.119 388.874 765.098 388.701 765.078C386.199 765.418 385.806 765.236 383.39 764.427C381.022 765.417 342.745 765.714 339.427 765.027C336.531 765.473 336.05 765.564 333.349 764.43C329.567 765.863 301.413 765.237 295.035 765.346C291.98 763.564 289.634 761.9 286.14 761.368L285.937 762.059C287.713 763.911 288.109 764.046 290.386 765.344C275.952 765.313 260.224 764.995 245.899 765.505L242.734 765.453L234.034 765.267L231.59 765.415C224.189 764.665 213.907 766.014 205.904 764.96L203.15 765.213C204.38 762.316 205.967 759.283 207.371 756.453C220.867 729.265 235.785 702.642 248.822 675.237Z"/><path fill="#64748B" d="M248.822 675.237L275.104 686.385L279.55 688.271C294.396 694.942 309.55 701.35 324.583 707.607C368.527 725.897 411.9 745.897 455.827 764.181C453.53 770.108 450.977 776.296 449.184 782.369C477.678 783.539 538.895 781.597 570.174 782.611C570.591 783.023 571.008 783.434 571.424 783.846L571.776 785.018C569.478 786.24 562.468 785.469 559.311 785.608L486.961 785.452C480.558 785.442 450.287 784.435 446.482 787.156C446.355 785.166 446.512 784.175 446.736 782.177C448.315 776.805 450.713 771.012 452.749 765.744C443.484 760.793 429.555 755.321 419.489 751.012L362.482 726.592L292.573 696.656C279.156 690.861 263.78 683.615 250.297 678.65C245.639 686.186 236.155 705.806 231.8 714.435C223.879 730.126 212.839 749.301 205.904 764.96L203.15 765.213C204.38 762.316 205.967 759.283 207.371 756.453C220.867 729.265 235.785 702.642 248.822 675.237Z"/><path fill="white" d="M265.979 707.052L273.008 710.061C264.795 726.389 252.202 750.075 242.734 765.453L234.034 765.267C244.21 746.196 254.946 725.5 265.979 707.052Z"/><path fill="#64748B" d="M264.667 703.556C268.42 705.215 272.623 706.96 276.283 708.731C268.81 725.783 254.807 748.342 245.899 765.505L242.734 765.453C252.202 750.075 264.795 726.389 273.008 710.061L265.979 707.052C254.946 725.5 244.21 746.196 234.034 765.267L231.59 765.415C241.768 744.517 254.786 723.759 264.667 703.556Z"/><path fill="#64748B" d="M383.39 764.427C375.316 760.865 302.073 728.893 300.936 727.632C305.083 726.517 380.518 760.866 388.701 765.078C386.199 765.418 385.806 765.236 383.39 764.427Z"/><path fill="#64748B" d="M333.349 764.43C327.695 761.657 294.41 747.375 292.505 744.914C298.496 745.633 331.959 761.465 339.427 765.027C336.531 765.473 336.05 765.564 333.349 764.43Z"/><path fill="#FEFEFE" d="M329.273 796.319C333.219 796.183 344.711 795.348 346.514 797.607C356.964 810.701 325.442 807.375 322.412 807.353L289.429 807.267C283.501 807.334 270.948 808.879 268.025 803.007C267.935 800.49 267.902 800.389 269.302 798.408C273.358 795.374 287.609 796.414 293.163 796.432C305.2 796.509 317.237 796.472 329.273 796.319Z"/><path fill="#4F5073" d="M191.175 775.587L192.491 776.531C193.663 779.934 193.029 820.24 193.027 826.975L191.367 826.438C190.094 823.693 190.323 780.119 191.175 775.587Z"/><path fill="#4F5073" d="M422.504 775.727L423.647 777.062C424.193 782.475 424.163 821.994 423.206 825.622L422.243 824.786C421.272 820.599 421.626 778.748 422.504 775.727Z"/><path fill="white" d="M446.482 787.156C450.287 784.435 480.558 785.442 486.961 785.452L559.311 785.608C563.682 785.765 568.057 785.806 572.431 785.731C595.888 824.282 614.39 862.897 659.718 878.186L659.733 932.637L479.405 932.627C483.706 926.98 482.673 925.379 478.877 920.165C479.538 915.753 479.25 905.176 479.226 900.196C472.305 900.265 447.647 900.867 442.302 899.648C447.907 899.365 476.054 900.491 478.783 898.585C479.172 890.715 479.235 883.778 479.186 875.889L478.069 874.224C480.01 871.858 479.462 851.654 478.437 848.39C479.721 845.383 483.694 840.547 479.643 837.135C473.938 832.329 454.05 834.599 446.899 834.628C446.444 818.906 447.088 802.949 446.482 787.156Z"/><path fill="white" d="M1008.09 781.771C1010.67 781.677 1013.47 781.227 1015.61 782.396L1016.26 784.182C1015.11 792.139 1015.76 821.078 1015.76 830.787L1015.79 868.51C1015.82 883.335 1014.36 897.372 1024.21 909.744C1031.24 918.579 1040.53 923.411 1051.61 924.89L1052.66 925.025L1053.03 925.993C1053.52 928.797 1053.61 930.035 1054.79 932.672L880.836 932.529L880.661 784.777L880.471 781.884C922.826 781.618 965.901 782.396 1008.09 781.771Z"/><path fill="#64748B" d="M1008.09 781.771C1010.67 781.677 1013.47 781.227 1015.61 782.396L1016.26 784.182C1012.07 785.116 982.798 784.586 976.294 784.577L880.661 784.777L880.471 781.884C922.826 781.618 965.901 782.396 1008.09 781.771Z"/><path fill="#64748B" d="M1053.03 925.993C1054.96 924.981 1056.49 925.318 1058.71 925.434C1063.81 926.372 1066.9 925.761 1071.91 926.011C1075.85 925.82 1078.94 925.725 1082.88 925.851C1125.1 926.049 1167.49 925.244 1209.78 925.934C1213.39 925.855 1218.04 925.288 1221.17 926.542C1221.97 927.967 1221.91 927.881 1222.09 929.512L1222.86 933.037C1227.61 933.496 1233.33 933.387 1238.03 932.564C1246.36 932.931 1254.71 932.763 1263.06 932.823C1281.28 932.955 1299.53 932.675 1317.74 933.039C1319 933.064 1320.06 933.792 1321.07 934.458C1322.41 936.759 1322.17 935.725 1322.01 938.356C1321.23 939.614 1319.96 941.181 1318.48 941.202C1303.14 941.422 1283.33 941.206 1268.46 941.192L1099.33 941.184L325.954 941.29C303.959 941.28 51.3302 942.549 48.5605 940.707C47.3734 939.917 45.7773 938.688 45.3465 937.292C45.8781 935.668 46.353 935.228 47.9406 934.464C55.1112 931.012 94.9156 932.724 104.303 932.732L151.24 932.859C161.209 933.74 183.207 933.029 194.412 932.996L275.044 932.984L409.508 932.857C431.982 932.822 457.318 933.393 479.405 932.627L659.733 932.637L806.323 932.54C830.791 932.527 856.451 932.109 880.836 932.529L1054.79 932.672C1053.61 930.035 1053.52 928.797 1053.03 925.993Z"/><path fill="#FEFEFE" d="M1082.88 925.851C1125.1 926.049 1167.49 925.244 1209.78 925.934C1213.39 925.855 1218.04 925.288 1221.17 926.542C1221.97 927.967 1221.91 927.881 1222.09 929.512L1222.86 933.037C1197.14 933.877 1166.74 932.422 1140.39 932.781C1123.15 933.015 1087.21 934.035 1071.06 932.572C1071.46 930.582 1071.68 928.066 1071.91 926.011C1075.85 925.82 1078.94 925.725 1082.88 925.851Z"/><path fill="#54576B" d="M1053.03 925.993C1054.96 924.981 1056.49 925.318 1058.71 925.434C1063.81 926.372 1066.9 925.761 1071.91 926.011C1071.68 928.066 1071.46 930.582 1071.06 932.572C1065.64 932.633 1060.22 932.666 1054.79 932.672C1053.61 930.035 1053.52 928.797 1053.03 925.993Z"/><path fill="#F87171" d="M446.899 834.628C454.05 834.599 473.938 832.329 479.643 837.135C483.694 840.547 479.721 845.383 478.437 848.39L477.762 848.483C472.011 849.237 458.03 848.988 451.631 849.001L399.258 848.882L226.398 848.859L182.903 848.872C172.401 848.89 156.057 846.708 148.947 855.554C147.311 857.576 146.143 859.936 145.528 862.464C143.035 872.441 145.095 891.76 144.812 902.512C144.715 906.208 148.501 913.811 151.655 915.638C161.4 921.283 178.421 919.341 189.836 919.337L245.053 919.302L419.396 919.351C426.445 919.354 474.6 918.845 478.877 920.165C482.673 925.379 483.706 926.98 479.405 932.627C457.318 933.393 431.982 932.822 409.508 932.857L275.044 932.984L194.412 932.996C183.207 933.029 161.209 933.74 151.24 932.859C119.794 921.679 127.079 905.412 125.864 878.01C124.523 847.775 132.919 834.401 164.597 834.726L446.899 834.628Z"/><path fill="#83828F" d="M478.069 874.224L479.186 875.889C469.473 876.135 451.714 876.271 442.558 875.48C445.787 873.169 472.412 874.199 478.069 874.224Z"/><path fill="#64748B" d="M442.302 899.648L442.138 898.715C444.023 897.425 475.35 897.766 478.783 898.585C476.054 900.491 447.907 899.365 442.302 899.648Z"/><path fill="#F87171" d="M330.549 891.647C334.02 890.225 337.985 891.894 339.395 895.371C340.804 898.848 339.12 902.809 335.638 904.205C332.175 905.595 328.241 903.921 326.839 900.462C325.437 897.003 327.096 893.062 330.549 891.647Z"/><path fill="#F87171" d="M281.599 891.726C285.024 890.248 288.999 891.83 290.472 895.258C291.946 898.686 290.359 902.66 286.929 904.129C283.506 905.595 279.543 904.011 278.073 900.589C276.603 897.168 278.181 893.202 281.599 891.726Z"/><path fill="#F87171" d="M233.177 865.743C235.554 865.107 238.089 865.816 239.792 867.592C241.495 869.369 242.097 871.931 241.362 874.28C240.628 876.629 238.674 878.392 236.263 878.882C232.688 879.607 229.183 877.361 228.349 873.809C227.515 870.257 229.653 866.685 233.177 865.743Z"/><path fill="#F87171" d="M331.373 865.733C334.808 864.835 338.349 866.761 339.465 870.132C340.58 873.504 338.885 877.162 335.592 878.49C333.267 879.428 330.613 878.995 328.706 877.367C326.799 875.739 325.955 873.186 326.515 870.742C327.075 868.298 328.947 866.368 331.373 865.733Z"/><path fill="#F87171" d="M284.228 865.722C287.826 865.68 290.817 868.487 291.003 872.081C291.189 875.676 288.506 878.777 284.922 879.107C282.473 879.333 280.097 878.199 278.731 876.153C277.365 874.107 277.228 871.477 278.375 869.301C279.522 867.125 281.769 865.751 284.228 865.722Z"/><path fill="#F87171" d="M184.946 865.685C188.363 864.868 191.831 866.833 192.885 870.186C193.94 873.538 192.223 877.136 188.953 878.423C186.624 879.341 183.978 878.881 182.094 877.232C180.211 875.583 179.405 873.021 180.005 870.59C180.605 868.159 182.511 866.267 184.946 865.685Z"/><path fill="#F87171" d="M183.961 891.73C187.377 890.357 191.259 892.006 192.643 895.418C194.027 898.83 192.391 902.719 188.985 904.115C185.562 905.518 181.651 903.872 180.26 900.443C178.87 897.015 180.529 893.109 183.961 891.73Z"/><path fill="#F87171" d="M379.616 866.174C381.81 865.117 384.407 865.345 386.384 866.767C388.36 868.19 389.402 870.58 389.098 872.997C388.794 875.414 387.193 877.471 384.925 878.359C381.597 879.663 377.833 878.101 376.405 874.823C374.977 871.546 376.395 867.725 379.616 866.174Z"/><path fill="#F87171" d="M232.585 891.776C236.015 890.479 239.846 892.207 241.145 895.636C242.445 899.066 240.721 902.899 237.295 904.203C233.862 905.508 230.022 903.781 228.721 900.347C227.42 896.913 229.15 893.074 232.585 891.776Z"/><path fill="#F87171" d="M380.477 891.586C382.771 890.869 385.274 891.456 387.011 893.118C388.749 894.78 389.446 897.255 388.832 899.579C388.218 901.904 386.389 903.711 384.058 904.298C380.591 905.17 377.059 903.125 376.09 899.683C375.12 896.242 377.064 892.653 380.477 891.586Z"/><path fill="#F87171" d="M429.809 865.592C433.25 864.95 436.566 867.202 437.238 870.638C437.909 874.075 435.686 877.41 432.256 878.111C428.785 878.821 425.401 876.564 424.722 873.086C424.042 869.608 426.327 866.243 429.809 865.592Z"/><path fill="#F87171" d="M428.47 892.326C430.591 891.482 433.003 891.851 434.775 893.292C436.547 894.732 437.401 897.019 437.009 899.268C436.616 901.518 435.038 903.379 432.883 904.134C429.646 905.268 426.097 903.605 424.896 900.392C423.695 897.178 425.283 893.594 428.47 892.326Z"/><path fill="white" d="M104.303 932.732C102.375 927.02 98.3338 920.244 95.9636 914.232C60.7164 824.836 67.8491 720.751 109.977 634.933C124.53 605.287 140.005 585.925 143.181 551.721C145.989 521.487 137.281 507.875 129.446 480.457C126.2 468.763 124.123 456.775 123.247 444.67C117.738 372.675 151.099 300.789 197.181 247.215C266.121 167.344 364.108 118.335 469.352 111.086C575.669 103.1 686.592 131.918 768.217 202.686C775.346 208.866 781.682 216.49 788.913 222.715C787.287 227.985 786.452 232.016 786.431 237.591L691.056 237.884C690.781 231.357 690.659 227.849 688.321 221.811C682.401 206.519 664.637 201.447 653.86 215.306C648.228 222.549 647.67 229.332 647.429 238.132L648.811 238.638L648.993 239.511L644.437 239.996L644.25 240.598L644.978 241.301C622.672 241.778 599.649 240.942 577.29 241.226C568.161 241.342 555.09 240.712 546.265 241.57L544.986 238.193C536.41 237.504 517.469 238.036 508.226 238.011L507.528 241.512C484.717 240.594 460.942 241.785 438.02 241.285C427.905 241.065 416.299 240.963 406.313 241.506L405.696 238.14L368.394 238.286L367.903 240.771L367.658 241.344C355.515 241.263 316.961 240.207 306.953 242.895C300.44 244.617 294.489 248.009 289.687 252.734C285.173 257.191 281.977 262.808 280.45 268.966C278.12 278.214 278.671 326.061 279.374 337.768C280.491 382.388 279.524 430.746 279.464 475.686L279.55 688.271L275.104 686.385L248.822 675.237C235.785 702.642 220.867 729.265 207.371 756.453C205.967 759.283 204.38 762.316 203.15 765.213C190.389 765.204 177.14 765.361 164.422 765.078C164.478 788.084 164.221 811.796 164.597 834.726C132.919 834.401 124.523 847.775 125.864 878.01C127.079 905.412 119.794 921.679 151.24 932.859L104.303 932.732Z"/><path fill="#83828F" d="M275.104 686.385L275.254 401.326L275.14 314.817C275.123 300.77 274.793 285.309 275.513 271.344C275.952 262.837 283.654 251.963 290.573 246.633C295.509 242.783 301.216 240.041 307.305 238.591C314.708 236.852 356.979 236.841 365.061 237.897L360.23 238.61C362.578 238.89 362.703 238.529 364.329 239.732C362.209 239.882 360.087 240.019 357.966 240.141L367.903 240.771L367.658 241.344C355.515 241.263 316.961 240.207 306.953 242.895C300.44 244.617 294.489 248.009 289.687 252.734C285.173 257.191 281.977 262.808 280.45 268.966C278.12 278.214 278.671 326.061 279.374 337.768C280.491 382.388 279.524 430.746 279.464 475.686L279.55 688.271L275.104 686.385Z"/><path fill="white" d="M368.394 238.286C364.114 199.849 409.385 201.46 405.696 238.14L368.394 238.286Z"/><path fill="white" d="M507.853 237.47C509.1 196.59 549.256 207.625 544.986 238.193C536.41 237.504 517.469 238.036 508.226 238.011L507.853 237.47Z"/><defs><linearGradient id="gradient_0" gradientUnits="userSpaceOnUse" x1="431.14554" y1="201.13113" x2="437.21439" y2="248.68236"><stop offset="0" stop-color="#6B697B"/><stop offset="1" stop-color="#84848C"/></linearGradient></defs><path fill="url(#gradient_0)" d="M365.061 237.897C365.077 197.946 405.218 193.92 409.276 237.531L468.468 237.422C479.129 237.446 493.508 237.925 503.747 237.268C504.94 235.825 504.775 234.565 505.095 232.475C505.247 234.84 504.901 236.54 506.2 238.002L507.853 237.47L508.226 238.011L507.528 241.512C484.717 240.594 460.942 241.785 438.02 241.285C427.905 241.065 416.299 240.963 406.313 241.506L405.696 238.14C409.385 201.46 364.114 199.849 368.394 238.286L367.903 240.771L357.966 240.141C360.087 240.019 362.209 239.882 364.329 239.732C362.703 238.529 362.578 238.89 360.23 238.61L365.061 237.897Z"/><defs><linearGradient id="gradient_1" gradientUnits="userSpaceOnUse" x1="574.60535" y1="204.55524" x2="577.79095" y2="244.91754"><stop offset="0" stop-color="#67677C"/><stop offset="1" stop-color="#84838C"/></linearGradient></defs><path fill="url(#gradient_1)" d="M505.095 232.475C505.492 225.255 508.478 217.361 513.972 212.493C517.802 209.046 522.872 207.313 528.01 207.693C543.123 208.954 547.847 225.186 548.594 237.807L617.132 237.719C623.097 237.726 643.052 237.392 647.429 238.132L648.811 238.638L648.993 239.511L644.437 239.996L644.25 240.598L644.978 241.301C622.672 241.778 599.649 240.942 577.29 241.226C568.161 241.342 555.09 240.712 546.265 241.57L544.986 238.193C549.256 207.625 509.1 196.59 507.853 237.47L506.2 238.002C504.901 236.54 505.247 234.84 505.095 232.475Z"/><path fill="#FCD34D" d="M211.424 338.656C225.494 338.138 222.994 355.285 232.152 362.916C239.739 369.239 254.282 369.083 253.096 381.063C249.739 387.372 235.344 390.306 229.903 396.177C223.164 403.45 224.802 413.465 215.475 418.199C214.547 418.162 213.62 418.094 212.696 417.993C203.02 416.847 202.522 398.643 193.815 392.902C189.703 389.708 177.385 386.765 174.895 382.358C167.568 369.39 191.395 368.249 197.226 360.181C202.975 352.226 203.996 343.735 211.424 338.656Z"/><path fill="#83828F" d="M214.796 477.518C219.587 476.367 224.425 479.232 225.721 483.986C227.017 488.741 224.303 493.665 219.592 495.107C216.413 496.079 212.957 495.245 210.573 492.928C208.188 490.612 207.253 487.181 208.131 483.975C209.01 480.768 211.564 478.294 214.796 477.518Z"/><path fill="white" d="M213.96 479.598C217.674 477.879 222.078 479.509 223.778 483.232C225.479 486.955 223.828 491.352 220.097 493.035C216.392 494.705 212.034 493.068 210.345 489.37C208.656 485.673 210.272 481.306 213.96 479.598Z"/><path fill="#64748B" d="M205.277 551.521C206.115 551.937 206.217 552.129 206.943 552.744C207.768 555.861 207.247 559.554 207.022 562.829L205.579 561.863C204.775 558.865 205.156 554.722 205.277 551.521Z"/><path fill="#64748B" d="M188.183 566.992C191.73 566.832 198.112 565.718 200.272 568.455C196.988 568.708 191.464 569.294 188.465 568.27L188.183 566.992Z"/><path fill="#54576B" d="M214.806 566.996C217.518 566.873 220.677 566.592 223.077 567.956C222.016 568.988 222.06 568.636 220.113 568.727C216.393 568.86 215.624 568.934 211.947 568.03L212.073 567.431L214.806 566.996Z"/><path fill="#54576B" d="M205.762 573.652L206.809 574.642C207.588 577.995 207.201 581.564 206.645 584.929L205.684 584.037C204.771 580.964 205.306 576.807 205.762 573.652Z"/><path fill="#F87171" d="M647.429 238.132C647.67 229.332 648.228 222.549 653.86 215.306C664.637 201.447 682.401 206.519 688.321 221.811C690.659 227.849 690.781 231.357 691.056 237.884L786.431 237.591C786.452 232.016 787.287 227.985 788.913 222.715C792.114 216.366 795.851 210.538 803.054 208.168C807.794 206.641 812.956 207.167 817.291 209.618C827.581 215.346 830.648 227.027 830.535 237.983L929.066 237.967L927.794 241.563C931.84 241.554 931.707 241.722 932.409 238.149C937.566 237.842 963.944 237.472 968.416 238.212L969.527 241.533C979.915 241.175 1023.01 240.639 1031.11 242.574C1036.63 243.859 1041.73 246.541 1045.93 250.363C1053.9 257.673 1057.04 268.521 1057.13 279.012C1057.28 298.512 1057.25 318.112 1057.25 337.613C1024.61 337.072 989.909 337.637 957.113 337.595L725.477 337.532L279.374 337.768C278.671 326.061 278.12 278.214 280.45 268.966C281.977 262.808 285.173 257.191 289.687 252.734C294.489 248.009 300.44 244.617 306.953 242.895C316.961 240.207 355.515 241.263 367.658 241.344L367.903 240.771L368.394 238.286L405.696 238.14L406.313 241.506C416.299 240.963 427.905 241.065 438.02 241.285C460.942 241.785 484.717 240.594 507.528 241.512L508.226 238.011C517.469 238.036 536.41 237.504 544.986 238.193L546.265 241.57C555.09 240.712 568.161 241.342 577.29 241.226C599.649 240.942 622.672 241.778 644.978 241.301L644.25 240.598L644.437 239.996L648.993 239.511L648.811 238.638L647.429 238.132Z"/><defs><linearGradient id="gradient_2" gradientUnits="userSpaceOnUse" x1="786.15295" y1="201.40155" x2="788.68689" y2="247.62791"><stop offset="0" stop-color="#676980"/><stop offset="1" stop-color="#87838C"/></linearGradient></defs><path fill="url(#gradient_2)" d="M647.429 238.132C647.67 229.332 648.228 222.549 653.86 215.306C664.637 201.447 682.401 206.519 688.321 221.811C690.659 227.849 690.781 231.357 691.056 237.884L786.431 237.591C786.452 232.016 787.287 227.985 788.913 222.715C792.114 216.366 795.851 210.538 803.054 208.168C807.794 206.641 812.956 207.167 817.291 209.618C827.581 215.346 830.648 227.027 830.535 237.983L929.066 237.967L927.794 241.563C921.843 241.131 911.932 241.254 905.923 241.489C884.421 241.419 851.722 240.348 831.011 241.749L828.759 241.466C827.211 239.891 827.718 240.298 827.601 237.353C815.125 237.612 802.245 237.156 790.023 237.486L789.689 240.677C788.288 241.778 789.056 241.458 787.314 241.702C778.399 240.863 756.904 241.236 747.221 241.312C728.544 241.458 706.659 240.68 688.241 241.574L687.687 237.542C685.137 237.538 673.07 237.348 671.286 237.947C664.901 238.906 654.914 238.472 650.992 239.367L649.385 241.63L644.978 241.301L644.25 240.598L644.437 239.996L648.993 239.511L648.811 238.638L647.429 238.132Z"/><path fill="white" d="M650.31 237.984L650.311 237.069C650.418 200.773 689.127 201.389 687.687 237.542C685.137 237.538 673.07 237.348 671.286 237.947L650.31 237.984Z"/><path fill="#FEFEFE" d="M790.023 237.486C785.916 208.836 825.313 194.472 827.601 237.353C815.125 237.612 802.245 237.156 790.023 237.486Z"/><path fill="#FEFEFE" d="M790.023 237.486C802.245 237.156 815.125 237.612 827.601 237.353C827.718 240.298 827.211 239.891 828.759 241.466L831.011 241.749L827.936 242.09C820.696 279.219 797.621 280.016 789.336 242.671C788.9 242.11 788.204 242.038 787.314 241.702C789.056 241.458 788.288 241.778 789.689 240.677L790.023 237.486Z"/><path fill="#F87171" d="M790.023 237.486C802.245 237.156 815.125 237.612 827.601 237.353C827.718 240.298 827.211 239.891 828.759 241.466L831.011 241.749L827.936 242.09C822.769 242.045 792.167 241.317 789.336 242.671C788.9 242.11 788.204 242.038 787.314 241.702C789.056 241.458 788.288 241.778 789.689 240.677L790.023 237.486Z"/><path fill="#FEFEFE" d="M508.226 238.011C517.469 238.036 536.41 237.504 544.986 238.193L546.265 241.57L545.753 243.291C543.611 251.634 537.437 273.749 524.617 270.99C515.296 268.985 509.486 252.466 508.026 243.901L507.528 241.512L508.226 238.011Z"/><path fill="#F87171" d="M508.226 238.011C517.469 238.036 536.41 237.504 544.986 238.193L546.265 241.57L545.753 243.291C542.844 242.156 511.395 242.102 508.642 243.01L508.026 243.901L507.528 241.512L508.226 238.011Z"/><path fill="#FEFEFE" d="M932.409 238.149C937.566 237.842 963.944 237.472 968.416 238.212L969.527 241.533L969.14 242.115C961.779 281.034 936.348 278.667 932.102 242.673C929.433 240.746 910.378 243.196 905.923 241.489C911.932 241.254 921.843 241.131 927.794 241.563C931.84 241.554 931.707 241.722 932.409 238.149Z"/><path fill="#F87171" d="M932.409 238.149C937.566 237.842 963.944 237.472 968.416 238.212L969.527 241.533L969.14 242.115C964.418 241.979 934.336 241.299 932.102 242.673C929.433 240.746 910.378 243.196 905.923 241.489C911.932 241.254 921.843 241.131 927.794 241.563C931.84 241.554 931.707 241.722 932.409 238.149Z"/><path fill="#FEFEFE" d="M368.394 238.286L405.696 238.14L406.313 241.506L405.769 243.255C398.78 281.244 377.137 279.105 368.048 243.237L367.658 241.344L367.903 240.771L368.394 238.286Z"/><path fill="#F87171" d="M368.394 238.286L405.696 238.14L406.313 241.506L405.769 243.255C402.922 242.023 370.933 242.023 368.048 243.237L367.658 241.344L367.903 240.771L368.394 238.286Z"/><path fill="#FEFEFE" d="M671.286 237.947C673.07 237.348 685.137 237.538 687.687 237.542L688.241 241.574L687.999 242.011C680.798 281.017 654.254 277.103 649.694 241.981L649.385 241.63L650.992 239.367C654.914 238.472 664.901 238.906 671.286 237.947Z"/><path fill="#F87171" d="M671.286 237.947C673.07 237.348 685.137 237.538 687.687 237.542L688.241 241.574L687.999 242.011L649.694 241.981L649.385 241.63L650.992 239.367C654.914 238.472 664.901 238.906 671.286 237.947Z"/><path fill="#F87171" d="M667.36 554.657C681.182 543.261 697.895 544.03 709.531 558.086C717.984 568.296 715.809 584.142 715.785 596.851L715.727 642.204C721.744 638.738 739.63 639.818 747.19 639.824L799.698 639.836C799.835 652.089 799.86 664.344 799.776 676.597C807.779 678.194 812.096 679.71 818.336 685.135C821.064 689.063 822.246 690.69 823.908 695.161C825.745 700.104 823.046 706.385 826.982 708.879C831.992 708.833 837.326 701.944 840.91 700.659C851.896 696.72 861.822 699.678 870.162 706.536L870.861 707.104C870.998 707.22 871.136 707.336 871.274 707.452C875.641 712.546 880.394 720.888 880.219 727.621C879.789 744.144 882.095 765.791 880.471 781.884L880.661 784.777L880.836 932.529C856.451 932.109 830.791 932.527 806.323 932.54L659.733 932.637L659.718 878.186C614.39 862.897 595.888 824.282 572.431 785.731C568.057 785.806 563.682 785.765 559.311 785.608C562.468 785.469 569.478 786.24 571.776 785.018L571.424 783.846C571.008 783.434 570.591 783.023 570.174 782.611C538.895 781.597 477.678 783.539 449.184 782.369L570.311 782.13C566.139 775.522 552.992 756.74 550.479 751.189C547.332 744.397 547.053 736.623 549.706 729.623C558.257 707.002 585.336 705.899 599.624 724.389C615.343 744.731 634.971 761.556 659.194 770.783L659.256 706.131L659.213 640.056L659.235 619.989C659.433 601.24 654.778 568.259 667.36 554.657Z"/><path fill="white" d="M715.727 642.204C721.744 638.738 739.63 639.818 747.19 639.824L799.698 639.836C799.835 652.089 799.86 664.344 799.776 676.597C785.253 676.652 780.502 683.775 771.127 693.449C769.943 686.983 768.913 679.905 764.774 674.365C756.143 662.814 734.907 659.609 724.743 670.769C722.143 673.626 719.981 677.483 716.861 679.822L716.029 679.155C715.153 671.486 715.697 650.845 715.727 642.204Z"/><path fill="white" d="M819.156 639.828L900.467 639.441C901.202 661.305 900.548 685.08 900.451 707.134C895.371 707.281 874.123 706.52 871.274 707.452C871.136 707.336 870.998 707.22 870.861 707.104L870.162 706.536C861.822 699.678 851.896 696.72 840.91 700.659C837.326 701.944 831.992 708.833 826.982 708.879C823.046 706.385 825.745 700.104 823.908 695.161C822.246 690.69 821.064 689.063 818.336 685.135C819.969 679.692 818.953 647.709 819.156 639.828Z"/><path fill="#83828F" d="M929.066 237.967C929.081 231.678 929.119 228.548 931.116 222.671C935.95 208.44 952.635 201.098 964.169 213.176C971 220.328 971.926 228.631 971.818 238.011C983.405 237.971 1023.01 237.009 1032.08 239.327C1038.56 240.945 1044.5 244.247 1049.29 248.899C1052.95 252.48 1059.07 261.692 1059.57 266.312C1061.61 285.124 1060.87 310.407 1060.9 329.256L1060.93 714.628L1057.4 714.597L1057.25 337.613C1057.25 318.112 1057.28 298.512 1057.13 279.012C1057.04 268.521 1053.9 257.673 1045.93 250.363C1041.73 246.541 1036.63 243.859 1031.11 242.574C1023.01 240.639 979.915 241.175 969.527 241.533L968.416 238.212C963.944 237.472 937.566 237.842 932.409 238.149C931.707 241.722 931.84 241.554 927.794 241.563L929.066 237.967Z"/><path fill="#FEFEFE" d="M932.409 238.149C931.161 233.11 932.539 224.215 935.351 219.696C944.924 204.312 963.678 208.833 967.898 225.5C968.687 228.632 969.351 235.145 968.416 238.212C963.944 237.472 937.566 237.842 932.409 238.149Z"/><path fill="white" d="M616.359 554.689C633.357 554.266 650.362 554.255 667.36 554.657C654.778 568.259 659.433 601.24 659.235 619.989C644.84 620.547 630.435 620.761 616.031 620.631C615.365 609.68 615.803 596.237 615.751 585.08C615.71 576.297 615.406 562.942 616.359 554.689Z"/><path fill="white" d="M615.938 640.011C630.363 639.849 644.789 639.865 659.213 640.056L659.256 706.131C653.211 706.727 620.754 707.767 617.203 704.959C614.875 698.891 615.923 649.724 615.938 640.011Z"/><path fill="#FCD34D" d="M337.758 581.497C337.614 581.146 337.474 580.794 337.337 580.44C324.882 548.306 327.601 510.708 341.316 479.433C356.277 445.33 384.152 418.556 418.825 404.986C454.357 391.312 493.896 392.522 528.526 408.343C560.041 422.304 584.729 448.205 597.168 480.358C607.842 508.272 608.793 536.495 601.392 565.314C600.482 568.858 599.878 571.825 598.364 575.199L596.921 579.938C593.882 591.66 582.49 609.83 574.989 619.435C563.601 632.603 555.323 640.227 540.623 649.955C497.32 675.445 443.166 678.237 399.194 652.402C384.435 643.836 371.304 632.73 360.405 619.597C352.201 610.141 347.792 600.038 341.048 589.942C339.329 586.439 338.837 585.238 337.758 581.497Z"/><path fill="white" d="M341.048 589.942C341.389 582.451 341.041 577.409 344.055 570.159C348.059 560.529 359.185 553.289 369.528 552.899C379.98 552.505 390.935 552.717 401.491 552.704L462.889 552.672L531.911 552.665C545.005 552.669 567.92 551.109 580.362 555.28C591.084 558.875 593.204 570.184 596.759 579.523L596.921 579.938C593.882 591.66 582.49 609.83 574.989 619.435C563.601 632.603 555.323 640.227 540.623 649.955C497.32 675.445 443.166 678.237 399.194 652.402C384.435 643.836 371.304 632.73 360.405 619.597C352.201 610.141 347.792 600.038 341.048 589.942Z"/><path fill="#FCD34D" d="M400.49 621.333C413.708 622.249 430.841 621.53 444.4 621.665C476.311 621.985 508.833 621.138 540.692 621.874C540.651 631.115 540.465 640.746 540.623 649.955C497.32 675.445 443.166 678.237 399.194 652.402C399.063 643.388 398.905 634.192 399.021 625.175C399.055 622.573 399.064 622.603 400.49 621.333Z"/><path fill="#54576B" d="M395.232 619.417C434.185 619.109 473.14 619.02 512.094 619.149C531.033 619.201 556.607 618.45 574.989 619.435C563.601 632.603 555.323 640.227 540.623 649.955C540.465 640.746 540.651 631.115 540.692 621.874C508.833 621.138 476.311 621.985 444.4 621.665C430.841 621.53 413.708 622.249 400.49 621.333C397.737 621.165 397.426 621.081 395.232 619.417Z"/><path fill="#64748B" d="M360.405 619.597C366.054 618.89 388.826 619.335 395.232 619.417C397.426 621.081 397.737 621.165 400.49 621.333C399.064 622.603 399.055 622.573 399.021 625.175C398.905 634.192 399.063 643.388 399.194 652.402C384.435 643.836 371.304 632.73 360.405 619.597Z"/><path fill="#F87171" d="M379.34 550.135C379.268 524.484 375.434 497.809 406.622 488.933L406.359 490.448L407.899 491.057C418.228 489.448 435.848 490.308 446.84 490.141C472.773 489.745 499.649 490.77 525.522 490.058C528.636 489.7 530.669 490.183 533.684 488.994C564.184 497.932 560.573 524.829 560.515 550.002C579.641 549.879 593.283 554.744 598.364 575.199L596.921 579.938L596.759 579.523C593.204 570.184 591.084 558.875 580.362 555.28C567.92 551.109 545.005 552.669 531.911 552.665L462.889 552.672L401.491 552.704C390.935 552.717 379.98 552.505 369.528 552.899C359.185 553.289 348.059 560.529 344.055 570.159C341.041 577.409 341.389 582.451 341.048 589.942C339.329 586.439 338.837 585.238 337.758 581.497C343.214 557.111 355.42 550.269 379.34 550.135Z"/><path fill="#64748B" d="M379.34 550.135C379.268 524.484 375.434 497.809 406.622 488.933L406.359 490.448L407.899 491.057C377.701 501.178 381.814 523.889 382.011 550.066L557.742 550.039C558 523.065 561.055 494.304 525.522 490.058C528.636 489.7 530.669 490.183 533.684 488.994C564.184 497.932 560.573 524.829 560.515 550.002C579.641 549.879 593.283 554.744 598.364 575.199L596.921 579.938L596.759 579.523C593.204 570.184 591.084 558.875 580.362 555.28C567.92 551.109 545.005 552.669 531.911 552.665L462.889 552.672L401.491 552.704C390.935 552.717 379.98 552.505 369.528 552.899C359.185 553.289 348.059 560.529 344.055 570.159C341.041 577.409 341.389 582.451 341.048 589.942C339.329 586.439 338.837 585.238 337.758 581.497C343.214 557.111 355.42 550.269 379.34 550.135Z"/><path fill="#4F5073" d="M406.622 488.933C415.358 486.86 527.005 487.006 533.684 488.994C530.669 490.183 528.636 489.7 525.522 490.058C499.649 490.77 472.773 489.745 446.84 490.141C435.848 490.308 418.228 489.448 407.899 491.057L406.359 490.448L406.622 488.933Z"/><path fill="white" d="M919.067 640.079C944.214 639.267 972.049 639.572 997.31 640.577C997.8 640.596 1000.26 641.295 1000.25 641.983C1000 654.299 1003.44 697.903 1000.21 706.938C987.516 707.791 971.474 707.126 958.639 707.129C946.217 707.132 931.381 707.445 919.145 706.673C918.414 686.765 918.546 660.215 919.067 640.079Z"/><path fill="#A4C6EC" d="M819.325 468.913C831.453 468.848 893.664 467.358 900.31 470.357C900.949 470.646 901.07 471.182 901.275 471.818C902.317 475.055 902.083 523.376 901.489 528.986C901.273 531.025 900.621 532.648 899.653 534.438C893.069 535.205 879.008 534.871 871.597 534.924L818.724 535.198C818.074 526.408 817.608 475.706 819.325 468.913Z"/><path fill="#FCD34D" d="M616.626 385.586C643.411 384.981 670.771 386.115 697.962 385.378C698.028 386.873 698.183 393.777 698.026 394.951C696.911 403.27 700.063 446.78 696.735 451.444C670.009 451.281 640.971 451.651 614.593 451.15C613.764 432.024 614.837 411.973 614.483 392.771C614.424 389.552 614.262 387.889 616.626 385.586Z"/><path fill="#4F5073" d="M685.406 400.457L686.23 401.667C685.5 404.133 650.994 437.152 647.397 440.69C641.473 434.283 635.312 428.1 628.925 422.156C627.776 420.81 628.039 421.576 628.162 419.768L629.121 419.289C632.863 420.837 644.149 433.224 647.69 436.908C655.747 428.276 676.467 407.564 685.406 400.457Z"/><path fill="white" d="M627.029 470.366C648.668 469.41 676.618 469.909 698.533 470.291C698.658 478.374 699.602 532.097 696.933 535.414C694.105 536.611 690.472 536.24 687.332 536.177C666.984 536.235 635.776 536.927 615.884 535.535C615.375 528.45 615.656 518.154 615.585 510.776C615.458 497.545 615.126 483.757 615.839 470.617L627.029 470.366Z"/><path fill="#FCD34D" d="M924.866 534.523C920.79 534.716 917.6 533.891 917.692 529.051C918.045 510.417 917.281 491.691 918.086 473.093C918.124 472.192 918.488 470.295 919.508 470.186C934.337 468.611 987.987 465.875 999.587 470.102C1001.57 472.383 1000.49 524.128 1000.45 531.412C999.911 533.759 999.815 533.836 997.292 534.721C975.276 533.536 948.645 535.104 925.934 534.557L924.866 534.523Z"/><path fill="#FCD34D" d="M925.934 534.557C933.703 513.476 953.462 501.317 975.901 509.918C987.269 514.275 992.988 523.839 997.292 534.721C975.276 533.536 948.645 535.104 925.934 534.557Z"/><path fill="#64748B" d="M924.866 534.523L923.999 534.05C922.371 530.589 927.647 523.453 929.661 520.567C939.121 507.006 957.409 501.064 973.155 505.721C987.102 509.845 993.892 519.32 1000.45 531.412C999.911 533.759 999.815 533.836 997.292 534.721C992.988 523.839 987.269 514.275 975.901 509.918C953.462 501.317 933.703 513.476 925.934 534.557L924.866 534.523Z"/><path fill="white" d="M832.675 553.684C853.359 552.748 879.264 553.34 900.369 553.38C901.634 571.923 900.724 601.338 900.29 620.093L884.951 620.169C863.467 620.202 840.519 620.636 819.149 619.962C818.595 599.937 818.687 573.754 819.512 553.791C823.809 553.84 828.355 553.722 832.675 553.684Z"/><path fill="#F87171" d="M920.663 553.371C931.41 553.288 993.086 552.489 999.723 554.716C1001.29 557.002 1000.76 581.001 1000.5 584.932C1000.02 592.252 1002.56 615.271 998.719 619.876L919.137 619.924C919.047 618.13 918.846 612.917 919.03 611.318C920.326 600.077 916.653 561.704 920.663 553.371Z"/><path fill="white" d="M774.725 385.005C780.465 384.886 794.232 383.897 798.756 386.092C800.755 391.26 799.953 443.03 799.356 451.386L743.318 451.485C736.333 451.345 728.441 452.38 721.586 451.295C720.923 451.19 719.679 450.829 719.587 450.164C718.313 440.983 717.864 391.66 719.318 386.789C722.501 384.071 736.34 385.093 741.151 385.099L774.725 385.005Z"/><path fill="white" d="M819.165 385.311C826.092 384.706 841.028 385.176 848.549 385.186C865.574 385.207 883.41 384.929 900.381 385.39C900.585 389.099 900.613 392.945 900.548 396.661C900.239 414.507 900.979 432.644 900.218 450.457C873.206 450.694 846.193 450.738 819.181 450.588C818.416 431.48 818.688 404.484 819.165 385.311Z"/><path fill="white" d="M929.278 384.967C952.204 385.178 977.705 383.716 1000.43 385.439C1000.68 393.256 1001.22 446.189 999.058 449.34C996.388 450.477 993.262 450.104 990.258 450.054C980.868 449.955 924.622 451.757 920.177 449.178C919.636 446.323 919.556 443.573 919.55 440.679C919.512 422.262 918.733 403.623 919.354 385.229L929.278 384.967Z"/><path fill="white" d="M719.187 469.911L768.877 469.981C777.986 470 789.622 469.564 798.564 471.01C799.218 471.116 799.353 471.253 799.411 471.693C800.384 479.103 800.431 531.075 799.33 534.412C792.332 535.914 776.288 535.48 768.245 535.474L719.192 535.401C718.514 515.25 718.875 490.203 719.187 469.911Z"/><path fill="#FCD34D" d="M1100.25 342.61C1111.61 342.407 1107.99 348.819 1113.67 355.778C1116.99 359.853 1129.51 360.882 1126.54 369.004C1125.05 373.083 1117.74 375.29 1113.97 377.008C1110.32 382.512 1110.59 385.861 1105.05 390.791C1094.31 390.111 1096.57 379.244 1091.12 376.646C1074.41 368.681 1072.16 366.218 1092.26 356.38C1094.8 351.841 1097.01 346.044 1100.25 342.61Z"/><path fill="#64748B" d="M1162.09 427.006C1166.67 425.781 1171.38 428.483 1172.63 433.053C1173.88 437.624 1171.21 442.349 1166.65 443.631C1162.05 444.924 1157.27 442.223 1156.01 437.612C1154.74 433 1157.47 428.241 1162.09 427.006Z"/><path fill="#FEFEFE" d="M1163.65 428.261C1167.54 427.981 1170.92 430.896 1171.21 434.78C1171.5 438.664 1168.6 442.052 1164.72 442.358C1160.82 442.664 1157.41 439.744 1157.12 435.842C1156.82 431.941 1159.75 428.543 1163.65 428.261Z"/><path fill="#83828F" d="M1174.37 342.991C1178.47 342.695 1185.56 341.885 1189.12 343.663C1185.54 344.494 1177.43 345.255 1174.37 342.991Z"/><path fill="#54576B" d="M1153.12 342.992C1156.76 342.711 1163.37 341.693 1165.99 343.929C1163 344.1 1155.03 345.055 1153.12 342.992Z"/><path fill="#54576B" d="M1169.7 348.324L1170.74 349.233C1171.44 352.532 1171.04 356.203 1170.88 359.607L1169.94 358.766C1169.33 355.863 1169.62 351.423 1169.7 348.324Z"/></svg>