<?xml version="1.0" encoding="utf-8" ?><svg xmlns="http://www.w3.org/2000/svg" xmlns:xlink="http://www.w3.org/1999/xlink" width="1365" height="1024" viewBox="0 0 1365 1024"><path fill="#FEFEFE" d="M0 0L1365 0L1365 1024L0 1024L0 0Z"/><path fill="#423E49" d="M999.855 394.718C1001.67 393.33 1026.19 392.064 1030.49 391.83C1058.01 390.332 1085.54 391.653 1112.97 394.113L1114.19 395.736C1104.72 402.82 1096.7 405.798 1085.82 409.831C1088.29 448.53 1089.39 489.638 1090.99 528.519C1094.79 638.737 1099.25 748.93 1104.39 859.093C1115.08 859.08 1125.77 858.953 1136.46 858.713L1136.36 593.326L1136.41 521.484C1136.4 508.884 1135.7 492.941 1137.47 480.761C1139.7 465.461 1154.01 450.31 1169.05 447.128C1180.25 444.781 1195.51 445.519 1207.4 445.504L1261.27 445.446L1261.1 717.71C1261.07 749.165 1261.97 783.509 1261.21 814.596C1271.5 811.995 1280.27 811.713 1289.77 817.488C1297.17 822.052 1302.45 829.373 1304.45 837.835C1306.56 846.545 1305.37 855.981 1300.67 863.668C1296.18 870.967 1288.94 876.152 1280.58 878.055C1273.47 879.717 1268.25 879.028 1261.29 877.44C1261.13 888.384 1261.1 899.329 1261.21 910.273C1261.23 914.425 1261.5 922.925 1261.16 926.549C1261.39 930.537 1261.55 934.153 1261.58 938.146C1278.1 938.214 1301.55 937.589 1318.51 938.339C1319.22 938.984 1319.82 939.534 1320.31 939.988L1320.79 941.435C1317.78 945.679 1298.94 944.093 1293.41 944.079L1243.36 944.008L1059.64 943.925L296.035 944.498L123.666 944.526L74.4534 944.414C67.9873 944.437 43.2521 946.141 39.4969 941.759C39.3006 936.272 52.8498 938.414 57.0121 938.133C66.1349 937.135 93.0074 937.862 102.839 937.893L102.791 916.11C109.788 916.595 116.796 916.91 123.808 917.055C123.794 922.188 123.501 932.781 124.028 937.445L124.444 937.552C125.977 936.35 124.965 921.435 125.569 917.121C126.08 923.864 125.916 931.693 125.92 938.554L285.969 938.562C305.539 938.924 326.069 938.574 345.712 938.538C346.271 934.082 346.491 932.672 347.911 928.456C353.855 910.473 370.35 895.268 388.524 890.242C393.095 880.397 398.996 870.898 403.918 861.25C413.128 843.197 425.412 832.612 446.45 832.539C446.969 821.901 446.512 811.111 446.979 800.325L479.872 800.499C479.62 778.091 480.909 752.792 481.058 729.935C474.761 729.863 452.839 730.421 448.485 728.291C446.426 724.47 447.652 718.511 448.157 714.052L481.805 714.018C482 703.63 481.031 693.789 481.095 683.36C483.471 683.408 485.748 683.709 487.857 682.778C489.163 680.96 488.708 678.677 488.615 676.272C484.722 675.624 473.437 675.812 468.883 675.827L431.791 676.053C428.847 671.119 426.104 664.815 423.034 659.439C419.403 660.165 406.568 659.8 402.007 659.812C397.164 650.146 389.667 636.126 385.691 626.513C431.883 641.315 461.521 639.267 509.534 639.276L616.805 639.297L736.715 639.489C779.082 639.499 847.449 641.724 885.777 624.766C878.241 638.836 869.664 650.7 856.375 660.042L840.238 659.973C838.729 665.622 837.234 670.604 831.81 673.745C825.078 677.644 788.964 676.398 779.146 675.938C779.129 678.345 778.735 681.281 779.985 683.106C781.908 684.292 783.987 684.176 786.315 684.355C786.347 688.849 786.598 695.693 786.092 699.978C785.738 705.121 786.016 707.924 786.472 712.98C796.897 713.108 812.232 713.662 822.366 712.963L822.347 730.17C810.776 730.152 798.656 729.959 787.13 730.162C787.623 741.327 788.672 808.155 790.36 813.084C794.158 813.88 794.372 812.456 797.228 814.061L797.286 815.635C795.536 816.837 792.154 816.562 789.852 816.608L791.301 856.424C791.509 861.63 791.666 872.389 792.552 876.911C836.305 859.44 844.056 794.007 887.686 779.732C955.649 757.495 967.669 850.257 1011.62 872.616L1025.96 409.428C1014.83 405.476 1009.22 403.139 999.009 397.287L999.855 394.718Z"/><path fill="#F87171" d="M385.691 626.513C431.883 641.315 461.521 639.267 509.534 639.276L616.805 639.297L736.715 639.489C779.082 639.499 847.449 641.724 885.777 624.766C878.241 638.836 869.664 650.7 856.375 660.042L840.238 659.973C838.729 665.622 837.234 670.604 831.81 673.745C825.078 677.644 788.964 676.398 779.146 675.938C779.129 678.345 778.735 681.281 779.985 683.106C781.908 684.292 783.987 684.176 786.315 684.355C786.347 688.849 786.598 695.693 786.092 699.978C785.738 705.121 786.016 707.924 786.472 712.98C796.897 713.108 812.232 713.662 822.366 712.963L822.347 730.17C810.776 730.152 798.656 729.959 787.13 730.162C787.623 741.327 788.672 808.155 790.36 813.084C794.158 813.88 794.372 812.456 797.228 814.061L797.286 815.635C795.536 816.837 792.154 816.562 789.852 816.608L791.301 856.424C791.509 861.63 791.666 872.389 792.552 876.911L792.583 878.451C792.35 894.801 794.171 911.797 794.51 928.194C794.576 931.413 794.774 935.12 795.11 938.303C782.402 938.237 769.694 938.293 756.987 938.471C732.257 939.422 675.542 938.223 647.886 938.281C647.231 938.282 647.024 936.332 646.794 935.36C637.571 901.197 613.269 909.044 590.816 892.019C582.171 885.464 574.113 869.948 568.743 860.084C567.323 858.468 565.695 855.723 564.49 853.839C547.389 836.75 529.894 834.605 509.811 847.94L509.951 849.744C510.358 869.455 510.616 889.168 510.724 908.882C510.795 916.544 510.457 931.662 511.278 938.41C489.943 937.927 467.426 939.278 446.289 938.404C455.742 937.923 467.614 938.225 477.247 938.202C477.346 913.631 477.244 879.646 478.797 855.545C479.006 854.208 478.908 852.82 478.877 851.459C470.929 841.189 463.049 837.001 451.292 832.897L446.45 832.539C446.969 821.901 446.512 811.111 446.979 800.325L479.872 800.499C479.62 778.091 480.909 752.792 481.058 729.935C474.761 729.863 452.839 730.421 448.485 728.291C446.426 724.47 447.652 718.511 448.157 714.052L481.805 714.018C482 703.63 481.031 693.789 481.095 683.36C483.471 683.408 485.748 683.709 487.857 682.778C489.163 680.96 488.708 678.677 488.615 676.272C484.722 675.624 473.437 675.812 468.883 675.827L431.791 676.053C428.847 671.119 426.104 664.815 423.034 659.439C419.403 660.165 406.568 659.8 402.007 659.812C397.164 650.146 389.667 636.126 385.691 626.513Z"/><path fill="#FEFEFE" d="M507.972 729.598C592.012 729.192 676.053 729.296 760.091 729.91C760.267 757.844 759.367 785.31 758.826 813.186L758.611 817.297L756.987 938.471C732.257 939.422 675.542 938.223 647.886 938.281C647.231 938.282 647.024 936.332 646.794 935.36C637.571 901.197 613.269 909.044 590.816 892.019C582.171 885.464 574.113 869.948 568.743 860.084C567.323 858.468 565.695 855.723 564.49 853.839C547.389 836.75 529.894 834.605 509.811 847.94C509.156 835.033 508.978 817.586 509.361 804.675L509.245 800.382C508.188 776.943 508.667 753.15 507.972 729.598Z"/><path fill="#FEFEFE" d="M568.701 817.327C631.17 816.648 696.1 816.964 758.611 817.297L756.987 938.471C732.257 939.422 675.542 938.223 647.886 938.281C647.231 938.282 647.024 936.332 646.794 935.36C637.571 901.197 613.269 909.044 590.816 892.019C582.171 885.464 574.113 869.948 568.743 860.084C568.184 846.89 568.644 830.701 568.701 817.327Z"/><path fill="#FEFEFE" d="M509.361 804.675L564.342 804.735L564.49 853.839C547.389 836.75 529.894 834.605 509.811 847.94C509.156 835.033 508.978 817.586 509.361 804.675Z"/><path fill="#9C99A0" d="M509.245 800.382C528.132 800.472 550.101 799.946 568.717 800.726L568.717 813.018L758.826 813.186L758.611 817.297C696.1 816.964 631.17 816.648 568.701 817.327C568.644 830.701 568.184 846.89 568.743 860.084C567.323 858.468 565.695 855.723 564.49 853.839L564.342 804.735L509.361 804.675L509.245 800.382Z"/><path fill="#FA9386" d="M385.691 626.513C431.883 641.315 461.521 639.267 509.534 639.276L616.805 639.297L736.715 639.489C779.082 639.499 847.449 641.724 885.777 624.766C878.241 638.836 869.664 650.7 856.375 660.042L840.238 659.973C838.729 665.622 837.234 670.604 831.81 673.745C825.078 677.644 788.964 676.398 779.146 675.938L766.238 676.078L690.083 675.793C680.851 675.765 661.002 675.193 652.691 675.855L652.776 668.495L615.747 668.466L615.734 675.693C590.569 675.467 564.955 676.233 539.698 675.924C532.857 675.841 506.058 675.51 501.194 676.39C499.062 677.186 490.994 676.787 488.615 676.272C484.722 675.624 473.437 675.812 468.883 675.827L431.791 676.053C428.847 671.119 426.104 664.815 423.034 659.439C419.403 660.165 406.568 659.8 402.007 659.812C397.164 650.146 389.667 636.126 385.691 626.513Z"/><path fill="#F87171" d="M423.034 659.439L423.687 657.526C428.447 656.814 450.705 657.125 457.158 657.105L532.906 656.938L733.607 656.721C767.127 656.756 806.374 657.904 839.448 656.882C840.607 658.089 840.234 657.708 840.238 659.973C838.729 665.622 837.234 670.604 831.81 673.745C825.078 677.644 788.964 676.398 779.146 675.938L766.238 676.078L690.083 675.793C680.851 675.765 661.002 675.193 652.691 675.855L652.776 668.495L615.747 668.466L615.734 675.693C590.569 675.467 564.955 676.233 539.698 675.924C532.857 675.841 506.058 675.51 501.194 676.39C499.062 677.186 490.994 676.787 488.615 676.272C484.722 675.624 473.437 675.812 468.883 675.827L431.791 676.053C428.847 671.119 426.104 664.815 423.034 659.439Z"/><path fill="#FEFEFE" d="M501.194 676.39C506.058 675.51 532.857 675.841 539.698 675.924C564.955 676.233 590.569 675.467 615.734 675.693C615.834 688.448 615.853 701.202 615.789 713.957L507.712 713.786C507.163 702.758 508.718 694.382 508.604 683.534C506.162 683.595 504.329 683.874 502.09 682.972C500.757 680.67 501.233 679.377 501.194 676.39Z"/><path fill="#FEFEFE" d="M652.691 675.855C661.002 675.193 680.851 675.765 690.083 675.793L766.238 676.078C766.324 678.667 766.844 681.551 765.432 683.451L764.824 683.77C757.614 687.618 759.701 692.054 760.228 699.612L759.924 713.345L689.513 713.41C679.859 713.434 661.824 714.04 652.711 713.367L652.691 675.855Z"/><path fill="#40425D" d="M615.734 675.693L615.747 668.466L652.776 668.495L652.691 675.855L652.711 713.367L652.827 723.437C640.99 723.423 627.497 723.137 615.758 723.789L615.789 713.957C615.853 701.202 615.834 688.448 615.734 675.693Z"/><path fill="#FEFEFE" d="M479.872 800.499L479.822 805.141L479.308 834.532C479.264 838.666 479.404 847.768 478.877 851.459C470.929 841.189 463.049 837.001 451.292 832.897L446.45 832.539C446.969 821.901 446.512 811.111 446.979 800.325L479.872 800.499Z"/><path fill="#9C99A0" d="M479.872 800.499L479.822 805.141L451.255 804.927L451.292 832.897L446.45 832.539C446.969 821.901 446.512 811.111 446.979 800.325L479.872 800.499Z"/><path fill="#FEFEFE" d="M1162.46 478.964C1182.28 477.721 1214.29 478.647 1234.88 478.76C1235.08 490.319 1235.07 502.142 1234.95 513.715C1234.21 587.61 1236.31 662.013 1234.88 735.843L1234.99 737.042L1236.86 736.672L1237.31 737.269C1239.45 740.053 1243.24 742.631 1245.31 745.809C1257.58 764.558 1253.54 790.552 1238.12 806.286C1237.91 806.44 1237.7 806.594 1237.49 806.749C1236.01 807.236 1235.51 808.347 1234.58 809.674L1234.74 810.284C1235.04 811.82 1235.33 813.099 1235.45 814.664L1235.51 938.057L1163.04 938.112C1162.92 934.804 1162.9 928.844 1162.49 925.754C1163.24 917.672 1162.55 896.752 1162.53 887.394L1162.44 806.704L1162.05 577.254C1162.12 544.668 1161.44 511.46 1162.46 478.964Z"/><path fill="#FA9386" d="M1200.97 823.928C1189.42 808.936 1175.27 799.885 1171.43 779.233C1169.21 767.3 1170.85 756.144 1177.78 745.961C1183.87 736.997 1193.34 730.887 1204.01 729.028C1215.55 726.918 1225.34 729.182 1234.88 735.843L1234.99 737.042L1236.86 736.672L1237.31 737.269C1239.45 740.053 1243.24 742.631 1245.31 745.809C1257.58 764.558 1253.54 790.552 1238.12 806.286C1237.91 806.44 1237.7 806.594 1237.49 806.749C1236.01 807.236 1235.51 808.347 1234.58 809.674L1234.74 810.284C1226.4 819.82 1221.5 825.93 1215.48 837.41C1214.18 841.291 1212.96 845.658 1211.75 849.609C1210.66 845.285 1209.4 841.003 1207.99 836.773C1206.11 833.111 1204.24 829.153 1201.85 825.833C1201.64 824.528 1201.81 825.007 1200.97 823.928Z"/><path fill="#FCD34D" d="M1200.97 823.928C1189.42 808.936 1175.27 799.885 1171.43 779.233C1169.21 767.3 1170.85 756.144 1177.78 745.961C1183.87 736.997 1193.34 730.887 1204.01 729.028C1215.55 726.918 1225.34 729.182 1234.88 735.843L1234.99 737.042L1236.86 736.672L1237.31 737.269C1239.45 740.053 1243.24 742.631 1245.31 745.809C1257.58 764.558 1253.54 790.552 1238.12 806.286C1237.91 806.44 1237.7 806.594 1237.49 806.749C1236.01 807.236 1235.51 808.347 1234.58 809.674L1234.74 810.284C1226.4 819.82 1221.5 825.93 1215.48 837.41L1213.31 839.885L1212.68 839.689C1212.12 836.992 1213.59 834.058 1214.66 831.55C1224.31 808.955 1247.88 799.189 1248.4 771.734C1248.65 758.967 1243.44 748.79 1234.85 739.877C1225.37 733.866 1214.52 730.866 1203.38 733.356C1193.74 735.483 1185.36 741.429 1180.17 749.837C1164.56 775.429 1183.78 800.765 1200.92 818.367C1203.66 821.189 1209.83 831.358 1209.6 835.319L1207.99 836.773C1206.11 833.111 1204.24 829.153 1201.85 825.833C1201.64 824.528 1201.81 825.007 1200.97 823.928Z"/><path fill="#FEFEFE" d="M1209.31 765.069C1212.91 763.573 1217.03 765.281 1218.52 768.88C1220.01 772.48 1218.3 776.604 1214.7 778.087C1211.1 779.565 1206.99 777.855 1205.51 774.265C1204.02 770.675 1205.72 766.56 1209.31 765.069Z"/><path fill="#40425D" d="M1200.97 823.928C1201.81 825.007 1201.64 824.528 1201.85 825.833C1198.88 825.93 1185.49 826.296 1183.4 825.289C1189.45 824.205 1194.83 824.23 1200.97 823.928Z"/><path fill="#423E49" d="M1183.02 667.594C1187.11 667.184 1208.27 667.071 1211.87 667.795L1212.76 669.175C1208.62 669.622 1187.48 669.761 1183.88 668.992L1183.02 667.594Z"/><path fill="#40425D" d="M1183.43 590.265C1187.99 590.24 1209.01 589.537 1211.7 591.253L1211.12 592.281C1206.87 592.112 1185.42 592.932 1183.37 591.708L1183.43 590.265Z"/><path fill="#423E49" d="M1182.95 706.274C1187.35 705.729 1209.98 705.216 1212.45 707.701C1206.04 708.568 1191.28 707.993 1184.43 707.7C1183.62 707.666 1183.69 707.291 1182.95 706.274Z"/><path fill="#231925" d="M1183.08 903.001C1187.36 902.281 1213.76 901.748 1216.89 903.685C1212.75 904.707 1185.97 905.065 1183.08 903.001Z"/><path fill="#423E49" d="M1183.08 513.582C1189 512.808 1203.37 513.516 1209.81 513.602C1211.28 513.622 1211.14 513.959 1211.95 515.063C1208.33 515.51 1186.73 515.557 1183.88 514.984L1183.08 513.582Z"/><path fill="#231925" d="M1182.68 863.669C1186.74 862.838 1213.65 862.489 1216.67 864.048C1213.15 865.271 1185.88 865.313 1182.68 863.669Z"/><path fill="#231925" d="M1182.31 629.672C1186.07 629.031 1208.44 628.956 1211.8 629.807L1212.15 631.012C1205.49 631.032 1198.83 631.101 1192.18 631.091C1188.83 631.086 1184.87 631.736 1182.31 629.672Z"/><path fill="#231925" d="M1182.59 552.337C1186.09 551.724 1209.09 551.591 1211.87 552.445L1212.13 553.683C1205.36 553.83 1191.46 553.897 1184.15 553.551C1183.63 553.147 1183.11 552.742 1182.59 552.337Z"/><defs><linearGradient id="gradient_0" gradientUnits="userSpaceOnUse" x1="688.06927" y1="786.08185" x2="677.896" y2="976.63342"><stop offset="0" stop-color="#33354D"/><stop offset="1" stop-color="#585868"/></linearGradient></defs><path fill="url(#gradient_0)" d="M1235.45 814.664C1238.31 814.675 1242.55 814.541 1245.22 815.09L1259.35 815.29C1259.92 844.462 1259.29 873.91 1259.53 903.082C1259.57 908.528 1259.25 934.378 1260.11 938.093C1260.88 936.82 1260.96 928.949 1261.16 926.549C1261.39 930.537 1261.55 934.153 1261.58 938.146C1278.1 938.214 1301.55 937.589 1318.51 938.339C1319.22 938.984 1319.82 939.534 1320.31 939.988L1320.79 941.435C1317.78 945.679 1298.94 944.093 1293.41 944.079L1243.36 944.008L1059.64 943.925L296.035 944.498L123.666 944.526L74.4534 944.414C67.9873 944.437 43.2521 946.141 39.4969 941.759C39.3006 936.272 52.8498 938.414 57.0121 938.133C66.1349 937.135 93.0074 937.862 102.839 937.893L102.791 916.11C109.788 916.595 116.796 916.91 123.808 917.055C123.794 922.188 123.501 932.781 124.028 937.445L124.444 937.552C125.977 936.35 124.965 921.435 125.569 917.121C126.08 923.864 125.916 931.693 125.92 938.554L285.969 938.562C305.539 938.924 326.069 938.574 345.712 938.538C346.271 934.082 346.491 932.672 347.911 928.456C353.855 910.473 370.35 895.268 388.524 890.242C393.095 880.397 398.996 870.898 403.918 861.25C413.128 843.197 425.412 832.612 446.45 832.539L451.292 832.897C463.049 837.001 470.929 841.189 478.877 851.459C478.908 852.82 479.006 854.208 478.797 855.545C477.244 879.646 477.346 913.631 477.247 938.202C467.614 938.225 455.742 937.923 446.289 938.404C467.426 939.278 489.943 937.927 511.278 938.41C510.457 931.662 510.795 916.544 510.724 908.882C510.616 889.168 510.358 869.455 509.951 849.744L509.811 847.94C529.894 834.605 547.389 836.75 564.49 853.839C565.695 855.723 567.323 858.468 568.743 860.084C574.113 869.948 582.171 885.464 590.816 892.019C613.269 909.044 637.571 901.197 646.794 935.36C647.024 936.332 647.231 938.282 647.886 938.281C675.542 938.223 732.257 939.422 756.987 938.471C769.694 938.293 782.402 938.237 795.11 938.303C831.308 938.591 867.507 938.676 903.706 938.558C903.787 929.83 904.735 920.725 901.621 912.749L903.318 912.019L903.676 911.886L905.157 912.523C906.302 919.069 905.2 930.877 906.126 938.58L968.463 938.63L968.442 913.751C982.404 913.846 996.366 913.723 1010.32 913.382C1010.38 907.308 1010.53 901.235 1010.76 895.165C1011.69 898.582 1011.03 905.49 1011.96 906.12L1012.39 905.956L1012.47 913.487L1030.34 913.406L1086.53 913.434C1092.79 913.294 1097.69 914.598 1103.36 912.785C1105.1 910.86 1104.56 910.696 1104.66 907.584C1105 909.134 1105.49 911.927 1106.04 913.283C1114.58 913.512 1128.02 913.774 1136.51 913.202L1138.08 912.948C1142.11 913.751 1148.06 913.48 1152.31 913.447C1152.25 921.583 1152.07 930.026 1152.46 938.126C1155.23 938.103 1158.75 938.212 1161.41 937.755C1162.22 936.184 1162.2 928.621 1162.49 925.754C1162.9 928.844 1162.92 934.804 1163.04 938.112L1235.51 938.057L1235.45 814.664Z"/><path fill="#FCD34D" d="M446.45 832.539L451.292 832.897C463.049 837.001 470.929 841.189 478.877 851.459C478.908 852.82 479.006 854.208 478.797 855.545C477.244 879.646 477.346 913.631 477.247 938.202C467.614 938.225 455.742 937.923 446.289 938.404C446.142 933.988 445.011 930.256 448.374 927.303L446.542 926.207C445.454 924.311 445.46 911.093 446.89 908.9L446.068 907.202C446.119 903.16 446.057 899.117 445.882 895.078C444.908 892.858 444.997 891.923 444.805 889.449L443.883 893.045C443.485 899.158 443.596 910.503 442.975 915.414L442.363 917.917C443.029 920.984 442.571 934.466 442.536 938.583L347.61 938.63C348.125 934.616 348.364 932.96 349.511 929.111L347.911 928.456C353.855 910.473 370.35 895.268 388.524 890.242C393.095 880.397 398.996 870.898 403.918 861.25C413.128 843.197 425.412 832.612 446.45 832.539Z"/><path fill="#423E49" d="M446.45 832.539L451.292 832.897C463.049 837.001 470.929 841.189 478.877 851.459C478.908 852.82 479.006 854.208 478.797 855.545C462.73 833.465 436.708 825.483 415.693 847.069C409.245 853.691 394.029 881.67 390.904 890.759L390.67 891.425C390.626 891.559 390.582 891.694 390.538 891.828C371.368 896.438 356.295 910.688 349.511 929.111L347.911 928.456C353.855 910.473 370.35 895.268 388.524 890.242C393.095 880.397 398.996 870.898 403.918 861.25C413.128 843.197 425.412 832.612 446.45 832.539Z"/><path fill="#423E49" d="M442.363 917.917C437.265 913.341 424.671 902.617 421.502 897.508L422.462 897.718L422.21 898.176L422.859 897.971L423.129 898.134L423.098 898.082C429.185 902.315 437.452 910.298 442.975 915.414L442.363 917.917Z"/><path fill="#40425D" d="M443.883 893.045C443.867 887.641 442.985 870.594 445.364 867.281C446.794 869.093 445.961 891.064 445.882 895.078C444.908 892.858 444.997 891.923 444.805 889.449L443.883 893.045Z"/><path fill="#423E49" d="M446.068 907.202C449.884 905.115 463.17 898.094 467.019 898.622C465.596 901.394 450.615 907.817 446.89 908.9L446.068 907.202Z"/><path fill="#423E49" d="M446.542 926.207C449.654 924.725 453.491 922.577 456.822 922.34L457.623 922.84C455.436 925.025 451.383 926.5 448.374 927.303L446.542 926.207Z"/><path fill="#FCD34D" d="M509.811 847.94C529.894 834.605 547.389 836.75 564.49 853.839C565.695 855.723 567.323 858.468 568.743 860.084C574.113 869.948 582.171 885.464 590.816 892.019C613.269 909.044 637.571 901.197 646.794 935.36L645.007 934.546L645.015 937.733C643.292 939.033 524.261 938.909 511.278 938.41C510.457 931.662 510.795 916.544 510.724 908.882C510.616 889.168 510.358 869.455 509.951 849.744L509.811 847.94Z"/><path fill="#423E49" d="M509.811 847.94C529.894 834.605 547.389 836.75 564.49 853.839C565.695 855.723 567.323 858.468 568.743 860.084C574.113 869.948 582.171 885.464 590.816 892.019C613.269 909.044 637.571 901.197 646.794 935.36L645.007 934.546C643.023 931.262 642.314 926.604 638.97 921.942C626.135 903.481 601.978 906.312 586.744 891.226C570.845 875.482 566.807 847.904 541.953 841.903C529.685 838.941 520.094 843.273 509.951 849.744L509.811 847.94Z"/><path fill="#FEFEFE" d="M1245.22 815.09L1259.35 815.29C1259.92 844.462 1259.29 873.91 1259.53 903.082C1259.57 908.528 1259.25 934.378 1260.11 938.093L1237.7 938.062L1237.53 857.925C1237.52 848.341 1236.91 824.038 1237.92 815.921C1240.03 814.824 1242.73 815.106 1245.22 815.09Z"/><path fill="#FCD5CD" d="M102.791 916.11C109.788 916.595 116.796 916.91 123.808 917.055C123.794 922.188 123.501 932.781 124.028 937.445C123.568 937.746 123.108 938.048 122.647 938.35C107.73 937.999 69.6458 939.38 57.0121 938.133C66.1349 937.135 93.0074 937.862 102.839 937.893L102.791 916.11Z"/><path fill="#FCD34D" d="M792.583 878.451L793.335 878.201C840.223 862.37 844.942 786.803 898.475 779.555C959.972 771.228 968.047 855.725 1011.38 875.279C1011.26 880.25 1011.29 890.636 1010.76 895.165C1010.53 901.235 1010.38 907.308 1010.32 913.382C996.366 913.723 982.404 913.846 968.442 913.751L968.463 938.63L906.126 938.58C905.2 930.877 906.302 919.069 905.157 912.523L903.676 911.886L903.318 912.019L901.621 912.749C904.735 920.725 903.787 929.83 903.706 938.558C867.507 938.676 831.308 938.591 795.11 938.303C794.774 935.12 794.576 931.413 794.51 928.194C794.171 911.797 792.35 894.801 792.583 878.451Z"/><path fill="#423E49" d="M903.878 884.351C903.923 875.267 903.224 832.225 905.227 826.581C906.633 828.181 906.353 877.491 906.383 884.199C916.813 879.457 934.599 868.095 943.721 864.978C942.855 868.49 911.921 884.27 906.35 887.127C906.348 903.646 906.792 922.252 906.126 938.58C905.2 930.877 906.302 919.069 905.157 912.523L903.676 911.886C904.292 904.561 903.88 894.757 903.758 887.213C895.66 882.372 864.927 868.202 861.229 863.161C865.917 863.854 896.655 880.854 903.878 884.351Z"/><path fill="#423E49" d="M901.621 912.749C899.525 907.505 898.752 905.807 898.555 900.121L899.076 900.135C901.416 904.408 901.248 906.877 903.058 911.385L903.318 912.019L901.621 912.749Z"/><path fill="#FEFEFE" d="M1138.08 912.948C1138.69 908.659 1138.29 893.747 1138.25 888.905L1138.04 843.491L1138.31 584.586L1138.34 519.56C1138.33 497.393 1134.77 475.184 1152.11 458.631C1166.73 444.676 1187.49 447.336 1206.01 447.326L1259.57 447.338L1259.6 813.338C1253.26 813.16 1242.66 814.751 1238.03 812.255C1236.88 810.076 1237.35 809.47 1237.49 806.749C1237.7 806.594 1237.91 806.44 1238.12 806.286C1253.54 790.552 1257.58 764.558 1245.31 745.809C1243.24 742.631 1239.45 740.053 1237.31 737.269L1236.86 736.672L1234.99 737.042L1234.88 735.843C1236.31 662.013 1234.21 587.61 1234.95 513.715C1235.07 502.142 1235.08 490.319 1234.88 478.76C1214.29 478.647 1182.28 477.721 1162.46 478.964C1161.44 511.46 1162.12 544.668 1162.05 577.254L1162.44 806.704L1162.53 887.394C1162.55 896.752 1163.24 917.672 1162.49 925.754C1162.2 928.621 1162.22 936.184 1161.41 937.755C1158.75 938.212 1155.23 938.103 1152.46 938.126C1152.07 930.026 1152.25 921.583 1152.31 913.447C1148.06 913.48 1142.11 913.751 1138.08 912.948Z"/><path fill="#423E49" d="M1161.41 937.755C1160.87 934.602 1161.03 925.296 1160.97 921.557C1160.72 908.192 1160.59 894.825 1160.59 881.457L1160.48 750.835L1160.39 567.205L1160.36 513.792C1160.35 502.628 1159.88 489.549 1161.32 478.649C1164.34 475.985 1227.33 476.973 1236.67 477.033C1237.53 513.018 1236.9 551.577 1236.9 587.724L1236.86 736.672L1234.99 737.042L1234.88 735.843C1236.31 662.013 1234.21 587.61 1234.95 513.715C1235.07 502.142 1235.08 490.319 1234.88 478.76C1214.29 478.647 1182.28 477.721 1162.46 478.964C1161.44 511.46 1162.12 544.668 1162.05 577.254L1162.44 806.704L1162.53 887.394C1162.55 896.752 1163.24 917.672 1162.49 925.754C1162.2 928.621 1162.22 936.184 1161.41 937.755Z"/><path fill="#FCD34D" d="M1041.24 409.461C1051.04 409.915 1060.71 409.533 1070.42 409.842C1070.73 430.725 1071.85 451.732 1072.45 472.63C1073.66 527.614 1075.37 582.585 1077.57 637.538C1079 679.716 1079.66 722.448 1080.9 764.734C1082.33 813.783 1085.98 864.629 1086.53 913.434L1030.34 913.406C1033.98 803.065 1036.66 692.696 1038.39 582.309L1040.48 476.847C1040.93 456.321 1042.03 429.679 1041.24 409.461Z"/><path fill="#FEFEFE" d="M1027.84 409.486C1032.23 409.376 1036.83 409.454 1041.24 409.461C1042.03 429.679 1040.93 456.321 1040.48 476.847L1038.39 582.309C1036.66 692.696 1033.98 803.065 1030.34 913.406L1012.47 913.487L1012.39 905.956L1023.39 545.951C1024.56 500.453 1026.05 454.964 1027.84 409.486Z"/><path fill="#FEFEFE" d="M1070.42 409.842L1083.86 409.982C1085.16 419.974 1085.4 438.221 1085.84 448.675L1088.77 516.46L1099.8 791.413L1102.88 866.637C1103.29 877.707 1103.43 896.998 1104.66 907.584C1104.56 910.696 1105.1 910.86 1103.36 912.785C1097.69 914.598 1092.79 913.294 1086.53 913.434C1085.98 864.629 1082.33 813.783 1080.9 764.734C1079.66 722.448 1079 679.716 1077.57 637.538C1075.37 582.585 1073.66 527.614 1072.45 472.63C1071.85 451.732 1070.73 430.725 1070.42 409.842Z"/><path fill="#FEFEFE" d="M1104.45 860.89C1115.07 860.736 1125.7 860.751 1136.32 860.932L1136.51 913.202C1128.02 913.774 1114.58 913.512 1106.04 913.283C1106.54 907.918 1105.81 898.091 1105.57 892.409L1104.45 860.89Z"/><path fill="#FEFEFE" d="M999.855 394.718C1001.67 393.33 1026.19 392.064 1030.49 391.83C1058.01 390.332 1085.54 391.653 1112.97 394.113C1085.31 415.452 1060.66 406.096 1028.43 407.731C1023.19 407.996 1003.53 398.51 999.855 394.718Z"/><path fill="#FCD34D" d="M1267.72 814.803C1278.55 814.131 1287.47 816.372 1295.18 824.512C1301.05 830.652 1304.18 838.922 1303.83 847.416C1303.41 857.906 1298.63 864.602 1291.25 871.43C1290.25 872.101 1289.24 872.747 1288.21 873.368C1279.68 878.481 1270.51 877.909 1261.29 875.6C1261.13 867.381 1260.08 821.923 1261.76 816.873C1263.46 815.344 1265.39 815.265 1267.72 814.803Z"/><path fill="#FA9386" d="M266.97 689.285L270.606 689.362C292.001 703.393 299.927 707.92 324.7 715.139C305.346 722.94 291.37 722.236 271.033 722.054C271.213 739.169 271.144 756.286 270.826 773.399L286.24 773.349L286.52 894.228C286.487 908.789 285.772 924.254 285.969 938.562L125.92 938.554C125.916 931.693 126.08 923.864 125.569 917.121C124.965 921.435 125.977 936.35 124.444 937.552L124.028 937.445C123.501 932.781 123.794 922.188 123.808 917.055C116.796 916.91 109.788 916.595 102.791 916.11C82.3782 913.176 62.2811 906.483 55.0327 884.95C44.2165 852.818 55.0875 811.584 68.2201 781.503C76.5733 762.369 93.5707 739.596 113.612 732.499C125.848 728.486 134.043 730.258 145.16 735.664C145.38 731.72 145.274 726.586 145.311 722.546C140.588 722.657 121.917 723.262 118.107 722.227C106.008 722.036 99.8051 718.971 89.4142 713.604C118.161 709.212 125.683 699.689 149.005 689.344L152.034 689.336L176.536 689.351L181.775 689.351L206.411 689.34L211.702 689.347L236.885 689.351L241.814 689.361L266.97 689.285Z"/><path fill="#423E49" d="M102.791 916.11C82.3782 913.176 62.2811 906.483 55.0327 884.95C44.2165 852.818 55.0875 811.584 68.2201 781.503C76.5733 762.369 93.5707 739.596 113.612 732.499C125.848 728.486 134.043 730.258 145.16 735.664C148.752 738.017 152.496 740.395 155.974 742.894C164.836 750.783 169.933 757.385 176.085 767.382C179.326 773.997 184.81 782.6 187.238 789.201C197.376 816.772 206.615 851.167 197.583 880.07C187.993 910.758 153.546 916.02 125.569 917.121C124.965 921.435 125.977 936.35 124.444 937.552L124.028 937.445C123.501 932.781 123.794 922.188 123.808 917.055C116.796 916.91 109.788 916.595 102.791 916.11Z"/><path fill="#FEFEFE" d="M124.056 732.235C171.408 732.233 197.549 810.94 199.318 849.648C201.716 902.131 169.971 913.48 125.805 915.309C125.699 904.916 125.682 894.522 125.755 884.129C137.284 873.459 150.582 862.447 161.28 851.027L161.299 850.147L161.636 850.011C156.212 852.185 133.303 874.922 125.717 881.005C125.222 856.477 125.613 830.739 125.82 806.165C125.875 802.664 126.532 784.148 125.146 782.65C123.068 785.872 123.906 799.567 123.899 804.208L123.594 839.92C116.423 834.207 104.51 821.651 97.4582 818.727C97.6202 820.484 120.256 839.804 123.545 843.027C124.52 865.291 123.944 892.694 123.865 915.182C88.7395 914.487 58.1386 909.907 53.2529 868.191C48.2776 825.71 74.8819 737.911 124.056 732.235Z"/><path fill="#412A3B" d="M266.97 689.285L270.606 689.362C292.001 703.393 299.927 707.92 324.7 715.139C305.346 722.94 291.37 722.236 271.033 722.054C220.468 721.964 168.628 721.501 118.107 722.227C106.008 722.036 99.8051 718.971 89.4142 713.604C118.161 709.212 125.683 699.689 149.005 689.344L152.034 689.336L176.536 689.351L181.775 689.351L206.411 689.34L211.702 689.347L236.885 689.351L241.814 689.361L266.97 689.285Z"/><path fill="#FA9386" d="M148.756 691.41C162.265 690.896 177.593 691.219 191.206 691.205L270.297 691.213C286.815 701.688 300.433 710.376 319.586 715.374C297.934 721.779 288.921 720.755 266.731 720.537L166.692 720.598C144.209 720.685 115.341 723.652 95.1097 714.529C118.116 709.457 128.699 701.092 148.756 691.41Z"/><path fill="#FCD5CD" d="M155.974 742.894C161.006 742.182 170.63 742.523 176.077 742.592C176.145 747.999 176.718 762.822 176.085 767.382C169.933 757.385 164.836 750.783 155.974 742.894Z"/><path fill="#FCD5CD" d="M211.412 742.673L236.636 742.671L236.652 773.319L211.402 773.352C211.181 763.319 211.38 752.747 211.412 742.673Z"/><path fill="#FCD5CD" d="M241.744 742.889L267.055 743.31L266.972 773.366L241.562 773.244C241.404 763.126 241.465 753.005 241.744 742.889Z"/><path fill="#FCD5CD" d="M181.929 742.608L206.385 742.61C206.524 752.829 206.511 763.049 206.344 773.267C198.475 773.532 189.907 773.339 181.981 773.304L181.929 742.608Z"/><path fill="#FCD34D" d="M562.824 451.553L642.802 451.561C675.234 451.564 701.712 446.494 722.39 477.2C729.454 482.738 732.812 492.381 733.989 501.129C737.888 530.094 718.889 556.971 689.317 560.293C683.707 560.923 677.031 560.523 671.277 560.538L638.362 560.632C598.115 560.841 557.868 560.673 517.624 560.13C492.52 560.026 467.415 560.107 442.312 560.372C428.902 560.41 413.674 560.594 400.459 559.546C391.264 558.817 370.726 550.719 365.811 542.37C354.33 531.558 346.825 520.462 346.411 504.002C346.107 489.905 351.463 476.273 361.283 466.156C380.227 446.739 404.228 452.503 428.737 451.701C432.28 451.585 435.908 451.702 439.462 451.695L558.689 451.83C558.948 454.671 558.49 454.407 559.923 456.374L561.238 456.285C562.953 453.998 562.423 454.738 562.824 451.553Z"/><path fill="#E5E7EB" d="M722.39 477.2C729.454 482.738 732.812 492.381 733.989 501.129C737.888 530.094 718.889 556.971 689.317 560.293C683.707 560.923 677.031 560.523 671.277 560.538L638.362 560.632C598.115 560.841 557.868 560.673 517.624 560.13C492.52 560.026 467.415 560.107 442.312 560.372C428.902 560.41 413.674 560.594 400.459 559.546C391.264 558.817 370.726 550.719 365.811 542.37C378.145 549.484 383.616 552.529 398.055 552.972C415.784 553.516 433.43 553.383 451.164 553.431L552.439 553.411L641.191 553.62C654.494 553.57 667.898 553.683 681.063 553.162C713.773 551.868 734.464 521.812 727.077 490.637C725.879 485.581 724.354 481.907 722.39 477.2Z"/><path fill="#FA9386" d="M149.394 460.461L228.497 460.265C240.002 460.241 259.939 459.608 270.783 460.52C270.868 478.053 271.362 495.699 271.121 513.201C291.406 524.458 305.111 532.705 328.31 536.655C314.36 543.882 304.916 547.467 288.773 547.485C282.692 547.896 277.288 547.885 271.202 547.877C270.794 563.947 271.407 585.255 270.552 600.567L267.299 600.419C259.262 600.727 250.189 600.548 242.074 600.562L236.03 600.568L205.959 600.544L181.974 600.593L176.327 600.604L152.523 600.797L149.132 600.977C149.568 584.157 149.266 564.762 149.034 547.923C142.727 547.943 133.633 548.216 127.622 547.48C114.247 547.361 102.477 542.786 91.3318 535.652C113.564 534.904 130.929 523.268 149.422 512.75L149.394 460.461Z"/><path fill="#FA9386" d="M149.394 460.461L228.497 460.265C240.002 460.241 259.939 459.608 270.783 460.52C270.868 478.053 271.362 495.699 271.121 513.201C270.223 512.963 268.392 512.869 267.389 512.779C261.773 513.632 248.881 513.282 242.668 513.268L238.248 513.307L237.214 513.24L211.986 513.289L206.988 513.284L182.122 513.239L177.166 513.249L153.897 513.261L149.422 512.75L149.394 460.461Z"/><path fill="#FCD5CD" d="M211.991 481.956L237.273 481.985C237.347 492.291 237.573 502.97 237.214 513.24L211.986 513.289C211.916 502.845 211.918 492.4 211.991 481.956Z"/><path fill="#FCD5CD" d="M242.573 481.857C250.702 481.864 259.247 481.731 267.337 481.897L267.389 512.779C261.773 513.632 248.881 513.282 242.668 513.268L242.418 512.624C242.13 502.559 242.435 491.963 242.573 481.857Z"/><path fill="#FCD5CD" d="M182.209 481.886C190.243 481.904 198.871 481.762 206.854 481.985C206.856 492.276 206.699 503.032 206.988 513.284L182.122 513.239L182.209 481.886Z"/><path fill="#FCD5CD" d="M153.293 481.858L177.165 481.822C177.221 492.155 177.438 502.955 177.166 513.249L153.897 513.261C152.645 510.437 153.241 487.074 153.293 481.858Z"/><path fill="#F87171" d="M238.248 513.307C238.163 507.994 236.435 484.011 240.352 481.621C243.846 484.388 239.905 506.57 242.418 512.624L242.668 513.268L238.248 513.307Z"/><path fill="#412A3B" d="M267.389 512.779C268.392 512.869 270.223 512.963 271.121 513.201C291.406 524.458 305.111 532.705 328.31 536.655C314.36 543.882 304.916 547.467 288.773 547.485C281.856 547.245 274.295 547.327 267.343 547.46C220.852 548.35 174.062 546.984 127.622 547.48C114.247 547.361 102.477 542.786 91.3318 535.652C113.564 534.904 130.929 523.268 149.422 512.75L153.897 513.261L177.166 513.249L182.122 513.239L206.988 513.284L211.986 513.289L237.214 513.24L238.248 513.307L242.668 513.268C248.881 513.282 261.773 513.632 267.389 512.779Z"/><path fill="#FA9386" d="M149.297 514.762C176.813 515.577 204.959 514.365 232.543 514.83C244.97 515.039 258.086 515.236 270.464 514.776C287.876 524.812 303.022 533.1 322.7 537.376C305.543 547.137 289.278 546.034 270.434 545.936L171.809 545.85C155.129 545.886 136.614 546.643 120.094 545.223C113.376 544.645 103.663 540.3 97.6674 537.264C118.143 532.789 131.474 525.259 149.297 514.762Z"/><path fill="#FCD5CD" d="M241.946 571.164C250.295 571.131 258.96 570.975 267.281 571.105L267.299 600.419C259.262 600.727 250.189 600.548 242.074 600.562L241.821 600.265L241.946 571.164Z"/><path fill="#FCD5CD" d="M211.706 571.254C217.409 571.292 231.529 571.652 236.539 570.792C236.593 575.483 237.094 596.979 236.159 600.158L211.573 600.364C211.487 590.661 211.532 580.956 211.706 571.254Z"/><path fill="#FCD5CD" d="M181.976 571.23L206.353 571.172C206.393 575.411 206.857 598 205.959 600.544L181.974 600.593L181.976 571.23Z"/><path fill="#FCD5CD" d="M152.568 571.04C160.41 571.011 168.472 570.877 176.291 570.956L176.327 600.604L152.523 600.797L152.568 571.04Z"/><path fill="#F87171" d="M236.539 570.792C238.879 569.885 237.726 569.963 240.115 570.452C242.987 574.819 239.441 594.804 241.821 600.265L242.074 600.562L236.03 600.568L236.159 600.158C237.094 596.979 236.593 575.483 236.539 570.792Z"/><path fill="#FA9386" d="M267.299 600.419L270.552 600.567C283.621 608.744 297.619 617.447 312.707 621.22C315.034 621.802 323.894 623.541 324.627 624.892C319.368 629.36 302.777 633.266 295.912 634.184C291.736 635.142 275.615 634.661 270.69 634.591C270.795 652.848 270.767 671.105 270.606 689.362L266.97 689.285L241.814 689.361L236.885 689.351L211.702 689.347L206.411 689.34L181.775 689.351L176.536 689.351L152.034 689.336L149.005 689.344C148.146 674.911 148.899 649.47 149.009 634.638C145.063 634.621 142.219 634.491 138.289 634.145C114.23 633.99 114.142 633.534 92.2617 623.899C116.138 621.547 129.016 611.746 149.132 600.977L152.523 600.797L176.327 600.604L181.974 600.593L205.959 600.544L236.03 600.568L242.074 600.562C250.189 600.548 259.262 600.727 267.299 600.419Z"/><path fill="#231925" d="M267.299 600.419L270.552 600.567C283.621 608.744 297.619 617.447 312.707 621.22C315.034 621.802 323.894 623.541 324.627 624.892C319.368 629.36 302.777 633.266 295.912 634.184C292.48 633.757 282.669 634.019 278.818 634.031L245.702 634.122L138.289 634.145C114.23 633.99 114.142 633.534 92.2617 623.899C116.138 621.547 129.016 611.746 149.132 600.977L152.523 600.797L176.327 600.604L181.974 600.593L205.959 600.544L236.03 600.568L242.074 600.562C250.189 600.548 259.262 600.727 267.299 600.419Z"/><path fill="#FA9386" d="M180.793 602.333C190.809 601.745 203.939 602.115 214.161 602.126L270.219 602.085C285.841 611.697 302.654 622.24 321.093 625.113C302.112 633.722 290.431 632.804 270.499 632.641L237.609 632.51L159.802 632.654C146.249 632.675 130.616 633.267 117.283 631.741C111.797 631.113 102.746 626.908 97.5061 624.554C111.126 623.19 124.144 616.815 135.982 610.225C143.39 606.005 148.202 602.242 157.113 602.272C165.001 602.298 172.927 602.28 180.793 602.333Z"/><path fill="#FCD5CD" d="M241.865 657.473C250.172 657.48 258.604 657.406 266.897 657.497C266.908 667.811 266.725 679.035 266.97 689.285L241.814 689.361L241.865 657.473Z"/><path fill="#FCD5CD" d="M211.848 657.612C220.122 657.634 228.597 657.554 236.851 657.681L236.885 689.351L211.702 689.347L211.848 657.612Z"/><path fill="#FCD5CD" d="M152.133 657.524L176.595 657.571L176.536 689.351L152.034 689.336L152.133 657.524Z"/><path fill="#FCD5CD" d="M181.879 657.863L206.51 657.877L206.411 689.34L181.775 689.351L181.879 657.863Z"/><path fill="#412A3B" d="M208.657 247.738C208.626 242.513 207.905 213.585 209.502 210.973L210.133 211.055C211.115 217.886 210.626 239.738 210.615 247.73C213.224 248.743 216.437 249.92 217.519 252.776C220.038 259.425 218.643 331.525 218.668 345.075C225.859 353.774 224.703 361.296 218.606 369.945C226.758 374.82 224.61 378.212 223.774 387.05C232.032 392.588 231.009 396.484 230.046 405.702C235.908 406.189 246.007 412.568 251.636 415.328C275.668 427.112 300.359 444.129 327.348 447.481C304.449 459.958 296.354 461.173 270.783 460.52C259.939 459.608 240.002 460.241 228.497 460.265L149.394 460.461C128.537 460.468 113.464 460.779 94.038 450.177C117.529 446.103 145.385 426.787 167.026 416.206C174.666 412.47 180.884 407.717 189.546 405.089C189.033 397.274 187.476 391.765 195.708 387.78C195.37 380.225 193.1 372.671 201.859 370.391C195.285 361.556 192.579 354.006 201.268 344.997L201.115 286.881C201.092 276.461 200.849 265.843 201.447 255.439C201.716 250.752 204.35 248.971 208.657 247.738Z"/><path fill="#FA9386" d="M199.128 407.667C203.723 407.645 229.266 407.331 232.176 408.318C247.916 413.657 268.002 426.509 283.476 434.046C297.761 441.004 305.765 444.333 320.567 449.27C312.749 453.66 304.207 456.613 295.347 457.991C286.18 459.434 272.833 458.835 263.27 458.74C249.945 458.638 236.62 458.609 223.294 458.652L159.817 458.666C137.304 458.659 120.783 460.448 99.4757 450.707C120.619 446.335 146.282 428.096 165.927 418.756C180.3 411.922 181.912 407.47 199.128 407.667Z"/><path fill="#FA9386" d="M207.18 249.175C213.191 249.678 216.154 250.979 216.562 257.618C217.191 267.853 217.058 278.233 217.091 288.495L217.308 346.393C218.637 348.03 219.929 349.943 221.158 351.677C221.812 358.601 221.806 368.672 213.331 370.438L212.315 370.416C199.052 370.09 197.673 362.975 197.992 351.424C199.389 349.847 201.049 348.278 202.558 346.788L202.644 264.228C202.675 256.332 201.838 254.483 207.18 249.175Z"/><path fill="#FCD34D" d="M198.988 388.79C206.353 388.699 220.939 386.544 226.217 391.757C229.676 395.172 228.681 401.145 228.353 405.693C225.552 405.86 221.981 405.8 219.113 405.832L191.705 405.634C189.928 396.779 189.652 392.121 198.988 388.79Z"/><path fill="#FA9386" d="M200.868 372.034C205.313 372.185 215.96 371.491 219.284 372.417C223.137 375.476 223.604 382.682 221.421 386.671L219.705 387.112C212.444 387.302 204.734 387.131 197.435 387.083C197.17 381.561 195.414 374.643 200.868 372.034Z"/><path fill="#40425D" d="M1056.13 275.586C1056.36 268.021 1055.26 223.412 1057.23 220.046C1058.56 232.9 1057.81 261.189 1057.81 275.27C1063.64 280.15 1068.34 286.738 1068.36 294.345C1068.39 303.688 1069.44 329.404 1068.08 337.334C1072.71 337.547 1077.29 338.313 1081.74 339.615C1089.65 341.852 1130.74 356.373 1132.27 363.494C1129.84 368.697 1117.01 392.53 1114.19 395.736L1112.97 394.113C1085.54 391.653 1058.01 390.332 1030.49 391.83C1026.19 392.064 1001.67 393.33 999.855 394.718L999.009 397.287C996.508 395.391 980.286 364.197 980.122 361.854C985.441 355.685 1020.21 343.816 1029.69 340.506C1032.71 339.448 1042.69 337.635 1046.28 336.984C1046.37 325.835 1045.98 312.484 1046.48 301.566C1046.26 293.218 1045.63 286.184 1051.9 279.511C1053.23 278.121 1054.64 276.81 1056.13 275.586Z"/><path fill="#FEFEFE" d="M1048.07 338.917C1054.59 338.63 1061.79 338.472 1068.31 338.83C1084.91 340.608 1105.48 350.412 1121.14 357.029C1124.16 358.304 1129.17 360.677 1130.31 363.814C1128.34 365.982 1122.22 364.223 1119.3 363.754C1085.47 358.316 1050.64 358.929 1016.54 361.065C1004.38 361.826 992.037 363.825 979.845 364.911C991.954 353.742 1031.45 340.724 1048.07 338.917Z"/><path fill="#FEFEFE" d="M1056.13 275.586C1056.36 268.021 1055.26 223.412 1057.23 220.046C1058.56 232.9 1057.81 261.189 1057.81 275.27C1063.64 280.15 1068.34 286.738 1068.36 294.345C1068.39 303.688 1069.44 329.404 1068.08 337.334L1068.31 338.83C1061.79 338.472 1054.59 338.63 1048.07 338.917L1048.1 337.496C1047.81 334.208 1047.82 329.25 1047.69 325.777C1045.52 320.363 1047.66 308.257 1046.48 301.566C1046.26 293.218 1045.63 286.184 1051.9 279.511C1053.23 278.121 1054.64 276.81 1056.13 275.586Z"/><path fill="#231925" d="M1056.13 275.586C1056.36 268.021 1055.26 223.412 1057.23 220.046C1058.56 232.9 1057.81 261.189 1057.81 275.27C1063.64 280.15 1068.34 286.738 1068.36 294.345C1068.39 303.688 1069.44 329.404 1068.08 337.334L1068.31 338.83C1061.79 338.472 1054.59 338.63 1048.07 338.917L1048.1 337.496C1053.68 337.12 1061.28 337.256 1067.01 337.203C1067.05 327.205 1067.09 317.205 1067.1 307.207C1067.12 297.413 1068.24 282.152 1057.08 277.563C1044.77 277.803 1047.75 316.855 1047.69 325.777C1045.52 320.363 1047.66 308.257 1046.48 301.566C1046.26 293.218 1045.63 286.184 1051.9 279.511C1053.23 278.121 1054.64 276.81 1056.13 275.586Z"/><path fill="#FA9386" d="M558.689 451.83C554.138 434.15 542.047 426.678 529.818 413.112C506.914 387.704 515.965 348.269 549.572 338.479C559.86 335.482 573.341 337.139 582.938 342.95C593.263 349.318 600.559 359.609 603.149 371.463C612.357 411.714 566.213 424.61 562.824 451.553C562.423 454.738 562.953 453.998 561.238 456.285L559.923 456.374C558.49 454.407 558.948 454.671 558.689 451.83Z"/><path fill="#FEFEFE" d="M558.066 370.501C563.17 369.339 568.244 372.554 569.375 377.666C570.506 382.777 567.262 387.834 562.145 388.934C557.071 390.026 552.068 386.814 550.946 381.745C549.825 376.677 553.005 371.654 558.066 370.501Z"/><path fill="#FA9386" d="M908.009 420.804C931.912 418.19 951.198 432.843 955.359 456.438C960.045 478.755 943.891 495.046 930.24 510.341C918.699 523.271 914.963 524.964 914.438 542.832C914.421 544.493 914.134 545.176 912.851 546.073C909.108 543.454 911.301 536.358 910.138 532.309C903.856 510.444 874.256 496.207 870.371 473.348C865.954 447.359 882.362 425.635 908.009 420.804Z"/><path fill="#FEFEFE" d="M910.475 453.971C915.301 452.807 920.179 455.682 921.501 460.467C922.822 465.253 920.111 470.224 915.372 471.703C912.165 472.703 908.668 471.876 906.249 469.545C903.83 467.214 902.873 463.749 903.753 460.507C904.633 457.264 907.21 454.759 910.475 453.971Z"/><path fill="#FCD34D" d="M947.202 578.092C950.118 577.869 953.436 577.598 956.338 577.751C967.605 578.298 978.184 583.332 985.717 591.729C991.317 597.974 993.811 604.845 995.73 612.75C1005.01 650.975 957.706 667.641 956.128 697.169C955.961 699.629 956.339 702.782 953.697 703.502C952.002 699.945 953.757 690.885 949.463 683.573C939.537 666.229 917.564 651.986 912.855 632.144C906.787 606.578 921.924 583.821 947.202 578.092Z"/><path fill="#FEFEFE" d="M951.515 611.142C956.697 610.045 961.785 613.366 962.868 618.553C963.95 623.74 960.615 628.819 955.427 629.888C950.259 630.952 945.205 627.632 944.127 622.466C943.049 617.3 946.353 612.235 951.515 611.142Z"/><path fill="#9C99A0" d="M337.303 739.981L380.454 739.801L380.038 841.258C380.024 854.441 379.902 867.828 380.278 881.004C380.338 883.13 380.109 883.458 378.971 884.609L377.181 884.317C375.171 881.215 376.42 847.005 376.425 840.804L376.322 744.651L364.078 744.56C356.674 744.394 349.27 744.285 341.865 744.234L341.808 847.769C341.835 863.574 342.036 879.711 341.911 895.525C341.891 898.066 341.563 900.763 339.646 902.424L338.374 901.804C336.539 897.565 337.436 754.076 337.303 739.981Z"/></svg>